<svg width="671" height="486" viewBox="0 0 671 486" fill="none" xmlns="http://www.w3.org/2000/svg">
<mask id="mask0_12_2370" style="mask-type:luminance" maskUnits="userSpaceOnUse" x="0" y="0" width="671" height="486">
<path d="M670.173 0H0V485.173H670.173V0Z" fill="white"/>
</mask>
<g mask="url(#mask0_12_2370)">
<path d="M30.4624 242.587L51.471 195.109L72.4795 149.851L93.4881 108.93L114.497 74.2577L135.505 47.4566L156.514 29.7797L177.522 22.0533L198.531 24.6389L219.54 37.4154L240.548 59.7856L261.557 90.7033L282.565 128.723L303.574 172.067L324.582 218.708L345.591 266.466L366.6 313.107L387.608 356.451L408.617 394.47L429.625 425.388L450.634 447.758L471.642 460.534L492.651 463.12L513.66 455.394L534.668 437.717L555.677 410.916L576.685 376.244L597.694 335.322L618.702 290.064L639.711 242.587" stroke="#35B5FE" stroke-width="4" stroke-linecap="square"/>
</g>
<mask id="mask1_12_2370" style="mask-type:luminance" maskUnits="userSpaceOnUse" x="0" y="0" width="671" height="486">
<path d="M670.173 0H0V485.173H670.173V0Z" fill="white"/>
</mask>
<g mask="url(#mask1_12_2370)">
<path d="M30.4624 246.587C31.5232 246.587 32.5407 246.165 33.2908 245.415C34.0409 244.665 34.4624 243.647 34.4624 242.587C34.4624 241.526 34.0409 240.508 33.2908 239.758C32.5407 239.008 31.5232 238.587 30.4624 238.587C29.4016 238.587 28.3841 239.008 27.634 239.758C26.8839 240.508 26.4624 241.526 26.4624 242.587C26.4624 243.647 26.8839 244.665 27.634 245.415C28.3841 246.165 29.4016 246.587 30.4624 246.587Z" fill="#35B5FE" stroke="#35B5FE" stroke-width="1.33333"/>
<path d="M51.4709 199.109C52.5318 199.109 53.5493 198.687 54.2994 197.937C55.0495 197.187 55.4709 196.17 55.4709 195.109C55.4709 194.048 55.0495 193.031 54.2994 192.28C53.5493 191.53 52.5318 191.109 51.4709 191.109C50.4101 191.109 49.3926 191.53 48.6425 192.28C47.8924 193.031 47.4709 194.048 47.4709 195.109C47.4709 196.17 47.8924 197.187 48.6425 197.937C49.3926 198.687 50.4101 199.109 51.4709 199.109Z" fill="#35B5FE" stroke="#35B5FE" stroke-width="1.33333"/>
<path d="M72.4796 153.851C73.5404 153.851 74.5579 153.43 75.308 152.68C76.0581 151.929 76.4796 150.912 76.4796 149.851C76.4796 148.79 76.0581 147.773 75.308 147.023C74.5579 146.273 73.5404 145.851 72.4796 145.851C71.4187 145.851 70.4012 146.273 69.6511 147.023C68.901 147.773 68.4796 148.79 68.4796 149.851C68.4796 150.912 68.901 151.929 69.6511 152.68C70.4012 153.43 71.4187 153.851 72.4796 153.851Z" fill="#35B5FE" stroke="#35B5FE" stroke-width="1.33333"/>
<path d="M93.4881 112.93C94.5489 112.93 95.5664 112.508 96.3165 111.758C97.0666 111.008 97.4881 109.99 97.4881 108.93C97.4881 107.869 97.0666 106.851 96.3165 106.101C95.5664 105.351 94.5489 104.93 93.4881 104.93C92.4273 104.93 91.4098 105.351 90.6597 106.101C89.9096 106.851 89.4881 107.869 89.4881 108.93C89.4881 109.99 89.9096 111.008 90.6597 111.758C91.4098 112.508 92.4273 112.93 93.4881 112.93Z" fill="#35B5FE" stroke="#35B5FE" stroke-width="1.33333"/>
<path d="M114.497 78.2577C115.558 78.2577 116.575 77.8362 117.325 77.0861C118.075 76.336 118.497 75.3185 118.497 74.2577C118.497 73.1969 118.075 72.1794 117.325 71.4293C116.575 70.6792 115.558 70.2577 114.497 70.2577C113.436 70.2577 112.418 70.6792 111.668 71.4293C110.918 72.1794 110.497 73.1969 110.497 74.2577C110.497 75.3185 110.918 76.336 111.668 77.0861C112.418 77.8362 113.436 78.2577 114.497 78.2577Z" fill="#35B5FE" stroke="#35B5FE" stroke-width="1.33333"/>
<path d="M135.505 51.4567C136.566 51.4567 137.584 51.0352 138.334 50.2851C139.084 49.535 139.505 48.5175 139.505 47.4567C139.505 46.3959 139.084 45.3783 138.334 44.6282C137.584 43.8781 136.566 43.4567 135.505 43.4567C134.444 43.4567 133.427 43.8781 132.677 44.6282C131.927 45.3783 131.505 46.3959 131.505 47.4567C131.505 48.5175 131.927 49.535 132.677 50.2851C133.427 51.0352 134.444 51.4567 135.505 51.4567Z" fill="#35B5FE" stroke="#35B5FE" stroke-width="1.33333"/>
<path d="M156.514 33.7797C157.575 33.7797 158.592 33.3582 159.342 32.6081C160.092 31.858 160.514 30.8405 160.514 29.7797C160.514 28.7189 160.092 27.7014 159.342 26.9513C158.592 26.2012 157.575 25.7797 156.514 25.7797C155.453 25.7797 154.435 26.2012 153.685 26.9513C152.935 27.7014 152.514 28.7189 152.514 29.7797C152.514 30.8405 152.935 31.858 153.685 32.6081C154.435 33.3582 155.453 33.7797 156.514 33.7797Z" fill="#35B5FE" stroke="#35B5FE" stroke-width="1.33333"/>
<path d="M177.522 26.0533C178.583 26.0533 179.601 25.6319 180.351 24.8818C181.101 24.1317 181.522 23.1142 181.522 22.0533C181.522 20.9925 181.101 19.975 180.351 19.2249C179.601 18.4748 178.583 18.0533 177.522 18.0533C176.462 18.0533 175.444 18.4748 174.694 19.2249C173.944 19.975 173.522 20.9925 173.522 22.0533C173.522 23.1142 173.944 24.1317 174.694 24.8818C175.444 25.6319 176.462 26.0533 177.522 26.0533Z" fill="#35B5FE" stroke="#35B5FE" stroke-width="1.33333"/>
<path d="M198.531 28.6389C199.592 28.6389 200.609 28.2174 201.359 27.4673C202.109 26.7172 202.531 25.6997 202.531 24.6389C202.531 23.5781 202.109 22.5606 201.359 21.8105C200.609 21.0604 199.592 20.6389 198.531 20.6389C197.47 20.6389 196.453 21.0604 195.703 21.8105C194.952 22.5606 194.531 23.5781 194.531 24.6389C194.531 25.6997 194.952 26.7172 195.703 27.4673C196.453 28.2174 197.47 28.6389 198.531 28.6389Z" fill="#35B5FE" stroke="#35B5FE" stroke-width="1.33333"/>
<path d="M219.54 41.4154C220.6 41.4154 221.618 40.994 222.368 40.2439C223.118 39.4938 223.54 38.4762 223.54 37.4154C223.54 36.3546 223.118 35.3371 222.368 34.587C221.618 33.8369 220.6 33.4154 219.54 33.4154C218.479 33.4154 217.461 33.8369 216.711 34.587C215.961 35.3371 215.54 36.3546 215.54 37.4154C215.54 38.4762 215.961 39.4938 216.711 40.2439C217.461 40.994 218.479 41.4154 219.54 41.4154Z" fill="#35B5FE" stroke="#35B5FE" stroke-width="1.33333"/>
<path d="M240.548 63.7856C241.609 63.7856 242.626 63.3641 243.377 62.614C244.127 61.8639 244.548 60.8464 244.548 59.7856C244.548 58.7248 244.127 57.7073 243.377 56.9572C242.626 56.207 241.609 55.7856 240.548 55.7856C239.487 55.7856 238.47 56.207 237.72 56.9572C236.97 57.7073 236.548 58.7248 236.548 59.7856C236.548 60.8464 236.97 61.8639 237.72 62.614C238.47 63.3641 239.487 63.7856 240.548 63.7856Z" fill="#35B5FE" stroke="#35B5FE" stroke-width="1.33333"/>
<path d="M261.557 94.7032C262.617 94.7032 263.635 94.2818 264.385 93.5317C265.135 92.7816 265.557 91.7641 265.557 90.7032C265.557 89.6424 265.135 88.6249 264.385 87.8748C263.635 87.1247 262.617 86.7032 261.557 86.7032C260.496 86.7032 259.478 87.1247 258.728 87.8748C257.978 88.6249 257.557 89.6424 257.557 90.7032C257.557 91.7641 257.978 92.7816 258.728 93.5317C259.478 94.2818 260.496 94.7032 261.557 94.7032Z" fill="#35B5FE" stroke="#35B5FE" stroke-width="1.33333"/>
<path d="M282.565 132.723C283.626 132.723 284.644 132.301 285.394 131.551C286.144 130.801 286.565 129.784 286.565 128.723C286.565 127.662 286.144 126.645 285.394 125.894C284.644 125.144 283.626 124.723 282.565 124.723C281.504 124.723 280.487 125.144 279.737 125.894C278.987 126.645 278.565 127.662 278.565 128.723C278.565 129.784 278.987 130.801 279.737 131.551C280.487 132.301 281.504 132.723 282.565 132.723Z" fill="#35B5FE" stroke="#35B5FE" stroke-width="1.33333"/>
<path d="M303.574 176.067C304.635 176.067 305.652 175.645 306.402 174.895C307.152 174.145 307.574 173.127 307.574 172.067C307.574 171.006 307.152 169.988 306.402 169.238C305.652 168.488 304.635 168.067 303.574 168.067C302.513 168.067 301.495 168.488 300.745 169.238C299.995 169.988 299.574 171.006 299.574 172.067C299.574 173.127 299.995 174.145 300.745 174.895C301.495 175.645 302.513 176.067 303.574 176.067Z" fill="#35B5FE" stroke="#35B5FE" stroke-width="1.33333"/>
<path d="M324.582 222.708C325.643 222.708 326.661 222.286 327.411 221.536C328.161 220.786 328.582 219.769 328.582 218.708C328.582 217.647 328.161 216.629 327.411 215.879C326.661 215.129 325.643 214.708 324.582 214.708C323.522 214.708 322.504 215.129 321.754 215.879C321.004 216.629 320.582 217.647 320.582 218.708C320.582 219.769 321.004 220.786 321.754 221.536C322.504 222.286 323.522 222.708 324.582 222.708Z" fill="#35B5FE" stroke="#35B5FE" stroke-width="1.33333"/>
<path d="M345.591 270.466C346.652 270.466 347.669 270.044 348.419 269.294C349.169 268.544 349.591 267.526 349.591 266.466C349.591 265.405 349.169 264.387 348.419 263.637C347.669 262.887 346.652 262.466 345.591 262.466C344.53 262.466 343.513 262.887 342.763 263.637C342.012 264.387 341.591 265.405 341.591 266.466C341.591 267.526 342.012 268.544 342.763 269.294C343.513 270.044 344.53 270.466 345.591 270.466Z" fill="#35B5FE" stroke="#35B5FE" stroke-width="1.33333"/>
<path d="M366.6 317.107C367.66 317.107 368.678 316.685 369.428 315.935C370.178 315.185 370.6 314.168 370.6 313.107C370.6 312.046 370.178 311.028 369.428 310.278C368.678 309.528 367.66 309.107 366.6 309.107C365.539 309.107 364.521 309.528 363.771 310.278C363.021 311.028 362.6 312.046 362.6 313.107C362.6 314.168 363.021 315.185 363.771 315.935C364.521 316.685 365.539 317.107 366.6 317.107Z" fill="#35B5FE" stroke="#35B5FE" stroke-width="1.33333"/>
<path d="M387.608 360.451C388.669 360.451 389.686 360.029 390.437 359.279C391.187 358.529 391.608 357.511 391.608 356.451C391.608 355.39 391.187 354.372 390.437 353.622C389.686 352.872 388.669 352.451 387.608 352.451C386.547 352.451 385.53 352.872 384.78 353.622C384.03 354.372 383.608 355.39 383.608 356.451C383.608 357.511 384.03 358.529 384.78 359.279C385.53 360.029 386.547 360.451 387.608 360.451Z" fill="#35B5FE" stroke="#35B5FE" stroke-width="1.33333"/>
<path d="M408.617 398.47C409.678 398.47 410.695 398.049 411.445 397.299C412.195 396.548 412.617 395.531 412.617 394.47C412.617 393.409 412.195 392.392 411.445 391.642C410.695 390.892 409.678 390.47 408.617 390.47C407.556 390.47 406.538 390.892 405.788 391.642C405.038 392.392 404.617 393.409 404.617 394.47C404.617 395.531 405.038 396.548 405.788 397.299C406.538 398.049 407.556 398.47 408.617 398.47Z" fill="#35B5FE" stroke="#35B5FE" stroke-width="1.33333"/>
<path d="M429.625 429.388C430.686 429.388 431.704 428.966 432.454 428.216C433.204 427.466 433.625 426.449 433.625 425.388C433.625 424.327 433.204 423.309 432.454 422.559C431.704 421.809 430.686 421.388 429.625 421.388C428.564 421.388 427.547 421.809 426.797 422.559C426.047 423.309 425.625 424.327 425.625 425.388C425.625 426.449 426.047 427.466 426.797 428.216C427.547 428.966 428.564 429.388 429.625 429.388Z" fill="#35B5FE" stroke="#35B5FE" stroke-width="1.33333"/>
<path d="M450.634 451.758C451.695 451.758 452.712 451.336 453.462 450.586C454.212 449.836 454.634 448.819 454.634 447.758C454.634 446.697 454.212 445.68 453.462 444.93C452.712 444.179 451.695 443.758 450.634 443.758C449.573 443.758 448.555 444.179 447.805 444.93C447.055 445.68 446.634 446.697 446.634 447.758C446.634 448.819 447.055 449.836 447.805 450.586C448.555 451.336 449.573 451.758 450.634 451.758Z" fill="#35B5FE" stroke="#35B5FE" stroke-width="1.33333"/>
<path d="M471.642 464.534C472.703 464.534 473.721 464.113 474.471 463.363C475.221 462.613 475.642 461.595 475.642 460.534C475.642 459.474 475.221 458.456 474.471 457.706C473.721 456.956 472.703 456.534 471.642 456.534C470.582 456.534 469.564 456.956 468.814 457.706C468.064 458.456 467.642 459.474 467.642 460.534C467.642 461.595 468.064 462.613 468.814 463.363C469.564 464.113 470.582 464.534 471.642 464.534Z" fill="#35B5FE" stroke="#35B5FE" stroke-width="1.33333"/>
<path d="M492.651 467.12C493.712 467.12 494.729 466.699 495.479 465.948C496.229 465.198 496.651 464.181 496.651 463.12C496.651 462.059 496.229 461.042 495.479 460.292C494.729 459.541 493.712 459.12 492.651 459.12C491.59 459.12 490.573 459.541 489.822 460.292C489.072 461.042 488.651 462.059 488.651 463.12C488.651 464.181 489.072 465.198 489.822 465.948C490.573 466.699 491.59 467.12 492.651 467.12Z" fill="#35B5FE" stroke="#35B5FE" stroke-width="1.33333"/>
<path d="M513.659 459.394C514.72 459.394 515.738 458.972 516.488 458.222C517.238 457.472 517.659 456.454 517.659 455.394C517.659 454.333 517.238 453.315 516.488 452.565C515.738 451.815 514.72 451.394 513.659 451.394C512.599 451.394 511.581 451.815 510.831 452.565C510.081 453.315 509.659 454.333 509.659 455.394C509.659 456.454 510.081 457.472 510.831 458.222C511.581 458.972 512.599 459.394 513.659 459.394Z" fill="#35B5FE" stroke="#35B5FE" stroke-width="1.33333"/>
<path d="M534.668 441.717C535.729 441.717 536.746 441.295 537.496 440.545C538.247 439.795 538.668 438.777 538.668 437.717C538.668 436.656 538.247 435.638 537.496 434.888C536.746 434.138 535.729 433.717 534.668 433.717C533.607 433.717 532.59 434.138 531.84 434.888C531.089 435.638 530.668 436.656 530.668 437.717C530.668 438.777 531.089 439.795 531.84 440.545C532.59 441.295 533.607 441.717 534.668 441.717Z" fill="#35B5FE" stroke="#35B5FE" stroke-width="1.33333"/>
<path d="M555.677 414.916C556.737 414.916 557.755 414.494 558.505 413.744C559.255 412.994 559.677 411.977 559.677 410.916C559.677 409.855 559.255 408.837 558.505 408.087C557.755 407.337 556.737 406.916 555.677 406.916C554.616 406.916 553.598 407.337 552.848 408.087C552.098 408.837 551.677 409.855 551.677 410.916C551.677 411.977 552.098 412.994 552.848 413.744C553.598 414.494 554.616 414.916 555.677 414.916Z" fill="#35B5FE" stroke="#35B5FE" stroke-width="1.33333"/>
<path d="M576.685 380.244C577.746 380.244 578.764 379.822 579.514 379.072C580.264 378.322 580.685 377.305 580.685 376.244C580.685 375.183 580.264 374.165 579.514 373.415C578.764 372.665 577.746 372.244 576.685 372.244C575.624 372.244 574.607 372.665 573.857 373.415C573.107 374.165 572.685 375.183 572.685 376.244C572.685 377.305 573.107 378.322 573.857 379.072C574.607 379.822 575.624 380.244 576.685 380.244Z" fill="#35B5FE" stroke="#35B5FE" stroke-width="1.33333"/>
<path d="M597.694 339.322C598.755 339.322 599.772 338.901 600.522 338.151C601.272 337.401 601.694 336.383 601.694 335.322C601.694 334.261 601.272 333.244 600.522 332.494C599.772 331.744 598.755 331.322 597.694 331.322C596.633 331.322 595.615 331.744 594.865 332.494C594.115 333.244 593.694 334.261 593.694 335.322C593.694 336.383 594.115 337.401 594.865 338.151C595.615 338.901 596.633 339.322 597.694 339.322Z" fill="#35B5FE" stroke="#35B5FE" stroke-width="1.33333"/>
<path d="M618.702 294.064C619.763 294.064 620.781 293.643 621.531 292.893C622.281 292.143 622.702 291.125 622.702 290.064C622.702 289.004 622.281 287.986 621.531 287.236C620.781 286.486 619.763 286.064 618.702 286.064C617.641 286.064 616.624 286.486 615.874 287.236C615.124 287.986 614.702 289.004 614.702 290.064C614.702 291.125 615.124 292.143 615.874 292.893C616.624 293.643 617.641 294.064 618.702 294.064Z" fill="#35B5FE" stroke="#35B5FE" stroke-width="1.33333"/>
<path d="M639.711 246.587C640.772 246.587 641.789 246.165 642.539 245.415C643.289 244.665 643.711 243.647 643.711 242.587C643.711 241.526 643.289 240.508 642.539 239.758C641.789 239.008 640.772 238.587 639.711 238.587C638.65 238.587 637.633 239.008 636.883 239.758C636.132 240.508 635.711 241.526 635.711 242.587C635.711 243.647 636.132 244.665 636.883 245.415C637.633 246.165 638.65 246.587 639.711 246.587Z" fill="#35B5FE" stroke="#35B5FE" stroke-width="1.33333"/>
</g>
<mask id="mask2_12_2370" style="mask-type:luminance" maskUnits="userSpaceOnUse" x="0" y="0" width="671" height="486">
<path d="M670.173 0H0V485.173H670.173V0Z" fill="white"/>
</mask>
<g mask="url(#mask2_12_2370)">
<path d="M30.4624 149.664L51.471 133.2L72.4795 136.956L93.4881 160.237L114.497 198.741L135.505 245.35L156.514 291.448L177.522 328.513L198.531 349.696L219.54 351.079L240.548 332.408L261.557 297.133L282.565 251.776L303.574 204.719L324.582 164.663L345.591 139.01L366.6 132.504L387.608 146.346L408.617 177.979L429.625 221.554L450.634 269.016L471.642 311.594L492.651 341.415L513.66 352.968L534.668 344.117L555.677 316.499L576.685 275.217L597.694 227.904L618.702 183.305L639.711 149.664" stroke="#F7014D" stroke-width="4" stroke-linecap="square"/>
</g>
<mask id="mask3_12_2370" style="mask-type:luminance" maskUnits="userSpaceOnUse" x="0" y="0" width="671" height="486">
<path d="M670.173 0H0V485.173H670.173V0Z" fill="white"/>
</mask>
<g mask="url(#mask3_12_2370)">
<path d="M26.4624 153.664L34.4624 145.664ZM26.4624 145.664L34.4624 153.664Z" fill="#F7014D"/>
<path d="M26.4624 153.664L34.4624 145.664M26.4624 145.664L34.4624 153.664" stroke="#F7014D" stroke-width="1.33333"/>
<path d="M47.4709 137.2L55.4709 129.2ZM47.4709 129.2L55.4709 137.2Z" fill="#F7014D"/>
<path d="M47.4709 137.2L55.4709 129.2M47.4709 129.2L55.4709 137.2" stroke="#F7014D" stroke-width="1.33333"/>
<path d="M68.4796 140.956L76.4796 132.956ZM68.4796 132.956L76.4796 140.956Z" fill="#F7014D"/>
<path d="M68.4796 140.956L76.4796 132.956M68.4796 132.956L76.4796 140.956" stroke="#F7014D" stroke-width="1.33333"/>
<path d="M89.4881 164.237L97.4881 156.237ZM89.4881 156.237L97.4881 164.237Z" fill="#F7014D"/>
<path d="M89.4881 164.237L97.4881 156.237M89.4881 156.237L97.4881 164.237" stroke="#F7014D" stroke-width="1.33333"/>
<path d="M110.497 202.741L118.497 194.741ZM110.497 194.741L118.497 202.741Z" fill="#F7014D"/>
<path d="M110.497 202.741L118.497 194.741M110.497 194.741L118.497 202.741" stroke="#F7014D" stroke-width="1.33333"/>
<path d="M131.505 249.35L139.505 241.35ZM131.505 241.35L139.505 249.35Z" fill="#F7014D"/>
<path d="M131.505 249.35L139.505 241.35M131.505 241.35L139.505 249.35" stroke="#F7014D" stroke-width="1.33333"/>
<path d="M152.514 295.448L160.514 287.448ZM152.514 287.448L160.514 295.448Z" fill="#F7014D"/>
<path d="M152.514 295.448L160.514 287.448M152.514 287.448L160.514 295.448" stroke="#F7014D" stroke-width="1.33333"/>
<path d="M173.522 332.514L181.522 324.514ZM173.522 324.514L181.522 332.514Z" fill="#F7014D"/>
<path d="M173.522 332.514L181.522 324.514M173.522 324.514L181.522 332.514" stroke="#F7014D" stroke-width="1.33333"/>
<path d="M194.531 353.696L202.531 345.696ZM194.531 345.696L202.531 353.696Z" fill="#F7014D"/>
<path d="M194.531 353.696L202.531 345.696M194.531 345.696L202.531 353.696" stroke="#F7014D" stroke-width="1.33333"/>
<path d="M215.54 355.079L223.54 347.079ZM215.54 347.079L223.54 355.079Z" fill="#F7014D"/>
<path d="M215.54 355.079L223.54 347.079M215.54 347.079L223.54 355.079" stroke="#F7014D" stroke-width="1.33333"/>
<path d="M236.548 336.408L244.548 328.408ZM236.548 328.408L244.548 336.408Z" fill="#F7014D"/>
<path d="M236.548 336.408L244.548 328.408M236.548 328.408L244.548 336.408" stroke="#F7014D" stroke-width="1.33333"/>
<path d="M257.557 301.133L265.557 293.133ZM257.557 293.133L265.557 301.133Z" fill="#F7014D"/>
<path d="M257.557 301.133L265.557 293.133M257.557 293.133L265.557 301.133" stroke="#F7014D" stroke-width="1.33333"/>
<path d="M278.565 255.776L286.565 247.776ZM278.565 247.776L286.565 255.776Z" fill="#F7014D"/>
<path d="M278.565 255.776L286.565 247.776M278.565 247.776L286.565 255.776" stroke="#F7014D" stroke-width="1.33333"/>
<path d="M299.574 208.719L307.574 200.719ZM299.574 200.719L307.574 208.719Z" fill="#F7014D"/>
<path d="M299.574 208.719L307.574 200.719M299.574 200.719L307.574 208.719" stroke="#F7014D" stroke-width="1.33333"/>
<path d="M320.582 168.663L328.582 160.663ZM320.582 160.663L328.582 168.663Z" fill="#F7014D"/>
<path d="M320.582 168.663L328.582 160.663M320.582 160.663L328.582 168.663" stroke="#F7014D" stroke-width="1.33333"/>
<path d="M341.591 143.01L349.591 135.01ZM341.591 135.01L349.591 143.01Z" fill="#F7014D"/>
<path d="M341.591 143.01L349.591 135.01M341.591 135.01L349.591 143.01" stroke="#F7014D" stroke-width="1.33333"/>
<path d="M362.6 136.504L370.6 128.504ZM362.6 128.504L370.6 136.504Z" fill="#F7014D"/>
<path d="M362.6 136.504L370.6 128.504M362.6 128.504L370.6 136.504" stroke="#F7014D" stroke-width="1.33333"/>
<path d="M383.608 150.346L391.608 142.346ZM383.608 142.346L391.608 150.346Z" fill="#F7014D"/>
<path d="M383.608 150.346L391.608 142.346M383.608 142.346L391.608 150.346" stroke="#F7014D" stroke-width="1.33333"/>
<path d="M404.617 181.979L412.617 173.979ZM404.617 173.979L412.617 181.979Z" fill="#F7014D"/>
<path d="M404.617 181.979L412.617 173.979M404.617 173.979L412.617 181.979" stroke="#F7014D" stroke-width="1.33333"/>
<path d="M425.625 225.554L433.625 217.554ZM425.625 217.554L433.625 225.554Z" fill="#F7014D"/>
<path d="M425.625 225.554L433.625 217.554M425.625 217.554L433.625 225.554" stroke="#F7014D" stroke-width="1.33333"/>
<path d="M446.634 273.016L454.634 265.016ZM446.634 265.016L454.634 273.016Z" fill="#F7014D"/>
<path d="M446.634 273.016L454.634 265.016M446.634 265.016L454.634 273.016" stroke="#F7014D" stroke-width="1.33333"/>
<path d="M467.642 315.594L475.642 307.594ZM467.642 307.594L475.642 315.594Z" fill="#F7014D"/>
<path d="M467.642 315.594L475.642 307.594M467.642 307.594L475.642 315.594" stroke="#F7014D" stroke-width="1.33333"/>
<path d="M488.651 345.415L496.651 337.415ZM488.651 337.415L496.651 345.415Z" fill="#F7014D"/>
<path d="M488.651 345.415L496.651 337.415M488.651 337.415L496.651 345.415" stroke="#F7014D" stroke-width="1.33333"/>
<path d="M509.659 356.968L517.659 348.968ZM509.659 348.968L517.659 356.968Z" fill="#F7014D"/>
<path d="M509.659 356.968L517.659 348.968M509.659 348.968L517.659 356.968" stroke="#F7014D" stroke-width="1.33333"/>
<path d="M530.668 348.117L538.668 340.117ZM530.668 340.117L538.668 348.117Z" fill="#F7014D"/>
<path d="M530.668 348.117L538.668 340.117M530.668 340.117L538.668 348.117" stroke="#F7014D" stroke-width="1.33333"/>
<path d="M551.677 320.499L559.677 312.499ZM551.677 312.499L559.677 320.499Z" fill="#F7014D"/>
<path d="M551.677 320.499L559.677 312.499M551.677 312.499L559.677 320.499" stroke="#F7014D" stroke-width="1.33333"/>
<path d="M572.685 279.217L580.685 271.217ZM572.685 271.217L580.685 279.217Z" fill="#F7014D"/>
<path d="M572.685 279.217L580.685 271.217M572.685 271.217L580.685 279.217" stroke="#F7014D" stroke-width="1.33333"/>
<path d="M593.694 231.904L601.694 223.904ZM593.694 223.904L601.694 231.904Z" fill="#F7014D"/>
<path d="M593.694 231.904L601.694 223.904M593.694 223.904L601.694 231.904" stroke="#F7014D" stroke-width="1.33333"/>
<path d="M614.702 187.305L622.702 179.305ZM614.702 179.305L622.702 187.305Z" fill="#F7014D"/>
<path d="M614.702 187.305L622.702 179.305M614.702 179.305L622.702 187.305" stroke="#F7014D" stroke-width="1.33333"/>
<path d="M635.711 153.664L643.711 145.664ZM635.711 145.664L643.711 153.664Z" fill="#F7014D"/>
<path d="M635.711 153.664L643.711 145.664M635.711 145.664L643.711 153.664" stroke="#F7014D" stroke-width="1.33333"/>
</g>
<mask id="mask4_12_2370" style="mask-type:luminance" maskUnits="userSpaceOnUse" x="0" y="0" width="671" height="486">
<path d="M670.173 0H0V485.173H670.173V0Z" fill="white"/>
</mask>
<g mask="url(#mask4_12_2370)">
<path d="M30.4624 242.587V149.664" stroke="#FF7F0E" stroke-opacity="0.5" stroke-width="2.66667" stroke-dasharray="9.87 4.27"/>
</g>
<mask id="mask5_12_2370" style="mask-type:luminance" maskUnits="userSpaceOnUse" x="0" y="0" width="671" height="486">
<path d="M670.173 0H0V485.173H670.173V0Z" fill="white"/>
</mask>
<g mask="url(#mask5_12_2370)">
<path d="M51.471 195.109V133.2" stroke="#FF7F0E" stroke-opacity="0.5" stroke-width="2.66667" stroke-dasharray="9.87 4.27"/>
</g>
<mask id="mask6_12_2370" style="mask-type:luminance" maskUnits="userSpaceOnUse" x="0" y="0" width="671" height="486">
<path d="M670.173 0H0V485.173H670.173V0Z" fill="white"/>
</mask>
<g mask="url(#mask6_12_2370)">
<path d="M72.4796 149.851V136.956" stroke="#FF7F0E" stroke-opacity="0.5" stroke-width="2.66667" stroke-dasharray="9.87 4.27"/>
</g>
<mask id="mask7_12_2370" style="mask-type:luminance" maskUnits="userSpaceOnUse" x="0" y="0" width="671" height="486">
<path d="M670.173 0H0V485.173H670.173V0Z" fill="white"/>
</mask>
<g mask="url(#mask7_12_2370)">
<path d="M93.4882 108.93V160.237" stroke="#FF7F0E" stroke-opacity="0.5" stroke-width="2.66667" stroke-dasharray="9.87 4.27"/>
</g>
<mask id="mask8_12_2370" style="mask-type:luminance" maskUnits="userSpaceOnUse" x="0" y="0" width="671" height="486">
<path d="M670.173 0H0V485.173H670.173V0Z" fill="white"/>
</mask>
<g mask="url(#mask8_12_2370)">
<path d="M114.497 74.2577V198.741" stroke="#FF7F0E" stroke-opacity="0.5" stroke-width="2.66667" stroke-dasharray="9.87 4.27"/>
</g>
<mask id="mask9_12_2370" style="mask-type:luminance" maskUnits="userSpaceOnUse" x="0" y="0" width="671" height="486">
<path d="M670.173 0H0V485.173H670.173V0Z" fill="white"/>
</mask>
<g mask="url(#mask9_12_2370)">
<path d="M135.505 47.4567V245.35" stroke="#FF7F0E" stroke-opacity="0.5" stroke-width="2.66667" stroke-dasharray="9.87 4.27"/>
</g>
<mask id="mask10_12_2370" style="mask-type:luminance" maskUnits="userSpaceOnUse" x="0" y="0" width="671" height="486">
<path d="M670.173 0H0V485.173H670.173V0Z" fill="white"/>
</mask>
<g mask="url(#mask10_12_2370)">
<path d="M156.514 29.7797V291.448" stroke="#FF7F0E" stroke-opacity="0.5" stroke-width="2.66667" stroke-dasharray="9.87 4.27"/>
</g>
<mask id="mask11_12_2370" style="mask-type:luminance" maskUnits="userSpaceOnUse" x="0" y="0" width="671" height="486">
<path d="M670.173 0H0V485.173H670.173V0Z" fill="white"/>
</mask>
<g mask="url(#mask11_12_2370)">
<path d="M177.522 22.0533V328.514" stroke="#FF7F0E" stroke-opacity="0.5" stroke-width="2.66667" stroke-dasharray="9.87 4.27"/>
</g>
<mask id="mask12_12_2370" style="mask-type:luminance" maskUnits="userSpaceOnUse" x="0" y="0" width="671" height="486">
<path d="M670.173 0H0V485.173H670.173V0Z" fill="white"/>
</mask>
<g mask="url(#mask12_12_2370)">
<path d="M198.531 24.6389V349.696" stroke="#FF7F0E" stroke-opacity="0.5" stroke-width="2.66667" stroke-dasharray="9.87 4.27"/>
</g>
<mask id="mask13_12_2370" style="mask-type:luminance" maskUnits="userSpaceOnUse" x="0" y="0" width="671" height="486">
<path d="M670.173 0H0V485.173H670.173V0Z" fill="white"/>
</mask>
<g mask="url(#mask13_12_2370)">
<path d="M219.54 37.4154V351.079" stroke="#FF7F0E" stroke-opacity="0.5" stroke-width="2.66667" stroke-dasharray="9.87 4.27"/>
</g>
<mask id="mask14_12_2370" style="mask-type:luminance" maskUnits="userSpaceOnUse" x="0" y="0" width="671" height="486">
<path d="M670.173 0H0V485.173H670.173V0Z" fill="white"/>
</mask>
<g mask="url(#mask14_12_2370)">
<path d="M240.548 59.7856V332.408" stroke="#FF7F0E" stroke-opacity="0.5" stroke-width="2.66667" stroke-dasharray="9.87 4.27"/>
</g>
<mask id="mask15_12_2370" style="mask-type:luminance" maskUnits="userSpaceOnUse" x="0" y="0" width="671" height="486">
<path d="M670.173 0H0V485.173H670.173V0Z" fill="white"/>
</mask>
<g mask="url(#mask15_12_2370)">
<path d="M261.557 90.7032V297.133" stroke="#FF7F0E" stroke-opacity="0.5" stroke-width="2.66667" stroke-dasharray="9.87 4.27"/>
</g>
<mask id="mask16_12_2370" style="mask-type:luminance" maskUnits="userSpaceOnUse" x="0" y="0" width="671" height="486">
<path d="M670.173 0H0V485.173H670.173V0Z" fill="white"/>
</mask>
<g mask="url(#mask16_12_2370)">
<path d="M282.565 128.723V251.776" stroke="#FF7F0E" stroke-opacity="0.5" stroke-width="2.66667" stroke-dasharray="9.87 4.27"/>
</g>
<mask id="mask17_12_2370" style="mask-type:luminance" maskUnits="userSpaceOnUse" x="0" y="0" width="671" height="486">
<path d="M670.173 0H0V485.173H670.173V0Z" fill="white"/>
</mask>
<g mask="url(#mask17_12_2370)">
<path d="M303.574 172.067V204.719" stroke="#FF7F0E" stroke-opacity="0.5" stroke-width="2.66667" stroke-dasharray="9.87 4.27"/>
</g>
<mask id="mask18_12_2370" style="mask-type:luminance" maskUnits="userSpaceOnUse" x="0" y="0" width="671" height="486">
<path d="M670.173 0H0V485.173H670.173V0Z" fill="white"/>
</mask>
<g mask="url(#mask18_12_2370)">
<path d="M324.582 218.708V164.663" stroke="#FF7F0E" stroke-opacity="0.5" stroke-width="2.66667" stroke-dasharray="9.87 4.27"/>
</g>
<mask id="mask19_12_2370" style="mask-type:luminance" maskUnits="userSpaceOnUse" x="0" y="0" width="671" height="486">
<path d="M670.173 0H0V485.173H670.173V0Z" fill="white"/>
</mask>
<g mask="url(#mask19_12_2370)">
<path d="M345.591 266.466V139.01" stroke="#FF7F0E" stroke-opacity="0.5" stroke-width="2.66667" stroke-dasharray="9.87 4.27"/>
</g>
<mask id="mask20_12_2370" style="mask-type:luminance" maskUnits="userSpaceOnUse" x="0" y="0" width="671" height="486">
<path d="M670.173 0H0V485.173H670.173V0Z" fill="white"/>
</mask>
<g mask="url(#mask20_12_2370)">
<path d="M366.6 313.107V132.504" stroke="#FF7F0E" stroke-opacity="0.5" stroke-width="2.66667" stroke-dasharray="9.87 4.27"/>
</g>
<mask id="mask21_12_2370" style="mask-type:luminance" maskUnits="userSpaceOnUse" x="0" y="0" width="671" height="486">
<path d="M670.173 0H0V485.173H670.173V0Z" fill="white"/>
</mask>
<g mask="url(#mask21_12_2370)">
<path d="M387.608 356.451V146.346" stroke="#FF7F0E" stroke-opacity="0.5" stroke-width="2.66667" stroke-dasharray="9.87 4.27"/>
</g>
<mask id="mask22_12_2370" style="mask-type:luminance" maskUnits="userSpaceOnUse" x="0" y="0" width="671" height="486">
<path d="M670.173 0H0V485.173H670.173V0Z" fill="white"/>
</mask>
<g mask="url(#mask22_12_2370)">
<path d="M408.617 394.47V177.979" stroke="#FF7F0E" stroke-opacity="0.5" stroke-width="2.66667" stroke-dasharray="9.87 4.27"/>
</g>
<mask id="mask23_12_2370" style="mask-type:luminance" maskUnits="userSpaceOnUse" x="0" y="0" width="671" height="486">
<path d="M670.173 0H0V485.173H670.173V0Z" fill="white"/>
</mask>
<g mask="url(#mask23_12_2370)">
<path d="M429.625 425.388V221.554" stroke="#FF7F0E" stroke-opacity="0.5" stroke-width="2.66667" stroke-dasharray="9.87 4.27"/>
</g>
<mask id="mask24_12_2370" style="mask-type:luminance" maskUnits="userSpaceOnUse" x="0" y="0" width="671" height="486">
<path d="M670.173 0H0V485.173H670.173V0Z" fill="white"/>
</mask>
<g mask="url(#mask24_12_2370)">
<path d="M450.634 447.758V269.016" stroke="#FF7F0E" stroke-opacity="0.5" stroke-width="2.66667" stroke-dasharray="9.87 4.27"/>
</g>
<mask id="mask25_12_2370" style="mask-type:luminance" maskUnits="userSpaceOnUse" x="0" y="0" width="671" height="486">
<path d="M670.173 0H0V485.173H670.173V0Z" fill="white"/>
</mask>
<g mask="url(#mask25_12_2370)">
<path d="M471.642 460.534V311.594" stroke="#FF7F0E" stroke-opacity="0.5" stroke-width="2.66667" stroke-dasharray="9.87 4.27"/>
</g>
<mask id="mask26_12_2370" style="mask-type:luminance" maskUnits="userSpaceOnUse" x="0" y="0" width="671" height="486">
<path d="M670.173 0H0V485.173H670.173V0Z" fill="white"/>
</mask>
<g mask="url(#mask26_12_2370)">
<path d="M492.651 463.12V341.415" stroke="#FF7F0E" stroke-opacity="0.5" stroke-width="2.66667" stroke-dasharray="9.87 4.27"/>
</g>
<mask id="mask27_12_2370" style="mask-type:luminance" maskUnits="userSpaceOnUse" x="0" y="0" width="671" height="486">
<path d="M670.173 0H0V485.173H670.173V0Z" fill="white"/>
</mask>
<g mask="url(#mask27_12_2370)">
<path d="M513.66 455.394V352.968" stroke="#FF7F0E" stroke-opacity="0.5" stroke-width="2.66667" stroke-dasharray="9.87 4.27"/>
</g>
<mask id="mask28_12_2370" style="mask-type:luminance" maskUnits="userSpaceOnUse" x="0" y="0" width="671" height="486">
<path d="M670.173 0H0V485.173H670.173V0Z" fill="white"/>
</mask>
<g mask="url(#mask28_12_2370)">
<path d="M534.668 437.717V344.117" stroke="#FF7F0E" stroke-opacity="0.5" stroke-width="2.66667" stroke-dasharray="9.87 4.27"/>
</g>
<mask id="mask29_12_2370" style="mask-type:luminance" maskUnits="userSpaceOnUse" x="0" y="0" width="671" height="486">
<path d="M670.173 0H0V485.173H670.173V0Z" fill="white"/>
</mask>
<g mask="url(#mask29_12_2370)">
<path d="M555.677 410.916V316.499" stroke="#FF7F0E" stroke-opacity="0.5" stroke-width="2.66667" stroke-dasharray="9.87 4.27"/>
</g>
<mask id="mask30_12_2370" style="mask-type:luminance" maskUnits="userSpaceOnUse" x="0" y="0" width="671" height="486">
<path d="M670.173 0H0V485.173H670.173V0Z" fill="white"/>
</mask>
<g mask="url(#mask30_12_2370)">
<path d="M576.685 376.244V275.217" stroke="#FF7F0E" stroke-opacity="0.5" stroke-width="2.66667" stroke-dasharray="9.87 4.27"/>
</g>
<mask id="mask31_12_2370" style="mask-type:luminance" maskUnits="userSpaceOnUse" x="0" y="0" width="671" height="486">
<path d="M670.173 0H0V485.173H670.173V0Z" fill="white"/>
</mask>
<g mask="url(#mask31_12_2370)">
<path d="M597.694 335.322V227.904" stroke="#FF7F0E" stroke-opacity="0.5" stroke-width="2.66667" stroke-dasharray="9.87 4.27"/>
</g>
<mask id="mask32_12_2370" style="mask-type:luminance" maskUnits="userSpaceOnUse" x="0" y="0" width="671" height="486">
<path d="M670.173 0H0V485.173H670.173V0Z" fill="white"/>
</mask>
<g mask="url(#mask32_12_2370)">
<path d="M618.702 290.064V183.305" stroke="#FF7F0E" stroke-opacity="0.5" stroke-width="2.66667" stroke-dasharray="9.87 4.27"/>
</g>
<mask id="mask33_12_2370" style="mask-type:luminance" maskUnits="userSpaceOnUse" x="0" y="0" width="671" height="486">
<path d="M670.173 0H0V485.173H670.173V0Z" fill="white"/>
</mask>
<g mask="url(#mask33_12_2370)">
<path d="M639.711 242.587V149.664" stroke="#FF7F0E" stroke-opacity="0.5" stroke-width="2.66667" stroke-dasharray="9.87 4.27"/>
</g>
</svg>
