<svg width="160" height="64" viewBox="0 0 160 64" fill="none" xmlns="http://www.w3.org/2000/svg">
<path d="M9.66667 44.5C9.66667 47.4455 12.0545 49.8333 15 49.8333C17.9455 49.8333 20.3333 47.4455 20.3333 44.5C20.3333 41.5545 17.9455 39.1667 15 39.1667C12.0545 39.1667 9.66667 41.5545 9.66667 44.5ZM102 54.5L101.581 53.592L102 54.5ZM108.5 25.5L108.661 26.4869L108.5 25.5ZM136.667 18.5C136.667 21.4455 139.054 23.8333 142 23.8333C144.946 23.8333 147.333 21.4455 147.333 18.5C147.333 15.5545 144.946 13.1667 142 13.1667C139.054 13.1667 136.667 15.5545 136.667 18.5ZM15.5782 45.3159C28.3515 36.263 37.9754 33.389 45.7005 33.7722C53.4199 34.1552 59.4361 37.7979 65.003 42.2205C67.8094 44.45 70.4149 46.8036 73.1283 49.0711C75.8095 51.3116 78.542 53.4194 81.4586 55.0107C84.3842 56.6068 87.5137 57.6939 90.99 57.8785C94.4684 58.0631 98.2314 57.3407 102.419 55.408L101.581 53.592C97.6436 55.4093 94.2035 56.0463 91.096 55.8813C87.9863 55.7162 85.1471 54.7448 82.4164 53.255C79.6768 51.7603 77.0655 49.7548 74.4108 47.5364C71.7882 45.3448 69.0656 42.8937 66.247 40.6545C60.5639 36.1396 54.1426 32.1886 45.7995 31.7747C37.4621 31.361 27.3985 34.487 14.4218 43.6841L15.5782 45.3159ZM102.419 55.408C109.01 52.3659 114.085 48.7734 117.653 45.1231C121.209 41.4847 123.318 37.7346 123.862 34.3741C124.414 30.963 123.338 27.94 120.559 26.0679C117.852 24.2452 113.709 23.6363 108.339 24.5131L108.661 26.4869C113.791 25.6494 117.335 26.3084 119.441 27.7268C121.474 29.0957 122.336 31.2871 121.888 34.0545C121.432 36.8726 119.604 40.2653 116.222 43.7251C112.853 47.173 107.99 50.6341 101.581 53.592L102.419 55.408ZM108.339 24.5131C104.29 25.1742 99.536 25.7083 94.9944 25.8473C90.4339 25.987 86.1665 25.725 83.0486 24.8382C79.8648 23.9326 78.3358 22.5327 78.2617 20.688C78.2215 19.6865 78.5815 18.3772 79.609 16.6941C80.6329 15.0169 82.2777 13.0376 84.6922 10.7217L83.3078 9.27832C80.8223 11.6624 79.0473 13.7758 77.9019 15.652C76.7602 17.5223 76.2014 19.2271 76.2633 20.7682C76.3934 24.009 79.1518 25.8091 82.5014 26.7618C85.9168 27.7333 90.4286 27.9881 95.0556 27.8464C99.7015 27.7042 104.544 27.1591 108.661 26.4869L108.339 24.5131ZM84.6922 10.7217C94.1572 1.64303 105.455 1.08512 115.88 4.15917C126.34 7.24367 135.806 13.9659 141.309 19.2231L142.691 17.7769C137.028 12.3674 127.293 5.43966 116.445 2.24083C105.562 -0.968449 93.4428 -0.443022 83.3078 9.27832L84.6922 10.7217Z" fill="url(#paint0_linear_4_33)"/>
<circle cx="114" cy="47" r="4" fill="#1E2127" stroke="#B2BF74" stroke-width="2"/>
<path d="M2.99334 47.6482C2.99334 47.5932 2.76942 47.5578 2.3216 47.5421C2.13305 47.5421 2.01127 47.5382 1.95628 47.5303C1.90128 47.5225 1.87378 47.4832 1.87378 47.4125C1.87378 47.4046 1.88164 47.3614 1.89735 47.2828C1.94449 47.1257 1.97985 47.0393 2.00342 47.0236C2.02699 47.0079 2.78907 47 4.28966 47C5.78239 47.0079 6.57983 47.0196 6.68196 47.0353C7.18478 47.1218 7.6051 47.3143 7.94293 47.6128C8.28076 47.9113 8.4536 48.3081 8.46146 48.8031C8.46146 49.408 8.2022 49.9619 7.68367 50.4647C7.14157 50.999 6.44234 51.3368 5.58598 51.4782C5.53099 51.4861 5.11852 51.4939 4.34858 51.5018H3.22903L2.87549 52.9042C2.63979 53.8155 2.52194 54.2987 2.52194 54.3537C2.52194 54.3851 2.52587 54.4047 2.53373 54.4126C2.54159 54.4205 2.56908 54.4362 2.61622 54.4597C2.66336 54.4833 2.73014 54.4912 2.81656 54.4833C2.90299 54.4755 3.03262 54.4833 3.20546 54.5069H3.57079C3.61793 54.5776 3.6415 54.6208 3.6415 54.6365C3.6415 54.7622 3.614 54.8801 3.559 54.9901C3.51972 55.0293 3.45687 55.049 3.37045 55.049C3.34688 55.049 3.20153 55.0451 2.93441 55.0372C2.66729 55.0293 2.27447 55.0254 1.75594 55.0254C1.26883 55.0254 0.895649 55.0254 0.636384 55.0254C0.37712 55.0254 0.235703 55.0293 0.212133 55.0372C0.0707162 55.0372 7.62939e-06 54.9979 7.62939e-06 54.9193C7.62939e-06 54.9036 0.0117924 54.8486 0.0353619 54.7544C0.0667879 54.6287 0.0982139 54.5579 0.12964 54.5422C0.161066 54.5265 0.251416 54.5147 0.400689 54.5069C0.612815 54.5069 0.84851 54.4951 1.10777 54.4715C1.21777 54.448 1.2924 54.4008 1.33168 54.3301C1.35525 54.2987 1.63809 53.2066 2.18019 51.0539C2.72229 48.9013 2.99334 47.766 2.99334 47.6482ZM7.21228 48.5202C7.21228 48.4181 7.20442 48.3356 7.18871 48.2727C7.17299 48.2099 7.13764 48.1235 7.08264 48.0135C7.02765 47.9035 6.92944 47.8171 6.78803 47.7542C6.64661 47.6914 6.45412 47.6285 6.21057 47.5657C6.15558 47.5578 5.84132 47.5499 5.26779 47.5421C5.13423 47.5421 4.99674 47.5421 4.85533 47.5421C4.71391 47.5421 4.59999 47.546 4.51357 47.5539C4.42715 47.5617 4.38001 47.5617 4.37215 47.5539C4.27002 47.5617 4.19931 47.5971 4.16003 47.6599C4.14431 47.7071 4.06968 48.0096 3.93612 48.5674C3.80255 49.1252 3.66507 49.6673 3.52365 50.1937C3.38223 50.72 3.31152 50.9872 3.31152 50.995C3.31152 51.0107 3.62971 51.0186 4.26609 51.0186H4.40751H4.67855C5.55848 51.0186 6.187 50.8222 6.56412 50.4294C6.77624 50.2172 6.9373 49.9069 7.04729 49.4984C7.15728 49.0898 7.21228 48.7638 7.21228 48.5202Z" fill="#F7014D"/>
<path d="M7.97677 51.9426C8.28782 51.4927 8.71275 51.2677 9.25154 51.2677C9.51815 51.2677 9.78477 51.3399 10.0514 51.4843C10.318 51.6288 10.5346 51.8843 10.7013 52.2509C10.9068 52.7119 11.0096 53.3451 11.0096 54.1505C11.0096 55.0115 10.8901 55.6697 10.6513 56.1252C10.5402 56.3584 10.3874 56.5445 10.193 56.6834C9.99862 56.8223 9.82921 56.9083 9.68479 56.9417C9.54037 56.975 9.39873 56.9944 9.25987 57C9.11545 57 8.97103 56.9833 8.82661 56.95C8.6822 56.9167 8.51278 56.8278 8.31837 56.6834C8.12396 56.539 7.97121 56.3529 7.86012 56.1252C7.62128 55.6697 7.50185 55.0115 7.50185 54.1505C7.50185 53.184 7.66016 52.448 7.97677 51.9426ZM9.85143 51.8426C9.68479 51.6649 9.4876 51.576 9.25987 51.576C9.02658 51.576 8.82661 51.6649 8.65998 51.8426C8.52111 51.987 8.42946 52.187 8.38503 52.4425C8.34059 52.698 8.31837 53.2312 8.31837 54.0422C8.31837 54.9198 8.34059 55.4975 8.38503 55.7752C8.42946 56.0529 8.52945 56.2724 8.68497 56.4334C8.8405 56.6001 9.03213 56.6834 9.25987 56.6834C9.48205 56.6834 9.6709 56.6001 9.82643 56.4334C9.98751 56.2668 10.0875 56.0335 10.1264 55.7336C10.1653 55.4336 10.1875 54.8698 10.193 54.0422C10.193 53.2368 10.1708 52.7063 10.1264 52.4508C10.0819 52.1953 9.99029 51.9926 9.85143 51.8426Z" fill="#F7014D"/>
<path d="M152.049 14.6603C152.049 14.6042 151.821 14.5682 151.365 14.5522C151.173 14.5522 151.049 14.5482 150.993 14.5402C150.937 14.5322 150.909 14.4922 150.909 14.4202C150.909 14.4122 150.917 14.3681 150.933 14.2881C150.981 14.1281 151.017 14.04 151.041 14.024C151.065 14.008 151.841 14 153.37 14C154.89 14.008 155.703 14.02 155.807 14.036C156.319 14.124 156.747 14.3201 157.091 14.6242C157.435 14.9284 157.611 15.3325 157.619 15.8367C157.619 16.453 157.355 17.0172 156.827 17.5294C156.275 18.0736 155.563 18.4178 154.69 18.5618C154.634 18.5698 154.214 18.5778 153.43 18.5858H152.289L151.929 20.0144C151.689 20.9428 151.569 21.435 151.569 21.491C151.569 21.523 151.573 21.543 151.581 21.551C151.589 21.559 151.617 21.575 151.665 21.599C151.713 21.623 151.781 21.6311 151.869 21.623C151.957 21.615 152.089 21.623 152.265 21.6471H152.637C152.685 21.7191 152.709 21.7631 152.709 21.7791C152.709 21.9072 152.681 22.0272 152.625 22.1393C152.585 22.1793 152.521 22.1993 152.433 22.1993C152.409 22.1993 152.261 22.1953 151.989 22.1873C151.717 22.1793 151.317 22.1753 150.789 22.1753C150.293 22.1753 149.912 22.1753 149.648 22.1753C149.384 22.1753 149.24 22.1793 149.216 22.1873C149.072 22.1873 149 22.1473 149 22.0672C149 22.0512 149.012 21.9952 149.036 21.8992C149.068 21.7711 149.1 21.6991 149.132 21.6831C149.164 21.6671 149.256 21.6551 149.408 21.6471C149.624 21.6471 149.864 21.6351 150.128 21.611C150.24 21.587 150.317 21.539 150.357 21.467C150.381 21.435 150.669 20.3225 151.221 18.1297C151.773 15.9368 152.049 14.7803 152.049 14.6603ZM156.347 15.5486C156.347 15.4446 156.339 15.3605 156.323 15.2965C156.307 15.2325 156.271 15.1445 156.215 15.0324C156.159 14.9204 156.059 14.8323 155.915 14.7683C155.771 14.7043 155.575 14.6403 155.327 14.5762C155.271 14.5682 154.95 14.5602 154.366 14.5522C154.23 14.5522 154.09 14.5522 153.946 14.5522C153.802 14.5522 153.686 14.5562 153.598 14.5642C153.51 14.5722 153.462 14.5722 153.454 14.5642C153.35 14.5722 153.278 14.6082 153.238 14.6723C153.222 14.7203 153.146 15.0284 153.01 15.5966C152.874 16.1649 152.733 16.7171 152.589 17.2533C152.445 17.7895 152.373 18.0616 152.373 18.0696C152.373 18.0856 152.697 18.0936 153.346 18.0936H153.49H153.766C154.662 18.0936 155.303 17.8936 155.687 17.4934C155.903 17.2773 156.067 16.9612 156.179 16.545C156.291 16.1289 156.347 15.7967 156.347 15.5486Z" fill="#35B5FE"/>
<path d="M158.119 19.0943L158.008 19.1367C157.929 19.165 157.816 19.1933 157.669 19.2216C157.522 19.2499 157.358 19.2697 157.177 19.281H157.015V18.8906H157.177C157.443 18.8793 157.689 18.8368 157.915 18.7633C158.141 18.6897 158.3 18.6218 158.39 18.5596C158.481 18.4973 158.56 18.4351 158.628 18.3729C158.639 18.3559 158.673 18.3474 158.73 18.3474C158.781 18.3474 158.829 18.3644 158.874 18.3983V20.9361L158.883 23.4823C158.922 23.5219 158.956 23.5473 158.984 23.5587C159.013 23.57 159.081 23.5813 159.188 23.5926C159.296 23.6039 159.471 23.6096 159.714 23.6096H159.935V24H159.842C159.723 23.983 159.273 23.9745 158.492 23.9745C157.723 23.9745 157.278 23.983 157.16 24H157.058V23.6096H157.278C157.403 23.6096 157.51 23.6096 157.601 23.6096C157.692 23.6096 157.762 23.6068 157.813 23.6011C157.864 23.5954 157.909 23.5869 157.949 23.5756C157.989 23.5643 158.011 23.5587 158.017 23.5587C158.023 23.5587 158.04 23.5445 158.068 23.5162C158.096 23.4879 158.113 23.4766 158.119 23.4823V19.0943Z" fill="#35B5FE"/>
<path d="M117.048 53.464C117.048 53.408 116.82 53.372 116.364 53.356C116.172 53.356 116.048 53.352 115.992 53.344C115.936 53.336 115.908 53.296 115.908 53.224C115.908 53.216 115.916 53.172 115.932 53.092C115.98 52.932 116.016 52.844 116.04 52.828C116.064 52.812 116.84 52.804 118.368 52.804C119.888 52.812 120.7 52.824 120.804 52.84C121.316 52.928 121.744 53.124 122.088 53.428C122.432 53.732 122.608 54.136 122.616 54.64C122.616 55.256 122.352 55.82 121.824 56.332C121.272 56.876 120.56 57.22 119.688 57.364C119.632 57.372 119.212 57.38 118.428 57.388H117.288L116.928 58.816C116.688 59.744 116.568 60.236 116.568 60.292C116.568 60.324 116.572 60.344 116.58 60.352C116.588 60.36 116.616 60.376 116.664 60.4C116.712 60.424 116.78 60.432 116.868 60.424C116.956 60.416 117.088 60.424 117.264 60.448H117.636C117.684 60.52 117.708 60.564 117.708 60.58C117.708 60.708 117.68 60.828 117.624 60.94C117.584 60.98 117.52 61 117.432 61C117.408 61 117.26 60.996 116.988 60.988C116.716 60.98 116.316 60.976 115.788 60.976C115.292 60.976 114.912 60.976 114.648 60.976C114.384 60.976 114.24 60.98 114.216 60.988C114.072 60.988 114 60.948 114 60.868C114 60.852 114.012 60.796 114.036 60.7C114.068 60.572 114.1 60.5 114.132 60.484C114.164 60.468 114.256 60.456 114.408 60.448C114.624 60.448 114.864 60.436 115.128 60.412C115.24 60.388 115.316 60.34 115.356 60.268C115.38 60.236 115.668 59.124 116.22 56.932C116.772 54.74 117.048 53.584 117.048 53.464ZM121.344 54.352C121.344 54.248 121.336 54.164 121.32 54.1C121.304 54.036 121.268 53.948 121.212 53.836C121.156 53.724 121.056 53.636 120.912 53.572C120.768 53.508 120.572 53.444 120.324 53.38C120.268 53.372 119.948 53.364 119.364 53.356C119.228 53.356 119.088 53.356 118.944 53.356C118.8 53.356 118.684 53.36 118.596 53.368C118.508 53.376 118.46 53.376 118.452 53.368C118.348 53.376 118.276 53.412 118.236 53.476C118.22 53.524 118.144 53.832 118.008 54.4C117.872 54.968 117.732 55.52 117.588 56.056C117.444 56.592 117.372 56.864 117.372 56.872C117.372 56.888 117.696 56.896 118.344 56.896H118.488H118.764C119.66 56.896 120.3 56.696 120.684 56.296C120.9 56.08 121.064 55.764 121.176 55.348C121.288 54.932 121.344 54.6 121.344 54.352Z" fill="#B3BF74"/>
<path d="M123.744 58C123.744 57.448 123.784 56.924 123.864 56.428C123.944 55.932 124.036 55.504 124.14 55.144C124.244 54.784 124.392 54.432 124.584 54.088C124.776 53.744 124.928 53.476 125.04 53.284C125.152 53.092 125.32 52.884 125.544 52.66C125.768 52.436 125.9 52.3 125.94 52.252C125.98 52.204 126.08 52.12 126.24 52H126.396H126.444C126.556 52 126.612 52.036 126.612 52.108C126.612 52.132 126.544 52.216 126.408 52.36C126.272 52.504 126.108 52.716 125.916 52.996C125.724 53.276 125.528 53.62 125.328 54.028C125.128 54.436 124.96 54.988 124.824 55.684C124.688 56.38 124.62 57.152 124.62 58C124.62 58.848 124.688 59.616 124.824 60.304C124.96 60.992 125.124 61.548 125.316 61.972C125.508 62.396 125.704 62.74 125.904 63.004C126.104 63.268 126.272 63.48 126.408 63.64C126.544 63.8 126.612 63.884 126.612 63.892C126.612 63.964 126.552 64 126.432 64H126.396H126.24L125.904 63.712C125.152 63.032 124.604 62.184 124.26 61.168C123.916 60.152 123.744 59.096 123.744 58Z" fill="#B3BF74"/>
<path d="M127.596 56.38C127.54 56.324 127.512 56.284 127.512 56.26C127.512 56.228 127.524 56.164 127.548 56.068C127.572 55.972 127.592 55.916 127.608 55.9C127.624 55.86 127.66 55.84 127.716 55.84C127.772 55.84 127.976 55.836 128.328 55.828H128.964L129.192 54.868C129.216 54.78 129.244 54.664 129.276 54.52C129.308 54.376 129.336 54.272 129.36 54.208C129.384 54.144 129.408 54.064 129.432 53.968C129.456 53.872 129.488 53.804 129.528 53.764C129.568 53.724 129.608 53.676 129.648 53.62C129.688 53.564 129.744 53.528 129.816 53.512C129.888 53.496 129.96 53.488 130.032 53.488C130.176 53.496 130.276 53.54 130.332 53.62C130.388 53.7 130.416 53.776 130.416 53.848C130.416 53.904 130.38 54.092 130.308 54.412C130.236 54.732 130.156 55.048 130.068 55.36L129.948 55.804C129.948 55.82 130.148 55.828 130.548 55.828H131.16C131.216 55.884 131.244 55.928 131.244 55.96C131.244 56.136 131.192 56.276 131.088 56.38H129.804L129.372 58.12C129.06 59.4 128.904 60.088 128.904 60.184C128.904 60.52 129.012 60.688 129.228 60.688C129.508 60.688 129.78 60.552 130.044 60.28C130.308 60.008 130.52 59.672 130.68 59.272C130.696 59.224 130.716 59.196 130.74 59.188C130.764 59.18 130.824 59.172 130.92 59.164H130.968C131.088 59.164 131.148 59.196 131.148 59.26C131.148 59.284 131.136 59.332 131.112 59.404C131.072 59.532 131 59.684 130.896 59.86C130.792 60.036 130.656 60.224 130.488 60.424C130.32 60.624 130.116 60.792 129.876 60.928C129.636 61.064 129.392 61.132 129.144 61.132C128.904 61.132 128.676 61.072 128.46 60.952C128.244 60.832 128.088 60.624 127.992 60.328C127.976 60.264 127.968 60.156 127.968 60.004V59.788L128.388 58.108C128.668 56.98 128.812 56.412 128.82 56.404C128.82 56.388 128.616 56.38 128.208 56.38H127.596Z" fill="#B3BF74"/>
<path d="M132.336 52.012L132.384 52C132.424 52 132.464 52 132.504 52H132.648L132.984 52.288C133.736 52.968 134.284 53.816 134.628 54.832C134.972 55.848 135.144 56.904 135.144 58C135.144 58.544 135.104 59.068 135.024 59.572C134.944 60.076 134.852 60.504 134.748 60.856C134.644 61.208 134.496 61.56 134.304 61.912C134.112 62.264 133.96 62.532 133.848 62.716C133.736 62.9 133.572 63.104 133.356 63.328C133.14 63.552 133.012 63.684 132.972 63.724C132.932 63.764 132.84 63.84 132.696 63.952C132.672 63.976 132.656 63.992 132.648 64H132.504C132.44 64 132.396 64 132.372 64C132.348 64 132.328 63.988 132.312 63.964C132.296 63.94 132.284 63.904 132.276 63.856C132.284 63.848 132.328 63.796 132.408 63.7C133.648 62.412 134.268 60.512 134.268 58C134.268 55.488 133.648 53.588 132.408 52.3C132.328 52.204 132.284 52.152 132.276 52.144C132.276 52.08 132.296 52.036 132.336 52.012Z" fill="#B3BF74"/>
<defs>
<linearGradient id="paint0_linear_4_33" x1="142" y1="18" x2="15" y2="44.5" gradientUnits="userSpaceOnUse">
<stop stop-color="#35B5FF"/>
<stop offset="0.788717" stop-color="#F7004D"/>
</linearGradient>
</defs>
</svg>
