<svg width="305" height="120" viewBox="0 0 305 120" fill="none" xmlns="http://www.w3.org/2000/svg">
<path fill-rule="evenodd" clip-rule="evenodd" d="M195.5 19.0121C182.327 31.6805 160.197 34.4287 142.4 30.2699C128.102 26.9286 111.398 14.7975 99.0096 22.6793C92.4948 26.8241 109.239 41.6011 116.183 38.2245C129.992 31.5101 84.6006 11.5376 73.1569 21.775C68.9357 25.5512 75.5829 42.1054 79.1229 37.6843C84.492 30.979 59.599 27.7056 53.6343 33.8871C47.1212 40.637 54.1404 57.1839 45.4957 60.8241C38.2631 63.8696 28.4208 52.7574 28.1418 44.9148C27.9643 39.9252 30.8308 30.2756 35.5523 31.8984C39.6559 33.3088 39.1619 42.2513 35.7363 44.9148C28.3042 50.6933 15.7338 57.3938 17.6543 66.61C18.5441 70.8796 32.2517 68.0671 30.4906 64.0772C28.4762 59.5136 21.5466 72.6626 23.4403 77.2776C26.9459 85.8211 40.1723 91.0469 48.9328 88.1252C61.7739 83.8426 75.7324 54.1437 62.8534 49.9764C56.806 48.0197 58.3512 68.2018 64.662 68.9588C77.8047 70.5355 99.1484 49.4615 90.8748 39.1288C87.679 35.1376 79.1978 33.2403 75.6897 36.9601C70.3944 42.5751 74.0991 57.1092 81.4757 59.3796C94.8655 63.5008 86.1944 25.2848 74.2413 17.9777C64.3107 11.907 42.9133 24.9023 44.5914 36.4199C46.7703 51.3757 72.8148 48.2029 87.8018 50.1565C95.8897 51.2108 100.601 60.5709 108.049 63.8971C116.662 67.7441 128.933 59.5706 133.361 51.2409C136.304 45.7049 128.645 34.5702 122.513 35.8757C115.843 37.296 109.823 47.8825 112.93 53.9538C118.452 64.7424 147.524 55.2401 146.738 67.3342C145.632 84.3537 112.628 68.4238 95.5764 68.0545C90.4728 67.944 85.7943 78.7685 89.6104 82.1592C94.6863 86.6693 103.928 77.5649 106.964 71.4916C109.784 65.8519 116.76 57.5142 122.333 60.4639C130.77 64.9295 136.89 82.6664 145.113 77.8178C155.379 71.7644 147.013 47.2164 158.67 44.7347C170.105 42.3001 160.278 68.4911 164.816 79.2662C167.779 86.3033 185.708 91.445 187.235 83.9639C188.768 76.4567 161.547 73.8024 164.456 80.8908C170.68 96.0598 197.378 79.9732 213.628 82.1592C230.579 84.4396 251.85 108.362 263.165 95.5357C267.274 90.8778 262.044 79.4823 255.934 78.3619C244.323 76.2327 224.409 82.1065 224.116 93.9072C223.816 105.948 246.422 105.119 258.467 105.119C269.853 105.119 286.416 110 292.274 100.237C296.089 93.8808 298.528 81.9783 292.274 77.9979C287.832 75.1704 280.487 78.3196 277.085 82.3393C273.144 86.9967 266.013 76.0092 259.911 76.0092C249.481 76.0092 240.313 85.4967 229.901 84.8682C222.142 84.3997 217.841 73.7977 210.195 72.3959C182.411 67.3024 139.383 81.5256 127.031 56.1225C116.705 34.8874 172.586 43.3088 194.466 34.4312C199.327 32.4588 200.738 19.3021 195.5 19.0121Z" stroke="#F5F99E" stroke-width="2" stroke-miterlimit="10" stroke-linejoin="round"/>
<path fill-rule="evenodd" clip-rule="evenodd" d="M195.551 18.8811C149.415 29.3268 100.005 -5.05544 53.451 3.33192C23.9736 8.64271 -5.53348 49.6988 3.73439 78.181C18.8531 124.644 101.182 85.7005 149.991 87.9403C200.315 90.2495 269.741 142.551 300.41 102.585C308.075 92.5968 298.432 69.3072 285.945 67.6935C260.454 64.3992 234.631 64.233 208.931 63.8962C197.192 63.7423 180.643 67.7574 174.219 57.9302C171.226 53.351 181.657 49.4025 186.692 47.2626C203.065 40.304 229.132 47.5816 237.857 32.0776C243.119 22.7261 230.421 7.70554 219.959 5.32056C210.884 3.2519 198.178 9.95227 195.551 18.8811Z" stroke="#BC4D4D" stroke-width="3" stroke-miterlimit="10" stroke-linejoin="round"/>
</svg>
