<svg width="406" height="155" viewBox="0 0 406 155" fill="none" xmlns="http://www.w3.org/2000/svg">
<path d="M112.17 10.09C111.863 10.09 111.563 10.0667 111.27 10.02C110.977 9.97333 110.7 9.90333 110.44 9.81C110.18 9.71 109.947 9.59 109.74 9.45C109.64 9.37667 109.57 9.29333 109.53 9.2C109.497 9.10667 109.487 9.01667 109.5 8.93C109.52 8.83667 109.56 8.75667 109.62 8.69C109.68 8.62333 109.753 8.58333 109.84 8.57C109.927 8.55 110.023 8.57667 110.13 8.65C110.43 8.84333 110.747 8.98667 111.08 9.08C111.413 9.16667 111.777 9.21 112.17 9.21C112.737 9.21 113.153 9.11 113.42 8.91C113.693 8.70333 113.83 8.43667 113.83 8.11C113.83 7.84333 113.733 7.63333 113.54 7.48C113.347 7.32 113.023 7.19333 112.57 7.1L111.5 6.88C110.867 6.74667 110.393 6.52667 110.08 6.22C109.773 5.91333 109.62 5.5 109.62 4.98C109.62 4.66667 109.683 4.38 109.81 4.12C109.943 3.86 110.127 3.63667 110.36 3.45C110.593 3.25667 110.873 3.11 111.2 3.01C111.527 2.91 111.883 2.86 112.27 2.86C112.683 2.86 113.07 2.91333 113.43 3.02C113.797 3.12667 114.123 3.29 114.41 3.51C114.497 3.57 114.553 3.64667 114.58 3.74C114.613 3.82667 114.62 3.91333 114.6 4C114.587 4.08667 114.55 4.16 114.49 4.22C114.43 4.28 114.353 4.31667 114.26 4.33C114.167 4.33667 114.063 4.30333 113.95 4.23C113.69 4.05667 113.423 3.93333 113.15 3.86C112.883 3.78 112.587 3.74 112.26 3.74C111.933 3.74 111.647 3.79 111.4 3.89C111.16 3.99 110.973 4.13 110.84 4.31C110.713 4.49 110.65 4.70333 110.65 4.95C110.65 5.23 110.74 5.45333 110.92 5.62C111.1 5.78667 111.4 5.91333 111.82 6L112.88 6.22C113.547 6.36 114.043 6.57667 114.37 6.87C114.697 7.16333 114.86 7.55333 114.86 8.04C114.86 8.35333 114.797 8.63667 114.67 8.89C114.543 9.13667 114.363 9.35 114.13 9.53C113.897 9.71 113.613 9.85 113.28 9.95C112.953 10.0433 112.583 10.09 112.17 10.09ZM116.431 10.06C116.271 10.06 116.147 10.0133 116.061 9.92C115.974 9.82 115.931 9.68333 115.931 9.51V5.61C115.931 5.43667 115.974 5.30333 116.061 5.21C116.147 5.11667 116.271 5.07 116.431 5.07C116.591 5.07 116.714 5.11667 116.801 5.21C116.894 5.30333 116.941 5.43667 116.941 5.61V9.51C116.941 9.68333 116.897 9.82 116.811 9.92C116.724 10.0133 116.597 10.06 116.431 10.06ZM116.431 4.03C116.231 4.03 116.074 3.98 115.961 3.88C115.854 3.78 115.801 3.64 115.801 3.46C115.801 3.27333 115.854 3.13333 115.961 3.04C116.074 2.94 116.231 2.89 116.431 2.89C116.631 2.89 116.784 2.94 116.891 3.04C117.004 3.13333 117.061 3.27333 117.061 3.46C117.061 3.64 117.004 3.78 116.891 3.88C116.784 3.98 116.631 4.03 116.431 4.03ZM118.882 10.07C118.722 10.07 118.599 10.0267 118.512 9.94C118.426 9.84667 118.382 9.72 118.382 9.56V5.56C118.382 5.39333 118.426 5.26667 118.512 5.18C118.599 5.09333 118.719 5.05 118.872 5.05C119.032 5.05 119.152 5.09333 119.232 5.18C119.319 5.26667 119.362 5.39333 119.362 5.56V6.38L119.252 6.16C119.386 5.80667 119.592 5.53 119.872 5.33C120.152 5.13 120.489 5.03 120.882 5.03C121.289 5.03 121.619 5.12667 121.872 5.32C122.126 5.51333 122.299 5.81 122.392 6.21H122.252C122.379 5.84333 122.596 5.55667 122.902 5.35C123.209 5.13667 123.566 5.03 123.972 5.03C124.346 5.03 124.652 5.10333 124.892 5.25C125.132 5.39 125.312 5.60667 125.432 5.9C125.552 6.18667 125.612 6.55 125.612 6.99V9.56C125.612 9.72 125.566 9.84667 125.472 9.94C125.386 10.0267 125.262 10.07 125.102 10.07C124.942 10.07 124.819 10.0267 124.732 9.94C124.646 9.84667 124.602 9.72 124.602 9.56V7.04C124.602 6.62667 124.529 6.32333 124.382 6.13C124.242 5.93667 124.009 5.84 123.682 5.84C123.316 5.84 123.026 5.96667 122.812 6.22C122.599 6.47333 122.492 6.82333 122.492 7.27V9.56C122.492 9.72 122.449 9.84667 122.362 9.94C122.276 10.0267 122.152 10.07 121.992 10.07C121.832 10.07 121.706 10.0267 121.612 9.94C121.526 9.84667 121.482 9.72 121.482 9.56V7.04C121.482 6.62667 121.412 6.32333 121.272 6.13C121.132 5.93667 120.899 5.84 120.572 5.84C120.206 5.84 119.916 5.96667 119.702 6.22C119.496 6.47333 119.392 6.82333 119.392 7.27V9.56C119.392 9.9 119.222 10.07 118.882 10.07ZM127.524 11.87C127.364 11.87 127.241 11.8267 127.154 11.74C127.068 11.6533 127.024 11.5267 127.024 11.36V5.56C127.024 5.39333 127.068 5.26667 127.154 5.18C127.241 5.09333 127.361 5.05 127.514 5.05C127.674 5.05 127.798 5.09333 127.884 5.18C127.971 5.26667 128.014 5.39333 128.014 5.56V6.43L127.904 6.22C128.011 5.86 128.221 5.57333 128.534 5.36C128.848 5.14 129.218 5.03 129.644 5.03C130.078 5.03 130.454 5.13333 130.774 5.34C131.101 5.54667 131.351 5.83667 131.524 6.21C131.704 6.58333 131.794 7.03333 131.794 7.56C131.794 8.07333 131.704 8.52333 131.524 8.91C131.351 9.29 131.104 9.58333 130.784 9.79C130.464 9.99 130.084 10.09 129.644 10.09C129.224 10.09 128.858 9.98333 128.544 9.77C128.231 9.55667 128.021 9.27333 127.914 8.92H128.034V11.36C128.034 11.5267 127.988 11.6533 127.894 11.74C127.808 11.8267 127.684 11.87 127.524 11.87ZM129.394 9.31C129.674 9.31 129.918 9.24333 130.124 9.11C130.331 8.97667 130.491 8.78 130.604 8.52C130.718 8.26 130.774 7.94 130.774 7.56C130.774 6.98667 130.648 6.55333 130.394 6.26C130.148 5.96667 129.814 5.82 129.394 5.82C129.121 5.82 128.878 5.88667 128.664 6.02C128.458 6.14667 128.298 6.34 128.184 6.6C128.071 6.86 128.014 7.18 128.014 7.56C128.014 8.12667 128.141 8.56 128.394 8.86C128.648 9.16 128.981 9.31 129.394 9.31ZM134.503 10.09C133.983 10.09 133.589 9.94 133.323 9.64C133.063 9.33333 132.933 8.89333 132.933 8.32V3.39C132.933 3.22333 132.976 3.09667 133.063 3.01C133.149 2.92333 133.273 2.88 133.433 2.88C133.593 2.88 133.716 2.92333 133.803 3.01C133.896 3.09667 133.943 3.22333 133.943 3.39V8.26C133.943 8.59333 134.009 8.84333 134.143 9.01C134.283 9.17 134.483 9.25 134.743 9.25C134.803 9.25 134.856 9.25 134.903 9.25C134.949 9.24333 134.996 9.23667 135.043 9.23C135.123 9.22333 135.179 9.24667 135.213 9.3C135.246 9.34667 135.263 9.44667 135.263 9.6C135.263 9.74 135.233 9.85 135.173 9.93C135.113 10.0033 135.016 10.05 134.883 10.07C134.823 10.0767 134.759 10.08 134.693 10.08C134.626 10.0867 134.563 10.09 134.503 10.09ZM138.23 10.09C137.697 10.09 137.237 9.99 136.85 9.79C136.47 9.58333 136.174 9.29333 135.96 8.92C135.754 8.54 135.65 8.09 135.65 7.57C135.65 7.06333 135.754 6.62 135.96 6.24C136.167 5.86 136.45 5.56333 136.81 5.35C137.17 5.13667 137.58 5.03 138.04 5.03C138.38 5.03 138.684 5.08667 138.95 5.2C139.217 5.30667 139.444 5.46667 139.63 5.68C139.824 5.88667 139.967 6.14 140.06 6.44C140.16 6.74 140.21 7.07667 140.21 7.45C140.21 7.56333 140.177 7.65 140.11 7.71C140.044 7.76333 139.944 7.79 139.81 7.79H136.45V7.17H139.53L139.36 7.31C139.36 6.97667 139.31 6.69333 139.21 6.46C139.117 6.22667 138.974 6.05 138.78 5.93C138.594 5.80333 138.36 5.74 138.08 5.74C137.767 5.74 137.5 5.81333 137.28 5.96C137.067 6.10667 136.904 6.31 136.79 6.57C136.677 6.83 136.62 7.13333 136.62 7.48V7.54C136.62 8.12667 136.757 8.57 137.03 8.87C137.31 9.16333 137.714 9.31 138.24 9.31C138.44 9.31 138.65 9.28333 138.87 9.23C139.097 9.17667 139.31 9.08667 139.51 8.96C139.624 8.89333 139.724 8.86333 139.81 8.87C139.904 8.87667 139.977 8.90667 140.03 8.96C140.09 9.01333 140.127 9.08 140.14 9.16C140.154 9.24 140.14 9.32333 140.1 9.41C140.06 9.49 139.99 9.56333 139.89 9.63C139.664 9.78333 139.4 9.9 139.1 9.98C138.8 10.0533 138.51 10.09 138.23 10.09ZM141.912 11.01C141.838 11.1033 141.758 11.1567 141.672 11.17C141.592 11.1833 141.522 11.1667 141.462 11.12C141.402 11.0733 141.368 11.0067 141.362 10.92C141.355 10.84 141.392 10.75 141.472 10.65C141.592 10.5033 141.672 10.35 141.712 10.19C141.758 10.0367 141.782 9.9 141.782 9.78L141.822 10.04C141.622 10.04 141.458 9.98333 141.332 9.87C141.212 9.75 141.152 9.59333 141.152 9.4C141.152 9.21333 141.208 9.06333 141.322 8.95C141.435 8.83 141.588 8.77 141.782 8.77C141.982 8.77 142.138 8.84 142.252 8.98C142.372 9.11333 142.432 9.30667 142.432 9.56C142.432 9.70667 142.415 9.86 142.382 10.02C142.355 10.18 142.305 10.3433 142.232 10.51C142.158 10.6767 142.052 10.8433 141.912 11.01ZM149.591 10.09C148.878 10.09 148.268 9.94333 147.761 9.65C147.255 9.35667 146.865 8.94 146.591 8.4C146.325 7.85333 146.191 7.21 146.191 6.47C146.191 5.91667 146.268 5.42 146.421 4.98C146.575 4.53333 146.795 4.15333 147.081 3.84C147.375 3.52 147.731 3.27667 148.151 3.11C148.578 2.94333 149.058 2.86 149.591 2.86C149.985 2.86 150.361 2.91333 150.721 3.02C151.088 3.12667 151.405 3.28 151.671 3.48C151.785 3.55333 151.858 3.64333 151.891 3.75C151.931 3.85 151.938 3.94667 151.911 4.04C151.891 4.13333 151.848 4.21333 151.781 4.28C151.715 4.34 151.628 4.37333 151.521 4.38C151.421 4.38667 151.311 4.35 151.191 4.27C150.971 4.10333 150.728 3.98 150.461 3.9C150.195 3.82 149.915 3.78 149.621 3.78C149.115 3.78 148.688 3.88667 148.341 4.1C147.995 4.30667 147.731 4.61 147.551 5.01C147.371 5.41 147.281 5.89667 147.281 6.47C147.281 7.04333 147.371 7.53333 147.551 7.94C147.731 8.34 147.995 8.64667 148.341 8.86C148.688 9.06667 149.115 9.17 149.621 9.17C149.915 9.17 150.195 9.13 150.461 9.05C150.735 8.96333 150.991 8.83667 151.231 8.67C151.351 8.59667 151.458 8.56333 151.551 8.57C151.651 8.57667 151.735 8.61 151.801 8.67C151.868 8.73 151.911 8.80667 151.931 8.9C151.958 8.98667 151.955 9.08 151.921 9.18C151.895 9.27333 151.831 9.35333 151.731 9.42C151.458 9.64 151.135 9.80667 150.761 9.92C150.388 10.0333 149.998 10.09 149.591 10.09ZM154.649 10.09C154.129 10.09 153.736 9.94 153.469 9.64C153.209 9.33333 153.079 8.89333 153.079 8.32V3.39C153.079 3.22333 153.122 3.09667 153.209 3.01C153.296 2.92333 153.419 2.88 153.579 2.88C153.739 2.88 153.862 2.92333 153.949 3.01C154.042 3.09667 154.089 3.22333 154.089 3.39V8.26C154.089 8.59333 154.156 8.84333 154.289 9.01C154.429 9.17 154.629 9.25 154.889 9.25C154.949 9.25 155.002 9.25 155.049 9.25C155.096 9.24333 155.142 9.23667 155.189 9.23C155.269 9.22333 155.326 9.24667 155.359 9.3C155.392 9.34667 155.409 9.44667 155.409 9.6C155.409 9.74 155.379 9.85 155.319 9.93C155.259 10.0033 155.162 10.05 155.029 10.07C154.969 10.0767 154.906 10.08 154.839 10.08C154.772 10.0867 154.709 10.09 154.649 10.09ZM158.207 10.09C157.714 10.09 157.287 9.98667 156.927 9.78C156.574 9.57333 156.297 9.28 156.097 8.9C155.897 8.52 155.797 8.07333 155.797 7.56C155.797 7.16667 155.854 6.81667 155.967 6.51C156.08 6.20333 156.24 5.94 156.447 5.72C156.66 5.49333 156.914 5.32333 157.207 5.21C157.507 5.09 157.84 5.03 158.207 5.03C158.694 5.03 159.114 5.13333 159.467 5.34C159.827 5.54667 160.107 5.84 160.307 6.22C160.507 6.59333 160.607 7.04 160.607 7.56C160.607 7.94667 160.55 8.29667 160.437 8.61C160.324 8.92333 160.16 9.19 159.947 9.41C159.74 9.63 159.487 9.8 159.187 9.92C158.894 10.0333 158.567 10.09 158.207 10.09ZM158.207 9.31C158.48 9.31 158.72 9.24333 158.927 9.11C159.134 8.97667 159.294 8.78 159.407 8.52C159.527 8.26 159.587 7.94 159.587 7.56C159.587 6.98667 159.46 6.55333 159.207 6.26C158.954 5.96667 158.62 5.82 158.207 5.82C157.927 5.82 157.684 5.88667 157.477 6.02C157.27 6.14667 157.107 6.34 156.987 6.6C156.874 6.86 156.817 7.18 156.817 7.56C156.817 8.12667 156.944 8.56 157.197 8.86C157.45 9.16 157.787 9.31 158.207 9.31ZM163.451 10.09C163.158 10.09 162.855 10.0567 162.541 9.99C162.235 9.92333 161.951 9.81 161.691 9.65C161.605 9.59 161.545 9.52333 161.511 9.45C161.478 9.37667 161.465 9.30333 161.471 9.23C161.485 9.15 161.515 9.08333 161.561 9.03C161.615 8.97 161.678 8.93333 161.751 8.92C161.831 8.90667 161.915 8.92333 162.001 8.97C162.261 9.11667 162.511 9.22 162.751 9.28C162.991 9.33333 163.228 9.36 163.461 9.36C163.815 9.36 164.081 9.29667 164.261 9.17C164.441 9.04333 164.531 8.87333 164.531 8.66C164.531 8.48667 164.471 8.35333 164.351 8.26C164.231 8.16 164.051 8.08333 163.811 8.03L162.861 7.84C162.448 7.75333 162.135 7.6 161.921 7.38C161.708 7.16 161.601 6.88 161.601 6.54C161.601 6.23333 161.685 5.96667 161.851 5.74C162.018 5.51333 162.251 5.34 162.551 5.22C162.851 5.09333 163.198 5.03 163.591 5.03C163.885 5.03 164.161 5.06667 164.421 5.14C164.681 5.21333 164.921 5.32333 165.141 5.47C165.228 5.51667 165.285 5.58 165.311 5.66C165.338 5.73333 165.341 5.80667 165.321 5.88C165.308 5.95333 165.275 6.02 165.221 6.08C165.168 6.13333 165.101 6.16667 165.021 6.18C164.948 6.18667 164.865 6.16667 164.771 6.12C164.571 5.99333 164.371 5.90333 164.171 5.85C163.978 5.79667 163.785 5.77 163.591 5.77C163.238 5.77 162.971 5.83667 162.791 5.97C162.618 6.09667 162.531 6.27 162.531 6.49C162.531 6.65667 162.585 6.79333 162.691 6.9C162.798 7.00667 162.965 7.08333 163.191 7.13L164.141 7.32C164.575 7.40667 164.901 7.55333 165.121 7.76C165.348 7.96667 165.461 8.24667 165.461 8.6C165.461 9.06 165.278 9.42333 164.911 9.69C164.545 9.95667 164.058 10.09 163.451 10.09ZM168.875 10.09C168.342 10.09 167.882 9.99 167.495 9.79C167.115 9.58333 166.818 9.29333 166.605 8.92C166.398 8.54 166.295 8.09 166.295 7.57C166.295 7.06333 166.398 6.62 166.605 6.24C166.812 5.86 167.095 5.56333 167.455 5.35C167.815 5.13667 168.225 5.03 168.685 5.03C169.025 5.03 169.328 5.08667 169.595 5.2C169.862 5.30667 170.088 5.46667 170.275 5.68C170.468 5.88667 170.612 6.14 170.705 6.44C170.805 6.74 170.855 7.07667 170.855 7.45C170.855 7.56333 170.822 7.65 170.755 7.71C170.688 7.76333 170.588 7.79 170.455 7.79H167.095V7.17H170.175L170.005 7.31C170.005 6.97667 169.955 6.69333 169.855 6.46C169.762 6.22667 169.618 6.05 169.425 5.93C169.238 5.80333 169.005 5.74 168.725 5.74C168.412 5.74 168.145 5.81333 167.925 5.96C167.712 6.10667 167.548 6.31 167.435 6.57C167.322 6.83 167.265 7.13333 167.265 7.48V7.54C167.265 8.12667 167.402 8.57 167.675 8.87C167.955 9.16333 168.358 9.31 168.885 9.31C169.085 9.31 169.295 9.28333 169.515 9.23C169.742 9.17667 169.955 9.08667 170.155 8.96C170.268 8.89333 170.368 8.86333 170.455 8.87C170.548 8.87667 170.622 8.90667 170.675 8.96C170.735 9.01333 170.772 9.08 170.785 9.16C170.798 9.24 170.785 9.32333 170.745 9.41C170.705 9.49 170.635 9.56333 170.535 9.63C170.308 9.78333 170.045 9.9 169.745 9.98C169.445 10.0533 169.155 10.09 168.875 10.09ZM173.816 10.09C173.389 10.09 173.013 9.99 172.686 9.79C172.366 9.58333 172.116 9.29 171.936 8.91C171.756 8.52333 171.666 8.07333 171.666 7.56C171.666 7.03333 171.756 6.58333 171.936 6.21C172.116 5.83667 172.366 5.54667 172.686 5.34C173.013 5.13333 173.389 5.03 173.816 5.03C174.243 5.03 174.609 5.13667 174.916 5.35C175.229 5.55667 175.439 5.83667 175.546 6.19H175.436V3.39C175.436 3.22333 175.479 3.09667 175.566 3.01C175.653 2.92333 175.776 2.88 175.936 2.88C176.096 2.88 176.219 2.92333 176.306 3.01C176.399 3.09667 176.446 3.22333 176.446 3.39V9.56C176.446 9.72 176.403 9.84667 176.316 9.94C176.229 10.0267 176.106 10.07 175.946 10.07C175.786 10.07 175.663 10.0267 175.576 9.94C175.489 9.84667 175.446 9.72 175.446 9.56V8.68L175.556 8.9C175.449 9.26 175.239 9.55 174.926 9.77C174.619 9.98333 174.249 10.09 173.816 10.09ZM174.076 9.31C174.349 9.31 174.589 9.24333 174.796 9.11C175.003 8.97667 175.163 8.78 175.276 8.52C175.396 8.26 175.456 7.94 175.456 7.56C175.456 6.98667 175.329 6.55333 175.076 6.26C174.823 5.96667 174.489 5.82 174.076 5.82C173.796 5.82 173.553 5.88667 173.346 6.02C173.139 6.14667 172.976 6.34 172.856 6.6C172.743 6.86 172.686 7.18 172.686 7.56C172.686 8.12667 172.813 8.56 173.066 8.86C173.319 9.16 173.656 9.31 174.076 9.31Z" fill="#BC4D4D"/>
<path d="M200.31 10.07C200.157 10.07 200.037 10.0267 199.95 9.94C199.863 9.85333 199.82 9.73 199.82 9.57V3.4C199.82 3.23333 199.86 3.10667 199.94 3.02C200.027 2.92667 200.14 2.88 200.28 2.88C200.4 2.88 200.49 2.90333 200.55 2.95C200.617 2.99 200.693 3.06667 200.78 3.18L204.9 8.61H204.65V3.37C204.65 3.21667 204.69 3.09667 204.77 3.01C204.857 2.92333 204.977 2.88 205.13 2.88C205.29 2.88 205.41 2.92333 205.49 3.01C205.57 3.09667 205.61 3.21667 205.61 3.37V9.58C205.61 9.73333 205.57 9.85333 205.49 9.94C205.417 10.0267 205.317 10.07 205.19 10.07C205.07 10.07 204.97 10.0467 204.89 10C204.817 9.95333 204.737 9.87333 204.65 9.76L200.55 4.34H200.78V9.57C200.78 9.73 200.74 9.85333 200.66 9.94C200.58 10.0267 200.463 10.07 200.31 10.07ZM209.262 10.09C208.768 10.09 208.342 9.98667 207.982 9.78C207.628 9.57333 207.352 9.28 207.152 8.9C206.952 8.52 206.852 8.07333 206.852 7.56C206.852 7.16667 206.908 6.81667 207.022 6.51C207.135 6.20333 207.295 5.94 207.502 5.72C207.715 5.49333 207.968 5.32333 208.262 5.21C208.562 5.09 208.895 5.03 209.262 5.03C209.748 5.03 210.168 5.13333 210.522 5.34C210.882 5.54667 211.162 5.84 211.362 6.22C211.562 6.59333 211.662 7.04 211.662 7.56C211.662 7.94667 211.605 8.29667 211.492 8.61C211.378 8.92333 211.215 9.19 211.002 9.41C210.795 9.63 210.542 9.8 210.242 9.92C209.948 10.0333 209.622 10.09 209.262 10.09ZM209.262 9.31C209.535 9.31 209.775 9.24333 209.982 9.11C210.188 8.97667 210.348 8.78 210.462 8.52C210.582 8.26 210.642 7.94 210.642 7.56C210.642 6.98667 210.515 6.55333 210.262 6.26C210.008 5.96667 209.675 5.82 209.262 5.82C208.982 5.82 208.738 5.88667 208.532 6.02C208.325 6.14667 208.162 6.34 208.042 6.6C207.928 6.86 207.872 7.18 207.872 7.56C207.872 8.12667 207.998 8.56 208.252 8.86C208.505 9.16 208.842 9.31 209.262 9.31ZM214.827 10.09C214.427 10.09 214.09 10.02 213.817 9.88C213.544 9.74 213.34 9.53333 213.207 9.26C213.074 8.98667 213.007 8.65333 213.007 8.26V5.9H212.407C212.274 5.9 212.17 5.86667 212.097 5.8C212.024 5.72667 211.987 5.63 211.987 5.51C211.987 5.38333 212.024 5.28667 212.097 5.22C212.17 5.15333 212.274 5.12 212.407 5.12H213.007V4.09C213.007 3.92333 213.05 3.79667 213.137 3.71C213.23 3.62333 213.357 3.58 213.517 3.58C213.677 3.58 213.8 3.62333 213.887 3.71C213.974 3.79667 214.017 3.92333 214.017 4.09V5.12H215.187C215.32 5.12 215.424 5.15333 215.497 5.22C215.57 5.28667 215.607 5.38333 215.607 5.51C215.607 5.63 215.57 5.72667 215.497 5.8C215.424 5.86667 215.32 5.9 215.187 5.9H214.017V8.18C214.017 8.53333 214.09 8.8 214.237 8.98C214.39 9.16 214.637 9.25 214.977 9.25C215.097 9.25 215.2 9.24 215.287 9.22C215.38 9.19333 215.457 9.17667 215.517 9.17C215.59 9.17 215.65 9.19667 215.697 9.25C215.744 9.29667 215.767 9.39 215.767 9.53C215.767 9.63 215.747 9.72333 215.707 9.81C215.674 9.89667 215.61 9.95333 215.517 9.98C215.437 10.0067 215.327 10.03 215.187 10.05C215.054 10.0767 214.934 10.09 214.827 10.09ZM221.496 10.09C221.19 10.09 220.89 10.0667 220.596 10.02C220.303 9.97333 220.026 9.90333 219.766 9.81C219.506 9.71 219.273 9.59 219.066 9.45C218.966 9.37667 218.896 9.29333 218.856 9.2C218.823 9.10667 218.813 9.01667 218.826 8.93C218.846 8.83667 218.886 8.75667 218.946 8.69C219.006 8.62333 219.08 8.58333 219.166 8.57C219.253 8.55 219.35 8.57667 219.456 8.65C219.756 8.84333 220.073 8.98667 220.406 9.08C220.74 9.16667 221.103 9.21 221.496 9.21C222.063 9.21 222.48 9.11 222.746 8.91C223.02 8.70333 223.156 8.43667 223.156 8.11C223.156 7.84333 223.06 7.63333 222.866 7.48C222.673 7.32 222.35 7.19333 221.896 7.1L220.826 6.88C220.193 6.74667 219.72 6.52667 219.406 6.22C219.1 5.91333 218.946 5.5 218.946 4.98C218.946 4.66667 219.01 4.38 219.136 4.12C219.27 3.86 219.453 3.63667 219.686 3.45C219.92 3.25667 220.2 3.11 220.526 3.01C220.853 2.91 221.21 2.86 221.596 2.86C222.01 2.86 222.396 2.91333 222.756 3.02C223.123 3.12667 223.45 3.29 223.736 3.51C223.823 3.57 223.88 3.64667 223.906 3.74C223.94 3.82667 223.946 3.91333 223.926 4C223.913 4.08667 223.876 4.16 223.816 4.22C223.756 4.28 223.68 4.31667 223.586 4.33C223.493 4.33667 223.39 4.30333 223.276 4.23C223.016 4.05667 222.75 3.93333 222.476 3.86C222.21 3.78 221.913 3.74 221.586 3.74C221.26 3.74 220.973 3.79 220.726 3.89C220.486 3.99 220.3 4.13 220.166 4.31C220.04 4.49 219.976 4.70333 219.976 4.95C219.976 5.23 220.066 5.45333 220.246 5.62C220.426 5.78667 220.726 5.91333 221.146 6L222.206 6.22C222.873 6.36 223.37 6.57667 223.696 6.87C224.023 7.16333 224.186 7.55333 224.186 8.04C224.186 8.35333 224.123 8.63667 223.996 8.89C223.87 9.13667 223.69 9.35 223.456 9.53C223.223 9.71 222.94 9.85 222.606 9.95C222.28 10.0433 221.91 10.09 221.496 10.09ZM225.757 10.06C225.597 10.06 225.474 10.0133 225.387 9.92C225.3 9.82 225.257 9.68333 225.257 9.51V5.61C225.257 5.43667 225.3 5.30333 225.387 5.21C225.474 5.11667 225.597 5.07 225.757 5.07C225.917 5.07 226.04 5.11667 226.127 5.21C226.22 5.30333 226.267 5.43667 226.267 5.61V9.51C226.267 9.68333 226.224 9.82 226.137 9.92C226.05 10.0133 225.924 10.06 225.757 10.06ZM225.757 4.03C225.557 4.03 225.4 3.98 225.287 3.88C225.18 3.78 225.127 3.64 225.127 3.46C225.127 3.27333 225.18 3.13333 225.287 3.04C225.4 2.94 225.557 2.89 225.757 2.89C225.957 2.89 226.11 2.94 226.217 3.04C226.33 3.13333 226.387 3.27333 226.387 3.46C226.387 3.64 226.33 3.78 226.217 3.88C226.11 3.98 225.957 4.03 225.757 4.03ZM228.209 10.07C228.049 10.07 227.925 10.0267 227.839 9.94C227.752 9.84667 227.709 9.72 227.709 9.56V5.56C227.709 5.39333 227.752 5.26667 227.839 5.18C227.925 5.09333 228.045 5.05 228.199 5.05C228.359 5.05 228.479 5.09333 228.559 5.18C228.645 5.26667 228.689 5.39333 228.689 5.56V6.38L228.579 6.16C228.712 5.80667 228.919 5.53 229.199 5.33C229.479 5.13 229.815 5.03 230.209 5.03C230.615 5.03 230.945 5.12667 231.199 5.32C231.452 5.51333 231.625 5.81 231.719 6.21H231.579C231.705 5.84333 231.922 5.55667 232.229 5.35C232.535 5.13667 232.892 5.03 233.299 5.03C233.672 5.03 233.979 5.10333 234.219 5.25C234.459 5.39 234.639 5.60667 234.759 5.9C234.879 6.18667 234.939 6.55 234.939 6.99V9.56C234.939 9.72 234.892 9.84667 234.799 9.94C234.712 10.0267 234.589 10.07 234.429 10.07C234.269 10.07 234.145 10.0267 234.059 9.94C233.972 9.84667 233.929 9.72 233.929 9.56V7.04C233.929 6.62667 233.855 6.32333 233.709 6.13C233.569 5.93667 233.335 5.84 233.009 5.84C232.642 5.84 232.352 5.96667 232.139 6.22C231.925 6.47333 231.819 6.82333 231.819 7.27V9.56C231.819 9.72 231.775 9.84667 231.689 9.94C231.602 10.0267 231.479 10.07 231.319 10.07C231.159 10.07 231.032 10.0267 230.939 9.94C230.852 9.84667 230.809 9.72 230.809 9.56V7.04C230.809 6.62667 230.739 6.32333 230.599 6.13C230.459 5.93667 230.225 5.84 229.899 5.84C229.532 5.84 229.242 5.96667 229.029 6.22C228.822 6.47333 228.719 6.82333 228.719 7.27V9.56C228.719 9.9 228.549 10.07 228.209 10.07ZM236.851 11.87C236.691 11.87 236.567 11.8267 236.481 11.74C236.394 11.6533 236.351 11.5267 236.351 11.36V5.56C236.351 5.39333 236.394 5.26667 236.481 5.18C236.567 5.09333 236.687 5.05 236.841 5.05C237.001 5.05 237.124 5.09333 237.211 5.18C237.297 5.26667 237.341 5.39333 237.341 5.56V6.43L237.231 6.22C237.337 5.86 237.547 5.57333 237.861 5.36C238.174 5.14 238.544 5.03 238.971 5.03C239.404 5.03 239.781 5.13333 240.101 5.34C240.427 5.54667 240.677 5.83667 240.851 6.21C241.031 6.58333 241.121 7.03333 241.121 7.56C241.121 8.07333 241.031 8.52333 240.851 8.91C240.677 9.29 240.431 9.58333 240.111 9.79C239.791 9.99 239.411 10.09 238.971 10.09C238.551 10.09 238.184 9.98333 237.871 9.77C237.557 9.55667 237.347 9.27333 237.241 8.92H237.361V11.36C237.361 11.5267 237.314 11.6533 237.221 11.74C237.134 11.8267 237.011 11.87 236.851 11.87ZM238.721 9.31C239.001 9.31 239.244 9.24333 239.451 9.11C239.657 8.97667 239.817 8.78 239.931 8.52C240.044 8.26 240.101 7.94 240.101 7.56C240.101 6.98667 239.974 6.55333 239.721 6.26C239.474 5.96667 239.141 5.82 238.721 5.82C238.447 5.82 238.204 5.88667 237.991 6.02C237.784 6.14667 237.624 6.34 237.511 6.6C237.397 6.86 237.341 7.18 237.341 7.56C237.341 8.12667 237.467 8.56 237.721 8.86C237.974 9.16 238.307 9.31 238.721 9.31ZM243.829 10.09C243.309 10.09 242.915 9.94 242.649 9.64C242.389 9.33333 242.259 8.89333 242.259 8.32V3.39C242.259 3.22333 242.302 3.09667 242.389 3.01C242.475 2.92333 242.599 2.88 242.759 2.88C242.919 2.88 243.042 2.92333 243.129 3.01C243.222 3.09667 243.269 3.22333 243.269 3.39V8.26C243.269 8.59333 243.335 8.84333 243.469 9.01C243.609 9.17 243.809 9.25 244.069 9.25C244.129 9.25 244.182 9.25 244.229 9.25C244.275 9.24333 244.322 9.23667 244.369 9.23C244.449 9.22333 244.505 9.24667 244.539 9.3C244.572 9.34667 244.589 9.44667 244.589 9.6C244.589 9.74 244.559 9.85 244.499 9.93C244.439 10.0033 244.342 10.05 244.209 10.07C244.149 10.0767 244.085 10.08 244.019 10.08C243.952 10.0867 243.889 10.09 243.829 10.09ZM247.557 10.09C247.023 10.09 246.563 9.99 246.177 9.79C245.797 9.58333 245.5 9.29333 245.287 8.92C245.08 8.54 244.977 8.09 244.977 7.57C244.977 7.06333 245.08 6.62 245.287 6.24C245.493 5.86 245.777 5.56333 246.137 5.35C246.497 5.13667 246.907 5.03 247.367 5.03C247.707 5.03 248.01 5.08667 248.277 5.2C248.543 5.30667 248.77 5.46667 248.957 5.68C249.15 5.88667 249.293 6.14 249.387 6.44C249.487 6.74 249.537 7.07667 249.537 7.45C249.537 7.56333 249.503 7.65 249.437 7.71C249.37 7.76333 249.27 7.79 249.137 7.79H245.777V7.17H248.857L248.687 7.31C248.687 6.97667 248.637 6.69333 248.537 6.46C248.443 6.22667 248.3 6.05 248.107 5.93C247.92 5.80333 247.687 5.74 247.407 5.74C247.093 5.74 246.827 5.81333 246.607 5.96C246.393 6.10667 246.23 6.31 246.117 6.57C246.003 6.83 245.947 7.13333 245.947 7.48V7.54C245.947 8.12667 246.083 8.57 246.357 8.87C246.637 9.16333 247.04 9.31 247.567 9.31C247.767 9.31 247.977 9.28333 248.197 9.23C248.423 9.17667 248.637 9.08667 248.837 8.96C248.95 8.89333 249.05 8.86333 249.137 8.87C249.23 8.87667 249.303 8.90667 249.357 8.96C249.417 9.01333 249.453 9.08 249.467 9.16C249.48 9.24 249.467 9.32333 249.427 9.41C249.387 9.49 249.317 9.56333 249.217 9.63C248.99 9.78333 248.727 9.9 248.427 9.98C248.127 10.0533 247.837 10.09 247.557 10.09ZM251.238 11.01C251.164 11.1033 251.084 11.1567 250.998 11.17C250.918 11.1833 250.848 11.1667 250.788 11.12C250.728 11.0733 250.694 11.0067 250.688 10.92C250.681 10.84 250.718 10.75 250.798 10.65C250.918 10.5033 250.998 10.35 251.038 10.19C251.084 10.0367 251.108 9.9 251.108 9.78L251.148 10.04C250.948 10.04 250.784 9.98333 250.658 9.87C250.538 9.75 250.478 9.59333 250.478 9.4C250.478 9.21333 250.534 9.06333 250.648 8.95C250.761 8.83 250.914 8.77 251.108 8.77C251.308 8.77 251.464 8.84 251.578 8.98C251.698 9.11333 251.758 9.30667 251.758 9.56C251.758 9.70667 251.741 9.86 251.708 10.02C251.681 10.18 251.631 10.3433 251.558 10.51C251.484 10.6767 251.378 10.8433 251.238 11.01ZM258.918 10.09C258.204 10.09 257.594 9.94333 257.088 9.65C256.581 9.35667 256.191 8.94 255.918 8.4C255.651 7.85333 255.518 7.21 255.518 6.47C255.518 5.91667 255.594 5.42 255.748 4.98C255.901 4.53333 256.121 4.15333 256.407 3.84C256.701 3.52 257.058 3.27667 257.478 3.11C257.904 2.94333 258.384 2.86 258.918 2.86C259.311 2.86 259.688 2.91333 260.048 3.02C260.414 3.12667 260.731 3.28 260.998 3.48C261.111 3.55333 261.184 3.64333 261.218 3.75C261.258 3.85 261.264 3.94667 261.238 4.04C261.218 4.13333 261.174 4.21333 261.108 4.28C261.041 4.34 260.954 4.37333 260.848 4.38C260.748 4.38667 260.638 4.35 260.518 4.27C260.298 4.10333 260.054 3.98 259.788 3.9C259.521 3.82 259.241 3.78 258.948 3.78C258.441 3.78 258.014 3.88667 257.668 4.1C257.321 4.30667 257.058 4.61 256.878 5.01C256.698 5.41 256.608 5.89667 256.608 6.47C256.608 7.04333 256.698 7.53333 256.878 7.94C257.058 8.34 257.321 8.64667 257.668 8.86C258.014 9.06667 258.441 9.17 258.948 9.17C259.241 9.17 259.521 9.13 259.788 9.05C260.061 8.96333 260.318 8.83667 260.558 8.67C260.678 8.59667 260.784 8.56333 260.878 8.57C260.978 8.57667 261.061 8.61 261.128 8.67C261.194 8.73 261.238 8.80667 261.258 8.9C261.284 8.98667 261.281 9.08 261.248 9.18C261.221 9.27333 261.158 9.35333 261.058 9.42C260.784 9.64 260.461 9.80667 260.088 9.92C259.714 10.0333 259.324 10.09 258.918 10.09ZM263.975 10.09C263.455 10.09 263.062 9.94 262.795 9.64C262.535 9.33333 262.405 8.89333 262.405 8.32V3.39C262.405 3.22333 262.449 3.09667 262.535 3.01C262.622 2.92333 262.745 2.88 262.905 2.88C263.065 2.88 263.189 2.92333 263.275 3.01C263.369 3.09667 263.415 3.22333 263.415 3.39V8.26C263.415 8.59333 263.482 8.84333 263.615 9.01C263.755 9.17 263.955 9.25 264.215 9.25C264.275 9.25 264.329 9.25 264.375 9.25C264.422 9.24333 264.469 9.23667 264.515 9.23C264.595 9.22333 264.652 9.24667 264.685 9.3C264.719 9.34667 264.735 9.44667 264.735 9.6C264.735 9.74 264.705 9.85 264.645 9.93C264.585 10.0033 264.489 10.05 264.355 10.07C264.295 10.0767 264.232 10.08 264.165 10.08C264.099 10.0867 264.035 10.09 263.975 10.09ZM267.533 10.09C267.04 10.09 266.613 9.98667 266.253 9.78C265.9 9.57333 265.623 9.28 265.423 8.9C265.223 8.52 265.123 8.07333 265.123 7.56C265.123 7.16667 265.18 6.81667 265.293 6.51C265.406 6.20333 265.566 5.94 265.773 5.72C265.986 5.49333 266.24 5.32333 266.533 5.21C266.833 5.09 267.166 5.03 267.533 5.03C268.02 5.03 268.44 5.13333 268.793 5.34C269.153 5.54667 269.433 5.84 269.633 6.22C269.833 6.59333 269.933 7.04 269.933 7.56C269.933 7.94667 269.876 8.29667 269.763 8.61C269.65 8.92333 269.486 9.19 269.273 9.41C269.066 9.63 268.813 9.8 268.513 9.92C268.22 10.0333 267.893 10.09 267.533 10.09ZM267.533 9.31C267.806 9.31 268.046 9.24333 268.253 9.11C268.46 8.97667 268.62 8.78 268.733 8.52C268.853 8.26 268.913 7.94 268.913 7.56C268.913 6.98667 268.786 6.55333 268.533 6.26C268.28 5.96667 267.946 5.82 267.533 5.82C267.253 5.82 267.01 5.88667 266.803 6.02C266.596 6.14667 266.433 6.34 266.313 6.6C266.2 6.86 266.143 7.18 266.143 7.56C266.143 8.12667 266.27 8.56 266.523 8.86C266.776 9.16 267.113 9.31 267.533 9.31ZM272.777 10.09C272.484 10.09 272.181 10.0567 271.867 9.99C271.561 9.92333 271.277 9.81 271.017 9.65C270.931 9.59 270.871 9.52333 270.837 9.45C270.804 9.37667 270.791 9.30333 270.797 9.23C270.811 9.15 270.841 9.08333 270.887 9.03C270.941 8.97 271.004 8.93333 271.077 8.92C271.157 8.90667 271.241 8.92333 271.327 8.97C271.587 9.11667 271.837 9.22 272.077 9.28C272.317 9.33333 272.554 9.36 272.787 9.36C273.141 9.36 273.407 9.29667 273.587 9.17C273.767 9.04333 273.857 8.87333 273.857 8.66C273.857 8.48667 273.797 8.35333 273.677 8.26C273.557 8.16 273.377 8.08333 273.137 8.03L272.187 7.84C271.774 7.75333 271.461 7.6 271.247 7.38C271.034 7.16 270.927 6.88 270.927 6.54C270.927 6.23333 271.011 5.96667 271.177 5.74C271.344 5.51333 271.577 5.34 271.877 5.22C272.177 5.09333 272.524 5.03 272.917 5.03C273.211 5.03 273.487 5.06667 273.747 5.14C274.007 5.21333 274.247 5.32333 274.467 5.47C274.554 5.51667 274.611 5.58 274.637 5.66C274.664 5.73333 274.667 5.80667 274.647 5.88C274.634 5.95333 274.601 6.02 274.547 6.08C274.494 6.13333 274.427 6.16667 274.347 6.18C274.274 6.18667 274.191 6.16667 274.097 6.12C273.897 5.99333 273.697 5.90333 273.497 5.85C273.304 5.79667 273.111 5.77 272.917 5.77C272.564 5.77 272.297 5.83667 272.117 5.97C271.944 6.09667 271.857 6.27 271.857 6.49C271.857 6.65667 271.911 6.79333 272.017 6.9C272.124 7.00667 272.291 7.08333 272.517 7.13L273.467 7.32C273.901 7.40667 274.227 7.55333 274.447 7.76C274.674 7.96667 274.787 8.24667 274.787 8.6C274.787 9.06 274.604 9.42333 274.237 9.69C273.871 9.95667 273.384 10.09 272.777 10.09ZM278.201 10.09C277.668 10.09 277.208 9.99 276.821 9.79C276.441 9.58333 276.145 9.29333 275.931 8.92C275.725 8.54 275.621 8.09 275.621 7.57C275.621 7.06333 275.725 6.62 275.931 6.24C276.138 5.86 276.421 5.56333 276.781 5.35C277.141 5.13667 277.551 5.03 278.011 5.03C278.351 5.03 278.655 5.08667 278.921 5.2C279.188 5.30667 279.415 5.46667 279.601 5.68C279.795 5.88667 279.938 6.14 280.031 6.44C280.131 6.74 280.181 7.07667 280.181 7.45C280.181 7.56333 280.148 7.65 280.081 7.71C280.015 7.76333 279.915 7.79 279.781 7.79H276.421V7.17H279.501L279.331 7.31C279.331 6.97667 279.281 6.69333 279.181 6.46C279.088 6.22667 278.945 6.05 278.751 5.93C278.565 5.80333 278.331 5.74 278.051 5.74C277.738 5.74 277.471 5.81333 277.251 5.96C277.038 6.10667 276.875 6.31 276.761 6.57C276.648 6.83 276.591 7.13333 276.591 7.48V7.54C276.591 8.12667 276.728 8.57 277.001 8.87C277.281 9.16333 277.685 9.31 278.211 9.31C278.411 9.31 278.621 9.28333 278.841 9.23C279.068 9.17667 279.281 9.08667 279.481 8.96C279.595 8.89333 279.695 8.86333 279.781 8.87C279.875 8.87667 279.948 8.90667 280.001 8.96C280.061 9.01333 280.098 9.08 280.111 9.16C280.125 9.24 280.111 9.32333 280.071 9.41C280.031 9.49 279.961 9.56333 279.861 9.63C279.635 9.78333 279.371 9.9 279.071 9.98C278.771 10.0533 278.481 10.09 278.201 10.09ZM283.142 10.09C282.716 10.09 282.339 9.99 282.012 9.79C281.692 9.58333 281.442 9.29 281.262 8.91C281.082 8.52333 280.992 8.07333 280.992 7.56C280.992 7.03333 281.082 6.58333 281.262 6.21C281.442 5.83667 281.692 5.54667 282.012 5.34C282.339 5.13333 282.716 5.03 283.142 5.03C283.569 5.03 283.936 5.13667 284.242 5.35C284.556 5.55667 284.766 5.83667 284.872 6.19H284.762V3.39C284.762 3.22333 284.806 3.09667 284.892 3.01C284.979 2.92333 285.102 2.88 285.262 2.88C285.422 2.88 285.546 2.92333 285.632 3.01C285.726 3.09667 285.772 3.22333 285.772 3.39V9.56C285.772 9.72 285.729 9.84667 285.642 9.94C285.556 10.0267 285.432 10.07 285.272 10.07C285.112 10.07 284.989 10.0267 284.902 9.94C284.816 9.84667 284.772 9.72 284.772 9.56V8.68L284.882 8.9C284.776 9.26 284.566 9.55 284.252 9.77C283.946 9.98333 283.576 10.09 283.142 10.09ZM283.402 9.31C283.676 9.31 283.916 9.24333 284.122 9.11C284.329 8.97667 284.489 8.78 284.602 8.52C284.722 8.26 284.782 7.94 284.782 7.56C284.782 6.98667 284.656 6.55333 284.402 6.26C284.149 5.96667 283.816 5.82 283.402 5.82C283.122 5.82 282.879 5.88667 282.672 6.02C282.466 6.14667 282.302 6.34 282.182 6.6C282.069 6.86 282.012 7.18 282.012 7.56C282.012 8.12667 282.139 8.56 282.392 8.86C282.646 9.16 282.982 9.31 283.402 9.31Z" fill="#BC4D4D"/>
<path d="M300.31 10.07C300.157 10.07 300.037 10.0267 299.95 9.94C299.863 9.85333 299.82 9.73 299.82 9.57V3.4C299.82 3.23333 299.86 3.10667 299.94 3.02C300.027 2.92667 300.14 2.88 300.28 2.88C300.4 2.88 300.49 2.90333 300.55 2.95C300.617 2.99 300.693 3.06667 300.78 3.18L304.9 8.61H304.65V3.37C304.65 3.21667 304.69 3.09667 304.77 3.01C304.857 2.92333 304.977 2.88 305.13 2.88C305.29 2.88 305.41 2.92333 305.49 3.01C305.57 3.09667 305.61 3.21667 305.61 3.37V9.58C305.61 9.73333 305.57 9.85333 305.49 9.94C305.417 10.0267 305.317 10.07 305.19 10.07C305.07 10.07 304.97 10.0467 304.89 10C304.817 9.95333 304.737 9.87333 304.65 9.76L300.55 4.34H300.78V9.57C300.78 9.73 300.74 9.85333 300.66 9.94C300.58 10.0267 300.463 10.07 300.31 10.07ZM309.262 10.09C308.768 10.09 308.342 9.98667 307.982 9.78C307.628 9.57333 307.352 9.28 307.152 8.9C306.952 8.52 306.852 8.07333 306.852 7.56C306.852 7.16667 306.908 6.81667 307.022 6.51C307.135 6.20333 307.295 5.94 307.502 5.72C307.715 5.49333 307.968 5.32333 308.262 5.21C308.562 5.09 308.895 5.03 309.262 5.03C309.748 5.03 310.168 5.13333 310.522 5.34C310.882 5.54667 311.162 5.84 311.362 6.22C311.562 6.59333 311.662 7.04 311.662 7.56C311.662 7.94667 311.605 8.29667 311.492 8.61C311.378 8.92333 311.215 9.19 311.002 9.41C310.795 9.63 310.542 9.8 310.242 9.92C309.948 10.0333 309.622 10.09 309.262 10.09ZM309.262 9.31C309.535 9.31 309.775 9.24333 309.982 9.11C310.188 8.97667 310.348 8.78 310.462 8.52C310.582 8.26 310.642 7.94 310.642 7.56C310.642 6.98667 310.515 6.55333 310.262 6.26C310.008 5.96667 309.675 5.82 309.262 5.82C308.982 5.82 308.738 5.88667 308.532 6.02C308.325 6.14667 308.162 6.34 308.042 6.6C307.928 6.86 307.872 7.18 307.872 7.56C307.872 8.12667 307.998 8.56 308.252 8.86C308.505 9.16 308.842 9.31 309.262 9.31ZM314.827 10.09C314.427 10.09 314.09 10.02 313.817 9.88C313.544 9.74 313.34 9.53333 313.207 9.26C313.074 8.98667 313.007 8.65333 313.007 8.26V5.9H312.407C312.274 5.9 312.17 5.86667 312.097 5.8C312.024 5.72667 311.987 5.63 311.987 5.51C311.987 5.38333 312.024 5.28667 312.097 5.22C312.17 5.15333 312.274 5.12 312.407 5.12H313.007V4.09C313.007 3.92333 313.05 3.79667 313.137 3.71C313.23 3.62333 313.357 3.58 313.517 3.58C313.677 3.58 313.8 3.62333 313.887 3.71C313.974 3.79667 314.017 3.92333 314.017 4.09V5.12H315.187C315.32 5.12 315.424 5.15333 315.497 5.22C315.57 5.28667 315.607 5.38333 315.607 5.51C315.607 5.63 315.57 5.72667 315.497 5.8C315.424 5.86667 315.32 5.9 315.187 5.9H314.017V8.18C314.017 8.53333 314.09 8.8 314.237 8.98C314.39 9.16 314.637 9.25 314.977 9.25C315.097 9.25 315.2 9.24 315.287 9.22C315.38 9.19333 315.457 9.17667 315.517 9.17C315.59 9.17 315.65 9.19667 315.697 9.25C315.744 9.29667 315.767 9.39 315.767 9.53C315.767 9.63 315.747 9.72333 315.707 9.81C315.674 9.89667 315.61 9.95333 315.517 9.98C315.437 10.0067 315.327 10.03 315.187 10.05C315.054 10.0767 314.934 10.09 314.827 10.09ZM321.496 10.09C321.19 10.09 320.89 10.0667 320.596 10.02C320.303 9.97333 320.026 9.90333 319.766 9.81C319.506 9.71 319.273 9.59 319.066 9.45C318.966 9.37667 318.896 9.29333 318.856 9.2C318.823 9.10667 318.813 9.01667 318.826 8.93C318.846 8.83667 318.886 8.75667 318.946 8.69C319.006 8.62333 319.08 8.58333 319.166 8.57C319.253 8.55 319.35 8.57667 319.456 8.65C319.756 8.84333 320.073 8.98667 320.406 9.08C320.74 9.16667 321.103 9.21 321.496 9.21C322.063 9.21 322.48 9.11 322.746 8.91C323.02 8.70333 323.156 8.43667 323.156 8.11C323.156 7.84333 323.06 7.63333 322.866 7.48C322.673 7.32 322.35 7.19333 321.896 7.1L320.826 6.88C320.193 6.74667 319.72 6.52667 319.406 6.22C319.1 5.91333 318.946 5.5 318.946 4.98C318.946 4.66667 319.01 4.38 319.136 4.12C319.27 3.86 319.453 3.63667 319.686 3.45C319.92 3.25667 320.2 3.11 320.526 3.01C320.853 2.91 321.21 2.86 321.596 2.86C322.01 2.86 322.396 2.91333 322.756 3.02C323.123 3.12667 323.45 3.29 323.736 3.51C323.823 3.57 323.88 3.64667 323.906 3.74C323.94 3.82667 323.946 3.91333 323.926 4C323.913 4.08667 323.876 4.16 323.816 4.22C323.756 4.28 323.68 4.31667 323.586 4.33C323.493 4.33667 323.39 4.30333 323.276 4.23C323.016 4.05667 322.75 3.93333 322.476 3.86C322.21 3.78 321.913 3.74 321.586 3.74C321.26 3.74 320.973 3.79 320.726 3.89C320.486 3.99 320.3 4.13 320.166 4.31C320.04 4.49 319.976 4.70333 319.976 4.95C319.976 5.23 320.066 5.45333 320.246 5.62C320.426 5.78667 320.726 5.91333 321.146 6L322.206 6.22C322.873 6.36 323.37 6.57667 323.696 6.87C324.023 7.16333 324.186 7.55333 324.186 8.04C324.186 8.35333 324.123 8.63667 323.996 8.89C323.87 9.13667 323.69 9.35 323.456 9.53C323.223 9.71 322.94 9.85 322.606 9.95C322.28 10.0433 321.91 10.09 321.496 10.09ZM325.757 10.06C325.597 10.06 325.474 10.0133 325.387 9.92C325.3 9.82 325.257 9.68333 325.257 9.51V5.61C325.257 5.43667 325.3 5.30333 325.387 5.21C325.474 5.11667 325.597 5.07 325.757 5.07C325.917 5.07 326.04 5.11667 326.127 5.21C326.22 5.30333 326.267 5.43667 326.267 5.61V9.51C326.267 9.68333 326.224 9.82 326.137 9.92C326.05 10.0133 325.924 10.06 325.757 10.06ZM325.757 4.03C325.557 4.03 325.4 3.98 325.287 3.88C325.18 3.78 325.127 3.64 325.127 3.46C325.127 3.27333 325.18 3.13333 325.287 3.04C325.4 2.94 325.557 2.89 325.757 2.89C325.957 2.89 326.11 2.94 326.217 3.04C326.33 3.13333 326.387 3.27333 326.387 3.46C326.387 3.64 326.33 3.78 326.217 3.88C326.11 3.98 325.957 4.03 325.757 4.03ZM328.209 10.07C328.049 10.07 327.925 10.0267 327.839 9.94C327.752 9.84667 327.709 9.72 327.709 9.56V5.56C327.709 5.39333 327.752 5.26667 327.839 5.18C327.925 5.09333 328.045 5.05 328.199 5.05C328.359 5.05 328.479 5.09333 328.559 5.18C328.645 5.26667 328.689 5.39333 328.689 5.56V6.38L328.579 6.16C328.712 5.80667 328.919 5.53 329.199 5.33C329.479 5.13 329.815 5.03 330.209 5.03C330.615 5.03 330.945 5.12667 331.199 5.32C331.452 5.51333 331.625 5.81 331.719 6.21H331.579C331.705 5.84333 331.922 5.55667 332.229 5.35C332.535 5.13667 332.892 5.03 333.299 5.03C333.672 5.03 333.979 5.10333 334.219 5.25C334.459 5.39 334.639 5.60667 334.759 5.9C334.879 6.18667 334.939 6.55 334.939 6.99V9.56C334.939 9.72 334.892 9.84667 334.799 9.94C334.712 10.0267 334.589 10.07 334.429 10.07C334.269 10.07 334.145 10.0267 334.059 9.94C333.972 9.84667 333.929 9.72 333.929 9.56V7.04C333.929 6.62667 333.855 6.32333 333.709 6.13C333.569 5.93667 333.335 5.84 333.009 5.84C332.642 5.84 332.352 5.96667 332.139 6.22C331.925 6.47333 331.819 6.82333 331.819 7.27V9.56C331.819 9.72 331.775 9.84667 331.689 9.94C331.602 10.0267 331.479 10.07 331.319 10.07C331.159 10.07 331.032 10.0267 330.939 9.94C330.852 9.84667 330.809 9.72 330.809 9.56V7.04C330.809 6.62667 330.739 6.32333 330.599 6.13C330.459 5.93667 330.225 5.84 329.899 5.84C329.532 5.84 329.242 5.96667 329.029 6.22C328.822 6.47333 328.719 6.82333 328.719 7.27V9.56C328.719 9.9 328.549 10.07 328.209 10.07ZM336.851 11.87C336.691 11.87 336.567 11.8267 336.481 11.74C336.394 11.6533 336.351 11.5267 336.351 11.36V5.56C336.351 5.39333 336.394 5.26667 336.481 5.18C336.567 5.09333 336.687 5.05 336.841 5.05C337.001 5.05 337.124 5.09333 337.211 5.18C337.297 5.26667 337.341 5.39333 337.341 5.56V6.43L337.231 6.22C337.337 5.86 337.547 5.57333 337.861 5.36C338.174 5.14 338.544 5.03 338.971 5.03C339.404 5.03 339.781 5.13333 340.101 5.34C340.427 5.54667 340.677 5.83667 340.851 6.21C341.031 6.58333 341.121 7.03333 341.121 7.56C341.121 8.07333 341.031 8.52333 340.851 8.91C340.677 9.29 340.431 9.58333 340.111 9.79C339.791 9.99 339.411 10.09 338.971 10.09C338.551 10.09 338.184 9.98333 337.871 9.77C337.557 9.55667 337.347 9.27333 337.241 8.92H337.361V11.36C337.361 11.5267 337.314 11.6533 337.221 11.74C337.134 11.8267 337.011 11.87 336.851 11.87ZM338.721 9.31C339.001 9.31 339.244 9.24333 339.451 9.11C339.657 8.97667 339.817 8.78 339.931 8.52C340.044 8.26 340.101 7.94 340.101 7.56C340.101 6.98667 339.974 6.55333 339.721 6.26C339.474 5.96667 339.141 5.82 338.721 5.82C338.447 5.82 338.204 5.88667 337.991 6.02C337.784 6.14667 337.624 6.34 337.511 6.6C337.397 6.86 337.341 7.18 337.341 7.56C337.341 8.12667 337.467 8.56 337.721 8.86C337.974 9.16 338.307 9.31 338.721 9.31ZM343.829 10.09C343.309 10.09 342.915 9.94 342.649 9.64C342.389 9.33333 342.259 8.89333 342.259 8.32V3.39C342.259 3.22333 342.302 3.09667 342.389 3.01C342.475 2.92333 342.599 2.88 342.759 2.88C342.919 2.88 343.042 2.92333 343.129 3.01C343.222 3.09667 343.269 3.22333 343.269 3.39V8.26C343.269 8.59333 343.335 8.84333 343.469 9.01C343.609 9.17 343.809 9.25 344.069 9.25C344.129 9.25 344.182 9.25 344.229 9.25C344.275 9.24333 344.322 9.23667 344.369 9.23C344.449 9.22333 344.505 9.24667 344.539 9.3C344.572 9.34667 344.589 9.44667 344.589 9.6C344.589 9.74 344.559 9.85 344.499 9.93C344.439 10.0033 344.342 10.05 344.209 10.07C344.149 10.0767 344.085 10.08 344.019 10.08C343.952 10.0867 343.889 10.09 343.829 10.09ZM347.557 10.09C347.023 10.09 346.563 9.99 346.177 9.79C345.797 9.58333 345.5 9.29333 345.287 8.92C345.08 8.54 344.977 8.09 344.977 7.57C344.977 7.06333 345.08 6.62 345.287 6.24C345.493 5.86 345.777 5.56333 346.137 5.35C346.497 5.13667 346.907 5.03 347.367 5.03C347.707 5.03 348.01 5.08667 348.277 5.2C348.543 5.30667 348.77 5.46667 348.957 5.68C349.15 5.88667 349.293 6.14 349.387 6.44C349.487 6.74 349.537 7.07667 349.537 7.45C349.537 7.56333 349.503 7.65 349.437 7.71C349.37 7.76333 349.27 7.79 349.137 7.79H345.777V7.17H348.857L348.687 7.31C348.687 6.97667 348.637 6.69333 348.537 6.46C348.443 6.22667 348.3 6.05 348.107 5.93C347.92 5.80333 347.687 5.74 347.407 5.74C347.093 5.74 346.827 5.81333 346.607 5.96C346.393 6.10667 346.23 6.31 346.117 6.57C346.003 6.83 345.947 7.13333 345.947 7.48V7.54C345.947 8.12667 346.083 8.57 346.357 8.87C346.637 9.16333 347.04 9.31 347.567 9.31C347.767 9.31 347.977 9.28333 348.197 9.23C348.423 9.17667 348.637 9.08667 348.837 8.96C348.95 8.89333 349.05 8.86333 349.137 8.87C349.23 8.87667 349.303 8.90667 349.357 8.96C349.417 9.01333 349.453 9.08 349.467 9.16C349.48 9.24 349.467 9.32333 349.427 9.41C349.387 9.49 349.317 9.56333 349.217 9.63C348.99 9.78333 348.727 9.9 348.427 9.98C348.127 10.0533 347.837 10.09 347.557 10.09ZM351.238 11.01C351.164 11.1033 351.084 11.1567 350.998 11.17C350.918 11.1833 350.848 11.1667 350.788 11.12C350.728 11.0733 350.694 11.0067 350.688 10.92C350.681 10.84 350.718 10.75 350.798 10.65C350.918 10.5033 350.998 10.35 351.038 10.19C351.084 10.0367 351.108 9.9 351.108 9.78L351.148 10.04C350.948 10.04 350.784 9.98333 350.658 9.87C350.538 9.75 350.478 9.59333 350.478 9.4C350.478 9.21333 350.534 9.06333 350.648 8.95C350.761 8.83 350.914 8.77 351.108 8.77C351.308 8.77 351.464 8.84 351.578 8.98C351.698 9.11333 351.758 9.30667 351.758 9.56C351.758 9.70667 351.741 9.86 351.708 10.02C351.681 10.18 351.631 10.3433 351.558 10.51C351.484 10.6767 351.378 10.8433 351.238 11.01ZM356.248 10.07C356.094 10.07 355.974 10.0267 355.888 9.94C355.801 9.85333 355.758 9.73 355.758 9.57V3.4C355.758 3.23333 355.798 3.10667 355.878 3.02C355.964 2.92667 356.078 2.88 356.218 2.88C356.338 2.88 356.428 2.90333 356.488 2.95C356.554 2.99 356.631 3.06667 356.718 3.18L360.838 8.61H360.587V3.37C360.587 3.21667 360.628 3.09667 360.708 3.01C360.794 2.92333 360.914 2.88 361.068 2.88C361.228 2.88 361.348 2.92333 361.428 3.01C361.508 3.09667 361.548 3.21667 361.548 3.37V9.58C361.548 9.73333 361.508 9.85333 361.428 9.94C361.354 10.0267 361.254 10.07 361.128 10.07C361.008 10.07 360.908 10.0467 360.828 10C360.754 9.95333 360.674 9.87333 360.587 9.76L356.488 4.34H356.718V9.57C356.718 9.73 356.678 9.85333 356.598 9.94C356.518 10.0267 356.401 10.07 356.248 10.07ZM365.199 10.09C364.706 10.09 364.279 9.98667 363.919 9.78C363.566 9.57333 363.289 9.28 363.089 8.9C362.889 8.52 362.789 8.07333 362.789 7.56C362.789 7.16667 362.846 6.81667 362.959 6.51C363.072 6.20333 363.232 5.94 363.439 5.72C363.652 5.49333 363.906 5.32333 364.199 5.21C364.499 5.09 364.832 5.03 365.199 5.03C365.686 5.03 366.106 5.13333 366.459 5.34C366.819 5.54667 367.099 5.84 367.299 6.22C367.499 6.59333 367.599 7.04 367.599 7.56C367.599 7.94667 367.542 8.29667 367.429 8.61C367.316 8.92333 367.152 9.19 366.939 9.41C366.732 9.63 366.479 9.8 366.179 9.92C365.886 10.0333 365.559 10.09 365.199 10.09ZM365.199 9.31C365.472 9.31 365.712 9.24333 365.919 9.11C366.126 8.97667 366.286 8.78 366.399 8.52C366.519 8.26 366.579 7.94 366.579 7.56C366.579 6.98667 366.452 6.55333 366.199 6.26C365.946 5.96667 365.612 5.82 365.199 5.82C364.919 5.82 364.676 5.88667 364.469 6.02C364.262 6.14667 364.099 6.34 363.979 6.6C363.866 6.86 363.809 7.18 363.809 7.56C363.809 8.12667 363.936 8.56 364.189 8.86C364.442 9.16 364.779 9.31 365.199 9.31ZM370.765 10.09C370.365 10.09 370.028 10.02 369.755 9.88C369.481 9.74 369.278 9.53333 369.145 9.26C369.011 8.98667 368.945 8.65333 368.945 8.26V5.9H368.345C368.211 5.9 368.108 5.86667 368.035 5.8C367.961 5.72667 367.925 5.63 367.925 5.51C367.925 5.38333 367.961 5.28667 368.035 5.22C368.108 5.15333 368.211 5.12 368.345 5.12H368.945V4.09C368.945 3.92333 368.988 3.79667 369.075 3.71C369.168 3.62333 369.295 3.58 369.455 3.58C369.615 3.58 369.738 3.62333 369.825 3.71C369.911 3.79667 369.955 3.92333 369.955 4.09V5.12H371.125C371.258 5.12 371.361 5.15333 371.435 5.22C371.508 5.28667 371.545 5.38333 371.545 5.51C371.545 5.63 371.508 5.72667 371.435 5.8C371.361 5.86667 371.258 5.9 371.125 5.9H369.955V8.18C369.955 8.53333 370.028 8.8 370.175 8.98C370.328 9.16 370.575 9.25 370.915 9.25C371.035 9.25 371.138 9.24 371.225 9.22C371.318 9.19333 371.395 9.17667 371.455 9.17C371.528 9.17 371.588 9.19667 371.635 9.25C371.681 9.29667 371.705 9.39 371.705 9.53C371.705 9.63 371.685 9.72333 371.645 9.81C371.611 9.89667 371.548 9.95333 371.455 9.98C371.375 10.0067 371.265 10.03 371.125 10.05C370.991 10.0767 370.871 10.09 370.765 10.09ZM378.244 10.09C377.53 10.09 376.92 9.94333 376.414 9.65C375.907 9.35667 375.517 8.94 375.244 8.4C374.977 7.85333 374.844 7.21 374.844 6.47C374.844 5.91667 374.92 5.42 375.074 4.98C375.227 4.53333 375.447 4.15333 375.734 3.84C376.027 3.52 376.384 3.27667 376.804 3.11C377.23 2.94333 377.71 2.86 378.244 2.86C378.637 2.86 379.014 2.91333 379.374 3.02C379.74 3.12667 380.057 3.28 380.324 3.48C380.437 3.55333 380.51 3.64333 380.544 3.75C380.584 3.85 380.59 3.94667 380.564 4.04C380.544 4.13333 380.5 4.21333 380.434 4.28C380.367 4.34 380.28 4.37333 380.174 4.38C380.074 4.38667 379.964 4.35 379.844 4.27C379.624 4.10333 379.38 3.98 379.114 3.9C378.847 3.82 378.567 3.78 378.274 3.78C377.767 3.78 377.34 3.88667 376.994 4.1C376.647 4.30667 376.384 4.61 376.204 5.01C376.024 5.41 375.934 5.89667 375.934 6.47C375.934 7.04333 376.024 7.53333 376.204 7.94C376.384 8.34 376.647 8.64667 376.994 8.86C377.34 9.06667 377.767 9.17 378.274 9.17C378.567 9.17 378.847 9.13 379.114 9.05C379.387 8.96333 379.644 8.83667 379.884 8.67C380.004 8.59667 380.11 8.56333 380.204 8.57C380.304 8.57667 380.387 8.61 380.454 8.67C380.52 8.73 380.564 8.80667 380.584 8.9C380.61 8.98667 380.607 9.08 380.574 9.18C380.547 9.27333 380.484 9.35333 380.384 9.42C380.11 9.64 379.787 9.80667 379.414 9.92C379.04 10.0333 378.65 10.09 378.244 10.09ZM383.301 10.09C382.781 10.09 382.388 9.94 382.121 9.64C381.861 9.33333 381.731 8.89333 381.731 8.32V3.39C381.731 3.22333 381.775 3.09667 381.861 3.01C381.948 2.92333 382.071 2.88 382.231 2.88C382.391 2.88 382.515 2.92333 382.601 3.01C382.695 3.09667 382.741 3.22333 382.741 3.39V8.26C382.741 8.59333 382.808 8.84333 382.941 9.01C383.081 9.17 383.281 9.25 383.541 9.25C383.601 9.25 383.655 9.25 383.701 9.25C383.748 9.24333 383.795 9.23667 383.841 9.23C383.921 9.22333 383.978 9.24667 384.011 9.3C384.045 9.34667 384.061 9.44667 384.061 9.6C384.061 9.74 384.031 9.85 383.971 9.93C383.911 10.0033 383.815 10.05 383.681 10.07C383.621 10.0767 383.558 10.08 383.491 10.08C383.425 10.0867 383.361 10.09 383.301 10.09ZM386.859 10.09C386.366 10.09 385.939 9.98667 385.579 9.78C385.226 9.57333 384.949 9.28 384.749 8.9C384.549 8.52 384.449 8.07333 384.449 7.56C384.449 7.16667 384.506 6.81667 384.619 6.51C384.733 6.20333 384.893 5.94 385.099 5.72C385.313 5.49333 385.566 5.32333 385.859 5.21C386.159 5.09 386.493 5.03 386.859 5.03C387.346 5.03 387.766 5.13333 388.119 5.34C388.479 5.54667 388.759 5.84 388.959 6.22C389.159 6.59333 389.259 7.04 389.259 7.56C389.259 7.94667 389.203 8.29667 389.089 8.61C388.976 8.92333 388.813 9.19 388.599 9.41C388.393 9.63 388.139 9.8 387.839 9.92C387.546 10.0333 387.219 10.09 386.859 10.09ZM386.859 9.31C387.133 9.31 387.373 9.24333 387.579 9.11C387.786 8.97667 387.946 8.78 388.059 8.52C388.179 8.26 388.239 7.94 388.239 7.56C388.239 6.98667 388.113 6.55333 387.859 6.26C387.606 5.96667 387.273 5.82 386.859 5.82C386.579 5.82 386.336 5.88667 386.129 6.02C385.923 6.14667 385.759 6.34 385.639 6.6C385.526 6.86 385.469 7.18 385.469 7.56C385.469 8.12667 385.596 8.56 385.849 8.86C386.103 9.16 386.439 9.31 386.859 9.31ZM392.104 10.09C391.81 10.09 391.507 10.0567 391.194 9.99C390.887 9.92333 390.604 9.81 390.344 9.65C390.257 9.59 390.197 9.52333 390.164 9.45C390.13 9.37667 390.117 9.30333 390.124 9.23C390.137 9.15 390.167 9.08333 390.214 9.03C390.267 8.97 390.33 8.93333 390.404 8.92C390.484 8.90667 390.567 8.92333 390.654 8.97C390.914 9.11667 391.164 9.22 391.404 9.28C391.644 9.33333 391.88 9.36 392.114 9.36C392.467 9.36 392.734 9.29667 392.914 9.17C393.094 9.04333 393.184 8.87333 393.184 8.66C393.184 8.48667 393.124 8.35333 393.004 8.26C392.884 8.16 392.704 8.08333 392.464 8.03L391.514 7.84C391.1 7.75333 390.787 7.6 390.574 7.38C390.36 7.16 390.254 6.88 390.254 6.54C390.254 6.23333 390.337 5.96667 390.504 5.74C390.67 5.51333 390.904 5.34 391.204 5.22C391.504 5.09333 391.85 5.03 392.244 5.03C392.537 5.03 392.814 5.06667 393.074 5.14C393.334 5.21333 393.574 5.32333 393.794 5.47C393.88 5.51667 393.937 5.58 393.964 5.66C393.99 5.73333 393.994 5.80667 393.974 5.88C393.96 5.95333 393.927 6.02 393.874 6.08C393.82 6.13333 393.754 6.16667 393.674 6.18C393.6 6.18667 393.517 6.16667 393.424 6.12C393.224 5.99333 393.024 5.90333 392.824 5.85C392.63 5.79667 392.437 5.77 392.244 5.77C391.89 5.77 391.624 5.83667 391.444 5.97C391.27 6.09667 391.184 6.27 391.184 6.49C391.184 6.65667 391.237 6.79333 391.344 6.9C391.45 7.00667 391.617 7.08333 391.844 7.13L392.794 7.32C393.227 7.40667 393.554 7.55333 393.774 7.76C394 7.96667 394.114 8.24667 394.114 8.6C394.114 9.06 393.93 9.42333 393.564 9.69C393.197 9.95667 392.71 10.09 392.104 10.09ZM397.527 10.09C396.994 10.09 396.534 9.99 396.147 9.79C395.767 9.58333 395.471 9.29333 395.257 8.92C395.051 8.54 394.947 8.09 394.947 7.57C394.947 7.06333 395.051 6.62 395.257 6.24C395.464 5.86 395.747 5.56333 396.107 5.35C396.467 5.13667 396.877 5.03 397.337 5.03C397.677 5.03 397.981 5.08667 398.247 5.2C398.514 5.30667 398.741 5.46667 398.927 5.68C399.121 5.88667 399.264 6.14 399.357 6.44C399.457 6.74 399.507 7.07667 399.507 7.45C399.507 7.56333 399.474 7.65 399.407 7.71C399.341 7.76333 399.241 7.79 399.107 7.79H395.747V7.17H398.827L398.657 7.31C398.657 6.97667 398.607 6.69333 398.507 6.46C398.414 6.22667 398.271 6.05 398.077 5.93C397.891 5.80333 397.657 5.74 397.377 5.74C397.064 5.74 396.797 5.81333 396.577 5.96C396.364 6.10667 396.201 6.31 396.087 6.57C395.974 6.83 395.917 7.13333 395.917 7.48V7.54C395.917 8.12667 396.054 8.57 396.327 8.87C396.607 9.16333 397.011 9.31 397.537 9.31C397.737 9.31 397.947 9.28333 398.167 9.23C398.394 9.17667 398.607 9.08667 398.807 8.96C398.921 8.89333 399.021 8.86333 399.107 8.87C399.201 8.87667 399.274 8.90667 399.327 8.96C399.387 9.01333 399.424 9.08 399.437 9.16C399.451 9.24 399.437 9.32333 399.397 9.41C399.357 9.49 399.287 9.56333 399.187 9.63C398.961 9.78333 398.697 9.9 398.397 9.98C398.097 10.0533 397.807 10.09 397.527 10.09ZM402.468 10.09C402.042 10.09 401.665 9.99 401.338 9.79C401.018 9.58333 400.768 9.29 400.588 8.91C400.408 8.52333 400.318 8.07333 400.318 7.56C400.318 7.03333 400.408 6.58333 400.588 6.21C400.768 5.83667 401.018 5.54667 401.338 5.34C401.665 5.13333 402.042 5.03 402.468 5.03C402.895 5.03 403.262 5.13667 403.568 5.35C403.882 5.55667 404.092 5.83667 404.198 6.19H404.088V3.39C404.088 3.22333 404.132 3.09667 404.218 3.01C404.305 2.92333 404.428 2.88 404.588 2.88C404.748 2.88 404.872 2.92333 404.958 3.01C405.052 3.09667 405.098 3.22333 405.098 3.39V9.56C405.098 9.72 405.055 9.84667 404.968 9.94C404.882 10.0267 404.758 10.07 404.598 10.07C404.438 10.07 404.315 10.0267 404.228 9.94C404.142 9.84667 404.098 9.72 404.098 9.56V8.68L404.208 8.9C404.102 9.26 403.892 9.55 403.578 9.77C403.272 9.98333 402.902 10.09 402.468 10.09ZM402.728 9.31C403.002 9.31 403.242 9.24333 403.448 9.11C403.655 8.97667 403.815 8.78 403.928 8.52C404.048 8.26 404.108 7.94 404.108 7.56C404.108 6.98667 403.982 6.55333 403.728 6.26C403.475 5.96667 403.142 5.82 402.728 5.82C402.448 5.82 402.205 5.88667 401.998 6.02C401.792 6.14667 401.628 6.34 401.508 6.6C401.395 6.86 401.338 7.18 401.338 7.56C401.338 8.12667 401.465 8.56 401.718 8.86C401.972 9.16 402.308 9.31 402.728 9.31Z" fill="#BC4D4D"/>
<path d="M41.0586 28.1299C40.1532 30.5668 36.9967 37.5329 35.6264 42.7514C34.2562 47.97 33.3754 53.8043 32.8371 59.4413C32.2988 65.0782 32.0298 70.9606 32.3966 76.573C32.7635 82.1853 33.6192 87.7001 35.0383 93.1155C36.4573 98.5309 38.9044 104.585 40.911 109.065C42.9175 113.545 44.5084 116.105 47.0777 119.994C49.6469 123.884 53.2924 128.757 56.3265 132.4C59.3607 136.044 62.1994 138.998 65.2826 141.853C68.3657 144.709 73.235 148.253 74.8255 149.533" stroke="#BC4D4D" stroke-width="3" stroke-miterlimit="10" stroke-linejoin="round"/>
<path d="M320 136.82C321.46 135.462 325.814 131.619 328.759 128.673C331.704 125.726 334.059 123.446 337.67 119.142C341.28 114.837 346.633 108.688 350.423 102.847C354.213 97.0053 358.029 90.0112 360.41 84.0926C362.792 78.174 363.97 72.6902 364.712 67.3353C365.455 61.9804 365.558 56.8054 364.867 51.963C364.175 47.1206 362.484 41.791 360.563 38.2809C358.643 34.7709 355.954 32.5936 353.342 30.9027C350.73 29.2117 347.453 28.4428 344.892 28.1353C342.331 27.8279 340.359 28.0074 337.977 29.0578C335.596 30.1082 332.779 31.8758 330.603 34.4378C328.426 36.9999 326.275 40.6894 324.918 44.4301C323.56 48.1708 322.766 53.0129 322.458 56.8818C322.151 60.7506 322.51 64.005 323.074 67.6432C323.637 71.2814 324.329 74.6375 325.84 78.7112C327.351 82.7849 330.065 88.3702 332.139 92.0854C334.213 95.8005 336.365 98.3627 338.285 101.002C340.206 103.641 341.281 105.102 343.663 107.92C346.044 110.739 349.22 114.556 352.575 117.912C355.929 121.269 360.077 124.83 363.79 128.058C367.504 131.286 373.01 135.744 374.854 137.281" stroke="#BC4D4D" stroke-width="3" stroke-miterlimit="10" stroke-linejoin="round"/>
<path fill-rule="evenodd" clip-rule="evenodd" d="M282.67 112.916C280.251 110.072 275.259 105.498 271.321 102.346C267.383 99.1931 263.135 96.5344 259.042 93.9998C254.949 91.4652 250.235 89.3018 246.762 87.1381C243.289 84.9744 241.461 83.7994 238.205 81.0177C234.949 78.236 230.359 73.8475 227.227 70.4477C224.095 67.0479 221.274 63.988 219.414 60.619C217.553 57.2501 216.281 53.4485 216.064 50.234C215.847 47.0194 216.096 44.206 218.112 41.3316C220.127 38.4571 225.088 34.9651 228.157 32.9872C231.227 31.0092 232.716 30.0202 236.53 29.4638C240.344 28.9074 246.732 28.7217 251.042 29.6488C255.352 30.5758 259.197 33.048 262.391 35.0262C265.585 37.0045 267.972 39.0143 270.204 41.5181C272.437 44.0219 274.732 46.9583 275.786 50.049C276.84 53.1398 277.088 57.0027 276.53 60.0626C275.972 63.1226 274.576 65.9978 272.437 68.4086C270.297 70.8194 266.856 72.9204 263.693 74.5274C260.53 76.1345 256.778 76.938 253.46 78.0508C250.142 79.1636 247.041 79.5661 243.785 81.2042C240.529 82.8423 236.56 85.2213 233.925 87.8794C231.289 90.5376 229.274 94.0622 227.972 97.1533C226.67 100.244 226.236 103.428 226.112 106.426C225.988 109.424 226.421 112.205 227.227 115.141C228.033 118.078 229.274 121.291 230.948 124.042C232.623 126.793 234.639 128.989 237.274 131.647C239.91 134.305 243.506 137.735 246.762 139.991C250.018 142.247 253.15 144.009 256.809 145.184C260.468 146.358 264.839 147.687 268.715 147.038C272.591 146.389 277.243 143.947 280.065 141.289C282.886 138.631 284.685 134.738 285.646 131.09C286.608 127.443 286.328 122.435 285.832 119.406C285.336 116.377 285.088 115.759 282.67 112.916Z" fill="#F5F99E" stroke="#BC4D4D" stroke-width="3"/>
<path fill-rule="evenodd" clip-rule="evenodd" d="M126.97 26.4257C123.152 26.9615 119.7 27.8359 116.36 29.4715C113.02 31.1072 109.512 33.3632 106.93 36.2396C104.347 39.1159 101.849 43.3176 100.866 46.7298C99.8841 50.1419 100.643 53.3284 101.036 56.7124C101.429 60.0964 102.074 63.6782 103.225 67.0339C104.376 70.3895 106.088 73.7445 107.94 76.8463C109.793 79.9482 112.038 82.6274 114.339 85.6449C116.641 88.6624 119.644 92.4694 121.749 94.9511C123.854 97.4328 125.51 98.5894 126.97 100.535C128.429 102.481 129.468 104.059 130.507 106.625C131.545 109.191 132.752 113.168 133.201 115.932C133.65 118.695 133.397 120.303 133.201 123.207C133.004 126.112 132.303 130.454 132.022 133.359C131.742 136.263 130.984 138.294 131.517 140.634C132.05 142.975 133.454 146.105 135.222 147.402C136.99 148.7 139.376 148.474 142.126 148.418C144.877 148.361 148.33 148.191 151.726 147.063C155.123 145.935 159.22 143.821 162.504 141.65C165.788 139.478 168.988 136.433 171.431 134.036C173.873 131.64 175.332 129.553 177.156 127.268C178.981 124.984 180.637 122.755 182.377 120.33C184.117 117.905 186.223 115.34 187.598 112.717C188.973 110.094 190.151 107.217 190.628 104.595C191.105 101.972 190.909 99.6324 190.46 96.9817C190.011 94.331 188.888 91.4544 187.934 88.6907C186.979 85.9271 185.716 83.107 184.734 80.3998C183.752 77.6926 182.741 75.4087 182.04 72.4477C181.338 69.4868 180.861 65.3975 180.524 62.6339C180.187 59.8702 180.496 58.3754 180.019 55.8658C179.542 53.3563 179.177 50.4808 177.662 47.5763C176.146 44.6718 173.76 41.0333 170.925 38.4388C168.09 35.8444 164.048 33.6454 160.652 32.0097C157.256 30.3741 154.113 29.5838 150.548 28.625C146.983 27.6662 143.194 26.6235 139.264 26.257C135.334 25.8904 130.787 25.8899 126.97 26.4257Z" fill="#F5F99E" stroke="#BC4D4D" stroke-width="3"/>
<path d="M3.17 10.09C2.86333 10.09 2.56333 10.0667 2.27 10.02C1.97667 9.97333 1.7 9.90333 1.44 9.81C1.18 9.71 0.946667 9.59 0.74 9.45C0.64 9.37667 0.57 9.29333 0.53 9.2C0.496667 9.10667 0.486667 9.01667 0.5 8.93C0.52 8.83667 0.56 8.75667 0.62 8.69C0.68 8.62333 0.753333 8.58333 0.84 8.57C0.926667 8.55 1.02333 8.57667 1.13 8.65C1.43 8.84333 1.74667 8.98667 2.08 9.08C2.41333 9.16667 2.77667 9.21 3.17 9.21C3.73667 9.21 4.15333 9.11 4.42 8.91C4.69333 8.70333 4.83 8.43667 4.83 8.11C4.83 7.84333 4.73333 7.63333 4.54 7.48C4.34667 7.32 4.02333 7.19333 3.57 7.1L2.5 6.88C1.86667 6.74667 1.39333 6.52667 1.08 6.22C0.773333 5.91333 0.62 5.5 0.62 4.98C0.62 4.66667 0.683333 4.38 0.81 4.12C0.943333 3.86 1.12667 3.63667 1.36 3.45C1.59333 3.25667 1.87333 3.11 2.2 3.01C2.52667 2.91 2.88333 2.86 3.27 2.86C3.68333 2.86 4.07 2.91333 4.43 3.02C4.79667 3.12667 5.12333 3.29 5.41 3.51C5.49667 3.57 5.55333 3.64667 5.58 3.74C5.61333 3.82667 5.62 3.91333 5.6 4C5.58667 4.08667 5.55 4.16 5.49 4.22C5.43 4.28 5.35333 4.31667 5.26 4.33C5.16667 4.33667 5.06333 4.30333 4.95 4.23C4.69 4.05667 4.42333 3.93333 4.15 3.86C3.88333 3.78 3.58667 3.74 3.26 3.74C2.93333 3.74 2.64667 3.79 2.4 3.89C2.16 3.99 1.97333 4.13 1.84 4.31C1.71333 4.49 1.65 4.70333 1.65 4.95C1.65 5.23 1.74 5.45333 1.92 5.62C2.1 5.78667 2.4 5.91333 2.82 6L3.88 6.22C4.54667 6.36 5.04333 6.57667 5.37 6.87C5.69667 7.16333 5.86 7.55333 5.86 8.04C5.86 8.35333 5.79667 8.63667 5.67 8.89C5.54333 9.13667 5.36333 9.35 5.13 9.53C4.89667 9.71 4.61333 9.85 4.28 9.95C3.95333 10.0433 3.58333 10.09 3.17 10.09ZM7.4307 10.06C7.2707 10.06 7.14737 10.0133 7.0607 9.92C6.97404 9.82 6.9307 9.68333 6.9307 9.51V5.61C6.9307 5.43667 6.97404 5.30333 7.0607 5.21C7.14737 5.11667 7.2707 5.07 7.4307 5.07C7.5907 5.07 7.71404 5.11667 7.8007 5.21C7.89404 5.30333 7.9407 5.43667 7.9407 5.61V9.51C7.9407 9.68333 7.89737 9.82 7.8107 9.92C7.72404 10.0133 7.59737 10.06 7.4307 10.06ZM7.4307 4.03C7.2307 4.03 7.07404 3.98 6.9607 3.88C6.85404 3.78 6.8007 3.64 6.8007 3.46C6.8007 3.27333 6.85404 3.13333 6.9607 3.04C7.07404 2.94 7.2307 2.89 7.4307 2.89C7.6307 2.89 7.78404 2.94 7.8907 3.04C8.00404 3.13333 8.0607 3.27333 8.0607 3.46C8.0607 3.64 8.00404 3.78 7.8907 3.88C7.78404 3.98 7.6307 4.03 7.4307 4.03ZM9.88234 10.07C9.72234 10.07 9.59901 10.0267 9.51234 9.94C9.42568 9.84667 9.38234 9.72 9.38234 9.56V5.56C9.38234 5.39333 9.42568 5.26667 9.51234 5.18C9.59901 5.09333 9.71901 5.05 9.87234 5.05C10.0323 5.05 10.1523 5.09333 10.2323 5.18C10.319 5.26667 10.3623 5.39333 10.3623 5.56V6.38L10.2523 6.16C10.3857 5.80667 10.5923 5.53 10.8723 5.33C11.1523 5.13 11.489 5.03 11.8823 5.03C12.289 5.03 12.619 5.12667 12.8723 5.32C13.1257 5.51333 13.299 5.81 13.3923 6.21H13.2523C13.379 5.84333 13.5957 5.55667 13.9023 5.35C14.209 5.13667 14.5657 5.03 14.9723 5.03C15.3457 5.03 15.6523 5.10333 15.8923 5.25C16.1323 5.39 16.3123 5.60667 16.4323 5.9C16.5523 6.18667 16.6123 6.55 16.6123 6.99V9.56C16.6123 9.72 16.5657 9.84667 16.4723 9.94C16.3857 10.0267 16.2623 10.07 16.1023 10.07C15.9423 10.07 15.819 10.0267 15.7323 9.94C15.6457 9.84667 15.6023 9.72 15.6023 9.56V7.04C15.6023 6.62667 15.529 6.32333 15.3823 6.13C15.2423 5.93667 15.009 5.84 14.6823 5.84C14.3157 5.84 14.0257 5.96667 13.8123 6.22C13.599 6.47333 13.4923 6.82333 13.4923 7.27V9.56C13.4923 9.72 13.449 9.84667 13.3623 9.94C13.2757 10.0267 13.1523 10.07 12.9923 10.07C12.8323 10.07 12.7057 10.0267 12.6123 9.94C12.5257 9.84667 12.4823 9.72 12.4823 9.56V7.04C12.4823 6.62667 12.4123 6.32333 12.2723 6.13C12.1323 5.93667 11.899 5.84 11.5723 5.84C11.2057 5.84 10.9157 5.96667 10.7023 6.22C10.4957 6.47333 10.3923 6.82333 10.3923 7.27V9.56C10.3923 9.9 10.2223 10.07 9.88234 10.07ZM18.5245 11.87C18.3645 11.87 18.2411 11.8267 18.1545 11.74C18.0678 11.6533 18.0245 11.5267 18.0245 11.36V5.56C18.0245 5.39333 18.0678 5.26667 18.1545 5.18C18.2411 5.09333 18.3611 5.05 18.5145 5.05C18.6745 5.05 18.7978 5.09333 18.8845 5.18C18.9711 5.26667 19.0145 5.39333 19.0145 5.56V6.43L18.9045 6.22C19.0111 5.86 19.2211 5.57333 19.5345 5.36C19.8478 5.14 20.2178 5.03 20.6445 5.03C21.0778 5.03 21.4545 5.13333 21.7745 5.34C22.1011 5.54667 22.3511 5.83667 22.5245 6.21C22.7045 6.58333 22.7945 7.03333 22.7945 7.56C22.7945 8.07333 22.7045 8.52333 22.5245 8.91C22.3511 9.29 22.1045 9.58333 21.7845 9.79C21.4645 9.99 21.0845 10.09 20.6445 10.09C20.2245 10.09 19.8578 9.98333 19.5445 9.77C19.2311 9.55667 19.0211 9.27333 18.9145 8.92H19.0345V11.36C19.0345 11.5267 18.9878 11.6533 18.8945 11.74C18.8078 11.8267 18.6845 11.87 18.5245 11.87ZM20.3945 9.31C20.6745 9.31 20.9178 9.24333 21.1245 9.11C21.3311 8.97667 21.4911 8.78 21.6045 8.52C21.7178 8.26 21.7745 7.94 21.7745 7.56C21.7745 6.98667 21.6478 6.55333 21.3945 6.26C21.1478 5.96667 20.8145 5.82 20.3945 5.82C20.1211 5.82 19.8778 5.88667 19.6645 6.02C19.4578 6.14667 19.2978 6.34 19.1845 6.6C19.0711 6.86 19.0145 7.18 19.0145 7.56C19.0145 8.12667 19.1411 8.56 19.3945 8.86C19.6478 9.16 19.9811 9.31 20.3945 9.31ZM25.5027 10.09C24.9827 10.09 24.5893 9.94 24.3227 9.64C24.0627 9.33333 23.9327 8.89333 23.9327 8.32V3.39C23.9327 3.22333 23.976 3.09667 24.0627 3.01C24.1493 2.92333 24.2727 2.88 24.4327 2.88C24.5927 2.88 24.716 2.92333 24.8027 3.01C24.896 3.09667 24.9427 3.22333 24.9427 3.39V8.26C24.9427 8.59333 25.0093 8.84333 25.1427 9.01C25.2827 9.17 25.4827 9.25 25.7427 9.25C25.8027 9.25 25.856 9.25 25.9027 9.25C25.9493 9.24333 25.996 9.23667 26.0427 9.23C26.1227 9.22333 26.1793 9.24667 26.2127 9.3C26.246 9.34667 26.2627 9.44667 26.2627 9.6C26.2627 9.74 26.2327 9.85 26.1727 9.93C26.1127 10.0033 26.016 10.05 25.8827 10.07C25.8227 10.0767 25.7593 10.08 25.6927 10.08C25.626 10.0867 25.5627 10.09 25.5027 10.09ZM29.2305 10.09C28.6971 10.09 28.2371 9.99 27.8505 9.79C27.4705 9.58333 27.1738 9.29333 26.9605 8.92C26.7538 8.54 26.6505 8.09 26.6505 7.57C26.6505 7.06333 26.7538 6.62 26.9605 6.24C27.1671 5.86 27.4505 5.56333 27.8105 5.35C28.1705 5.13667 28.5805 5.03 29.0405 5.03C29.3805 5.03 29.6838 5.08667 29.9505 5.2C30.2171 5.30667 30.4438 5.46667 30.6305 5.68C30.8238 5.88667 30.9671 6.14 31.0605 6.44C31.1605 6.74 31.2105 7.07667 31.2105 7.45C31.2105 7.56333 31.1771 7.65 31.1105 7.71C31.0438 7.76333 30.9438 7.79 30.8105 7.79H27.4505V7.17H30.5305L30.3605 7.31C30.3605 6.97667 30.3105 6.69333 30.2105 6.46C30.1171 6.22667 29.9738 6.05 29.7805 5.93C29.5938 5.80333 29.3605 5.74 29.0805 5.74C28.7671 5.74 28.5005 5.81333 28.2805 5.96C28.0671 6.10667 27.9038 6.31 27.7905 6.57C27.6771 6.83 27.6205 7.13333 27.6205 7.48V7.54C27.6205 8.12667 27.7571 8.57 28.0305 8.87C28.3105 9.16333 28.7138 9.31 29.2405 9.31C29.4405 9.31 29.6505 9.28333 29.8705 9.23C30.0971 9.17667 30.3105 9.08667 30.5105 8.96C30.6238 8.89333 30.7238 8.86333 30.8105 8.87C30.9038 8.87667 30.9771 8.90667 31.0305 8.96C31.0905 9.01333 31.1271 9.08 31.1405 9.16C31.1538 9.24 31.1405 9.32333 31.1005 9.41C31.0605 9.49 30.9905 9.56333 30.8905 9.63C30.6638 9.78333 30.4005 9.9 30.1005 9.98C29.8005 10.0533 29.5105 10.09 29.2305 10.09ZM32.9116 11.01C32.8382 11.1033 32.7582 11.1567 32.6716 11.17C32.5916 11.1833 32.5216 11.1667 32.4616 11.12C32.4016 11.0733 32.3682 11.0067 32.3616 10.92C32.3549 10.84 32.3916 10.75 32.4716 10.65C32.5916 10.5033 32.6716 10.35 32.7116 10.19C32.7582 10.0367 32.7816 9.9 32.7816 9.78L32.8216 10.04C32.6216 10.04 32.4582 9.98333 32.3316 9.87C32.2116 9.75 32.1516 9.59333 32.1516 9.4C32.1516 9.21333 32.2082 9.06333 32.3216 8.95C32.4349 8.83 32.5882 8.77 32.7816 8.77C32.9816 8.77 33.1382 8.84 33.2516 8.98C33.3716 9.11333 33.4316 9.30667 33.4316 9.56C33.4316 9.70667 33.4149 9.86 33.3816 10.02C33.3549 10.18 33.3049 10.3433 33.2316 10.51C33.1582 10.6767 33.0516 10.8433 32.9116 11.01ZM37.9213 10.07C37.768 10.07 37.648 10.0267 37.5613 9.94C37.4747 9.85333 37.4313 9.73 37.4313 9.57V3.4C37.4313 3.23333 37.4713 3.10667 37.5513 3.02C37.638 2.92667 37.7513 2.88 37.8913 2.88C38.0113 2.88 38.1013 2.90333 38.1613 2.95C38.228 2.99 38.3047 3.06667 38.3913 3.18L42.5113 8.61H42.2613V3.37C42.2613 3.21667 42.3013 3.09667 42.3813 3.01C42.468 2.92333 42.588 2.88 42.7413 2.88C42.9013 2.88 43.0213 2.92333 43.1013 3.01C43.1813 3.09667 43.2213 3.21667 43.2213 3.37V9.58C43.2213 9.73333 43.1813 9.85333 43.1013 9.94C43.028 10.0267 42.928 10.07 42.8013 10.07C42.6813 10.07 42.5813 10.0467 42.5013 10C42.428 9.95333 42.348 9.87333 42.2613 9.76L38.1613 4.34H38.3913V9.57C38.3913 9.73 38.3513 9.85333 38.2713 9.94C38.1913 10.0267 38.0747 10.07 37.9213 10.07ZM46.873 10.09C46.3796 10.09 45.953 9.98667 45.593 9.78C45.2396 9.57333 44.963 9.28 44.763 8.9C44.563 8.52 44.463 8.07333 44.463 7.56C44.463 7.16667 44.5196 6.81667 44.633 6.51C44.7463 6.20333 44.9063 5.94 45.113 5.72C45.3263 5.49333 45.5796 5.32333 45.873 5.21C46.173 5.09 46.5063 5.03 46.873 5.03C47.3596 5.03 47.7796 5.13333 48.133 5.34C48.493 5.54667 48.773 5.84 48.973 6.22C49.173 6.59333 49.273 7.04 49.273 7.56C49.273 7.94667 49.2163 8.29667 49.103 8.61C48.9896 8.92333 48.8263 9.19 48.613 9.41C48.4063 9.63 48.153 9.8 47.853 9.92C47.5596 10.0333 47.233 10.09 46.873 10.09ZM46.873 9.31C47.1463 9.31 47.3863 9.24333 47.593 9.11C47.7996 8.97667 47.9596 8.78 48.073 8.52C48.193 8.26 48.253 7.94 48.253 7.56C48.253 6.98667 48.1263 6.55333 47.873 6.26C47.6196 5.96667 47.2863 5.82 46.873 5.82C46.593 5.82 46.3496 5.88667 46.143 6.02C45.9363 6.14667 45.773 6.34 45.653 6.6C45.5396 6.86 45.483 7.18 45.483 7.56C45.483 8.12667 45.6096 8.56 45.863 8.86C46.1163 9.16 46.453 9.31 46.873 9.31ZM52.4384 10.09C52.0384 10.09 51.7018 10.02 51.4284 9.88C51.1551 9.74 50.9518 9.53333 50.8184 9.26C50.6851 8.98667 50.6184 8.65333 50.6184 8.26V5.9H50.0184C49.8851 5.9 49.7818 5.86667 49.7084 5.8C49.6351 5.72667 49.5984 5.63 49.5984 5.51C49.5984 5.38333 49.6351 5.28667 49.7084 5.22C49.7818 5.15333 49.8851 5.12 50.0184 5.12H50.6184V4.09C50.6184 3.92333 50.6618 3.79667 50.7484 3.71C50.8418 3.62333 50.9684 3.58 51.1284 3.58C51.2884 3.58 51.4118 3.62333 51.4984 3.71C51.5851 3.79667 51.6284 3.92333 51.6284 4.09V5.12H52.7984C52.9318 5.12 53.0351 5.15333 53.1084 5.22C53.1818 5.28667 53.2184 5.38333 53.2184 5.51C53.2184 5.63 53.1818 5.72667 53.1084 5.8C53.0351 5.86667 52.9318 5.9 52.7984 5.9H51.6284V8.18C51.6284 8.53333 51.7018 8.8 51.8484 8.98C52.0018 9.16 52.2484 9.25 52.5884 9.25C52.7084 9.25 52.8118 9.24 52.8984 9.22C52.9918 9.19333 53.0684 9.17667 53.1284 9.17C53.2018 9.17 53.2618 9.19667 53.3084 9.25C53.3551 9.29667 53.3784 9.39 53.3784 9.53C53.3784 9.63 53.3584 9.72333 53.3184 9.81C53.2851 9.89667 53.2218 9.95333 53.1284 9.98C53.0484 10.0067 52.9384 10.03 52.7984 10.05C52.6651 10.0767 52.5451 10.09 52.4384 10.09ZM59.9175 10.09C59.2042 10.09 58.5942 9.94333 58.0875 9.65C57.5808 9.35667 57.1908 8.94 56.9175 8.4C56.6508 7.85333 56.5175 7.21 56.5175 6.47C56.5175 5.91667 56.5942 5.42 56.7475 4.98C56.9008 4.53333 57.1208 4.15333 57.4075 3.84C57.7008 3.52 58.0575 3.27667 58.4775 3.11C58.9042 2.94333 59.3842 2.86 59.9175 2.86C60.3108 2.86 60.6875 2.91333 61.0475 3.02C61.4142 3.12667 61.7308 3.28 61.9975 3.48C62.1108 3.55333 62.1842 3.64333 62.2175 3.75C62.2575 3.85 62.2642 3.94667 62.2375 4.04C62.2175 4.13333 62.1742 4.21333 62.1075 4.28C62.0408 4.34 61.9542 4.37333 61.8475 4.38C61.7475 4.38667 61.6375 4.35 61.5175 4.27C61.2975 4.10333 61.0542 3.98 60.7875 3.9C60.5208 3.82 60.2408 3.78 59.9475 3.78C59.4408 3.78 59.0142 3.88667 58.6675 4.1C58.3208 4.30667 58.0575 4.61 57.8775 5.01C57.6975 5.41 57.6075 5.89667 57.6075 6.47C57.6075 7.04333 57.6975 7.53333 57.8775 7.94C58.0575 8.34 58.3208 8.64667 58.6675 8.86C59.0142 9.06667 59.4408 9.17 59.9475 9.17C60.2408 9.17 60.5208 9.13 60.7875 9.05C61.0608 8.96333 61.3175 8.83667 61.5575 8.67C61.6775 8.59667 61.7842 8.56333 61.8775 8.57C61.9775 8.57667 62.0608 8.61 62.1275 8.67C62.1942 8.73 62.2375 8.80667 62.2575 8.9C62.2842 8.98667 62.2808 9.08 62.2475 9.18C62.2208 9.27333 62.1575 9.35333 62.0575 9.42C61.7842 9.64 61.4608 9.80667 61.0875 9.92C60.7142 10.0333 60.3242 10.09 59.9175 10.09ZM64.9753 10.09C64.4553 10.09 64.062 9.94 63.7953 9.64C63.5353 9.33333 63.4053 8.89333 63.4053 8.32V3.39C63.4053 3.22333 63.4486 3.09667 63.5353 3.01C63.622 2.92333 63.7453 2.88 63.9053 2.88C64.0653 2.88 64.1886 2.92333 64.2753 3.01C64.3686 3.09667 64.4153 3.22333 64.4153 3.39V8.26C64.4153 8.59333 64.482 8.84333 64.6153 9.01C64.7553 9.17 64.9553 9.25 65.2153 9.25C65.2753 9.25 65.3286 9.25 65.3753 9.25C65.422 9.24333 65.4686 9.23667 65.5153 9.23C65.5953 9.22333 65.652 9.24667 65.6853 9.3C65.7186 9.34667 65.7353 9.44667 65.7353 9.6C65.7353 9.74 65.7053 9.85 65.6453 9.93C65.5853 10.0033 65.4886 10.05 65.3553 10.07C65.2953 10.0767 65.232 10.08 65.1653 10.08C65.0986 10.0867 65.0353 10.09 64.9753 10.09ZM68.5331 10.09C68.0398 10.09 67.6131 9.98667 67.2531 9.78C66.8998 9.57333 66.6231 9.28 66.4231 8.9C66.2231 8.52 66.1231 8.07333 66.1231 7.56C66.1231 7.16667 66.1798 6.81667 66.2931 6.51C66.4065 6.20333 66.5665 5.94 66.7731 5.72C66.9865 5.49333 67.2398 5.32333 67.5331 5.21C67.8331 5.09 68.1665 5.03 68.5331 5.03C69.0198 5.03 69.4398 5.13333 69.7931 5.34C70.1531 5.54667 70.4331 5.84 70.6331 6.22C70.8331 6.59333 70.9331 7.04 70.9331 7.56C70.9331 7.94667 70.8765 8.29667 70.7631 8.61C70.6498 8.92333 70.4865 9.19 70.2731 9.41C70.0665 9.63 69.8131 9.8 69.5131 9.92C69.2198 10.0333 68.8931 10.09 68.5331 10.09ZM68.5331 9.31C68.8065 9.31 69.0465 9.24333 69.2531 9.11C69.4598 8.97667 69.6198 8.78 69.7331 8.52C69.8531 8.26 69.9131 7.94 69.9131 7.56C69.9131 6.98667 69.7865 6.55333 69.5331 6.26C69.2798 5.96667 68.9465 5.82 68.5331 5.82C68.2531 5.82 68.0098 5.88667 67.8031 6.02C67.5965 6.14667 67.4331 6.34 67.3131 6.6C67.1998 6.86 67.1431 7.18 67.1431 7.56C67.1431 8.12667 67.2698 8.56 67.5231 8.86C67.7765 9.16 68.1131 9.31 68.5331 9.31ZM73.7774 10.09C73.4841 10.09 73.1808 10.0567 72.8674 9.99C72.5608 9.92333 72.2774 9.81 72.0174 9.65C71.9308 9.59 71.8708 9.52333 71.8374 9.45C71.8041 9.37667 71.7908 9.30333 71.7974 9.23C71.8108 9.15 71.8408 9.08333 71.8874 9.03C71.9408 8.97 72.0041 8.93333 72.0774 8.92C72.1574 8.90667 72.2408 8.92333 72.3274 8.97C72.5874 9.11667 72.8374 9.22 73.0774 9.28C73.3174 9.33333 73.5541 9.36 73.7874 9.36C74.1408 9.36 74.4074 9.29667 74.5874 9.17C74.7674 9.04333 74.8574 8.87333 74.8574 8.66C74.8574 8.48667 74.7974 8.35333 74.6774 8.26C74.5574 8.16 74.3774 8.08333 74.1374 8.03L73.1874 7.84C72.7741 7.75333 72.4608 7.6 72.2474 7.38C72.0341 7.16 71.9274 6.88 71.9274 6.54C71.9274 6.23333 72.0108 5.96667 72.1774 5.74C72.3441 5.51333 72.5774 5.34 72.8774 5.22C73.1774 5.09333 73.5241 5.03 73.9174 5.03C74.2108 5.03 74.4874 5.06667 74.7474 5.14C75.0074 5.21333 75.2474 5.32333 75.4674 5.47C75.5541 5.51667 75.6108 5.58 75.6374 5.66C75.6641 5.73333 75.6674 5.80667 75.6474 5.88C75.6341 5.95333 75.6008 6.02 75.5474 6.08C75.4941 6.13333 75.4274 6.16667 75.3474 6.18C75.2741 6.18667 75.1908 6.16667 75.0974 6.12C74.8974 5.99333 74.6974 5.90333 74.4974 5.85C74.3041 5.79667 74.1108 5.77 73.9174 5.77C73.5641 5.77 73.2974 5.83667 73.1174 5.97C72.9441 6.09667 72.8574 6.27 72.8574 6.49C72.8574 6.65667 72.9108 6.79333 73.0174 6.9C73.1241 7.00667 73.2908 7.08333 73.5174 7.13L74.4674 7.32C74.9008 7.40667 75.2274 7.55333 75.4474 7.76C75.6741 7.96667 75.7874 8.24667 75.7874 8.6C75.7874 9.06 75.6041 9.42333 75.2374 9.69C74.8708 9.95667 74.3841 10.09 73.7774 10.09ZM79.2012 10.09C78.6678 10.09 78.2078 9.99 77.8212 9.79C77.4412 9.58333 77.1445 9.29333 76.9312 8.92C76.7245 8.54 76.6212 8.09 76.6212 7.57C76.6212 7.06333 76.7245 6.62 76.9312 6.24C77.1378 5.86 77.4212 5.56333 77.7812 5.35C78.1412 5.13667 78.5512 5.03 79.0112 5.03C79.3512 5.03 79.6545 5.08667 79.9212 5.2C80.1878 5.30667 80.4145 5.46667 80.6012 5.68C80.7945 5.88667 80.9378 6.14 81.0312 6.44C81.1312 6.74 81.1812 7.07667 81.1812 7.45C81.1812 7.56333 81.1478 7.65 81.0812 7.71C81.0145 7.76333 80.9145 7.79 80.7812 7.79H77.4212V7.17H80.5012L80.3312 7.31C80.3312 6.97667 80.2812 6.69333 80.1812 6.46C80.0878 6.22667 79.9445 6.05 79.7512 5.93C79.5645 5.80333 79.3312 5.74 79.0512 5.74C78.7378 5.74 78.4712 5.81333 78.2512 5.96C78.0378 6.10667 77.8745 6.31 77.7612 6.57C77.6478 6.83 77.5912 7.13333 77.5912 7.48V7.54C77.5912 8.12667 77.7278 8.57 78.0012 8.87C78.2812 9.16333 78.6845 9.31 79.2112 9.31C79.4112 9.31 79.6212 9.28333 79.8412 9.23C80.0678 9.17667 80.2812 9.08667 80.4812 8.96C80.5945 8.89333 80.6945 8.86333 80.7812 8.87C80.8745 8.87667 80.9478 8.90667 81.0012 8.96C81.0612 9.01333 81.0978 9.08 81.1112 9.16C81.1245 9.24 81.1112 9.32333 81.0712 9.41C81.0312 9.49 80.9612 9.56333 80.8612 9.63C80.6345 9.78333 80.3712 9.9 80.0712 9.98C79.7712 10.0533 79.4812 10.09 79.2012 10.09ZM84.1423 10.09C83.7156 10.09 83.3389 9.99 83.0123 9.79C82.6923 9.58333 82.4423 9.29 82.2623 8.91C82.0823 8.52333 81.9923 8.07333 81.9923 7.56C81.9923 7.03333 82.0823 6.58333 82.2623 6.21C82.4423 5.83667 82.6923 5.54667 83.0123 5.34C83.3389 5.13333 83.7156 5.03 84.1423 5.03C84.5689 5.03 84.9356 5.13667 85.2423 5.35C85.5556 5.55667 85.7656 5.83667 85.8723 6.19H85.7623V3.39C85.7623 3.22333 85.8056 3.09667 85.8923 3.01C85.9789 2.92333 86.1023 2.88 86.2623 2.88C86.4223 2.88 86.5456 2.92333 86.6323 3.01C86.7256 3.09667 86.7723 3.22333 86.7723 3.39V9.56C86.7723 9.72 86.7289 9.84667 86.6423 9.94C86.5556 10.0267 86.4323 10.07 86.2723 10.07C86.1123 10.07 85.9889 10.0267 85.9023 9.94C85.8156 9.84667 85.7723 9.72 85.7723 9.56V8.68L85.8823 8.9C85.7756 9.26 85.5656 9.55 85.2523 9.77C84.9456 9.98333 84.5756 10.09 84.1423 10.09ZM84.4023 9.31C84.6756 9.31 84.9156 9.24333 85.1223 9.11C85.3289 8.97667 85.4889 8.78 85.6023 8.52C85.7223 8.26 85.7823 7.94 85.7823 7.56C85.7823 6.98667 85.6556 6.55333 85.4023 6.26C85.1489 5.96667 84.8156 5.82 84.4023 5.82C84.1223 5.82 83.8789 5.88667 83.6723 6.02C83.4656 6.14667 83.3023 6.34 83.1823 6.6C83.0689 6.86 83.0123 7.18 83.0123 7.56C83.0123 8.12667 83.1389 8.56 83.3923 8.86C83.6456 9.16 83.9823 9.31 84.4023 9.31Z" fill="#BC4D4D"/>
</svg>
