<svg width="400" height="400" viewBox="0 0 400 400" fill="none" xmlns="http://www.w3.org/2000/svg">
<path d="M353.654 200C354.716 210.313 350.031 220.859 346.424 230.11C342.839 239.305 327.637 274.697 323.925 283.547C320.145 292.561 311.161 297.839 305.67 305.67C299.438 314.558 297.898 332.343 289.834 337.548C276.572 346.108 267.736 338.247 258.16 337.711C248.037 337.144 237.868 341.585 228.014 342.8C216.163 344.261 208.005 340.571 197.904 342.651C187.591 344.776 181.928 353.127 170.938 352.711C159.095 352.264 153.809 340.98 141.84 337.711C130.716 334.673 110.225 335.454 101.798 340.046C91.1904 345.825 50.5878 373.019 36.4426 358.428C21.569 343.086 45.1902 308.102 48.845 295.902C51.5991 286.708 62.8361 246.905 59.4378 230.11C57.4688 220.378 51.5997 209.251 50.5375 200C49.3611 189.754 53.2953 149.23 56.54 139.759C59.6862 130.576 60.1105 122.735 67.026 113.797C72.2518 107.044 109.067 81.7012 116.453 76.0746C124.973 69.5834 160.695 57.1612 169.89 53.5758C179.141 49.9692 189.702 49.9878 200 50.5375C210.313 51.0881 228.951 58.9711 238.836 59.9094C248.562 60.8328 262.291 55.9899 271.249 60.6893C280.316 65.4458 281.437 70.3916 288.858 76.2963C296.368 82.272 298.398 88.1171 305.67 94.3301C312.964 100.562 325.338 103.033 331.253 110.591C342.454 124.901 345.572 155.585 346.424 169.89C347.068 180.7 353.123 189.156 353.654 200Z" stroke="#35B5FE" stroke-width="4" stroke-linecap="round" stroke-linejoin="round"/>
<path d="M324.552 200C328.801 209.125 328.061 216.924 326.736 225.091C325.076 235.321 296.015 279.97 288.058 288.058C280.621 295.619 257.66 310.926 248.466 314.759C238.539 318.898 209.656 322.428 200 324.552C191.607 326.399 182.658 325.218 174.385 325.164C164.155 325.097 157.444 320.282 151.534 314.759C146.053 309.638 139.403 304.508 132.997 299.604C125.57 293.917 113.181 294.629 107.545 289.524C101.638 284.173 103.862 278.905 96.7288 269.623C91.8553 263.281 81.2331 236.384 77.9798 225.091C75.6893 217.141 71.9858 210.718 72.5169 200C72.9422 191.416 79.9835 185.139 81.6436 174.909C82.9689 166.742 81.557 159.515 85.2408 151.534C88.631 144.189 106.306 117.578 111.942 111.942C117.578 106.306 122.734 103.487 129.853 99.8439C138.604 95.3658 164.548 75.4885 172.813 75.8841C182.512 76.3484 191.349 78.7767 198.952 82.7831C207.015 87.0318 211.314 86.9699 213.407 94.9747C216.202 105.663 205.866 136.846 222.087 145.327C237.451 153.359 260.374 120.375 266.967 115.848C273.594 111.298 280.143 111.004 288.058 111.942C295.288 112.798 301.902 121.342 305.927 128.253C310.405 135.942 312.074 143.903 314.759 151.534C317.381 158.983 315.115 166.714 316.257 174.909C317.386 183.014 321.366 191.406 324.552 200Z" stroke="#F7014D" stroke-width="4" stroke-linecap="round" stroke-linejoin="round"/>
<path d="M137.418 126.63C140.09 114.26 145.444 102.627 153.102 92.5513C160.759 82.4756 170.534 74.2027 181.737 68.3162C192.94 62.4296 205.298 59.0728 217.94 58.4824C230.582 57.892 243.199 60.0824 254.902 64.8991C266.605 69.7159 277.108 77.0417 285.672 86.3598C294.235 95.6779 300.65 106.761 304.463 118.828C308.277 130.896 309.396 143.653 307.743 156.199C306.089 168.746 301.703 180.778 294.894 191.445" stroke="#D0EA51" stroke-width="2" stroke-linecap="round" stroke-linejoin="round"/>
<path d="M226.976 144.897C226.977 145.554 226.848 146.204 226.597 146.812C226.346 147.419 225.977 147.97 225.513 148.435C225.049 148.9 224.497 149.269 223.89 149.52C223.283 149.772 222.633 149.901 221.976 149.901C221.319 149.901 220.668 149.772 220.061 149.52C219.454 149.269 218.903 148.9 218.439 148.435C217.974 147.97 217.606 147.419 217.355 146.812C217.104 146.204 216.975 145.554 216.976 144.897C216.975 144.24 217.104 143.589 217.355 142.982C217.606 142.375 217.974 141.823 218.439 141.358C218.903 140.893 219.454 140.525 220.061 140.273C220.668 140.022 221.319 139.892 221.976 139.892C222.633 139.892 223.283 140.022 223.89 140.273C224.497 140.525 225.049 140.893 225.513 141.358C225.977 141.823 226.346 142.375 226.597 142.982C226.848 143.589 226.977 144.24 226.976 144.897Z" fill="#D0EA51"/>
<path d="M40.0011 358.032C40.0016 358.6 39.8901 359.163 39.6728 359.689C39.4556 360.214 39.1369 360.692 38.735 361.094C38.3331 361.497 37.8559 361.816 37.3306 362.033C36.8053 362.251 36.2422 362.363 35.6736 362.363C35.1049 362.363 34.5419 362.251 34.0166 362.033C33.4913 361.816 33.014 361.497 32.6121 361.094C32.2102 360.692 31.8916 360.214 31.6743 359.689C31.4571 359.163 31.3455 358.6 31.346 358.032L31.346 358.03C31.3455 357.462 31.4571 356.899 31.6743 356.373C31.8915 355.848 32.2102 355.37 32.6121 354.968C33.014 354.566 33.4913 354.246 34.0166 354.029C34.5419 353.811 35.1049 353.699 35.6736 353.699C36.2422 353.699 36.8053 353.811 37.3306 354.029C37.8559 354.246 38.3331 354.566 38.735 354.968C39.1369 355.37 39.4556 355.848 39.6728 356.373C39.8901 356.899 40.0016 357.462 40.0011 358.03L40.0011 358.032Z" fill="#D0EA51" stroke="#D0EA51" stroke-width="1.34495"/>
<path d="M241.124 59.2506C241.125 59.9076 240.996 60.5582 240.745 61.1654C240.494 61.7725 240.126 62.3243 239.661 62.7891C239.197 63.2539 238.646 63.6226 238.039 63.8741C237.432 64.1257 236.781 64.2552 236.124 64.2552C235.467 64.2552 234.817 64.1257 234.21 63.8741C233.603 63.6226 233.051 63.2539 232.587 62.7891C232.123 62.3243 231.754 61.7725 231.503 61.1654C231.252 60.5582 231.124 59.9076 231.124 59.2506C231.124 58.5936 231.252 57.9429 231.503 57.3357C231.754 56.7285 232.123 56.1768 232.587 55.712C233.051 55.2472 233.603 54.8785 234.21 54.6269C234.817 54.3754 235.467 54.2459 236.124 54.2459C236.781 54.2459 237.432 54.3754 238.039 54.6269C238.646 54.8785 239.197 55.2472 239.661 55.712C240.126 56.1768 240.494 56.7285 240.745 57.3357C240.996 57.9429 241.125 58.5936 241.124 59.2506Z" fill="#D0EA51"/>
<path d="M236.069 59.0115L222.205 145.195" stroke="#D0EA51" stroke-width="2" stroke-dasharray="2 4"/>
<path d="M9.10877 262.21C26.365 257.426 44.5929 257.391 61.8675 262.108C79.1421 266.825 94.8223 276.12 107.252 289.01C119.682 301.901 128.4 317.909 132.486 335.343C136.572 352.778 135.873 370.993 130.465 388.064" stroke="#D0EA51" stroke-width="2" stroke-linecap="round" stroke-linejoin="round"/>
<path d="M111.475 289.148C111.475 289.716 111.364 290.28 111.146 290.805C110.929 291.331 110.61 291.808 110.209 292.21C109.807 292.613 109.329 292.932 108.804 293.149C108.279 293.367 107.716 293.479 107.147 293.479C106.578 293.479 106.015 293.367 105.49 293.149C104.965 292.932 104.488 292.613 104.086 292.21C103.684 291.808 103.365 291.331 103.148 290.805C102.931 290.28 102.819 289.716 102.82 289.148L102.82 289.146C102.819 288.578 102.931 288.015 103.148 287.489C103.365 286.964 103.684 286.486 104.086 286.084C104.488 285.682 104.965 285.362 105.49 285.145C106.015 284.927 106.578 284.815 107.147 284.815C107.716 284.815 108.279 284.927 108.804 285.145C109.329 285.362 109.807 285.682 110.209 286.084C110.61 286.486 110.929 286.964 111.146 287.489C111.364 288.015 111.475 288.578 111.475 289.146L111.475 289.148Z" fill="#D0EA51" stroke="#D0EA51" stroke-width="1.34495"/>
<path d="M107.217 289.121L35.8069 358.497" stroke="#D0EA51" stroke-width="2" stroke-dasharray="2 4"/>
<path d="M100.322 190.972C97.8714 190.972 97.2748 191.073 97.2748 191.394C97.2748 191.613 97.5321 191.86 97.8373 191.957C98.8454 192.277 98.4341 193.058 95.8217 195.66L93.2436 198.238L91.8842 195.425C90.589 192.725 90.5422 192.555 91.0405 192.191C91.3268 191.982 91.7956 191.816 92.0717 191.816C92.3478 191.816 92.5873 191.628 92.5873 191.394C92.5873 191.031 92.0589 191 88.9311 191.066C86.3113 191.122 85.2168 191.239 85.1342 191.488C85.0642 191.699 85.3033 191.814 85.6967 191.816C87.3022 191.825 87.4625 192.047 89.353 196.082C90.3657 198.243 91.1847 200.146 91.1811 200.3C91.1775 200.455 89.5646 202.16 87.6186 204.097C84.1449 207.555 82.4614 208.723 80.9623 208.738C80.5951 208.742 80.353 208.915 80.353 209.16C80.353 209.506 80.8888 209.582 83.5405 209.582C86.0726 209.582 86.728 209.511 86.728 209.207C86.728 208.996 86.4707 208.771 86.1655 208.691C85.1234 208.419 85.6725 207.522 88.6967 204.332L91.6967 201.144L93.2436 204.332C94.091 206.085 94.7891 207.696 94.7905 207.941C94.792 208.203 94.4086 208.498 93.8998 208.644C92.0936 209.162 93.0089 209.458 96.6655 209.535C99.8137 209.601 100.322 209.523 100.322 209.16C100.322 208.88 100.086 208.738 99.5717 208.738C99.143 208.738 98.5577 208.601 98.3061 208.41C98.0544 208.219 96.9284 206.071 95.7748 203.629L93.6655 199.175L97.0873 195.8C99.9327 192.992 100.701 192.361 101.728 192.097C103.565 191.626 103.697 191.558 103.509 191.254C103.41 191.093 102.061 190.972 100.322 190.972Z" fill="#F7014D"/>
<path d="M309.109 308.545C308.587 308.595 308.453 308.739 308.453 308.92C308.453 309.2 308.688 309.342 309.203 309.342C309.632 309.342 310.179 309.48 310.422 309.67C310.664 309.861 311.763 312.155 312.859 314.78L314.875 319.561L314.219 322.42C313.508 325.601 313.069 326.264 311.64 326.264C310.699 326.264 310.201 326.559 310.562 326.92C310.864 327.222 318.297 326.997 318.297 326.686C318.297 326.533 317.799 326.359 317.219 326.311C316.638 326.263 316.123 326.042 316.047 325.842C315.848 325.324 317.028 320.427 317.547 319.608C317.786 319.231 319.696 317.044 321.812 314.733C325.464 310.746 326.414 309.903 328.187 309.389C329.779 308.928 329.083 308.624 326.265 308.545C323.958 308.481 323.406 308.554 323.406 308.873C323.406 309.09 323.663 309.309 323.969 309.389C324.274 309.469 324.531 309.757 324.531 309.998C324.531 310.399 317.664 318.202 317.312 318.202C317.229 318.202 316.394 316.296 315.437 313.983C313.582 309.497 313.57 309.351 315.203 309.342C315.707 309.34 315.933 309.19 315.859 308.967C315.777 308.719 314.729 308.601 312.109 308.545C310.545 308.512 309.632 308.496 309.109 308.545Z" fill="#35B5FE"/>
<path d="M187.554 349.529C181.723 352.595 179.919 360.455 180.085 366.185C176.652 364.453 181.486 358.223 181.272 354.716C183.73 349.693 179.136 350.65 175.46 351.279C172.999 351.662 172.895 355.219 175.022 355.998C174.983 359.301 170.031 356.951 168.491 359.904C163.762 363.393 163.275 374.086 170.647 374.216C172.628 373.548 173.895 373.209 175.866 374.123C178.381 374.849 180.206 371.564 180.616 370.248C181.806 374.337 184.045 380.378 188.991 380.685C192.529 377.4 186.225 374.411 186.304 370.56C184.802 364.311 185.857 357.229 190.241 352.31C190.51 350.756 189.282 348.921 187.554 349.529ZM231.022 349.841C228.237 353.122 234.241 355.978 234.054 359.685C235.756 366.248 234.185 373.081 229.96 378.248C231.086 383.304 236.209 378.941 237.366 376.123C242.055 367.93 241.353 354.855 232.804 349.529C232.226 349.501 231.323 349.116 231.022 349.841ZM153.397 350.81C149.292 350.788 147.788 355.498 147.554 358.248C145.732 358.599 146.012 361.415 144.616 358.935C141.963 356.686 138.683 358.807 135.897 357.779C134.03 356.795 130.721 360.671 131.616 357.498C129.619 358.039 133.346 354.446 131.022 353.185C127.565 348.789 122.802 355.954 126.304 357.966C123.336 357.721 123.038 362.622 125.929 362.904C125.929 365.951 126.688 368.906 124.054 370.654C123.511 375.663 130.229 373.257 133.179 373.716C138.074 373.843 143.158 373.671 147.897 373.716C144.85 374.167 145.84 378.078 148.272 378.31C151.729 382.137 145.521 385.62 142.46 386.248C140.554 386.029 134.667 385.979 140.116 385.841C143.53 387.214 146.662 382.048 142.46 381.06C141.331 380.875 135.23 381.006 139.085 380.685C141.926 381.65 146.622 379.05 143.491 376.154C139.446 374.674 134.048 376.209 131.897 379.404C129.852 376.806 126.67 378.8 124.085 377.998C121.081 378.386 118.711 382.315 120.179 384.529C117.225 388.039 122.256 391.342 125.397 389.779C128.082 391.139 130.92 388.639 131.897 386.873C134.209 391.64 141.177 392.03 144.897 389.81C147.667 390.433 151.794 389.899 151.179 386.404C152.415 384.849 150.023 390.294 153.429 389.748C156.023 390.661 162.244 389.72 159.366 385.998C156.06 384.7 155.458 379.971 159.21 378.373C162.523 378.405 163.397 373.487 159.647 373.56C157.717 372.581 154.294 374.875 153.897 373.779C157.066 373.774 156.775 368.981 153.741 369.029C154.025 366.355 152.412 362.66 155.866 362.373C158.531 360.281 155.095 358.023 153.616 357.716C154.336 357.38 157.66 358.005 158.085 355.623C159.033 352.719 156.235 350.269 153.397 350.81ZM98.5224 357.716C96.9254 357.208 93.3545 359.261 93.4911 357.529C88.1434 358.696 83.7308 357.235 78.5536 358.248C74.9796 359.278 75.0027 363.619 75.7411 366.185C74.3976 369.321 74.8776 375.676 79.4599 373.904C82.8527 375.363 87.2602 372.73 87.8036 369.966C88.5451 375.252 95.3392 374.217 98.6474 374.123C100.627 373.973 103.991 372.824 100.991 374.904C99.2626 376.164 100.767 378.797 101.929 378.904C99.1095 378.146 99.4351 382.026 97.1161 381.123C93.7784 380.751 89.8785 381.52 88.0536 384.623C86.8722 382.4 83.5888 384.227 83.1161 384.873C79.7867 379.983 72.5415 387.774 77.1786 390.591C77.9908 393.148 74.4253 395.863 77.4911 398.029C81.9207 401.205 87.2375 395.694 87.2724 391.31C88.8395 396.24 96.4356 398.314 100.085 394.966C100.103 392.784 102.182 396.399 103.897 395.248C106.826 395.187 110.471 395.697 109.304 391.716C105.845 390.477 111.078 387.001 111.929 385.498C113.686 383.429 119.222 381.836 114.991 379.216C112.162 378.212 108.077 378.864 108.46 382.435C105.344 386.088 109.522 379.438 106.241 379.216C104.228 378.679 111.467 379.789 110.147 376.529C110.749 374.794 106.315 373.871 109.522 374.154C117.875 374.364 120.016 361.324 112.491 358.404C109.836 357.092 107.202 358.563 104.585 357.81C101.972 357.748 100.528 359.443 99.7148 357.597L98.7198 357.697L98.5224 357.716ZM200.929 357.81C198.28 359.506 195.221 356.41 192.491 358.841C189.731 360.257 187.824 367.001 192.679 366.029C194.265 365.251 195.355 361.272 194.394 365.215C194.887 369.262 190.979 365.558 189.46 368.279C186.325 372.131 192.625 376.228 195.772 373.279C199.99 376.758 207.585 369.807 203.585 365.998C201.304 364.188 199.946 368.896 199.522 368.716C199.911 365.52 200.372 364.221 203.46 364.779C208.011 362.963 205.212 356.899 200.929 357.81ZM220.272 357.81C216.337 358.44 213.419 365.694 217.866 366.591C216.898 369.093 219.149 371.722 216.46 373.248C214.039 378.527 221.824 381.377 225.21 377.841C230.152 373.727 230.173 366.401 231.585 360.591C231.151 356.705 225.43 358.099 225.679 361.654C225.319 362.906 223.228 371.847 223.46 367.904C225.084 364.14 226.734 357.438 220.272 357.81ZM131.929 362.06C134.618 362.959 133.236 367.252 133.022 369.123C130.166 370.483 132.147 361.839 131.929 362.06ZM100.835 362.06C103.671 363.02 101.992 368.65 101.96 369.685C99.3108 368.948 101.286 363.743 100.835 362.06ZM146.554 362.498C149.469 362.713 147.73 367.506 147.616 369.123C145.421 370.448 146.516 361.57 146.554 362.498ZM93.7724 362.373C95.6871 363.343 95.315 367.558 94.1786 369.341C92.4361 370.06 94.1725 364.743 93.4911 363.935C93.9372 364.073 92.9196 361.475 93.7724 362.373ZM81.4286 362.31C80.7743 362.639 83.4676 362.706 81.4286 362.31V362.31ZM140.429 362.435C140.17 364.194 141.902 369.716 139.272 369.091C139.671 367.101 138.186 363.517 140.429 362.435ZM109.179 362.498C111.928 363.073 111.734 369.381 108.866 369.466C107.698 368.156 107.061 363.68 108.991 362.529C109.069 362.582 109.11 362.481 109.179 362.498ZM173.241 362.529C172.972 364.34 172.501 369.061 170.866 368.998C171.168 366.762 171.328 364.009 173.241 362.529ZM87.2724 362.81C88.0371 364.749 87.8948 368.59 86.7099 364.873C87.1852 364.306 87.1206 363.325 87.2724 362.81ZM207.772 367.279C204.224 368.049 205.337 372.637 207.147 373.904C204.035 376.209 207.389 381.412 210.179 377.779C212.99 374.894 213.663 366.616 207.772 367.279ZM81.4599 368.654C84.2868 369.212 80.2744 370.43 80.2411 368.373L81.2155 368.597L81.4599 368.654ZM100.429 383.341C102.431 385.584 104.351 390.678 100.397 391.81C100.381 394.247 98.2612 390.338 96.4286 391.466C94.2343 391.665 91.7163 390.961 95.8974 391.185C99.5116 392.696 102.46 386.998 97.9599 386.373C96.9191 386.321 91.0491 386.345 94.8661 386.06C97.073 386.108 100.432 386.171 100.429 383.341Z" fill="white"/>
<path d="M188.109 351.446C187.704 351.29 186.019 352.949 184.859 354.727C183.906 356.186 183.017 358.292 182.515 360.29C182.277 361.239 182.206 362.363 182.202 365.04C182.199 368.137 182.258 368.76 182.64 370.227C183.414 373.204 184.846 375.808 186.702 377.665C187.623 378.585 188.202 378.898 188.202 378.446C188.202 378.335 187.824 377.815 187.359 377.29C186.261 376.049 184.805 373.03 184.327 371.04C184.12 370.175 183.853 368.464 183.734 367.227C183.209 361.772 184.608 356.163 187.265 352.977C187.792 352.346 188.202 351.74 188.202 351.633C188.202 351.532 188.167 351.468 188.109 351.446ZM232.171 351.446C232.102 351.466 232.046 351.524 232.046 351.633C232.046 351.74 232.488 352.346 233.015 352.977C233.542 353.609 234.335 354.874 234.765 355.79C237.89 362.443 236.997 372.602 232.89 377.29C232.43 377.815 232.046 378.335 232.046 378.446C232.046 379.225 234.066 377.441 235.327 375.54C237.091 372.883 237.959 369.894 238.109 366.04C238.335 360.205 236.799 355.667 233.515 352.383C232.858 351.726 232.379 351.387 232.171 351.446ZM153.609 352.758C152.32 352.852 151.26 353.477 150.515 354.602C150.035 355.326 150.01 355.528 149.952 357.758L149.89 360.133H148.796C147.824 360.133 147.702 360.18 147.702 360.508C147.702 360.837 147.81 360.883 148.796 360.883H149.921V365.508C149.921 368.351 149.851 370.289 149.734 370.508C149.628 370.705 149.334 370.851 149.109 370.852C148.332 370.857 147.89 371.092 147.89 371.446C147.89 371.773 148.058 371.79 151.015 371.79C153.998 371.79 154.171 371.784 154.171 371.446C154.171 371.154 153.982 371.047 153.171 370.946C152.627 370.878 152.064 370.753 151.921 370.665C151.709 370.534 151.671 369.623 151.671 365.727V360.977L153.202 360.915C154.577 360.866 154.734 360.835 154.734 360.508C154.734 360.177 154.578 360.133 153.14 360.133H151.577V358.227C151.577 355.273 152.229 353.732 153.64 353.383C154.377 353.201 154.556 353.392 154.202 354.008C153.954 354.442 153.963 354.62 154.14 355.008C154.613 356.048 156.202 355.713 156.202 354.571C156.202 353.292 155.286 352.637 153.609 352.758ZM179.577 352.852L177.827 353.008C175.684 353.167 175.452 353.216 175.452 353.665C175.452 353.964 175.588 354.04 176.265 354.04C176.71 354.04 177.135 354.131 177.234 354.258C177.355 354.415 177.161 355.599 176.577 357.915L175.702 361.352L175.359 360.821C174.039 358.81 170.612 359.777 168.609 362.727C167.56 364.272 167.093 365.545 166.984 367.258C166.836 369.575 167.382 370.92 168.859 371.821C170.038 372.54 171.832 372.156 173.202 370.883C173.899 370.237 173.952 370.189 173.952 370.571C173.952 370.722 174.198 371.126 174.484 371.446C174.906 371.918 175.177 372.028 175.952 372.102C176.848 372.188 176.953 372.164 177.546 371.571C177.977 371.14 178.313 370.522 178.577 369.665C179.037 368.178 179.073 367.727 178.702 367.727C178.53 367.727 178.303 368.115 178.109 368.79C177.508 370.878 176.829 371.767 176.015 371.508C175.228 371.259 175.313 370.494 177.39 362.04C178.486 357.579 179.437 353.709 179.484 353.415L179.577 352.852ZM128.171 353.852C127.904 353.896 127.617 354.045 127.39 354.258C126.86 354.756 126.859 355.503 127.359 356.04C127.906 356.627 128.863 356.576 129.359 355.946C129.842 355.331 129.842 354.936 129.359 354.321C129.056 353.936 128.617 353.778 128.171 353.852ZM91.4525 359.696L90.0462 359.821C89.2677 359.887 88.3986 359.946 88.1087 359.946C87.6698 359.946 87.5775 360.03 87.5775 360.415C87.5775 360.815 87.6416 360.883 88.1712 360.883C88.5079 360.883 88.9425 360.989 89.14 361.133C89.4733 361.377 89.5229 361.729 89.6087 365.821C89.6987 370.107 89.7082 370.247 90.14 370.852C90.3843 371.195 90.9417 371.631 91.3587 371.821C92.2131 372.209 94.093 372.292 94.9212 371.977C95.207 371.869 95.7694 371.38 96.2025 370.915L97.015 370.071V371.133V372.227L98.4212 372.102C99.1997 372.036 100.026 371.977 100.265 371.977C100.605 371.977 100.702 371.87 100.702 371.508C100.702 371.103 100.614 371.04 100.046 371.04C99.6454 371.04 99.2753 370.894 99.0462 370.665C98.6935 370.312 98.6712 370.061 98.6712 365.008V359.696L97.4212 359.821C96.7344 359.886 95.8653 359.945 95.4837 359.946C94.8776 359.947 94.7962 360 94.7962 360.383C94.7962 360.768 94.8906 360.83 95.64 360.915C96.1105 360.968 96.5524 361.12 96.64 361.258C96.7276 361.397 96.8259 363.056 96.8275 364.946C96.8308 368.954 96.6419 369.74 95.515 370.758C94.6758 371.517 93.7483 371.75 92.7337 371.446C91.4948 371.075 91.4525 370.853 91.4525 364.915V359.696ZM129.577 359.696L128.327 359.821C127.641 359.886 126.783 359.945 126.452 359.946C125.935 359.947 125.859 360.016 125.859 360.415C125.859 360.82 125.948 360.883 126.515 360.883C126.916 360.883 127.317 361.029 127.546 361.258C127.895 361.607 127.89 361.863 127.89 365.883C127.89 368.471 127.819 370.291 127.702 370.508C127.597 370.705 127.334 370.851 127.109 370.852C126.332 370.857 125.859 371.092 125.859 371.446C125.859 371.772 126.049 371.79 128.734 371.79C131.419 371.79 131.609 371.772 131.609 371.446C131.609 371.09 131.146 370.857 130.359 370.852C130.079 370.85 129.854 370.699 129.734 370.383C129.632 370.117 129.577 367.688 129.577 364.821V359.696ZM81.4212 359.758C78.6976 359.761 77.2025 360.946 77.2025 363.071C77.2025 364.53 78.3348 365.831 79.9525 366.227C80.3187 366.317 81.2124 366.53 81.9212 366.696C83.9736 367.177 84.912 368.365 84.4212 369.852C84.1449 370.689 83.3232 371.351 82.39 371.508C80.3037 371.861 78.8459 370.833 78.14 368.508C77.8875 367.677 77.645 367.165 77.4837 367.165C77.2739 367.165 77.2025 367.645 77.2025 369.665C77.2025 371.709 77.267 372.165 77.4837 372.165C77.6294 372.165 77.9242 371.905 78.14 371.602L78.515 371.071L79.2962 371.571C79.988 372.028 80.2014 372.071 81.7337 372.071C83.2754 372.071 83.4919 372.01 84.2025 371.54C86.0753 370.3 86.4312 367.818 84.9525 366.133C84.1897 365.265 83.7403 365.069 81.4525 364.508C79.8533 364.117 79.4353 363.941 79.015 363.477C78.1028 362.47 78.3804 361.251 79.6712 360.665C81.7365 359.727 84.0437 360.635 84.3587 362.508C84.5445 363.613 84.6113 363.821 84.89 363.821C85.104 363.821 85.1712 363.433 85.1712 361.79C85.1712 359.625 85.0191 359.369 84.3275 360.133C84.0016 360.494 84.0021 360.494 83.2962 360.133C82.8124 359.887 82.2135 359.758 81.4212 359.758ZM105.39 359.758C105.059 359.743 104.513 359.807 103.609 359.883C102.305 359.994 102.171 360.036 102.171 360.415C102.171 360.758 102.302 360.827 102.952 360.915C103.384 360.972 103.852 361.172 103.984 361.352C104.289 361.769 104.317 375.132 104.015 375.696C103.91 375.893 103.647 376.038 103.421 376.04C102.645 376.044 102.171 376.279 102.171 376.633C102.171 376.96 102.364 376.977 105.14 376.977C107.938 376.977 108.109 376.939 108.109 376.602C108.109 376.316 107.922 376.226 107.14 376.102L106.171 375.946L106.109 373.29L106.046 370.633L106.702 371.196C107.576 371.963 108.475 372.213 109.859 372.102C111.886 371.939 113.598 370.707 114.609 368.665C114.965 367.944 115.044 367.531 115.046 365.977C115.048 364.365 114.969 363.972 114.546 363.071C112.973 359.715 108.837 358.67 106.39 361.008L105.89 361.508V360.633C105.89 360.013 105.942 359.784 105.39 359.758ZM136.077 359.758C135.747 359.774 135.289 359.831 134.671 359.883C133.368 359.994 133.265 360.036 133.265 360.415C133.265 360.758 133.395 360.827 134.046 360.915C134.477 360.972 134.946 361.172 135.077 361.352C135.379 361.764 135.405 369.955 135.109 370.508C135.003 370.705 134.74 370.851 134.515 370.852C133.739 370.857 133.265 371.092 133.265 371.446C133.265 371.773 133.458 371.79 136.234 371.79C139.031 371.79 139.171 371.782 139.171 371.446C139.171 371.16 138.984 371.039 138.202 370.915L137.234 370.758L137.202 367.258C137.142 363.096 137.279 362.429 138.515 361.29C139.902 360.011 141.518 360.051 142.202 361.415C142.49 361.986 142.526 362.576 142.484 366.415L142.421 370.758L141.452 370.915C140.671 371.039 140.484 371.16 140.484 371.446C140.484 371.782 140.655 371.79 143.452 371.79C146.266 371.79 146.39 371.758 146.39 371.415C146.39 371.14 146.23 371.03 145.702 370.946C144.393 370.737 144.461 371.008 144.359 366.102C144.273 361.973 144.244 361.607 143.89 361.133C143.15 360.143 142.598 359.855 141.171 359.79C139.53 359.715 138.488 360.176 137.577 361.383L136.952 362.196V360.977C136.952 359.93 137.068 359.71 136.077 359.758ZM201.234 359.758C200.317 359.848 199.422 360.328 198.984 361.071C198.808 361.369 198.632 361.603 198.577 361.602C198.523 361.602 198.343 361.373 198.171 361.071C197.128 359.238 194.088 359.386 192.702 361.352C192.107 362.196 191.546 363.427 191.546 363.852C191.546 364.577 192.115 364.155 192.484 363.165C192.934 361.955 194.055 360.774 195.046 360.477C195.724 360.274 195.878 360.3 196.327 360.633C197.269 361.332 197.239 361.899 196.202 366.04C195.2 370.043 194.781 370.994 193.765 371.415C193.448 371.546 192.938 371.582 192.546 371.508L191.89 371.383L192.359 370.946C192.872 370.47 192.994 369.612 192.609 369.227C191.979 368.597 190.609 369.37 190.609 370.352C190.609 371.068 190.906 371.553 191.515 371.883C192.766 372.563 194.528 372.061 195.359 370.821C195.551 370.533 195.745 370.321 195.796 370.321C195.847 370.321 196.03 370.55 196.202 370.852C197.208 372.619 200.07 372.532 201.515 370.696C202.636 369.272 203.189 367.623 202.515 367.758C202.35 367.791 202.085 368.236 201.89 368.758C201.262 370.444 199.55 371.77 198.359 371.508C197.746 371.374 197.265 370.62 197.265 369.79C197.265 368.892 198.928 362.525 199.359 361.758C199.911 360.776 200.809 360.259 201.64 360.415C202.388 360.555 202.379 360.582 201.89 361.071C201.434 361.527 201.399 362.625 201.827 362.79C203.623 363.479 204.549 360.93 202.827 360.04C202.35 359.793 201.784 359.704 201.234 359.758ZM220.734 359.758C220.039 359.758 219.88 359.865 219.109 360.665C217.931 361.887 216.968 364.315 217.734 364.165C217.916 364.129 218.219 363.672 218.452 363.008C218.934 361.644 220.148 360.26 220.796 360.352C221.065 360.391 221.282 360.605 221.39 360.915C221.53 361.314 221.378 361.953 220.577 364.321C219.719 366.859 219.588 367.444 219.577 368.727C219.568 369.892 219.661 370.334 219.952 370.821C220.746 372.149 222.888 372.573 224.421 371.696C224.854 371.449 225.202 371.335 225.202 371.415C225.202 371.495 225.057 372.027 224.859 372.602C224.114 374.768 222.537 376.495 221.109 376.727C220.333 376.853 219.208 376.419 218.921 375.883C218.738 375.541 218.767 375.477 219.171 375.477C219.675 375.477 220.39 374.734 220.39 374.196C220.39 373.724 219.895 373.258 219.359 373.258C218.612 373.258 217.984 374.043 217.984 374.977C217.984 375.886 218.333 376.482 219.171 377.008C219.63 377.296 220.001 377.339 220.952 377.29C222.43 377.213 223.623 376.663 224.827 375.477C226.301 374.027 226.673 372.997 228.265 366.571C229.496 361.603 229.693 360.698 229.484 360.446C229.128 360.017 228.425 360.052 228.109 360.54C227.96 360.769 227.312 362.973 226.702 365.415L225.609 369.852L224.765 370.633C223.28 371.987 221.866 371.872 221.359 370.383C221.015 369.375 221.281 367.62 222.234 364.821C222.643 363.618 222.984 362.323 222.984 361.946C222.984 360.51 222.21 359.758 220.734 359.758ZM173.327 360.321C174.302 360.321 175.265 361.524 175.265 362.727C175.265 363.22 174.767 365.412 173.952 368.508C173.718 369.399 172.458 370.813 171.484 371.258C169.593 372.122 168.664 371.084 168.859 368.352C168.966 366.853 169.656 364.107 170.202 363.04C170.944 361.59 172.402 360.321 173.327 360.321ZM109.109 360.477C110.058 360.43 110.997 360.801 111.671 361.602C112.973 363.149 113.407 366.497 112.577 368.633C112.133 369.778 111.097 370.977 110.202 371.352C109.035 371.842 107.834 371.509 106.796 370.383L106.077 369.571V366.04C106.077 362.519 106.077 362.468 106.546 361.852C107.208 360.985 108.159 360.525 109.109 360.477ZM208.296 369.196C207.991 369.228 207.741 369.368 207.577 369.602C207.168 370.187 207.206 370.981 207.671 371.446C207.991 371.765 208.211 371.804 208.89 371.727L209.702 371.633L209.577 372.602C209.423 373.768 208.909 374.993 208.171 375.915C207.865 376.297 207.671 376.689 207.734 376.79C207.796 376.891 207.928 376.977 208.015 376.977C208.299 376.977 209.183 375.796 209.671 374.758C210.078 373.895 210.14 373.48 210.14 372.04C210.14 370.605 210.062 370.263 209.734 369.821C209.4 369.372 208.805 369.142 208.296 369.196ZM158.046 375.477C156.413 375.477 156.015 375.545 156.015 375.758C156.015 375.904 156.186 376.069 156.39 376.133C157.062 376.347 156.788 376.868 155.046 378.602L153.327 380.321L152.421 378.446C151.558 376.646 151.527 376.533 151.859 376.29C152.05 376.15 152.362 376.04 152.546 376.04C152.73 376.04 152.89 375.914 152.89 375.758C152.89 375.516 152.538 375.495 150.452 375.54C148.706 375.577 147.976 375.655 147.921 375.821C147.875 375.961 148.034 376.038 148.296 376.04C149.367 376.046 149.473 376.193 150.734 378.883C151.409 380.324 151.955 381.593 151.952 381.696C151.95 381.799 150.875 382.936 149.577 384.227C147.262 386.532 146.139 387.311 145.14 387.321C144.895 387.323 144.734 387.439 144.734 387.602C144.734 387.833 145.091 387.883 146.859 387.883C148.547 387.883 148.984 387.836 148.984 387.633C148.984 387.493 148.812 387.343 148.609 387.29C147.914 387.108 148.28 386.51 150.296 384.383L152.296 382.258L153.327 384.383C153.892 385.552 154.358 386.626 154.359 386.79C154.36 386.964 154.104 387.161 153.765 387.258C152.561 387.604 153.171 387.801 155.609 387.852C157.708 387.896 158.046 387.844 158.046 387.602C158.046 387.415 157.889 387.321 157.546 387.321C157.26 387.321 156.87 387.229 156.702 387.102C156.535 386.975 155.784 385.543 155.015 383.915L153.609 380.946L155.89 378.696C157.787 376.824 158.299 376.403 158.984 376.227C160.209 375.913 160.297 375.868 160.171 375.665C160.105 375.558 159.206 375.477 158.046 375.477ZM140.046 377.696C137.318 377.696 136.193 378.021 134.859 379.196C131.603 382.061 132.746 387.224 136.952 388.727C137.361 388.873 138.539 388.972 139.984 388.977C141.986 388.984 142.356 388.947 142.452 388.696C142.645 388.195 142.134 388.078 139.827 388.071C138.001 388.065 137.481 388.006 136.796 387.696C135.384 387.057 134.267 385.76 133.921 384.321L133.827 383.821H138.077C141.817 383.821 142.353 383.768 142.452 383.508C142.515 383.346 142.47 383.161 142.327 383.071C142.185 382.981 140.216 382.885 137.952 382.883C135.688 382.882 133.828 382.837 133.827 382.79C133.827 382.277 134.717 380.604 135.265 380.071C136.46 378.908 137.287 378.641 139.827 378.633C142.134 378.626 142.645 378.509 142.452 378.008C142.357 377.759 141.995 377.696 140.046 377.696ZM128.734 379.915C128.286 379.951 127.831 380.149 127.421 380.508C126.821 381.035 126.734 381.069 126.577 380.79C126.108 379.95 124.545 379.684 123.452 380.258C122.809 380.597 121.609 382.148 121.609 382.633C121.609 383.061 122.179 382.919 122.359 382.446C122.669 381.631 123.654 380.697 124.327 380.571C125.071 380.431 125.671 380.833 125.671 381.477C125.671 382.289 124.582 386.29 124.234 386.758C123.819 387.315 123.1 387.622 122.64 387.446C122.351 387.335 122.362 387.318 122.64 387.04C123.083 386.597 122.927 385.772 122.39 385.696C121.326 385.545 120.849 387 121.734 387.696C122.558 388.344 124.213 388.065 124.734 387.196C124.919 386.888 124.955 386.888 125.14 387.196C125.622 387.999 127.252 388.332 128.234 387.821C129.363 387.233 130.634 385.102 129.859 385.102C129.715 385.102 129.422 385.492 129.202 385.946C128.502 387.394 126.914 387.982 126.296 387.04C126.003 386.592 126.032 386.445 126.609 384.04C127.289 381.202 127.748 380.477 128.827 380.477C129.453 380.477 129.55 380.673 129.109 381.04C128.949 381.172 128.828 381.492 128.859 381.758C128.901 382.119 129.024 382.247 129.39 382.29C130.461 382.414 130.911 381.025 130.015 380.321C129.638 380.024 129.181 379.879 128.734 379.915ZM103.14 380.883C101.055 380.839 100.702 380.891 100.702 381.133C100.702 381.32 100.891 381.415 101.234 381.415C101.52 381.415 101.884 381.506 102.046 381.633C102.208 381.761 102.941 383.29 103.671 385.04L104.984 388.227L104.577 390.133C104.104 392.254 103.811 392.696 102.859 392.696C102.231 392.696 101.899 392.893 102.14 393.133C102.341 393.335 107.265 393.185 107.265 392.977C107.265 392.875 106.965 392.759 106.577 392.727C106.19 392.695 105.816 392.548 105.765 392.415C105.632 392.069 106.419 388.804 106.765 388.258C106.924 388.007 108.198 386.549 109.609 385.008C112.043 382.35 112.708 381.82 113.89 381.477C114.951 381.17 114.456 380.936 112.577 380.883C111.039 380.841 110.702 380.889 110.702 381.102C110.702 381.246 110.874 381.424 111.077 381.477C111.281 381.53 111.421 381.691 111.421 381.852C111.421 382.119 106.843 387.321 106.609 387.321C106.553 387.321 105.997 386.082 105.359 384.54C104.122 381.549 104.114 381.421 105.202 381.415C105.539 381.413 105.689 381.313 105.64 381.165C105.585 380.999 104.887 380.92 103.14 380.883ZM95.8275 383.071C93.0989 383.071 91.9745 383.396 90.64 384.571C87.3847 387.436 88.5273 392.599 92.7337 394.102C93.1426 394.248 94.3207 394.347 95.765 394.352C97.7674 394.359 98.1375 394.322 98.2337 394.071C98.4259 393.57 97.9149 393.453 95.6087 393.446C93.7823 393.44 93.2624 393.349 92.5775 393.04C91.1654 392.401 90.0796 391.135 89.7337 389.696L89.6087 389.165H93.8587C97.5982 389.165 98.1341 389.143 98.2337 388.883C98.2963 388.721 98.2508 388.505 98.1087 388.415C97.9667 388.325 95.9977 388.26 93.7337 388.258C91.4698 388.257 89.6087 388.212 89.6087 388.165C89.6087 387.652 90.4978 385.979 91.0462 385.446C92.2413 384.283 93.0683 384.016 95.6087 384.008C97.9149 384.001 98.4259 383.884 98.2337 383.383C98.1379 383.134 97.7762 383.071 95.8275 383.071ZM79.9837 385.29C79.2432 385.367 78.4616 385.979 77.9525 386.977C77.5329 387.8 77.4857 388.258 77.8275 388.258C77.9599 388.258 78.2423 387.85 78.4525 387.352C78.8535 386.403 79.6046 385.733 80.0775 385.915C80.4752 386.067 80.4121 386.499 79.7962 388.321C79.4971 389.206 79.2058 390.288 79.14 390.727C78.9835 391.771 79.3944 392.748 80.14 393.133C80.8459 393.498 82.1998 393.521 82.6712 393.165C83.2717 392.711 83.3356 392.844 82.9525 393.852C82.244 395.717 80.6717 396.716 79.3275 396.196L78.7962 396.008L79.2962 395.727C79.7251 395.501 79.8121 395.339 79.765 394.852C79.7208 394.396 79.5987 394.243 79.265 394.196C78.6532 394.109 78.14 394.662 78.14 395.383C78.14 395.834 78.2906 396.104 78.7337 396.477C79.2593 396.919 79.4512 396.983 80.39 396.915C81.6703 396.822 82.9514 396.085 83.7962 394.977C84.2627 394.366 84.559 393.499 85.4212 390.165C86.002 387.919 86.4215 385.953 86.3587 385.79C86.2224 385.434 85.4792 385.394 85.2025 385.727C85.0945 385.857 84.7006 387.204 84.3275 388.727C83.6929 391.318 83.5886 391.547 82.9212 392.196C81.4451 393.631 80.0664 392.725 80.515 390.633C80.6176 390.155 80.9132 389.225 81.1712 388.54C81.7649 386.963 81.7844 386.34 81.2025 385.758C80.8513 385.407 80.4281 385.243 79.9837 385.29Z" fill="black"/>
<path d="M387.809 7.27431C385.797 10.7451 391.196 13.1898 391.059 16.8993C392.689 23.25 391.282 30.0308 387.309 35.0243C386.715 39.596 392.606 37.4533 393.497 34.6493C399.25 26.4698 398.763 12.3754 389.809 6.74306C389.077 6.45675 388.472 7.07461 387.809 7.27431ZM344.59 6.77431C338.8 9.90666 336.799 17.3623 337.278 23.5868C333.601 21.7258 338.615 15.1059 338.465 11.0868C339.421 5.41385 326.54 8.47976 331.747 12.9931C332.974 16.4934 327.592 14.1445 326.059 16.6493C320.824 19.9381 319.991 31.3291 327.747 31.3993C330.368 29.4191 332.941 32.7555 335.559 30.6181C337.189 29.8177 337.581 25.4183 338.122 29.2118C339.412 32.5746 342.421 39.439 346.715 37.1806C348.351 33.5628 342.97 31.0305 343.184 27.1181C341.769 20.9778 343.158 14.3497 347.122 9.55556C347.778 7.99097 346.109 6.43023 344.59 6.77431ZM311.715 8.05556C307.561 7.95022 306.19 12.7963 305.872 15.4618C303.649 16.562 304.468 18.8616 302.465 15.9306C299.52 14.1316 296.452 15.973 293.497 15.0556C290.972 14.6053 288.905 17.7524 288.497 14.9931C292.867 11.8946 285.906 6.14166 283.497 10.8993C281.445 13.1541 286.705 15.5643 282.997 15.6181C280.481 17.5343 283.362 19.5438 284.059 20.8368C284.139 23.6892 284.698 26.4583 282.122 28.0556C282.253 33.1794 288.954 30.164 292.122 30.9931C295.716 31.0604 299.666 30.8096 302.84 31.0868C301.739 33.2615 301.212 33.2993 298.684 32.9618C295.713 32.6956 292.708 33.9109 290.965 36.3681C288.595 33.2334 286.446 38.5783 284.778 35.5243C280.781 33.5358 276.48 40.1953 280.278 42.4618C280.95 45.1434 277.322 48.4059 281.153 50.3368C285.707 52.5221 290.052 47.3048 290.309 43.4931C292.007 48.3197 299.909 50.2303 303.122 46.4931C303.342 45.8848 307.515 48.2833 309.59 46.9931C312.034 47.2468 313.033 44.0371 310.965 42.8368C311.952 38.3475 317.139 36.3874 319.372 33.0243C318.743 29.6156 310.912 29.6488 311.778 33.7743C308.879 37.6449 311.174 33.4448 309.934 31.5868C307.489 30.0936 315.533 32.368 314.528 28.5868C312.362 26.0858 311.231 24.1443 312.028 20.1493C316.56 20.3793 314.857 14.8316 311.934 14.9306C314.899 16.21 318.892 10.946 314.84 8.61806C313.902 8.08461 312.782 7.93316 311.715 8.05556ZM248.965 15.0868C244.813 16.2128 240.788 13.8398 236.559 16.0243C234.09 17.4376 233.849 20.942 235.028 23.0868C233.377 25.8455 233.684 32.9229 238.278 31.0243C241.664 32.5178 246.175 30.2855 246.84 27.2743C248.101 33.1826 255.804 31.0613 259.872 31.0868C262.988 29.3233 260.225 32.2757 259.34 33.3681C259.051 36.792 263.789 35.2777 260.247 38.3056C260.987 40.5691 265.878 42.5377 262.678 45.0566C259.951 48.5795 255.752 49.2234 251.809 48.2431C254.59 48.7774 260.917 48.1762 258.028 44.0868C256.888 42.6696 251.611 43.7782 252.34 43.1493C254.832 43.3743 260.299 43.0925 258.372 39.2118C254.677 36.7183 248.383 38.1735 246.184 42.1181C244.171 39.1927 240.537 41.0876 237.684 40.5243C235.281 41.2522 232.497 44.5793 234.528 46.7743C231.183 49.7208 235.971 54.0942 239.215 52.0556C241.875 53.503 245.042 51.3956 246.028 48.9931C248.152 54.1653 255.455 54.2926 259.247 52.2431C261.934 52.7878 265.934 52.3165 265.372 48.8368C266.814 46.9915 264.573 53.2359 268.34 52.2118C271.313 53.802 277.19 50.3564 272.684 47.8681C269.855 45.6539 270.578 41.9541 273.997 40.5556C278.401 40.1221 275.919 34.5998 272.372 35.9306C270.928 35.7551 266.045 37.6354 268.59 35.3993C271.405 33.0782 264.707 30.6435 269.09 31.3681C277.844 31.002 278.704 16.7511 270.153 15.1493C266.82 15.404 263.795 14.6461 260.465 15.5556C259.125 16.6872 255.235 13.5694 252.59 15.8681C252.311 16.7637 250.48 13.8977 248.965 15.0868ZM357.872 15.0243C354.942 16.5879 351.001 13.4229 348.465 16.9931C346.259 18.7651 345.571 24.475 349.84 23.1806C351.514 21.7693 352.346 18.8304 351.309 22.8056C351.616 26.3936 347.223 22.679 346.09 26.0243C343.987 30.0033 349.813 33.1393 352.778 30.4931C356.906 34.0185 364.639 27.0992 360.622 23.2118C358.106 20.8225 356.101 28.6113 356.809 24.7431C356.72 21.068 358.335 22.3136 360.715 21.9306C364.944 19.8693 362.003 14.1163 357.872 15.0243ZM377.215 15.0556C372.967 15.7494 370.939 23.0135 374.84 23.8681C373.968 26.4508 376.084 28.877 373.465 30.4618C371.024 36.1864 379.571 38.621 382.809 34.6181C387.116 30.2673 387.301 23.4638 388.59 17.8056C387.389 12.9157 381.671 16.6855 382.278 20.3993C382.135 23.1043 379.257 29.5612 380.903 23.6493C382.833 20.0914 382.552 14.4368 377.215 15.0556ZM290.09 19.3368C292.582 20.266 291.533 24.7258 291.028 26.4306C288.431 27.664 290.021 18.1304 290.09 19.3368ZM304.684 19.3368C307.514 19.986 306.333 24.7226 305.809 26.4306C303.089 26.6194 305.271 21.1108 304.372 19.2118L304.309 18.8368L304.684 19.3368ZM259.934 19.3368C262.786 20.5904 260.634 24.7802 261.309 27.3056C258.258 26.2619 260.266 20.9206 259.934 19.3368ZM252.809 19.6181C254.542 20.2019 254.721 26.6582 252.622 26.6181C252.569 24.5139 252.266 20.2496 252.809 19.6181ZM240.34 19.5556C241.127 19.9708 241.88 19.7431 240.34 19.5556V19.5556ZM298.559 19.6493C298.274 21.5453 299.796 26.5378 297.403 26.3368C297.857 24.3037 296.247 20.87 298.559 19.6493ZM268.215 19.7431C271.008 20.1115 270.733 26.6583 267.903 26.7118C266.818 26.1303 266.123 19.9785 268.215 19.7431ZM330.278 19.8681C329.925 21.5866 329.48 26.4994 327.872 26.1181C328.201 24.0546 328.411 20.8158 330.278 19.8681ZM246.59 19.9618C247.764 24.2001 245.495 24.6828 246.184 21.0243C246.395 20.7547 245.933 19.4581 246.59 19.9618ZM365.09 24.4931C361.631 24.7823 361.713 29.7724 364.247 30.9306C361.678 32.7678 363.222 37.8076 366.497 35.6806C369.773 33.1066 371.118 24.2272 365.09 24.4931ZM240.497 25.8681C243.325 26.4647 239.288 27.6546 239.309 25.5556L240.276 25.81L240.497 25.8681ZM305.528 30.7118C304.763 30.5814 305.868 30.9782 305.528 30.7118V30.7118ZM303.372 35.2118C304.969 37.2737 307.499 42.3525 303.622 43.3681C303.148 46.2004 300.794 42.0298 298.559 43.3056C296.207 43.4187 295.36 42.7697 298.809 43.0556C302.49 44.5096 305.286 38.9738 300.778 38.2431C298.913 38.1516 293.647 38.1457 298.559 37.8993C300.636 38.1904 303.429 37.3353 303.372 35.2118Z" fill="white"/>
<path d="M389.259 8.71752C389.19 8.73727 389.165 8.79599 389.165 8.90502C389.165 9.01123 389.576 9.61728 390.103 10.2488C390.629 10.8803 391.423 12.1455 391.853 13.0613C394.978 19.7146 394.085 29.874 389.978 34.5613C389.518 35.0864 389.165 35.6067 389.165 35.7175C389.165 36.4963 391.153 34.7125 392.415 32.8113C394.179 30.1542 395.047 27.1653 395.197 23.3113C395.423 17.4767 393.918 12.9385 390.634 9.65502C389.977 8.99755 389.467 8.65826 389.259 8.71752ZM345.228 8.74877C344.823 8.59289 343.107 10.2209 341.947 11.9988C340.994 13.4581 340.136 15.5633 339.634 17.5613C339.396 18.5103 339.325 19.6349 339.322 22.3113C339.318 25.4084 339.346 26.0317 339.728 27.4988C340.502 30.4761 341.934 33.0797 343.79 34.9363C344.711 35.857 345.322 36.1699 345.322 35.7175C345.322 35.6067 344.943 35.0864 344.478 34.5613C343.38 33.3207 341.893 30.3324 341.415 28.3425C341.208 27.4776 340.94 25.7356 340.822 24.4988C340.297 19.0436 341.696 13.4349 344.353 10.2488C344.879 9.61727 345.322 9.01124 345.322 8.90502C345.322 8.80408 345.286 8.77104 345.228 8.74877ZM312.009 10.0613C310.72 10.1545 309.661 10.7801 308.915 11.905C308.436 12.6289 308.41 12.8309 308.353 15.0613L308.29 17.405H307.196C306.225 17.405 306.103 17.4517 306.103 17.78C306.103 18.1089 306.21 18.155 307.196 18.155H308.321V22.8113C308.321 25.6541 308.22 27.5606 308.103 27.78C307.997 27.9768 307.734 28.1536 307.509 28.155C306.733 28.1598 306.259 28.3636 306.259 28.7175C306.259 29.0451 306.458 29.0613 309.415 29.0613C312.398 29.0613 312.571 29.0558 312.571 28.7175C312.571 28.4251 312.382 28.3501 311.571 28.2488C311.027 28.1808 310.464 28.0557 310.321 27.9675C310.109 27.8366 310.071 26.9257 310.071 23.03V18.2488L311.603 18.1863C312.977 18.1379 313.103 18.1064 313.103 17.78C313.103 17.4484 312.979 17.405 311.54 17.405H309.978V15.4988C309.978 12.5443 310.629 11.0037 312.04 10.655C312.777 10.473 312.956 10.6953 312.603 11.3113C312.354 11.7445 312.332 11.9226 312.509 12.3113C312.982 13.3504 314.603 12.9851 314.603 11.8425C314.603 10.5631 313.687 9.93992 312.009 10.0613ZM336.665 10.155L334.915 10.28C332.772 10.4387 332.54 10.5187 332.54 10.9675C332.54 11.2664 332.676 11.3113 333.353 11.3113C333.798 11.3113 334.254 11.4028 334.353 11.53C334.474 11.6865 334.248 12.8704 333.665 15.1863L332.79 18.6238L332.446 18.0925C331.127 16.0817 327.7 17.0794 325.696 20.03C324.647 21.5751 324.181 22.8169 324.071 24.53C323.924 26.8463 324.501 28.1921 325.978 29.0925C327.157 29.8119 328.919 29.4274 330.29 28.155C330.987 27.5083 331.071 27.4915 331.071 27.8738C331.071 28.0248 331.286 28.3976 331.571 28.7175C331.993 29.1897 332.296 29.3305 333.071 29.405C333.967 29.4911 334.041 29.4358 334.634 28.8425C335.065 28.4114 335.4 27.8253 335.665 26.9675C336.124 25.4808 336.161 24.9988 335.79 24.9988C335.618 24.9988 335.391 25.3866 335.197 26.0613C334.595 28.15 333.917 29.0697 333.103 28.8113C332.316 28.5616 332.432 27.7966 334.509 19.3425C335.605 14.8818 336.525 10.9803 336.572 10.6863L336.665 10.155ZM286.634 11.1238C286.279 11.1084 285.906 11.2454 285.603 11.53C285.073 12.0275 285.072 12.7746 285.571 13.3113C286.118 13.8983 287.076 13.8473 287.571 13.2175C288.055 12.6026 288.055 12.2387 287.571 11.6238C287.329 11.3155 286.988 11.1392 286.634 11.1238ZM250.571 16.9988L249.165 17.1238C248.387 17.1896 247.518 17.2488 247.228 17.2488C246.789 17.2488 246.696 17.3011 246.696 17.6863C246.696 18.0864 246.792 18.155 247.321 18.155C247.658 18.155 248.093 18.292 248.29 18.4363C248.624 18.6797 248.642 19.0005 248.728 23.0925C248.818 27.3783 248.827 27.5184 249.259 28.1238C249.503 28.4663 250.061 28.9031 250.478 29.0925C251.332 29.4805 253.212 29.5637 254.04 29.2488C254.326 29.1401 254.92 28.6826 255.353 28.2175L256.134 27.3425V28.4363V29.4988L257.54 29.3738C258.319 29.308 259.176 29.2488 259.415 29.2488C259.755 29.2488 259.821 29.1734 259.821 28.8113C259.821 28.406 259.764 28.3425 259.196 28.3425C258.796 28.3425 258.394 28.1966 258.165 27.9675C257.812 27.6147 257.79 27.3327 257.79 22.28V16.9988L256.54 17.1238C255.853 17.1886 254.984 17.2168 254.603 17.2175C253.997 17.2187 253.915 17.3032 253.915 17.6863C253.915 18.0704 254.01 18.133 254.759 18.2175C255.229 18.2705 255.703 18.423 255.79 18.5613C255.878 18.6995 255.945 20.359 255.946 22.2488C255.95 26.2565 255.792 27.0119 254.665 28.03C253.826 28.7882 252.867 29.0215 251.853 28.7175C250.614 28.3463 250.572 28.1561 250.571 22.2175V16.9988ZM287.759 16.9988L286.509 17.1238C285.822 17.1886 284.996 17.2168 284.665 17.2175C284.148 17.2187 284.071 17.2881 284.071 17.6863C284.071 18.0915 284.16 18.155 284.728 18.155C285.129 18.155 285.499 18.301 285.728 18.53C286.076 18.8786 286.103 19.1344 286.103 23.155C286.103 25.7428 286.031 27.563 285.915 27.78C285.81 27.9768 285.547 28.1536 285.321 28.155C284.545 28.1598 284.071 28.3636 284.071 28.7175C284.071 29.0438 284.261 29.0613 286.946 29.0613C289.632 29.0613 289.821 29.0438 289.821 28.7175C289.821 28.3618 289.327 28.1597 288.54 28.155C288.26 28.1533 288.067 28.0022 287.946 27.6863C287.845 27.4196 287.759 24.96 287.759 22.0925V16.9988ZM244.04 17.03C243.915 16.98 243.737 17.1184 243.478 17.405C243.152 17.7651 243.152 17.7651 242.446 17.405C241.963 17.1582 241.364 17.0606 240.571 17.0613C237.848 17.0637 236.353 18.218 236.353 20.3425C236.353 21.8013 237.485 23.1031 239.103 23.4988C239.469 23.5883 240.331 23.8015 241.04 23.9675C243.093 24.4481 244.062 25.6367 243.571 27.1238C243.295 27.9611 242.473 28.6536 241.54 28.8113C239.454 29.1637 237.965 28.1041 237.259 25.78C237.007 24.9487 236.764 24.4363 236.603 24.4363C236.393 24.4363 236.353 24.9166 236.353 26.9363C236.353 28.9802 236.386 29.4363 236.603 29.4363C236.748 29.4363 237.043 29.2081 237.259 28.905L237.665 28.3425L238.415 28.8425C239.107 29.2999 239.352 29.3425 240.884 29.3425C242.426 29.3425 242.642 29.3129 243.353 28.8425C245.226 27.6027 245.55 25.0891 244.071 23.405C243.309 22.5362 242.891 22.3405 240.603 21.78C239.004 21.3882 238.554 21.213 238.134 20.7488C237.222 19.7413 237.531 18.5536 238.821 17.9675C240.887 17.0298 243.163 17.9382 243.478 19.8113C243.663 20.9155 243.762 21.1238 244.04 21.1238C244.254 21.1238 244.29 20.7356 244.29 19.0925C244.29 17.7394 244.248 17.1133 244.04 17.03ZM268.759 17.03C267.589 17.0112 266.458 17.4344 265.54 18.3113L265.009 18.78V17.905C265.009 16.9126 265.138 16.9513 262.728 17.155C261.424 17.2652 261.321 17.3078 261.321 17.6863C261.321 18.0294 261.452 18.1302 262.103 18.2175C262.534 18.2753 262.971 18.4753 263.103 18.655C263.408 19.0719 263.467 32.4039 263.165 32.9675C263.06 33.1643 262.797 33.3411 262.571 33.3425C261.795 33.3473 261.321 33.5511 261.321 33.905C261.321 34.2317 261.515 34.2488 264.29 34.2488C267.088 34.2488 267.228 34.2414 267.228 33.905C267.228 33.6186 267.041 33.498 266.259 33.3738L265.29 33.2488L265.228 30.5613L265.196 27.905L265.821 28.4675C266.695 29.2348 267.625 29.5161 269.009 29.405C271.036 29.2423 272.748 28.0094 273.759 25.9675C274.116 25.247 274.163 24.8028 274.165 23.2488C274.167 21.6365 274.119 21.2744 273.696 20.3738C272.713 18.2766 270.709 17.0613 268.759 17.03ZM358.884 17.03C357.791 16.9485 356.629 17.4515 356.103 18.3425C355.927 18.6403 355.72 18.9057 355.665 18.905C355.611 18.9044 355.431 18.645 355.259 18.3425C354.216 16.5094 351.176 16.6889 349.79 18.655C349.195 19.4993 348.634 20.6987 348.634 21.1238C348.634 21.849 349.234 21.4267 349.603 20.4363C350.053 19.2271 351.174 18.0771 352.165 17.78C352.843 17.5769 352.965 17.5711 353.415 17.905C354.357 18.6038 354.327 19.2014 353.29 23.3425C352.288 27.3458 351.869 28.2966 350.853 28.7175C350.536 28.8488 350.026 28.8848 349.634 28.8113L348.978 28.6863L349.447 28.2488C349.96 27.773 350.082 26.9154 349.697 26.53C349.067 25.9003 347.728 26.6419 347.728 27.6238C347.728 28.3393 347.994 28.8245 348.603 29.155C349.854 29.8341 351.616 29.3635 352.447 28.1238C352.639 27.8362 352.833 27.5921 352.884 27.5925C352.935 27.5929 353.118 27.8525 353.29 28.155C354.295 29.9215 357.158 29.8348 358.603 27.9988C359.723 26.5746 360.308 24.895 359.634 25.03C359.469 25.063 359.172 25.5076 358.978 26.03C358.35 27.7154 356.638 29.0418 355.447 28.78C354.834 28.6455 354.384 27.9233 354.384 27.0925C354.384 26.1953 356.016 19.7961 356.447 19.03C356.998 18.048 357.897 17.5303 358.728 17.6863C359.475 17.8265 359.498 17.8535 359.009 18.3425C358.553 18.7987 358.487 19.928 358.915 20.0925C360.711 20.7815 361.637 18.2329 359.915 17.3425C359.597 17.178 359.248 17.0572 358.884 17.03ZM294.29 17.0613C293.96 17.0772 293.502 17.1028 292.884 17.155C291.581 17.2652 291.478 17.3078 291.478 17.6863C291.478 18.0294 291.608 18.1302 292.259 18.2175C292.69 18.2753 293.128 18.4753 293.259 18.655C293.56 19.0669 293.618 27.2264 293.321 27.78C293.216 27.9768 292.953 28.1536 292.728 28.155C291.951 28.1598 291.478 28.3636 291.478 28.7175C291.478 29.0442 291.671 29.0613 294.446 29.0613C297.244 29.0613 297.384 29.0539 297.384 28.7175C297.384 28.4311 297.197 28.3418 296.415 28.2175L295.446 28.0613L295.415 24.5613C295.355 20.3986 295.491 19.7009 296.728 18.5613C298.115 17.2829 299.73 17.3543 300.415 18.7175C300.703 19.2893 300.707 19.8788 300.665 23.7175L300.634 28.0613L299.665 28.2175C298.884 28.3418 298.696 28.4311 298.696 28.7175C298.696 29.0539 298.836 29.0613 301.634 29.0613C304.448 29.0613 304.603 29.0613 304.603 28.7175C304.603 28.4427 304.443 28.333 303.915 28.2488C302.606 28.0396 302.673 28.2796 302.571 23.3738C302.486 19.2442 302.456 18.8782 302.103 18.405C301.363 17.415 300.811 17.1577 299.384 17.0925C297.743 17.0176 296.701 17.4793 295.79 18.6863L295.165 19.4675V18.28C295.165 17.2331 295.28 17.0133 294.29 17.0613ZM377.853 17.0613C377.158 17.0613 376.967 17.1364 376.197 17.9363C375.019 19.1583 374.087 21.6182 374.853 21.4675C375.035 21.4316 375.306 20.9433 375.54 20.28C376.022 18.9151 377.236 17.5312 377.884 17.6238C378.153 17.6621 378.401 17.8771 378.509 18.1863C378.649 18.586 378.497 19.2561 377.697 21.6238C376.838 24.162 376.676 24.7471 376.665 26.03C376.656 27.1953 376.749 27.6365 377.04 28.1238C377.834 29.4515 379.976 29.8754 381.509 28.9988C381.941 28.7515 382.322 28.6064 382.322 28.6863C382.322 28.7662 382.144 29.2983 381.947 29.8738C381.201 32.0393 379.625 33.767 378.197 33.9988C377.421 34.1246 376.327 33.6911 376.04 33.155C375.857 32.8127 375.886 32.78 376.29 32.78C376.794 32.78 377.509 32.0057 377.509 31.4675C377.509 30.996 376.983 30.5613 376.447 30.5613C375.699 30.5613 375.103 31.3146 375.103 32.2488C375.103 33.158 375.421 33.7539 376.259 34.28C376.718 34.568 377.089 34.642 378.04 34.5925C379.518 34.5157 380.711 33.9658 381.915 32.78C383.389 31.3294 383.792 30.2998 385.384 23.8738C386.615 18.9055 386.78 17.9692 386.572 17.7175C386.215 17.2883 385.513 17.3553 385.197 17.8425C385.048 18.0715 384.431 20.2442 383.822 22.6863L382.697 27.1238L381.853 27.905C380.368 29.2582 378.953 29.1752 378.447 27.6863C378.103 26.678 378.4 24.892 379.353 22.0925C379.762 20.8893 380.103 19.5944 380.103 19.2175C380.103 17.7817 379.329 17.0613 377.853 17.0613ZM330.415 17.5925C331.389 17.5925 332.353 18.7954 332.353 19.9988C332.353 20.4915 331.854 22.7144 331.04 25.8113C330.806 26.7016 329.546 28.0848 328.571 28.53C326.681 29.3935 325.751 28.3871 325.946 25.655C326.054 24.1555 326.744 21.379 327.29 20.3113C328.032 18.8617 329.49 17.5925 330.415 17.5925ZM268.228 17.78C269.177 17.7326 270.148 18.1042 270.821 18.905C272.123 20.4516 272.526 23.7998 271.696 25.9363C271.252 27.0813 270.216 28.2798 269.321 28.655C268.154 29.1448 266.984 28.7806 265.946 27.655L265.196 26.8738V23.3113C265.196 19.7903 265.196 19.7707 265.665 19.155C266.327 18.2875 267.278 17.8275 268.228 17.78ZM365.415 26.4988C365.11 26.5313 364.829 26.6399 364.665 26.8738C364.256 27.4586 364.294 28.2527 364.759 28.7175C365.078 29.037 365.299 29.1065 365.978 29.03L366.822 28.9363L366.697 29.8738C366.542 31.0399 365.997 32.2644 365.259 33.1863C364.953 33.5687 364.759 33.9604 364.822 34.0613C364.884 34.1622 365.016 34.2488 365.103 34.2488C365.387 34.2488 366.27 33.0676 366.759 32.03C367.166 31.1664 367.228 30.7517 367.228 29.3113C367.228 27.8765 367.181 27.5346 366.853 27.0925C366.519 26.6432 365.924 26.4445 365.415 26.4988ZM304.134 32.8113C303.786 32.8443 303.696 32.9402 303.696 33.0613C303.696 33.248 303.854 33.3425 304.196 33.3425C304.482 33.3425 304.847 33.4341 305.009 33.5613C305.171 33.6885 305.903 35.2177 306.634 36.9675L307.978 40.155L307.54 42.0613C307.067 44.1819 306.774 44.6238 305.821 44.6238C305.194 44.6238 304.862 44.8206 305.103 45.0613C305.304 45.2624 310.259 45.1125 310.259 44.905C310.259 44.8033 309.927 44.6869 309.54 44.655C309.153 44.6231 308.81 44.4759 308.759 44.3425C308.626 43.9967 309.413 40.7321 309.759 40.1863C309.918 39.9349 311.192 38.4769 312.603 36.9363C315.037 34.278 315.671 33.7162 316.853 33.3738C317.914 33.0663 317.45 32.8635 315.571 32.8113C314.033 32.7685 313.665 32.8171 313.665 33.03C313.665 33.1743 313.837 33.3205 314.04 33.3738C314.244 33.427 314.415 33.6192 314.415 33.78C314.415 34.0469 309.837 39.2488 309.603 39.2488C309.547 39.2488 308.991 37.9787 308.353 36.4363C307.116 33.4459 307.108 33.3484 308.196 33.3425C308.533 33.3407 308.683 33.2408 308.634 33.0925C308.579 32.9267 307.881 32.8483 306.134 32.8113C305.091 32.7892 304.482 32.7782 304.134 32.8113ZM298.79 34.9988C296.062 34.9988 294.968 35.3241 293.634 36.4988C290.379 39.3642 291.49 44.5268 295.696 46.03C296.105 46.1761 297.283 46.2751 298.728 46.28C300.73 46.2869 301.131 46.2496 301.228 45.9988C301.42 45.4981 300.909 45.3497 298.603 45.3425C296.776 45.3368 296.225 45.2772 295.54 44.9675C294.128 44.3291 293.042 43.0626 292.696 41.6238L292.571 41.0925H296.853C300.592 41.0925 301.128 41.071 301.228 40.8113C301.29 40.6484 301.214 40.4325 301.071 40.3425C300.929 40.2526 298.96 40.1878 296.696 40.1863C294.433 40.1847 292.571 40.1396 292.571 40.0925C292.571 39.5797 293.461 37.8761 294.009 37.3425C295.204 36.1799 296.062 35.9442 298.603 35.9363C300.909 35.9291 301.42 35.7807 301.228 35.28C301.132 35.0303 300.739 34.9988 298.79 34.9988ZM283.134 37.2175C282.393 37.2952 281.612 37.907 281.103 38.905C280.683 39.7275 280.636 40.1863 280.978 40.1863C281.11 40.1863 281.393 39.7776 281.603 39.28C282.004 38.3309 282.755 37.6611 283.228 37.8425C283.625 37.9951 283.594 38.4267 282.978 40.2488C282.679 41.1339 282.387 42.2162 282.321 42.655C282.165 43.6986 282.576 44.6757 283.321 45.0613C284.027 45.4263 285.381 45.4491 285.853 45.0925C286.453 44.6384 286.486 44.7717 286.103 45.78C285.394 47.6447 283.853 48.6439 282.509 48.1238L281.946 47.905L282.478 47.655C282.907 47.4286 282.962 47.2667 282.915 46.78C282.871 46.324 282.78 46.171 282.446 46.1238C281.835 46.0371 281.29 46.5901 281.29 47.3113C281.29 47.7619 281.441 48.0321 281.884 48.405C282.41 48.8472 282.601 48.9104 283.54 48.8425C284.821 48.7499 286.102 48.0126 286.946 46.905C287.413 46.2934 287.709 45.4272 288.571 42.0925C289.152 39.8466 289.572 37.8499 289.509 37.6863C289.373 37.331 288.629 37.2903 288.353 37.6238C288.245 37.7539 287.851 39.1317 287.478 40.655C286.843 43.2461 286.77 43.4435 286.103 44.0925C284.627 45.5281 283.248 44.6532 283.696 42.5613C283.799 42.0829 284.095 41.1531 284.353 40.4675C284.946 38.8904 284.935 38.2369 284.353 37.655C284.002 37.3038 283.578 37.1709 283.134 37.2175ZM272.415 37.9675C270.782 37.9675 270.384 38.0036 270.384 38.2175C270.384 38.3633 270.555 38.5279 270.759 38.5925C271.431 38.8058 271.157 39.327 269.415 41.0613L267.665 42.78L266.79 40.905C265.927 39.1046 265.896 38.9917 266.228 38.7488C266.419 38.6092 266.731 38.4988 266.915 38.4988C267.099 38.4988 267.228 38.3731 267.228 38.2175C267.228 37.9754 266.875 37.9546 264.79 37.9988C263.044 38.0358 262.345 38.1142 262.29 38.28C262.244 38.4205 262.372 38.4972 262.634 38.4988C263.704 38.505 263.842 38.6524 265.103 41.3425C265.778 42.7836 266.324 44.0518 266.321 44.155C266.319 44.2582 265.244 45.3949 263.946 46.6863C261.631 48.9914 260.508 49.7703 259.509 49.78C259.264 49.7824 259.103 49.898 259.103 50.0613C259.103 50.2919 259.46 50.3425 261.228 50.3425C262.916 50.3425 263.353 50.2956 263.353 50.0925C263.353 49.9517 263.181 49.802 262.978 49.7488C262.283 49.5671 262.618 48.9695 264.634 46.8425L266.665 44.7175L267.696 46.8425C268.261 48.0116 268.727 49.0854 268.728 49.2488C268.729 49.4233 268.473 49.6202 268.134 49.7175C266.93 50.0629 267.54 50.2599 269.978 50.3113C272.077 50.3555 272.415 50.3347 272.415 50.0925C272.415 49.9058 272.227 49.78 271.884 49.78C271.598 49.78 271.239 49.6885 271.071 49.5613C270.904 49.4341 270.153 48.0018 269.384 46.3738L267.978 43.405L270.259 41.155C272.156 39.283 272.668 38.8931 273.353 38.7175C274.578 38.4032 274.666 38.3581 274.54 38.155C274.474 38.0483 273.575 37.9675 272.415 37.9675ZM254.384 40.1863C251.655 40.1863 250.562 40.4804 249.228 41.655C245.972 44.5205 247.084 49.7143 251.29 51.2175C251.699 51.3636 252.908 51.4313 254.353 51.4363C256.355 51.4431 256.725 51.4058 256.821 51.155C257.014 50.6543 256.503 50.5372 254.196 50.53C252.37 50.5243 251.819 50.4647 251.134 50.155C249.722 49.5166 248.636 48.2189 248.29 46.78L248.165 46.28H252.446C256.186 46.28 256.722 46.2585 256.821 45.9988C256.884 45.8359 256.807 45.6199 256.665 45.53C256.523 45.4401 254.554 45.3441 252.29 45.3425C250.026 45.341 248.196 45.3271 248.196 45.28C248.196 44.7673 249.054 43.0636 249.603 42.53C250.798 41.3674 251.656 41.1004 254.196 41.0925C256.503 41.0854 257.014 40.9682 256.821 40.4675C256.726 40.2178 256.333 40.1863 254.384 40.1863ZM242.915 42.405C242.468 42.441 242.012 42.639 241.603 42.9988C241.003 43.5255 240.915 43.5281 240.759 43.2488C240.289 42.4091 238.726 42.1739 237.634 42.7488C236.99 43.0877 235.79 44.6073 235.79 45.0925C235.79 45.5197 236.329 45.3777 236.509 44.905C236.819 44.0902 237.804 43.1564 238.478 43.03C239.221 42.8906 239.853 43.3235 239.853 43.9675C239.853 44.7792 238.764 48.7496 238.415 49.2175C238.001 49.7745 237.281 50.0815 236.821 49.905C236.532 49.7941 236.512 49.7772 236.79 49.4988C237.233 49.0558 237.109 48.2311 236.571 48.155C235.507 48.0043 235.03 49.4587 235.915 50.155C236.739 50.8031 238.394 50.5239 238.915 49.655C239.1 49.3467 239.137 49.3467 239.321 49.655C239.803 50.4583 241.433 50.791 242.415 50.28C243.545 49.6922 244.816 47.5613 244.04 47.5613C243.897 47.5613 243.604 47.951 243.384 48.405C242.683 49.8528 241.095 50.4413 240.478 49.4988C240.184 49.051 240.214 48.904 240.79 46.4988C241.47 43.6609 241.898 42.9363 242.978 42.9363C243.603 42.9363 243.701 43.1323 243.259 43.4988C243.099 43.6312 243.009 43.9513 243.04 44.2175C243.082 44.5783 243.205 44.7063 243.571 44.7488C244.642 44.8729 245.061 43.4845 244.165 42.78C243.788 42.4835 243.363 42.369 242.915 42.405Z" fill="black"/>
</svg>
