<svg width="373" height="111" viewBox="0 0 373 111" fill="none" xmlns="http://www.w3.org/2000/svg">
<path d="M363 19.5C368.247 19.5 372.5 15.2467 372.5 10C372.5 4.75329 368.247 0.5 363 0.5C357.753 0.5 353.5 4.75329 353.5 10C353.5 15.2467 357.753 19.5 363 19.5Z" fill="#F5F99E" stroke="#BC4D4D"/>
<path d="M363 59.5C368.247 59.5 372.5 55.2467 372.5 50C372.5 44.7533 368.247 40.5 363 40.5C357.753 40.5 353.5 44.7533 353.5 50C353.5 55.2467 357.753 59.5 363 59.5Z" fill="#F5F99E" stroke="#BC4D4D"/>
<path d="M10 39.5C15.2467 39.5 19.5 35.2467 19.5 30C19.5 24.7533 15.2467 20.5 10 20.5C4.75329 20.5 0.5 24.7533 0.5 30C0.5 35.2467 4.75329 39.5 10 39.5Z" fill="#F5F99E" stroke="#BC4D4D"/>
<path d="M141 19.5C146.247 19.5 150.5 15.2467 150.5 10C150.5 4.75329 146.247 0.5 141 0.5C135.753 0.5 131.5 4.75329 131.5 10C131.5 15.2467 135.753 19.5 141 19.5Z" fill="#F5F99E" stroke="#BC4D4D"/>
<path d="M141 59.5C146.247 59.5 150.5 55.2467 150.5 50C150.5 44.7533 146.247 40.5 141 40.5C135.753 40.5 131.5 44.7533 131.5 50C131.5 55.2467 135.753 59.5 141 59.5Z" fill="#F5F99E" stroke="#BC4D4D"/>
<path d="M75 19.5C80.2467 19.5 84.5 15.2467 84.5 10C84.5 4.75329 80.2467 0.5 75 0.5C69.7533 0.5 65.5 4.75329 65.5 10C65.5 15.2467 69.7533 19.5 75 19.5Z" fill="#F5F99E" stroke="#BC4D4D"/>
<path d="M75 59.5C80.2467 59.5 84.5 55.2467 84.5 50C84.5 44.7533 80.2467 40.5 75 40.5C69.7533 40.5 65.5 44.7533 65.5 50C65.5 55.2467 69.7533 59.5 75 59.5Z" fill="#F5F99E" stroke="#BC4D4D"/>
<path d="M271 19.5C276.247 19.5 280.5 15.2467 280.5 10C280.5 4.75329 276.247 0.5 271 0.5C265.753 0.5 261.5 4.75329 261.5 10C261.5 15.2467 265.753 19.5 271 19.5Z" fill="#F5F99E" stroke="#BC4D4D"/>
<path d="M271 59.5C276.247 59.5 280.5 55.2467 280.5 50C280.5 44.7533 276.247 40.5 271 40.5C265.753 40.5 261.5 44.7533 261.5 50C261.5 55.2467 265.753 59.5 271 59.5Z" fill="#F5F99E" stroke="#BC4D4D"/>
<path d="M206 19.5C211.247 19.5 215.5 15.2467 215.5 10C215.5 4.75329 211.247 0.5 206 0.5C200.753 0.5 196.5 4.75329 196.5 10C196.5 15.2467 200.753 19.5 206 19.5Z" fill="#F5F99E" stroke="#BC4D4D"/>
<path d="M206 59.5C211.247 59.5 215.5 55.2467 215.5 50C215.5 44.7533 211.247 40.5 206 40.5C200.753 40.5 196.5 44.7533 196.5 50C196.5 55.2467 200.753 59.5 206 59.5Z" fill="#F5F99E" stroke="#BC4D4D"/>
<path d="M309.747 49.8825C309.747 49.3602 309.315 48.9999 308.883 48.9999C308.36 48.9999 308 49.4322 308 49.8645C308 50.3869 308.432 50.7471 308.865 50.7471C309.387 50.7471 309.747 50.3148 309.747 49.8825Z" fill="#BC4D4D"/>
<path d="M317.648 49.8825C317.648 49.3602 317.216 48.9999 316.784 48.9999C316.261 48.9999 315.901 49.4322 315.901 49.8645C315.901 50.3869 316.334 50.7471 316.766 50.7471C317.288 50.7471 317.648 50.3148 317.648 49.8825Z" fill="#BC4D4D"/>
<path d="M325.55 49.8825C325.55 49.3602 325.117 48.9999 324.685 48.9999C324.163 48.9999 323.802 49.4322 323.802 49.8645C323.802 50.3869 324.235 50.7471 324.667 50.7471C325.189 50.7471 325.55 50.3148 325.55 49.8825Z" fill="#BC4D4D"/>
<path d="M303.354 50.3535C303.549 50.1582 303.549 49.8416 303.354 49.6464L300.172 46.4644C299.976 46.2691 299.66 46.2691 299.464 46.4644C299.269 46.6597 299.269 46.9762 299.464 47.1715L302.293 49.9999L299.464 52.8284C299.269 53.0236 299.269 53.3402 299.464 53.5355C299.66 53.7307 299.976 53.7307 300.172 53.5355L303.354 50.3535ZM283 50.4999H303V49.4999H283V50.4999Z" fill="#BC4D4D"/>
<path d="M350.354 50.3535C350.549 50.1582 350.549 49.8416 350.354 49.6464L347.172 46.4644C346.976 46.2691 346.66 46.2691 346.464 46.4644C346.269 46.6597 346.269 46.9762 346.464 47.1715L349.293 49.9999L346.464 52.8284C346.269 53.0236 346.269 53.3402 346.464 53.5355C346.66 53.7307 346.976 53.7307 347.172 53.5355L350.354 50.3535ZM330 50.4999H350V49.4999H330V50.4999Z" fill="#BC4D4D"/>
<path d="M309.747 9.88253C309.747 9.36017 309.315 8.99992 308.883 8.99992C308.36 8.99992 308 9.43222 308 9.86452C308 10.3869 308.432 10.7471 308.865 10.7471C309.387 10.7471 309.747 10.3148 309.747 9.88253Z" fill="#BC4D4D"/>
<path d="M317.648 9.88253C317.648 9.36017 317.216 8.99992 316.784 8.99992C316.261 8.99992 315.901 9.43222 315.901 9.86452C315.901 10.3869 316.334 10.7471 316.766 10.7471C317.288 10.7471 317.648 10.3148 317.648 9.88253Z" fill="#BC4D4D"/>
<path d="M325.55 9.88253C325.55 9.36017 325.117 8.99992 324.685 8.99992C324.163 8.99992 323.802 9.43222 323.802 9.86452C323.802 10.3869 324.235 10.7471 324.667 10.7471C325.189 10.7471 325.55 10.3148 325.55 9.88253Z" fill="#BC4D4D"/>
<path d="M303.354 10.3535C303.549 10.1582 303.549 9.84165 303.354 9.64639L300.172 6.46441C299.976 6.26914 299.66 6.26914 299.464 6.46441C299.269 6.65967 299.269 6.97625 299.464 7.17151L302.293 9.99994L299.464 12.8284C299.269 13.0236 299.269 13.3402 299.464 13.5355C299.66 13.7307 299.976 13.7307 300.172 13.5355L303.354 10.3535ZM283 10.4999H303V9.49994H283V10.4999Z" fill="#BC4D4D"/>
<path d="M350.354 10.3535C350.549 10.1582 350.549 9.84165 350.354 9.64639L347.172 6.46441C346.976 6.26914 346.66 6.26914 346.464 6.46441C346.269 6.65967 346.269 6.97625 346.464 7.17151L349.293 9.99994L346.464 12.8284C346.269 13.0236 346.269 13.3402 346.464 13.5355C346.66 13.7307 346.976 13.7307 347.172 13.5355L350.354 10.3535ZM330 10.4999H350V9.49994H330V10.4999Z" fill="#BC4D4D"/>
<path d="M61.4436 14.2307C61.571 13.9857 61.4757 13.6838 61.2307 13.5564L57.2382 11.4803C56.9932 11.3529 56.6913 11.4482 56.5639 11.6932C56.4365 11.9382 56.5319 12.2401 56.7769 12.3675L60.3257 14.2129L58.4803 17.7618C58.3529 18.0068 58.4483 18.3087 58.6933 18.4361C58.9383 18.5635 59.2401 18.4681 59.3675 18.2231L61.4436 14.2307ZM23.1506 26.4768L61.1506 14.4768L60.8495 13.5232L22.8494 25.5232L23.1506 26.4768Z" fill="#BC4D4D"/>
<path d="M61.4436 47.7692C61.571 48.0142 61.4757 48.3161 61.2307 48.4435L57.2382 50.5196C56.9932 50.647 56.6913 50.5517 56.5639 50.3067C56.4365 50.0617 56.5319 49.7598 56.7769 49.6324L60.3257 47.787L58.4803 44.2381C58.3529 43.9931 58.4483 43.6912 58.6933 43.5638C58.9383 43.4364 59.2401 43.5317 59.3675 43.7767L61.4436 47.7692ZM23.1506 35.5231L61.1506 47.5231L60.8495 48.4767L22.8494 36.4767L23.1506 35.5231Z" fill="#BC4D4D"/>
<path d="M193.278 10.3535C193.474 10.1583 193.474 9.84167 193.278 9.64641L190.096 6.46443C189.901 6.26917 189.585 6.26917 189.389 6.46443C189.194 6.65969 189.194 6.97628 189.389 7.17154L192.218 9.99997L189.389 12.8284C189.194 13.0237 189.194 13.3402 189.389 13.5355C189.585 13.7308 189.901 13.7308 190.096 13.5355L193.278 10.3535ZM153.075 10.5H192.925V9.49997H153.075V10.5Z" fill="#BC4D4D"/>
<path d="M193.278 50.3535C193.474 50.1583 193.474 49.8417 193.278 49.6464L190.096 46.4644C189.901 46.2692 189.585 46.2692 189.389 46.4644C189.194 46.6597 189.194 46.9763 189.389 47.1715L192.218 50L189.389 52.8284C189.194 53.0237 189.194 53.3402 189.389 53.5355C189.585 53.7308 189.901 53.7308 190.096 53.5355L193.278 50.3535ZM153.075 50.5H192.925V49.5H153.075V50.5Z" fill="#BC4D4D"/>
<path d="M258.278 10.3535C258.474 10.1583 258.474 9.84167 258.278 9.64641L255.096 6.46443C254.901 6.26917 254.585 6.26917 254.389 6.46443C254.194 6.65969 254.194 6.97628 254.389 7.17154L257.218 9.99997L254.389 12.8284C254.194 13.0237 254.194 13.3402 254.389 13.5355C254.585 13.7308 254.901 13.7308 255.096 13.5355L258.278 10.3535ZM218.075 10.5H257.925V9.49997H218.075V10.5Z" fill="#BC4D4D"/>
<path d="M258.278 50.3535C258.474 50.1583 258.474 49.8417 258.278 49.6464L255.096 46.4644C254.901 46.2692 254.585 46.2692 254.389 46.4644C254.194 46.6597 254.194 46.9763 254.389 47.1715L257.218 50L254.389 52.8284C254.194 53.0237 254.194 53.3402 254.389 53.5355C254.585 53.7308 254.901 53.7308 255.096 53.5355L258.278 50.3535ZM218.075 50.5H257.925V49.5H218.075V50.5Z" fill="#BC4D4D"/>
<path d="M259.488 17.1092C259.548 16.8397 259.379 16.5724 259.109 16.512L254.718 15.5289C254.448 15.4686 254.181 15.6381 254.121 15.9076C254.06 16.1771 254.23 16.4444 254.499 16.5048L258.403 17.3787L257.529 21.282C257.469 21.5515 257.638 21.8189 257.908 21.8792C258.177 21.9395 258.444 21.77 258.505 21.5005L259.488 17.1092ZM218.268 43.4222L259.268 17.4222L258.732 16.5777L217.732 42.5777L218.268 43.4222Z" fill="#BC4D4D"/>
<path d="M259.488 42.8907C259.548 43.1601 259.379 43.4275 259.109 43.4878L254.718 44.471C254.448 44.5313 254.181 44.3617 254.121 44.0923C254.06 43.8228 254.23 43.5554 254.499 43.4951L258.403 42.6212L257.529 38.7179C257.469 38.4484 257.638 38.181 257.908 38.1207C258.177 38.0604 258.444 38.2299 258.505 38.4994L259.488 42.8907ZM218.268 16.5777L259.268 42.5777L258.732 43.4222L217.732 17.4222L218.268 16.5777Z" fill="#BC4D4D"/>
<path d="M127.278 10.3535C127.474 10.1583 127.474 9.84167 127.278 9.64641L124.096 6.46443C123.901 6.26917 123.585 6.26917 123.389 6.46443C123.194 6.65969 123.194 6.97628 123.389 7.17154L126.218 9.99997L123.389 12.8284C123.194 13.0237 123.194 13.3402 123.389 13.5355C123.585 13.7308 123.901 13.7308 124.096 13.5355L127.278 10.3535ZM87.0751 10.5H126.925V9.49997H87.0751V10.5Z" fill="#BC4D4D"/>
<path d="M127.278 50.3535C127.474 50.1583 127.474 49.8417 127.278 49.6464L124.096 46.4644C123.901 46.2692 123.585 46.2692 123.389 46.4644C123.194 46.6597 123.194 46.9763 123.389 47.1715L126.218 50L123.389 52.8284C123.194 53.0237 123.194 53.3402 123.389 53.5355C123.585 53.7308 123.901 53.7308 124.096 53.5355L127.278 50.3535ZM87.0751 50.5H126.925V49.5H87.0751V50.5Z" fill="#BC4D4D"/>
<path d="M128.488 17.1092C128.548 16.8397 128.379 16.5724 128.109 16.512L123.718 15.5289C123.448 15.4686 123.181 15.6381 123.121 15.9076C123.06 16.1771 123.23 16.4444 123.499 16.5048L127.403 17.3787L126.529 21.282C126.469 21.5515 126.638 21.8189 126.908 21.8792C127.177 21.9395 127.444 21.77 127.505 21.5005L128.488 17.1092ZM87.2678 43.4222L128.268 17.4222L127.732 16.5777L86.7322 42.5777L87.2678 43.4222Z" fill="#BC4D4D"/>
<path d="M128.488 42.8907C128.548 43.1601 128.379 43.4275 128.109 43.4878L123.718 44.471C123.448 44.5313 123.181 44.3617 123.121 44.0923C123.06 43.8228 123.23 43.5554 123.499 43.4951L127.403 42.6212L126.529 38.7179C126.469 38.4484 126.638 38.181 126.908 38.1207C127.177 38.0604 127.444 38.2299 127.505 38.4994L128.488 42.8907ZM87.2678 16.5777L128.268 42.5777L127.732 43.4222L86.7322 17.4222L87.2678 16.5777Z" fill="#BC4D4D"/>
<path d="M49.2842 75.3129C48.9419 75.3129 48.7798 75.3129 48.5276 75.5291C48.4196 75.6192 48.2214 75.8893 48.2214 76.1775C48.2214 76.5378 48.4916 76.7539 48.8339 76.7539C49.2662 76.7539 49.7525 76.3937 49.7525 75.6732C49.7525 74.8086 48.9239 74.1421 47.6811 74.1421C45.3214 74.1421 42.9618 76.7179 42.9618 79.2757C42.9618 80.8428 43.9345 82.2657 45.7717 82.2657C48.2214 82.2657 49.7705 80.3564 49.7705 80.1223C49.7705 80.0142 49.6624 79.9241 49.5904 79.9241C49.5363 79.9241 49.5183 79.9421 49.3562 80.1043C48.2034 81.6353 46.4922 81.9055 45.8078 81.9055C44.5649 81.9055 44.1686 80.8248 44.1686 79.9241C44.1686 79.2937 44.4748 77.5465 45.1233 76.3216C45.5916 75.4751 46.5643 74.5024 47.6991 74.5024C47.9332 74.5024 48.9239 74.5384 49.2842 75.3129Z" fill="#BC4D4D"/>
<path d="M58.0455 77.1322C58.0455 75.421 56.9288 74.1421 55.2896 74.1421C52.912 74.1421 50.5704 76.7359 50.5704 79.2757C50.5704 80.9869 51.6871 82.2657 53.3263 82.2657C55.7219 82.2657 58.0455 79.672 58.0455 77.1322ZM53.3443 81.9055C52.4437 81.9055 51.7772 81.185 51.7772 79.9241C51.7772 79.0956 52.2095 77.2583 52.7139 76.3577C53.5244 74.9707 54.5331 74.5024 55.2716 74.5024C56.1542 74.5024 56.8387 75.2229 56.8387 76.4837C56.8387 77.2042 56.4604 79.1316 55.776 80.2303C55.0375 81.4372 54.0468 81.9055 53.3443 81.9055Z" fill="#BC4D4D"/>
<path d="M62.4174 78.4831C62.7236 78.5372 63.2099 78.6452 63.318 78.6633C63.5521 78.7353 64.3627 79.0235 64.3627 79.8881C64.3627 80.4465 63.8584 81.9055 61.7689 81.9055C61.3907 81.9055 60.0397 81.8515 59.6795 80.8608C60.4 80.9508 60.7602 80.3925 60.7602 79.9962C60.7602 79.6179 60.508 79.4198 60.1478 79.4198C59.7515 79.4198 59.2292 79.726 59.2292 80.5366C59.2292 81.5993 60.3099 82.2657 61.7509 82.2657C64.4888 82.2657 65.2994 80.2484 65.2994 79.3117C65.2994 79.0415 65.2994 78.5372 64.723 77.9608C64.2726 77.5285 63.8403 77.4384 62.8677 77.2403C62.3813 77.1322 61.6068 76.9701 61.6068 76.1595C61.6068 75.7993 61.931 74.5024 63.6422 74.5024C64.3987 74.5024 65.1372 74.7906 65.3174 75.439C64.5248 75.439 64.4888 76.1235 64.4888 76.1415C64.4888 76.5198 64.831 76.6278 64.9931 76.6278C65.2453 76.6278 65.7497 76.4297 65.7497 75.6732C65.7497 74.9167 65.0652 74.1421 63.6602 74.1421C61.3006 74.1421 60.6702 75.9974 60.6702 76.7359C60.6702 78.1049 62.0031 78.3931 62.4174 78.4831Z" fill="#BC4D4D"/>
<path d="M81.4026 79.0595H81.0064C80.9523 79.3657 80.8082 80.3564 80.6281 80.6446C80.502 80.8067 79.4753 80.8067 78.9349 80.8067H75.6026C76.089 80.3924 77.1877 79.2396 77.6561 78.8073C80.3939 76.2856 81.4026 75.3489 81.4026 73.5657C81.4026 71.4942 79.7635 70.1073 77.6741 70.1073C75.5846 70.1073 74.3598 71.8905 74.3598 73.4396C74.3598 74.3582 75.1523 74.3582 75.2064 74.3582C75.5846 74.3582 76.0529 74.088 76.0529 73.5116C76.0529 73.0073 75.7107 72.6651 75.2064 72.6651C75.0442 72.6651 75.0082 72.6651 74.9542 72.6831C75.2964 71.4582 76.2691 70.6297 77.4399 70.6297C78.971 70.6297 79.9076 71.9085 79.9076 73.5657C79.9076 75.0967 79.025 76.4297 77.9983 77.5825L74.3598 81.6533V82.0856H80.9343L81.4026 79.0595Z" fill="#BC4D4D"/>
<path d="M86.9609 75.2949H88.9963C88.5099 77.3123 88.2037 78.6272 88.2037 80.0682C88.2037 80.3204 88.2037 82.2657 88.9422 82.2657C89.3205 82.2657 89.6447 81.9235 89.6447 81.6173C89.6447 81.5272 89.6447 81.4912 89.5186 81.221C89.0323 79.9782 89.0323 78.4291 89.0323 78.303C89.0323 78.1949 89.0323 76.916 89.4106 75.2949H91.428C91.6621 75.2949 92.2565 75.2949 92.2565 74.7185C92.2565 74.3223 91.9143 74.3223 91.5901 74.3223H85.664C85.2497 74.3223 84.6373 74.3223 83.8087 75.2049C83.3404 75.7272 82.764 76.6819 82.764 76.79C82.764 76.898 82.854 76.9341 82.9621 76.9341C83.0882 76.9341 83.1062 76.88 83.1963 76.7719C84.1329 75.2949 85.0696 75.2949 85.5199 75.2949H86.5466C86.1503 76.6459 85.7 78.2129 84.223 81.3651C84.0789 81.6533 84.0789 81.6893 84.0789 81.7974C84.0789 82.1757 84.4031 82.2657 84.5652 82.2657C85.0876 82.2657 85.2317 81.7974 85.4478 81.0409C85.736 80.1223 85.736 80.0862 85.9162 79.3657L86.9609 75.2949Z" fill="#BC4D4D"/>
<path d="M96.5672 74.8446H98.2243C98.5666 74.8446 98.7467 74.8446 98.7467 74.5204C98.7467 74.3223 98.6386 74.3223 98.2784 74.3223H96.6933L97.3597 71.6924C97.4318 71.4403 97.4318 71.4042 97.4318 71.2782C97.4318 70.9899 97.1976 70.8278 96.9635 70.8278C96.8194 70.8278 96.4051 70.8819 96.261 71.4583L95.5585 74.3223H93.8653C93.5051 74.3223 93.343 74.3223 93.343 74.6645C93.343 74.8446 93.469 74.8446 93.8113 74.8446H95.4144L94.2256 79.5999C94.0815 80.2303 94.0274 80.4105 94.0274 80.6446C94.0274 81.4912 94.6218 82.2657 95.6305 82.2657C97.4498 82.2657 98.4225 79.6359 98.4225 79.5098C98.4225 79.4018 98.3504 79.3477 98.2423 79.3477C98.2063 79.3477 98.1343 79.3477 98.0982 79.4198C98.0802 79.4378 98.0622 79.4558 97.9361 79.744C97.5579 80.6446 96.7293 81.9055 95.6846 81.9055C95.1442 81.9055 95.1082 81.4552 95.1082 81.0589C95.1082 81.0409 95.1082 80.6987 95.1622 80.4825L96.5672 74.8446Z" fill="#BC4D4D"/>
<path d="M247.363 80.939C247.054 80.939 246.871 80.9333 246.814 80.9218C246.757 80.9104 246.728 80.8475 246.728 80.7331C246.728 80.4243 246.791 80.2355 246.917 80.1669C246.928 80.1554 247.672 80.1497 249.147 80.1497C252.11 80.1497 253.671 80.1612 253.831 80.184C254.552 80.2984 255.152 80.5558 255.633 80.9561C256.113 81.3565 256.359 81.8827 256.371 82.5346C256.371 83.2667 256.039 83.9244 255.376 84.5078C254.712 85.0911 253.951 85.4858 253.094 85.6917L252.922 85.7431C253.654 85.8461 254.255 86.1092 254.724 86.5324C255.193 86.9556 255.433 87.4818 255.444 88.1109C255.444 88.9459 255.032 89.7523 254.209 90.5301C253.385 91.3079 252.373 91.7483 251.172 91.8513C251.092 91.8627 249.885 91.8684 247.552 91.8684C245.264 91.8684 244.103 91.857 244.069 91.8341C244.023 91.7998 244 91.754 244 91.6968C244 91.6168 244.011 91.5367 244.034 91.4566C244.092 91.2393 244.149 91.1192 244.206 91.0963C244.252 91.0849 244.337 91.0792 244.463 91.0792H244.566C244.875 91.0792 245.218 91.062 245.596 91.0277C245.756 90.9934 245.864 90.9247 245.922 90.8218C245.956 90.776 246.368 89.1861 247.157 86.052C247.946 82.9178 248.341 81.265 248.341 81.0934C248.341 81.0133 248.015 80.9619 247.363 80.939ZM254.535 82.5346C254.535 82.1915 254.449 81.8712 254.277 81.5738C254.106 81.2764 253.826 81.082 253.437 80.9905C253.357 80.9676 252.83 80.9504 251.858 80.939C251.629 80.939 251.389 80.939 251.138 80.939C250.886 80.939 250.686 80.9447 250.537 80.9561H250.314C250.142 80.9676 250.034 81.0248 249.988 81.1277C249.965 81.1735 249.782 81.8598 249.439 83.1866C249.439 83.2209 249.433 83.2553 249.422 83.2896L248.89 85.4514H250.28C251.206 85.4514 251.738 85.44 251.875 85.4171C252.562 85.3027 253.174 84.971 253.711 84.422C254.249 83.8729 254.523 83.2438 254.535 82.5346ZM253.608 87.9393C253.608 87.436 253.477 87.0185 253.214 86.6868C252.951 86.3551 252.607 86.1606 252.184 86.1034C252.116 86.092 251.641 86.0863 250.76 86.0863C249.41 86.0863 248.73 86.092 248.718 86.1034C248.718 86.1263 248.621 86.5438 248.427 87.3559C248.232 88.1681 248.032 88.9745 247.826 89.7752L247.517 90.9762C247.517 91.022 247.586 91.0448 247.723 91.0448C247.86 91.0448 248.324 91.0563 249.113 91.0792C250.131 91.0792 250.68 91.0734 250.76 91.062C251.469 90.9819 252.121 90.6502 252.716 90.0669C253.311 89.4835 253.608 88.7743 253.608 87.9393Z" fill="#BC4D4D"/>
<path d="M259.579 92.057C258.801 92.057 258.172 91.7996 257.692 91.2849C257.211 90.7702 256.965 90.1239 256.954 89.3461C256.954 88.2023 257.372 87.1385 258.207 86.1548C259.042 85.1711 260.014 84.6163 261.123 84.4905C261.135 84.479 261.935 84.4733 263.525 84.4733H265.893C265.905 84.4848 265.922 84.4962 265.945 84.5076C265.967 84.5191 265.99 84.5305 266.013 84.542C266.036 84.5534 266.053 84.5648 266.065 84.5763C266.076 84.5877 266.093 84.6049 266.116 84.6277C266.139 84.6506 266.151 84.6621 266.151 84.6621C266.151 84.6621 266.162 84.6849 266.185 84.7307C266.208 84.7764 266.213 84.7993 266.202 84.7993C266.191 84.7993 266.196 84.8279 266.219 84.8851C266.242 84.9423 266.248 84.9766 266.236 84.9881C266.236 85.4913 265.865 85.743 265.121 85.743C265.041 85.743 264.944 85.743 264.829 85.743C264.715 85.743 264.635 85.7373 264.589 85.7258H263.56L263.645 85.8974C263.851 86.3321 263.954 86.8182 263.954 87.3558C263.954 88.614 263.497 89.7121 262.582 90.6501C261.667 91.588 260.666 92.057 259.579 92.057ZM262.616 87.0984C262.616 86.1834 262.13 85.7258 261.158 85.7258C259.739 85.7258 258.818 86.721 258.395 88.7113C258.384 88.757 258.378 88.7913 258.378 88.8142C258.287 89.2374 258.241 89.5863 258.241 89.8608C258.241 90.4327 258.384 90.8331 258.67 91.0619C258.956 91.2906 259.282 91.4107 259.648 91.4222C260.265 91.4222 260.832 91.1534 261.346 90.6158C261.678 90.2726 261.947 89.8151 262.153 89.2432C262.359 88.6712 262.484 88.2137 262.53 87.8705C262.576 87.5274 262.605 87.27 262.616 87.0984Z" fill="#BC4D4D"/>
<path d="M267.832 87.5789C267.832 86.7896 267.889 86.0404 268.004 85.3312C268.118 84.6221 268.249 84.0101 268.398 83.4954C268.547 82.9806 268.758 82.4773 269.033 81.9855C269.308 81.4936 269.525 81.1105 269.685 80.8359C269.845 80.5614 270.085 80.264 270.406 79.9437C270.726 79.6235 270.915 79.429 270.972 79.3604C271.029 79.2917 271.172 79.1716 271.401 79.0001H271.624H271.692C271.853 79.0001 271.933 79.0515 271.933 79.1545C271.933 79.1888 271.835 79.3089 271.641 79.5148C271.447 79.7207 271.212 80.0238 270.938 80.4241C270.663 80.8245 270.383 81.3163 270.097 81.8997C269.811 82.4831 269.571 83.2723 269.376 84.2675C269.182 85.2626 269.084 86.3664 269.084 87.5789C269.084 88.7914 269.182 89.8895 269.376 90.8732C269.571 91.8569 269.805 92.6518 270.08 93.2581C270.354 93.8643 270.634 94.3562 270.92 94.7336C271.206 95.1111 271.447 95.4142 271.641 95.643C271.835 95.8718 271.933 95.9919 271.933 96.0033C271.933 96.1062 271.847 96.1577 271.675 96.1577H271.624H271.401L270.92 95.7459C269.845 94.7737 269.062 93.5612 268.57 92.1085C268.078 90.6558 267.832 89.146 267.832 87.5789Z" fill="#BC4D4D"/>
<path d="M276.462 90.5987C276.462 90.8733 276.725 91.0334 277.252 91.0792C277.457 91.0792 277.56 91.1421 277.56 91.2679C277.56 91.2793 277.549 91.3537 277.526 91.4909C277.492 91.6511 277.457 91.754 277.423 91.7998C277.389 91.8455 277.314 91.8684 277.2 91.8684C277.177 91.8684 277.109 91.8684 276.994 91.8684C276.88 91.8684 276.685 91.8627 276.411 91.8513C276.136 91.8398 275.77 91.8341 275.313 91.8341C274.501 91.8341 273.98 91.8455 273.751 91.8684H273.614C273.534 91.7883 273.494 91.7254 273.494 91.6797C273.517 91.3708 273.591 91.1707 273.717 91.0792H273.957C274.758 91.0448 275.341 90.7589 275.707 90.2213C275.776 90.1526 276.811 88.4083 278.813 84.9882C280.815 81.5681 281.833 79.8352 281.867 79.7894C281.947 79.6522 282.084 79.5835 282.279 79.5835H282.416H282.708C282.776 79.6865 282.811 79.7437 282.811 79.7551L283.291 85.297C283.611 88.9916 283.783 90.8561 283.806 90.8904C283.863 91.0162 284.235 91.0792 284.921 91.0792C285.207 91.0792 285.35 91.1363 285.35 91.2507C285.35 91.2736 285.333 91.3537 285.298 91.4909C285.264 91.6625 285.236 91.7655 285.213 91.7998C285.19 91.8341 285.11 91.857 284.972 91.8684C284.938 91.8684 284.858 91.8684 284.732 91.8684C284.606 91.8684 284.383 91.8627 284.063 91.8513C283.743 91.8398 283.325 91.8341 282.811 91.8341C281.735 91.8341 281.032 91.8455 280.7 91.8684H280.494C280.426 91.7998 280.391 91.7483 280.391 91.714C280.391 91.6797 280.403 91.5767 280.426 91.4052C280.471 91.2565 280.506 91.1649 280.529 91.1306L280.597 91.0792H280.94C281.558 91.0448 281.924 90.9476 282.039 90.7875L281.833 88.2138H277.749L277.166 89.209C276.697 89.9982 276.462 90.4615 276.462 90.5987ZM281.747 87.4074C281.747 87.2816 281.678 86.3894 281.541 84.7308C281.404 83.0722 281.324 82.2372 281.301 82.2258L280.837 82.9636C280.654 83.2724 280.294 83.8844 279.757 84.7995L278.212 87.4074L279.98 87.4246C281.158 87.4246 281.747 87.4189 281.747 87.4074Z" fill="#BC4D4D"/>
<path d="M286.208 85.2626C286.128 85.1825 286.088 85.1253 286.088 85.091C286.088 85.0452 286.105 84.9537 286.139 84.8165C286.173 84.6792 286.202 84.5991 286.225 84.5763C286.248 84.5191 286.299 84.4905 286.379 84.4905C286.459 84.4905 286.751 84.4848 287.254 84.4733H288.164L288.49 83.1007C288.524 82.9749 288.564 82.809 288.61 82.6031C288.656 82.3972 288.696 82.2485 288.73 82.157C288.764 82.0655 288.799 81.9511 288.833 81.8139C288.867 81.6766 288.913 81.5794 288.97 81.5222C289.027 81.465 289.085 81.3964 289.142 81.3163C289.199 81.2362 289.279 81.1848 289.382 81.1619C289.485 81.139 289.588 81.1276 289.691 81.1276C289.897 81.139 290.04 81.2019 290.12 81.3163C290.2 81.4307 290.24 81.5394 290.24 81.6423C290.24 81.7224 290.188 81.9912 290.085 82.4487C289.982 82.9063 289.868 83.3581 289.742 83.8042L289.571 84.439C289.571 84.4619 289.857 84.4733 290.429 84.4733H291.304C291.384 84.5534 291.424 84.6163 291.424 84.6621C291.424 84.9137 291.349 85.1139 291.201 85.2626H289.365L288.747 87.7504C288.301 89.5806 288.078 90.5643 288.078 90.7016C288.078 91.182 288.232 91.4222 288.541 91.4222C288.942 91.4222 289.33 91.2277 289.708 90.8388C290.085 90.4499 290.389 89.9695 290.617 89.3976C290.64 89.3289 290.669 89.2889 290.703 89.2775C290.737 89.266 290.823 89.2546 290.96 89.2432H291.029C291.201 89.2432 291.286 89.2889 291.286 89.3804C291.286 89.4147 291.269 89.4834 291.235 89.5863C291.178 89.7693 291.075 89.9866 290.926 90.2383C290.777 90.4899 290.583 90.7587 290.343 91.0447C290.103 91.3307 289.811 91.5709 289.468 91.7653C289.125 91.9598 288.776 92.057 288.421 92.057C288.078 92.057 287.752 91.9712 287.443 91.7996C287.134 91.6281 286.911 91.3307 286.774 90.9074C286.751 90.8159 286.74 90.6615 286.74 90.4442V90.1353L287.34 87.7333C287.741 86.1205 287.946 85.3083 287.958 85.2969C287.958 85.274 287.666 85.2626 287.083 85.2626H286.208Z" fill="#BC4D4D"/>
<path d="M292.985 79.0172L293.054 79.0001C293.111 79.0001 293.168 79.0001 293.225 79.0001H293.431L293.912 79.4118C294.987 80.3841 295.77 81.5966 296.262 83.0493C296.754 84.5019 297 86.0118 297 87.5789C297 88.3567 296.943 89.1059 296.828 89.8265C296.714 90.5472 296.582 91.1591 296.434 91.6624C296.285 92.1657 296.073 92.669 295.799 93.1723C295.524 93.6756 295.307 94.0588 295.147 94.3218C294.987 94.5849 294.752 94.8766 294.444 95.1969C294.135 95.5172 293.952 95.7059 293.894 95.7631C293.837 95.8203 293.706 95.9289 293.5 96.0891C293.466 96.1234 293.443 96.1463 293.431 96.1577H293.225C293.134 96.1577 293.071 96.1577 293.037 96.1577C293.002 96.1577 292.974 96.1406 292.951 96.1062C292.928 96.0719 292.911 96.0205 292.899 95.9518C292.911 95.9404 292.974 95.866 293.088 95.7288C294.861 93.8872 295.747 91.1706 295.747 87.5789C295.747 83.9872 294.861 81.2706 293.088 79.429C292.974 79.2917 292.911 79.2174 292.899 79.206C292.899 79.1144 292.928 79.0515 292.985 79.0172Z" fill="#BC4D4D"/>
<path d="M309.747 87.8826C309.747 87.3602 309.315 87 308.883 87C308.36 87 308 87.4323 308 87.8646C308 88.3869 308.432 88.7472 308.865 88.7472C309.387 88.7472 309.747 88.3149 309.747 87.8826Z" fill="#BC4D4D"/>
<path d="M317.648 87.8826C317.648 87.3602 317.216 87 316.784 87C316.261 87 315.901 87.4323 315.901 87.8646C315.901 88.3869 316.334 88.7472 316.766 88.7472C317.288 88.7472 317.648 88.3149 317.648 87.8826Z" fill="#BC4D4D"/>
<path d="M325.55 87.8826C325.55 87.3602 325.117 87 324.685 87C324.163 87 323.802 87.4323 323.802 87.8646C323.802 88.3869 324.235 88.7472 324.667 88.7472C325.189 88.7472 325.55 88.3149 325.55 87.8826Z" fill="#BC4D4D"/>
<path d="M351 109.212H355.737V108.221H351.991V66.9907H355.737V66H351V109.212Z" fill="#BC4D4D"/>
<path d="M364.541 73.7365C363.965 73.8446 363.749 74.2769 363.749 74.6191C363.749 75.0514 364.091 75.1955 364.343 75.1955C364.884 75.1955 365.262 74.7272 365.262 74.2408C365.262 73.4843 364.397 73.1421 363.641 73.1421C362.542 73.1421 361.93 74.2228 361.767 74.5651C361.353 73.2141 360.236 73.1421 359.912 73.1421C358.075 73.1421 357.102 75.5017 357.102 75.898C357.102 75.97 357.174 76.0601 357.3 76.0601C357.444 76.0601 357.481 75.952 357.517 75.88C358.129 73.8806 359.336 73.5023 359.858 73.5023C360.669 73.5023 360.831 74.2589 360.831 74.6912C360.831 75.0874 360.723 75.5017 360.507 76.3663L359.894 78.834C359.624 79.9148 359.102 80.9055 358.147 80.9055C358.057 80.9055 357.607 80.9055 357.228 80.6713C357.877 80.5452 358.021 80.0048 358.021 79.7887C358.021 79.4284 357.751 79.2123 357.408 79.2123C356.976 79.2123 356.508 79.5905 356.508 80.1669C356.508 80.9235 357.354 81.2657 358.129 81.2657C358.994 81.2657 359.606 80.5812 359.984 79.8427C360.272 80.9055 361.173 81.2657 361.84 81.2657C363.677 81.2657 364.649 78.9061 364.649 78.5098C364.649 78.4197 364.577 78.3477 364.469 78.3477C364.307 78.3477 364.289 78.4378 364.235 78.5819C363.749 80.1669 362.704 80.9055 361.894 80.9055C361.263 80.9055 360.921 80.4371 360.921 79.6986C360.921 79.3023 360.993 79.0141 361.281 77.8253L361.912 75.3756C362.182 74.2949 362.794 73.5023 363.623 73.5023C363.659 73.5023 364.163 73.5023 364.541 73.7365Z" fill="#BC4D4D"/>
<path d="M361.129 104.868C360.643 105.552 359.94 106.165 359.058 106.165C358.842 106.165 357.977 106.129 357.707 105.3C357.761 105.318 357.851 105.318 357.887 105.318C358.427 105.318 358.787 104.85 358.787 104.436C358.787 104.021 358.445 103.877 358.175 103.877C357.887 103.877 357.256 104.093 357.256 104.976C357.256 105.895 358.031 106.525 359.058 106.525C360.859 106.525 362.678 104.868 363.183 102.869L364.948 95.8438C364.966 95.7537 365.002 95.6456 365.002 95.5375C365.002 95.2674 364.786 95.0872 364.515 95.0872C364.353 95.0872 363.975 95.1593 363.831 95.6997L362.498 100.995C362.408 101.32 362.408 101.356 362.264 101.554C361.904 102.058 361.309 102.67 360.445 102.67C359.436 102.67 359.346 101.68 359.346 101.193C359.346 100.167 359.832 98.7798 360.319 97.4829C360.517 96.9605 360.625 96.7084 360.625 96.3481C360.625 95.5916 360.084 94.9071 359.202 94.9071C357.545 94.9071 356.878 97.5189 356.878 97.663C356.878 97.7351 356.95 97.8251 357.076 97.8251C357.238 97.8251 357.256 97.7531 357.328 97.5009C357.761 95.9879 358.445 95.2674 359.148 95.2674C359.31 95.2674 359.616 95.2674 359.616 95.8618C359.616 96.3301 359.418 96.8524 359.148 97.5369C358.265 99.8966 358.265 100.491 358.265 100.923C358.265 102.634 359.49 103.031 360.391 103.031C360.913 103.031 361.561 102.869 362.192 102.202L362.21 102.22C361.94 103.283 361.76 103.985 361.129 104.868Z" fill="#BC4D4D"/>
<path d="M370.025 108.221H366.278V109.212H371.015V66H366.278V66.9907H370.025V108.221Z" fill="#BC4D4D"/>
<path d="M10.2242 87.0167H11.8814C12.2236 87.0167 12.4037 87.0167 12.4037 86.6925C12.4037 86.4944 12.2957 86.4944 11.9354 86.4944H10.3503L11.0168 83.8646C11.0888 83.6124 11.0888 83.5764 11.0888 83.4503C11.0888 83.1621 10.8547 83 10.6205 83C10.4764 83 10.0621 83.054 9.91802 83.6304L9.21553 86.4944H7.52236C7.16211 86.4944 7 86.4944 7 86.8366C7 87.0167 7.12609 87.0167 7.46832 87.0167H9.07143L7.88261 91.772C7.73851 92.4025 7.68447 92.5826 7.68447 92.8167C7.68447 93.6633 8.27888 94.4379 9.28758 94.4379C11.1068 94.4379 12.0795 91.808 12.0795 91.682C12.0795 91.5739 12.0075 91.5198 11.8994 91.5198C11.8634 91.5198 11.7913 91.5198 11.7553 91.5919C11.7373 91.6099 11.7193 91.6279 11.5932 91.9161C11.2149 92.8167 10.3863 94.0776 9.34162 94.0776C8.80125 94.0776 8.76522 93.6273 8.76522 93.231C8.76522 93.213 8.76522 92.8708 8.81926 92.6546L10.2242 87.0167Z" fill="#BC4D4D"/>
<path d="M133.45 91.8615C132.819 92.9242 132.207 93.2844 131.342 93.3385C131.144 93.3565 131 93.3565 131 93.6807C131 93.7888 131.09 93.8608 131.216 93.8608C131.54 93.8608 132.351 93.8248 132.675 93.8248C133.198 93.8248 133.774 93.8608 134.278 93.8608C134.386 93.8608 134.602 93.8608 134.602 93.5186C134.602 93.3565 134.458 93.3385 134.35 93.3385C133.936 93.3025 133.594 93.1584 133.594 92.7261C133.594 92.4739 133.702 92.2757 133.936 91.8795L135.305 89.6099H139.898C139.916 89.772 139.916 89.9161 139.934 90.0782C139.988 90.5465 140.204 92.4198 140.204 92.7621C140.204 93.3025 139.286 93.3385 138.998 93.3385C138.799 93.3385 138.601 93.3385 138.601 93.6627C138.601 93.8608 138.763 93.8608 138.871 93.8608C139.178 93.8608 139.538 93.8248 139.844 93.8248H140.871C141.97 93.8248 142.762 93.8608 142.78 93.8608C142.906 93.8608 143.104 93.8608 143.104 93.5186C143.104 93.3385 142.942 93.3385 142.672 93.3385C141.681 93.3385 141.663 93.1764 141.609 92.636L140.511 81.3962C140.475 81.036 140.402 80.9999 140.204 80.9999C140.024 80.9999 139.916 81.036 139.754 81.3062L133.45 91.8615ZM135.611 89.0875L139.232 83.0354L139.844 89.0875H135.611Z" fill="#BC4D4D"/>
<path d="M147.23 86.6199H148.887C149.229 86.6199 149.409 86.6199 149.409 86.2957C149.409 86.0975 149.301 86.0975 148.941 86.0975H147.356L148.022 83.4677C148.094 83.2155 148.094 83.1795 148.094 83.0534C148.094 82.7652 147.86 82.6031 147.626 82.6031C147.482 82.6031 147.067 82.6571 146.923 83.2335L146.221 86.0975H144.528C144.167 86.0975 144.005 86.0975 144.005 86.4398C144.005 86.6199 144.131 86.6199 144.474 86.6199H146.077L144.888 91.3752C144.744 92.0056 144.69 92.1857 144.69 92.4199C144.69 93.2665 145.284 94.041 146.293 94.041C148.112 94.041 149.085 91.4112 149.085 91.2851C149.085 91.177 149.013 91.123 148.905 91.123C148.869 91.123 148.797 91.123 148.761 91.195C148.743 91.2131 148.725 91.2311 148.599 91.5193C148.22 92.4199 147.392 93.6808 146.347 93.6808C145.807 93.6808 145.771 93.2305 145.771 92.8342C145.771 92.8162 145.771 92.4739 145.825 92.2578L147.23 86.6199Z" fill="#BC4D4D"/>
<path d="M190.466 84.7186C190.7 84.7186 191.294 84.7186 191.294 84.1422C191.294 83.746 190.952 83.746 190.628 83.746H186.647C183.945 83.746 182 86.754 182 88.8795C182 90.4106 182.991 91.6895 184.612 91.6895C186.737 91.6895 189.061 89.4019 189.061 86.7C189.061 85.9975 188.899 85.313 188.466 84.7186H190.466ZM184.63 91.3292C183.711 91.3292 183.045 90.6267 183.045 89.3839C183.045 88.3031 183.693 84.7186 186.341 84.7186C187.116 84.7186 187.98 85.0969 187.98 86.4839C187.98 87.1143 187.692 88.6273 187.062 89.6721C186.413 90.7348 185.44 91.3292 184.63 91.3292Z" fill="#BC4D4D"/>
<path d="M197.84 95.8864C197.84 95.8324 197.84 95.7964 197.534 95.4901C195.733 93.6709 194.724 90.6988 194.724 87.0243C194.724 83.5299 195.571 80.5218 197.66 78.3963C197.84 78.2342 197.84 78.1982 197.84 78.1442C197.84 78.0361 197.75 78.0001 197.678 78.0001C197.444 78.0001 195.967 79.2969 195.084 81.0622C194.166 82.8814 193.752 84.8088 193.752 87.0243C193.752 88.6274 194.004 90.7709 194.94 92.6982C196.003 94.8597 197.48 96.0305 197.678 96.0305C197.75 96.0305 197.84 95.9945 197.84 95.8864Z" fill="#BC4D4D"/>
<path d="M201.907 89.5099C201.277 90.5726 200.664 90.9329 199.8 90.9869C199.602 91.0049 199.458 91.0049 199.458 91.3292C199.458 91.4372 199.548 91.5093 199.674 91.5093C199.998 91.5093 200.809 91.4733 201.133 91.4733C201.655 91.4733 202.231 91.5093 202.736 91.5093C202.844 91.5093 203.06 91.5093 203.06 91.167C203.06 91.0049 202.916 90.9869 202.808 90.9869C202.394 90.9509 202.051 90.8068 202.051 90.3745C202.051 90.1223 202.159 89.9242 202.394 89.5279L203.763 87.2583H208.356C208.374 87.4205 208.374 87.5645 208.392 87.7267C208.446 88.195 208.662 90.0683 208.662 90.4105C208.662 90.9509 207.743 90.9869 207.455 90.9869C207.257 90.9869 207.059 90.9869 207.059 91.3111C207.059 91.5093 207.221 91.5093 207.329 91.5093C207.635 91.5093 207.995 91.4733 208.302 91.4733H209.328C210.427 91.4733 211.22 91.5093 211.238 91.5093C211.364 91.5093 211.562 91.5093 211.562 91.167C211.562 90.9869 211.4 90.9869 211.13 90.9869C210.139 90.9869 210.121 90.8248 210.067 90.2844L208.968 79.0447C208.932 78.6844 208.86 78.6484 208.662 78.6484C208.482 78.6484 208.374 78.6844 208.212 78.9546L201.907 89.5099ZM204.069 86.736L207.689 80.6838L208.302 86.736H204.069Z" fill="#BC4D4D"/>
<path d="M215.687 84.2683H217.344C217.687 84.2683 217.867 84.2683 217.867 83.9441C217.867 83.746 217.759 83.746 217.398 83.746H215.813L216.48 81.1161C216.552 80.864 216.552 80.8279 216.552 80.7019C216.552 80.4137 216.318 80.2515 216.083 80.2515C215.939 80.2515 215.525 80.3056 215.381 80.882L214.679 83.746H212.985C212.625 83.746 212.463 83.746 212.463 84.0882C212.463 84.2683 212.589 84.2683 212.931 84.2683H214.534L213.346 89.0236C213.201 89.654 213.147 89.8342 213.147 90.0683C213.147 90.9149 213.742 91.6895 214.751 91.6895C216.57 91.6895 217.542 89.0596 217.542 88.9335C217.542 88.8255 217.47 88.7714 217.362 88.7714C217.326 88.7714 217.254 88.7714 217.218 88.8435C217.2 88.8615 217.182 88.8795 217.056 89.1677C216.678 90.0683 215.849 91.3292 214.805 91.3292C214.264 91.3292 214.228 90.8789 214.228 90.4826C214.228 90.4646 214.228 90.1224 214.282 89.9062L215.687 84.2683Z" fill="#BC4D4D"/>
<path d="M223.515 87.0243C223.515 85.6553 223.335 83.4218 222.326 81.3324C221.264 79.1709 219.787 78.0001 219.588 78.0001C219.516 78.0001 219.426 78.0361 219.426 78.1442C219.426 78.1982 219.426 78.2342 219.733 78.5404C221.534 80.3597 222.542 83.3317 222.542 87.0063C222.542 90.5007 221.696 93.5088 219.606 95.6342C219.426 95.7964 219.426 95.8324 219.426 95.8864C219.426 95.9945 219.516 96.0305 219.588 96.0305C219.823 96.0305 221.3 94.7336 222.182 92.9684C223.101 91.1311 223.515 89.1858 223.515 87.0243Z" fill="#BC4D4D"/>
<path d="M37 110.212H41.7373V109.221H37.9907V67.9907H41.7373V67H37V110.212Z" fill="#BC4D4D"/>
<path d="M72.4723 86.4626C72.4723 86.4086 72.4723 86.3725 72.1661 86.0663C70.3649 84.2471 69.3562 81.275 69.3562 77.6005C69.3562 74.106 70.2028 71.098 72.2922 68.9725C72.4723 68.8104 72.4723 68.7744 72.4723 68.7203C72.4723 68.6122 72.3823 68.5762 72.3102 68.5762C72.0761 68.5762 70.599 69.8731 69.7164 71.6383C68.7978 73.4576 68.3835 75.3849 68.3835 77.6005C68.3835 79.2036 68.6357 81.3471 69.5723 83.2744C70.6351 85.4359 72.1121 86.6067 72.3102 86.6067C72.3823 86.6067 72.4723 86.5707 72.4723 86.4626Z" fill="#BC4D4D"/>
<path d="M104.395 77.6005C104.395 76.2315 104.215 73.998 103.206 71.9085C102.144 69.747 100.667 68.5762 100.468 68.5762C100.396 68.5762 100.306 68.6122 100.306 68.7203C100.306 68.7744 100.306 68.8104 100.613 69.1166C102.414 70.9359 103.422 73.9079 103.422 77.5825C103.422 81.0769 102.576 84.0849 100.486 86.2104C100.306 86.3725 100.306 86.4086 100.306 86.4626C100.306 86.5707 100.396 86.6067 100.468 86.6067C100.703 86.6067 102.18 85.3098 103.062 83.5446C103.981 81.7073 104.395 79.762 104.395 77.6005Z" fill="#BC4D4D"/>
<path d="M46.1103 100.248C46.4165 100.302 46.9029 100.41 47.0109 100.428C47.2451 100.5 48.0557 100.789 48.0557 101.653C48.0557 102.212 47.5513 103.671 45.4619 103.671C45.0836 103.671 43.7327 103.616 43.3724 102.626C44.0929 102.716 44.4532 102.157 44.4532 101.761C44.4532 101.383 44.201 101.185 43.8408 101.185C43.4445 101.185 42.9221 101.491 42.9221 102.302C42.9221 103.364 44.0029 104.031 45.4439 104.031C48.1818 104.031 48.9923 102.013 48.9923 101.077C48.9923 100.807 48.9923 100.302 48.4159 99.7258C47.9656 99.2935 47.5333 99.2034 46.5606 99.0053C46.0743 98.8972 45.2998 98.7351 45.2998 97.9245C45.2998 97.5643 45.624 96.2674 47.3352 96.2674C48.0917 96.2674 48.8302 96.5556 49.0103 97.204C48.2178 97.204 48.1818 97.8885 48.1818 97.9065C48.1818 98.2848 48.524 98.3929 48.6861 98.3929C48.9383 98.3929 49.4426 98.1947 49.4426 97.4382C49.4426 96.6817 48.7582 95.9071 47.3532 95.9071C44.9936 95.9071 44.3631 97.7624 44.3631 98.5009C44.3631 99.8699 45.696 100.158 46.1103 100.248Z" fill="#BC4D4D"/>
<path d="M55.4088 101.275C55.4088 101.185 55.3367 101.113 55.2287 101.113C55.0666 101.113 55.0485 101.167 54.9585 101.473C54.4902 103.112 53.7516 103.671 53.1572 103.671C52.9411 103.671 52.6889 103.616 52.6889 103.076C52.6889 102.59 52.9051 102.049 53.1032 101.509L54.3641 98.1587C54.4181 98.0146 54.5442 97.6904 54.5442 97.3481C54.5442 96.5916 54.0038 95.9071 53.1212 95.9071C51.4641 95.9071 50.7976 98.519 50.7976 98.6631C50.7976 98.7351 50.8697 98.8252 50.9957 98.8252C51.1579 98.8252 51.1759 98.7531 51.2479 98.5009C51.6802 96.9879 52.3647 96.2674 53.0672 96.2674C53.2293 96.2674 53.5355 96.2854 53.5355 96.8618C53.5355 97.3301 53.3013 97.9245 53.1572 98.3208L51.8964 101.671C51.7883 101.959 51.6802 102.248 51.6802 102.572C51.6802 103.382 52.2386 104.031 53.1032 104.031C54.7603 104.031 55.4088 101.401 55.4088 101.275ZM55.2647 92.6109C55.2647 92.3407 55.0485 92.0165 54.6523 92.0165C54.238 92.0165 53.7697 92.4127 53.7697 92.8811C53.7697 93.3314 54.1479 93.4755 54.3641 93.4755C54.8504 93.4755 55.2647 93.0071 55.2647 92.6109Z" fill="#BC4D4D"/>
<path d="M60.0386 98.573C60.0746 98.4649 60.5249 97.5643 61.1914 96.9879C61.6597 96.5556 62.2721 96.2674 62.9746 96.2674C63.6951 96.2674 63.9473 96.8078 63.9473 97.5283C63.9473 98.555 63.2088 100.608 62.8485 101.581C62.6864 102.013 62.5964 102.248 62.5964 102.572C62.5964 103.382 63.1547 104.031 64.0193 104.031C65.6945 104.031 66.3249 101.383 66.3249 101.275C66.3249 101.185 66.2529 101.113 66.1448 101.113C65.9827 101.113 65.9647 101.167 65.8746 101.473C65.4603 102.95 64.7759 103.671 64.0734 103.671C63.8933 103.671 63.6051 103.652 63.6051 103.076C63.6051 102.626 63.8032 102.085 63.9113 101.833C64.2715 100.843 65.028 98.8252 65.028 97.7985C65.028 96.7177 64.3976 95.9071 63.0287 95.9071C61.4255 95.9071 60.579 97.0419 60.2547 97.4922C60.2007 96.4655 59.4622 95.9071 58.6696 95.9071C58.0932 95.9071 57.697 96.2494 57.3908 96.8618C57.0665 97.5103 56.8144 98.591 56.8144 98.6631C56.8144 98.7351 56.8864 98.8252 57.0125 98.8252C57.1566 98.8252 57.1746 98.8071 57.2827 98.3929C57.5709 97.2941 57.8951 96.2674 58.6156 96.2674C59.0299 96.2674 59.174 96.5556 59.174 97.096C59.174 97.4922 58.9939 98.1947 58.8678 98.7531L58.3634 100.698C58.2914 101.041 58.0932 101.851 58.0032 102.175C57.8771 102.644 57.679 103.49 57.679 103.58C57.679 103.833 57.8771 104.031 58.1473 104.031C58.3634 104.031 58.6156 103.923 58.7597 103.652C58.7957 103.562 58.9578 102.932 59.0479 102.572L59.4442 100.951L60.0386 98.573Z" fill="#BC4D4D"/>
<path d="M72.7101 108.228C72.7101 108.174 72.7101 108.138 72.4039 107.831C70.6026 106.012 69.594 103.04 69.594 99.3656C69.594 95.8712 70.4405 92.8631 72.53 90.7376C72.7101 90.5755 72.7101 90.5395 72.7101 90.4855C72.7101 90.3774 72.62 90.3414 72.548 90.3414C72.3138 90.3414 70.8368 91.6383 69.9542 93.4035C69.0356 95.2227 68.6213 97.1501 68.6213 99.3656C68.6213 100.969 68.8735 103.112 69.8101 105.04C70.8728 107.201 72.3499 108.372 72.548 108.372C72.62 108.372 72.7101 108.336 72.7101 108.228Z" fill="#BC4D4D"/>
<path d="M81.6403 100.824H81.2441C81.19 101.131 81.0459 102.121 80.8658 102.41C80.7397 102.572 79.713 102.572 79.1726 102.572H75.8403C76.3267 102.157 77.4254 101.005 77.8938 100.572C80.6316 98.0506 81.6403 97.1139 81.6403 95.3307C81.6403 93.2593 80.0012 91.8723 77.9118 91.8723C75.8223 91.8723 74.5975 93.6555 74.5975 95.2046C74.5975 96.1232 75.39 96.1232 75.4441 96.1232C75.8223 96.1232 76.2906 95.8531 76.2906 95.2767C76.2906 94.7723 75.9484 94.4301 75.4441 94.4301C75.2819 94.4301 75.2459 94.4301 75.1919 94.4481C75.5341 93.2232 76.5068 92.3947 77.6776 92.3947C79.2087 92.3947 80.1453 93.6736 80.1453 95.3307C80.1453 96.8618 79.2627 98.1947 78.236 99.3475L74.5975 103.418V103.851H81.172L81.6403 100.824Z" fill="#BC4D4D"/>
<path d="M87.1986 97.0599H89.234C88.7477 99.0773 88.4414 100.392 88.4414 101.833C88.4414 102.085 88.4414 104.031 89.18 104.031C89.5582 104.031 89.8824 103.689 89.8824 103.382C89.8824 103.292 89.8824 103.256 89.7563 102.986C89.27 101.743 89.27 100.194 89.27 100.068C89.27 99.9599 89.27 98.6811 89.6483 97.0599H91.6657C91.8998 97.0599 92.4942 97.0599 92.4942 96.4835C92.4942 96.0873 92.152 96.0873 91.8278 96.0873H85.9017C85.4874 96.0873 84.875 96.0873 84.0464 96.9699C83.5781 97.4922 83.0017 98.4469 83.0017 98.555C83.0017 98.663 83.0917 98.6991 83.1998 98.6991C83.3259 98.6991 83.3439 98.645 83.434 98.537C84.3706 97.0599 85.3073 97.0599 85.7576 97.0599H86.7843C86.388 98.4109 85.9377 99.978 84.4607 103.13C84.3166 103.418 84.3166 103.454 84.3166 103.562C84.3166 103.941 84.6408 104.031 84.8029 104.031C85.3253 104.031 85.4694 103.562 85.6855 102.806C85.9737 101.887 85.9737 101.851 86.1539 101.131L87.1986 97.0599Z" fill="#BC4D4D"/>
<path d="M96.8049 96.6096H98.4621C98.8043 96.6096 98.9845 96.6096 98.9845 96.2854C98.9845 96.0873 98.8764 96.0873 98.5161 96.0873H96.931L97.5975 93.4575C97.6695 93.2053 97.6695 93.1693 97.6695 93.0432C97.6695 92.755 97.4354 92.5929 97.2012 92.5929C97.0571 92.5929 96.6428 92.6469 96.4987 93.2233L95.7963 96.0873H94.1031C93.7428 96.0873 93.5807 96.0873 93.5807 96.4295C93.5807 96.6096 93.7068 96.6096 94.049 96.6096H95.6522L94.4633 101.365C94.3192 101.995 94.2652 102.175 94.2652 102.41C94.2652 103.256 94.8596 104.031 95.8683 104.031C97.6876 104.031 98.6602 101.401 98.6602 101.275C98.6602 101.167 98.5882 101.113 98.4801 101.113C98.4441 101.113 98.372 101.113 98.336 101.185C98.318 101.203 98.3 101.221 98.1739 101.509C97.7956 102.41 96.9671 103.671 95.9223 103.671C95.382 103.671 95.3459 103.22 95.3459 102.824C95.3459 102.806 95.3459 102.464 95.4 102.248L96.8049 96.6096Z" fill="#BC4D4D"/>
<path d="M104.633 99.3656C104.633 97.9967 104.453 95.7631 103.444 93.6737C102.381 91.5122 100.904 90.3414 100.706 90.3414C100.634 90.3414 100.544 90.3774 100.544 90.4855C100.544 90.5395 100.544 90.5755 100.85 90.8817C102.651 92.701 103.66 95.673 103.66 99.3476C103.66 102.842 102.814 105.85 100.724 107.976C100.544 108.138 100.544 108.174 100.544 108.228C100.544 108.336 100.634 108.372 100.706 108.372C100.94 108.372 102.417 107.075 103.3 105.31C104.219 103.472 104.633 101.527 104.633 99.3656Z" fill="#BC4D4D"/>
<path d="M110.411 109.221H106.664V110.212H111.402V67H106.664V67.9907H110.411V109.221Z" fill="#BC4D4D"/>
</svg>
