<svg width="307" height="110" viewBox="0 0 307 110" fill="none" xmlns="http://www.w3.org/2000/svg">
<path d="M10 39.5C15.2467 39.5 19.5 35.2467 19.5 30C19.5 24.7533 15.2467 20.5 10 20.5C4.75329 20.5 0.5 24.7533 0.5 30C0.5 35.2467 4.75329 39.5 10 39.5Z" fill="#F5F99E" stroke="#BC4D4D"/>
<path d="M75 19.5C80.2467 19.5 84.5 15.2467 84.5 10C84.5 4.75329 80.2467 0.5 75 0.5C69.7533 0.5 65.5 4.75329 65.5 10C65.5 15.2467 69.7533 19.5 75 19.5Z" fill="#F5F99E" stroke="#BC4D4D"/>
<path d="M75 59.5C80.2467 59.5 84.5 55.2467 84.5 50C84.5 44.7533 80.2467 40.5 75 40.5C69.7533 40.5 65.5 44.7533 65.5 50C65.5 55.2467 69.7533 59.5 75 59.5Z" fill="#F5F99E" stroke="#BC4D4D"/>
<path d="M205 19.5C210.247 19.5 214.5 15.2467 214.5 10C214.5 4.75329 210.247 0.5 205 0.5C199.753 0.5 195.5 4.75329 195.5 10C195.5 15.2467 199.753 19.5 205 19.5Z" fill="#F5F99E" stroke="#BC4D4D"/>
<path d="M205 59.5C210.247 59.5 214.5 55.2467 214.5 50C214.5 44.7533 210.247 40.5 205 40.5C199.753 40.5 195.5 44.7533 195.5 50C195.5 55.2467 199.753 59.5 205 59.5Z" fill="#F5F99E" stroke="#BC4D4D"/>
<path d="M297 19.5C302.247 19.5 306.5 15.2467 306.5 10C306.5 4.75329 302.247 0.5 297 0.5C291.753 0.5 287.5 4.75329 287.5 10C287.5 15.2467 291.753 19.5 297 19.5Z" fill="#F5F99E" stroke="#BC4D4D"/>
<path d="M297 59.5C302.247 59.5 306.5 55.2467 306.5 50C306.5 44.7533 302.247 40.5 297 40.5C291.753 40.5 287.5 44.7533 287.5 50C287.5 55.2467 291.753 59.5 297 59.5Z" fill="#F5F99E" stroke="#BC4D4D"/>
<path d="M140 19.5C145.247 19.5 149.5 15.2467 149.5 10C149.5 4.75329 145.247 0.5 140 0.5C134.753 0.5 130.5 4.75329 130.5 10C130.5 15.2467 134.753 19.5 140 19.5Z" fill="#F5F99E" stroke="#BC4D4D"/>
<path d="M140 59.5C145.247 59.5 149.5 55.2467 149.5 50C149.5 44.7533 145.247 40.5 140 40.5C134.753 40.5 130.5 44.7533 130.5 50C130.5 55.2467 134.753 59.5 140 59.5Z" fill="#F5F99E" stroke="#BC4D4D"/>
<path d="M61.4436 14.2307C61.571 13.9857 61.4757 13.6838 61.2307 13.5564L57.2382 11.4803C56.9932 11.3529 56.6913 11.4482 56.5639 11.6932C56.4365 11.9382 56.5319 12.2401 56.7769 12.3675L60.3257 14.2129L58.4803 17.7618C58.3529 18.0068 58.4483 18.3087 58.6933 18.4361C58.9383 18.5635 59.2401 18.4681 59.3675 18.2231L61.4436 14.2307ZM23.1506 26.4768L61.1506 14.4768L60.8495 13.5232L22.8494 25.5232L23.1506 26.4768Z" fill="#BC4D4D"/>
<path d="M61.4436 47.7693C61.571 48.0143 61.4757 48.3162 61.2307 48.4436L57.2382 50.5197C56.9932 50.6471 56.6913 50.5518 56.5639 50.3068C56.4365 50.0618 56.5319 49.7599 56.7769 49.6325L60.3257 47.7871L58.4803 44.2382C58.3529 43.9932 58.4483 43.6913 58.6933 43.5639C58.9383 43.4365 59.2401 43.5319 59.3675 43.7769L61.4436 47.7693ZM23.1506 35.5232L61.1506 47.5232L60.8495 48.4768L22.8494 36.4768L23.1506 35.5232Z" fill="#BC4D4D"/>
<path d="M127.278 10.3536C127.474 10.1584 127.474 9.8418 127.278 9.64653L124.096 6.46455C123.901 6.26929 123.585 6.26929 123.389 6.46455C123.194 6.65982 123.194 6.9764 123.389 7.17166L126.218 10.0001L123.389 12.8285C123.194 13.0238 123.194 13.3404 123.389 13.5356C123.585 13.7309 123.901 13.7309 124.096 13.5356L127.278 10.3536ZM87.0751 10.5001H126.925V9.50009H87.0751V10.5001Z" fill="#BC4D4D"/>
<path d="M127.278 50.3536C127.474 50.1584 127.474 49.8418 127.278 49.6465L124.096 46.4646C123.901 46.2693 123.585 46.2693 123.389 46.4646C123.194 46.6598 123.194 46.9764 123.389 47.1717L126.218 50.0001L123.389 52.8285C123.194 53.0238 123.194 53.3404 123.389 53.5356C123.585 53.7309 123.901 53.7309 124.096 53.5356L127.278 50.3536ZM87.0751 50.5001H126.925V49.5001H87.0751V50.5001Z" fill="#BC4D4D"/>
<path d="M192.278 10.3536C192.474 10.1584 192.474 9.8418 192.278 9.64653L189.096 6.46455C188.901 6.26929 188.585 6.26929 188.389 6.46455C188.194 6.65982 188.194 6.9764 188.389 7.17166L191.218 10.0001L188.389 12.8285C188.194 13.0238 188.194 13.3404 188.389 13.5356C188.585 13.7309 188.901 13.7309 189.096 13.5356L192.278 10.3536ZM152.075 10.5001H191.925V9.50009H152.075V10.5001Z" fill="#BC4D4D"/>
<path d="M192.278 50.3536C192.474 50.1584 192.474 49.8418 192.278 49.6465L189.096 46.4646C188.901 46.2693 188.585 46.2693 188.389 46.4646C188.194 46.6598 188.194 46.9764 188.389 47.1717L191.218 50.0001L188.389 52.8285C188.194 53.0238 188.194 53.3404 188.389 53.5356C188.585 53.7309 188.901 53.7309 189.096 53.5356L192.278 50.3536ZM152.075 50.5001H191.925V49.5001H152.075V50.5001Z" fill="#BC4D4D"/>
<path d="M193.488 17.1092C193.548 16.8397 193.379 16.5724 193.109 16.512L188.718 15.5289C188.448 15.4686 188.181 15.6381 188.121 15.9076C188.06 16.1771 188.23 16.4444 188.499 16.5048L192.403 17.3787L191.529 21.282C191.469 21.5515 191.638 21.8189 191.908 21.8792C192.177 21.9395 192.444 21.77 192.505 21.5005L193.488 17.1092ZM152.268 43.4222L193.268 17.4222L192.732 16.5777L151.732 42.5777L152.268 43.4222Z" fill="#BC4D4D"/>
<path d="M193.488 42.8908C193.548 43.1603 193.379 43.4276 193.109 43.488L188.718 44.4711C188.448 44.5314 188.181 44.3619 188.121 44.0924C188.06 43.8229 188.23 43.5556 188.499 43.4952L192.403 42.6213L191.529 38.718C191.469 38.4485 191.638 38.1811 191.908 38.1208C192.177 38.0605 192.444 38.23 192.505 38.4995L193.488 42.8908ZM152.268 16.5778L193.268 42.5778L192.732 43.4223L151.732 17.4223L152.268 16.5778Z" fill="#BC4D4D"/>
<path d="M243.747 9.88253C243.747 9.36017 243.315 8.99992 242.883 8.99992C242.36 8.99992 242 9.43222 242 9.86452C242 10.3869 242.432 10.7471 242.865 10.7471C243.387 10.7471 243.747 10.3148 243.747 9.88253Z" fill="#BC4D4D"/>
<path d="M251.648 9.88253C251.648 9.36017 251.216 8.99992 250.784 8.99992C250.261 8.99992 249.901 9.43222 249.901 9.86452C249.901 10.3869 250.334 10.7471 250.766 10.7471C251.288 10.7471 251.648 10.3148 251.648 9.88253Z" fill="#BC4D4D"/>
<path d="M259.55 9.88253C259.55 9.36017 259.117 8.99992 258.685 8.99992C258.163 8.99992 257.802 9.43222 257.802 9.86452C257.802 10.3869 258.235 10.7471 258.667 10.7471C259.189 10.7471 259.55 10.3148 259.55 9.88253Z" fill="#BC4D4D"/>
<path d="M237.354 10.3535C237.549 10.1582 237.549 9.84165 237.354 9.64639L234.172 6.46441C233.976 6.26914 233.66 6.26914 233.464 6.46441C233.269 6.65967 233.269 6.97625 233.464 7.17151L236.293 9.99994L233.464 12.8284C233.269 13.0236 233.269 13.3402 233.464 13.5355C233.66 13.7307 233.976 13.7307 234.172 13.5355L237.354 10.3535ZM217 10.4999H237V9.49994H217V10.4999Z" fill="#BC4D4D"/>
<path d="M284.354 10.3535C284.549 10.1582 284.549 9.84165 284.354 9.64639L281.172 6.46441C280.976 6.26914 280.66 6.26914 280.464 6.46441C280.269 6.65967 280.269 6.97625 280.464 7.17151L283.293 9.99994L280.464 12.8284C280.269 13.0236 280.269 13.3402 280.464 13.5355C280.66 13.7307 280.976 13.7307 281.172 13.5355L284.354 10.3535ZM264 10.4999H284V9.49994H264V10.4999Z" fill="#BC4D4D"/>
<path d="M243.747 49.8825C243.747 49.3602 243.315 48.9999 242.883 48.9999C242.36 48.9999 242 49.4322 242 49.8645C242 50.3869 242.432 50.7471 242.865 50.7471C243.387 50.7471 243.747 50.3148 243.747 49.8825Z" fill="#BC4D4D"/>
<path d="M251.648 49.8825C251.648 49.3602 251.216 48.9999 250.784 48.9999C250.261 48.9999 249.901 49.4322 249.901 49.8645C249.901 50.3869 250.334 50.7471 250.766 50.7471C251.288 50.7471 251.648 50.3148 251.648 49.8825Z" fill="#BC4D4D"/>
<path d="M259.55 49.8825C259.55 49.3602 259.117 48.9999 258.685 48.9999C258.163 48.9999 257.802 49.4322 257.802 49.8645C257.802 50.3869 258.235 50.7471 258.667 50.7471C259.189 50.7471 259.55 50.3148 259.55 49.8825Z" fill="#BC4D4D"/>
<path d="M237.354 50.3535C237.549 50.1582 237.549 49.8416 237.354 49.6464L234.172 46.4644C233.976 46.2691 233.66 46.2691 233.464 46.4644C233.269 46.6597 233.269 46.9762 233.464 47.1715L236.293 49.9999L233.464 52.8284C233.269 53.0236 233.269 53.3402 233.464 53.5355C233.66 53.7307 233.976 53.7307 234.172 53.5355L237.354 50.3535ZM217 50.4999H237V49.4999H217V50.4999Z" fill="#BC4D4D"/>
<path d="M284.354 50.3535C284.549 50.1582 284.549 49.8416 284.354 49.6464L281.172 46.4644C280.976 46.2691 280.66 46.2691 280.464 46.4644C280.269 46.6597 280.269 46.9762 280.464 47.1715L283.293 49.9999L280.464 52.8284C280.269 53.0236 280.269 53.3402 280.464 53.5355C280.66 53.7307 280.976 53.7307 281.172 53.5355L284.354 50.3535ZM264 50.4999H284V49.4999H264V50.4999Z" fill="#BC4D4D"/>
<path d="M10.2242 87.0169H11.8814C12.2236 87.0169 12.4037 87.0169 12.4037 86.6926C12.4037 86.4945 12.2957 86.4945 11.9354 86.4945H10.3503L11.0168 83.8647C11.0888 83.6125 11.0888 83.5765 11.0888 83.4504C11.0888 83.1622 10.8547 83.0001 10.6205 83.0001C10.4764 83.0001 10.0621 83.0541 9.91802 83.6305L9.21553 86.4945H7.52236C7.16211 86.4945 7 86.4945 7 86.8367C7 87.0169 7.12609 87.0169 7.46832 87.0169H9.07143L7.88261 91.7721C7.73851 92.4026 7.68447 92.5827 7.68447 92.8169C7.68447 93.6635 8.27888 94.438 9.28758 94.438C11.1068 94.438 12.0795 91.8082 12.0795 91.6821C12.0795 91.574 12.0075 91.52 11.8994 91.52C11.8634 91.52 11.7913 91.52 11.7553 91.592C11.7373 91.61 11.7193 91.628 11.5932 91.9162C11.2149 92.8169 10.3863 94.0777 9.34162 94.0777C8.80125 94.0777 8.76522 93.6274 8.76522 93.2312C8.76522 93.2131 8.76522 92.8709 8.81926 92.6548L10.2242 87.0169Z" fill="#BC4D4D"/>
<path d="M67.4497 91.8615C66.8193 92.9242 66.2068 93.2844 65.3422 93.3385C65.1441 93.3565 65 93.3565 65 93.6807C65 93.7888 65.0901 93.8608 65.2161 93.8608C65.5404 93.8608 66.3509 93.8248 66.6752 93.8248C67.1975 93.8248 67.7739 93.8608 68.2783 93.8608C68.3863 93.8608 68.6025 93.8608 68.6025 93.5186C68.6025 93.3565 68.4584 93.3385 68.3503 93.3385C67.936 93.3025 67.5938 93.1584 67.5938 92.7261C67.5938 92.4739 67.7019 92.2757 67.936 91.8795L69.305 89.6099H73.8982C73.9162 89.772 73.9162 89.9161 73.9342 90.0782C73.9882 90.5465 74.2044 92.4198 74.2044 92.7621C74.2044 93.3025 73.2857 93.3385 72.9975 93.3385C72.7994 93.3385 72.6013 93.3385 72.6013 93.6627C72.6013 93.8608 72.7634 93.8608 72.8714 93.8608C73.1777 93.8608 73.5379 93.8248 73.8441 93.8248H74.8708C75.9696 93.8248 76.7621 93.8608 76.7801 93.8608C76.9062 93.8608 77.1044 93.8608 77.1044 93.5186C77.1044 93.3385 76.9423 93.3385 76.6721 93.3385C75.6814 93.3385 75.6634 93.1764 75.6093 92.636L74.5106 81.3962C74.4745 81.036 74.4025 80.9999 74.2044 80.9999C74.0242 80.9999 73.9162 81.036 73.7541 81.3062L67.4497 91.8615ZM69.6112 89.0875L73.2317 83.0354L73.8441 89.0875H69.6112Z" fill="#BC4D4D"/>
<path d="M81.2296 86.6199H82.8867C83.229 86.6199 83.4091 86.6199 83.4091 86.2957C83.4091 86.0975 83.301 86.0975 82.9408 86.0975H81.3557L82.0221 83.4677C82.0942 83.2155 82.0942 83.1795 82.0942 83.0534C82.0942 82.7652 81.86 82.6031 81.6259 82.6031C81.4818 82.6031 81.0675 82.6571 80.9234 83.2335L80.2209 86.0975H78.5277C78.1675 86.0975 78.0054 86.0975 78.0054 86.4398C78.0054 86.6199 78.1315 86.6199 78.4737 86.6199H80.0768L78.888 91.3752C78.7439 92.0056 78.6898 92.1857 78.6898 92.4199C78.6898 93.2665 79.2843 94.041 80.293 94.041C82.1122 94.041 83.0849 91.4112 83.0849 91.2851C83.0849 91.177 83.0128 91.123 82.9048 91.123C82.8687 91.123 82.7967 91.123 82.7607 91.195C82.7426 91.2131 82.7246 91.2311 82.5985 91.5193C82.2203 92.4199 81.3917 93.6808 80.347 93.6808C79.8066 93.6808 79.7706 93.2305 79.7706 92.8342C79.7706 92.8162 79.7706 92.4739 79.8246 92.2578L81.2296 86.6199Z" fill="#BC4D4D"/>
<path d="M124.466 84.7186C124.7 84.7186 125.294 84.7186 125.294 84.1422C125.294 83.746 124.952 83.746 124.628 83.746H120.647C117.945 83.746 116 86.754 116 88.8795C116 90.4106 116.991 91.6895 118.612 91.6895C120.737 91.6895 123.061 89.4019 123.061 86.7C123.061 85.9975 122.899 85.313 122.466 84.7186H124.466ZM118.63 91.3292C117.711 91.3292 117.045 90.6267 117.045 89.3839C117.045 88.3031 117.693 84.7186 120.341 84.7186C121.116 84.7186 121.98 85.0969 121.98 86.4839C121.98 87.1143 121.692 88.6273 121.062 89.6721C120.413 90.7348 119.44 91.3292 118.63 91.3292Z" fill="#BC4D4D"/>
<path d="M131.84 95.8864C131.84 95.8324 131.84 95.7964 131.534 95.4901C129.733 93.6709 128.724 90.6988 128.724 87.0243C128.724 83.5299 129.571 80.5218 131.66 78.3963C131.84 78.2342 131.84 78.1982 131.84 78.1442C131.84 78.0361 131.75 78.0001 131.678 78.0001C131.444 78.0001 129.967 79.2969 129.085 81.0622C128.166 82.8814 127.752 84.8088 127.752 87.0243C127.752 88.6274 128.004 90.7709 128.94 92.6982C130.003 94.8597 131.48 96.0305 131.678 96.0305C131.75 96.0305 131.84 95.9945 131.84 95.8864Z" fill="#BC4D4D"/>
<path d="M135.907 89.5099C135.277 90.5726 134.664 90.9329 133.8 90.9869C133.602 91.0049 133.458 91.0049 133.458 91.3292C133.458 91.4372 133.548 91.5093 133.674 91.5093C133.998 91.5093 134.809 91.4733 135.133 91.4733C135.655 91.4733 136.231 91.5093 136.736 91.5093C136.844 91.5093 137.06 91.5093 137.06 91.167C137.06 91.0049 136.916 90.9869 136.808 90.9869C136.394 90.9509 136.051 90.8068 136.051 90.3745C136.051 90.1223 136.159 89.9242 136.394 89.5279L137.763 87.2583H142.356C142.374 87.4205 142.374 87.5645 142.392 87.7267C142.446 88.195 142.662 90.0683 142.662 90.4105C142.662 90.9509 141.743 90.9869 141.455 90.9869C141.257 90.9869 141.059 90.9869 141.059 91.3111C141.059 91.5093 141.221 91.5093 141.329 91.5093C141.635 91.5093 141.995 91.4733 142.302 91.4733H143.328C144.427 91.4733 145.22 91.5093 145.238 91.5093C145.364 91.5093 145.562 91.5093 145.562 91.167C145.562 90.9869 145.4 90.9869 145.13 90.9869C144.139 90.9869 144.121 90.8248 144.067 90.2844L142.968 79.0447C142.932 78.6844 142.86 78.6484 142.662 78.6484C142.482 78.6484 142.374 78.6844 142.212 78.9546L135.907 89.5099ZM138.069 86.736L141.689 80.6838L142.302 86.736H138.069Z" fill="#BC4D4D"/>
<path d="M149.687 84.2683H151.344C151.687 84.2683 151.867 84.2683 151.867 83.9441C151.867 83.746 151.759 83.746 151.398 83.746H149.813L150.48 81.1161C150.552 80.864 150.552 80.8279 150.552 80.7019C150.552 80.4137 150.318 80.2515 150.084 80.2515C149.939 80.2515 149.525 80.3056 149.381 80.882L148.679 83.746H146.985C146.625 83.746 146.463 83.746 146.463 84.0882C146.463 84.2683 146.589 84.2683 146.931 84.2683H148.534L147.346 89.0236C147.202 89.654 147.147 89.8342 147.147 90.0683C147.147 90.9149 147.742 91.6895 148.751 91.6895C150.57 91.6895 151.543 89.0596 151.543 88.9335C151.543 88.8255 151.47 88.7714 151.362 88.7714C151.326 88.7714 151.254 88.7714 151.218 88.8435C151.2 88.8615 151.182 88.8795 151.056 89.1677C150.678 90.0683 149.849 91.3292 148.805 91.3292C148.264 91.3292 148.228 90.8789 148.228 90.4826C148.228 90.4646 148.228 90.1224 148.282 89.9062L149.687 84.2683Z" fill="#BC4D4D"/>
<path d="M157.515 87.0243C157.515 85.6553 157.335 83.4218 156.326 81.3324C155.264 79.1709 153.787 78.0001 153.588 78.0001C153.516 78.0001 153.426 78.0361 153.426 78.1442C153.426 78.1982 153.426 78.2342 153.733 78.5404C155.534 80.3597 156.542 83.3317 156.542 87.0063C156.542 90.5007 155.696 93.5088 153.606 95.6342C153.426 95.7964 153.426 95.8324 153.426 95.8864C153.426 95.9945 153.516 96.0305 153.588 96.0305C153.823 96.0305 155.3 94.7336 156.182 92.9684C157.101 91.1311 157.515 89.1858 157.515 87.0243Z" fill="#BC4D4D"/>
<path d="M285 109.212H289.737V108.221H285.991V66.9907H289.737V66H285V109.212Z" fill="#BC4D4D"/>
<path d="M298.541 73.7365C297.965 73.8446 297.749 74.2769 297.749 74.6191C297.749 75.0514 298.091 75.1955 298.343 75.1955C298.884 75.1955 299.262 74.7272 299.262 74.2408C299.262 73.4843 298.397 73.1421 297.641 73.1421C296.542 73.1421 295.93 74.2228 295.767 74.5651C295.353 73.2141 294.236 73.1421 293.912 73.1421C292.075 73.1421 291.102 75.5017 291.102 75.898C291.102 75.97 291.174 76.0601 291.3 76.0601C291.444 76.0601 291.48 75.952 291.517 75.88C292.129 73.8806 293.336 73.5023 293.858 73.5023C294.669 73.5023 294.831 74.2589 294.831 74.6912C294.831 75.0874 294.723 75.5017 294.507 76.3663L293.894 78.834C293.624 79.9148 293.102 80.9055 292.147 80.9055C292.057 80.9055 291.607 80.9055 291.228 80.6713C291.877 80.5452 292.021 80.0048 292.021 79.7887C292.021 79.4284 291.751 79.2123 291.408 79.2123C290.976 79.2123 290.508 79.5905 290.508 80.1669C290.508 80.9235 291.354 81.2657 292.129 81.2657C292.994 81.2657 293.606 80.5812 293.984 79.8427C294.272 80.9055 295.173 81.2657 295.839 81.2657C297.677 81.2657 298.649 78.9061 298.649 78.5098C298.649 78.4197 298.577 78.3477 298.469 78.3477C298.307 78.3477 298.289 78.4378 298.235 78.5819C297.749 80.1669 296.704 80.9055 295.894 80.9055C295.263 80.9055 294.921 80.4371 294.921 79.6986C294.921 79.3023 294.993 79.0141 295.281 77.8253L295.912 75.3756C296.182 74.2949 296.794 73.5023 297.623 73.5023C297.659 73.5023 298.163 73.5023 298.541 73.7365Z" fill="#BC4D4D"/>
<path d="M295.129 104.868C294.643 105.552 293.94 106.165 293.058 106.165C292.842 106.165 291.977 106.129 291.707 105.3C291.761 105.318 291.851 105.318 291.887 105.318C292.427 105.318 292.787 104.85 292.787 104.436C292.787 104.021 292.445 103.877 292.175 103.877C291.887 103.877 291.256 104.093 291.256 104.976C291.256 105.895 292.031 106.525 293.058 106.525C294.859 106.525 296.678 104.868 297.183 102.869L298.948 95.8438C298.966 95.7537 299.002 95.6456 299.002 95.5375C299.002 95.2674 298.786 95.0872 298.515 95.0872C298.353 95.0872 297.975 95.1593 297.831 95.6997L296.498 100.995C296.408 101.32 296.408 101.356 296.264 101.554C295.904 102.058 295.309 102.67 294.445 102.67C293.436 102.67 293.346 101.68 293.346 101.193C293.346 100.167 293.832 98.7798 294.319 97.4829C294.517 96.9605 294.625 96.7084 294.625 96.3481C294.625 95.5916 294.084 94.9071 293.202 94.9071C291.545 94.9071 290.878 97.5189 290.878 97.663C290.878 97.7351 290.95 97.8251 291.076 97.8251C291.238 97.8251 291.256 97.7531 291.328 97.5009C291.761 95.9879 292.445 95.2674 293.148 95.2674C293.31 95.2674 293.616 95.2674 293.616 95.8618C293.616 96.3301 293.418 96.8524 293.148 97.5369C292.265 99.8966 292.265 100.491 292.265 100.923C292.265 102.634 293.49 103.031 294.391 103.031C294.913 103.031 295.561 102.869 296.192 102.202L296.21 102.22C295.94 103.283 295.76 103.985 295.129 104.868Z" fill="#BC4D4D"/>
<path d="M304.025 108.221H300.278V109.212H305.015V66H300.278V66.9907H304.025V108.221Z" fill="#BC4D4D"/>
<path d="M181.363 80.939C181.054 80.939 180.871 80.9333 180.814 80.9218C180.757 80.9104 180.728 80.8475 180.728 80.7331C180.728 80.4243 180.791 80.2355 180.917 80.1669C180.928 80.1554 181.672 80.1497 183.147 80.1497C186.11 80.1497 187.671 80.1612 187.831 80.184C188.552 80.2984 189.152 80.5558 189.633 80.9561C190.113 81.3565 190.359 81.8827 190.371 82.5346C190.371 83.2667 190.039 83.9244 189.376 84.5078C188.712 85.0911 187.951 85.4858 187.094 85.6917L186.922 85.7431C187.654 85.8461 188.255 86.1092 188.724 86.5324C189.193 86.9556 189.433 87.4818 189.444 88.1109C189.444 88.9459 189.032 89.7523 188.209 90.5301C187.385 91.3079 186.373 91.7483 185.172 91.8513C185.092 91.8627 183.885 91.8684 181.552 91.8684C179.264 91.8684 178.103 91.857 178.069 91.8341C178.023 91.7998 178 91.754 178 91.6968C178 91.6168 178.011 91.5367 178.034 91.4566C178.092 91.2393 178.149 91.1192 178.206 91.0963C178.252 91.0849 178.337 91.0792 178.463 91.0792H178.566C178.875 91.0792 179.218 91.062 179.596 91.0277C179.756 90.9934 179.864 90.9247 179.922 90.8218C179.956 90.776 180.368 89.1861 181.157 86.052C181.946 82.9178 182.341 81.265 182.341 81.0934C182.341 81.0133 182.015 80.9619 181.363 80.939ZM188.535 82.5346C188.535 82.1915 188.449 81.8712 188.277 81.5738C188.106 81.2764 187.826 81.082 187.437 80.9905C187.357 80.9676 186.83 80.9504 185.858 80.939C185.629 80.939 185.389 80.939 185.138 80.939C184.886 80.939 184.686 80.9447 184.537 80.9561H184.314C184.142 80.9676 184.034 81.0248 183.988 81.1277C183.965 81.1735 183.782 81.8598 183.439 83.1866C183.439 83.2209 183.433 83.2553 183.422 83.2896L182.89 85.4514H184.28C185.206 85.4514 185.738 85.44 185.875 85.4171C186.562 85.3027 187.174 84.971 187.711 84.422C188.249 83.8729 188.523 83.2438 188.535 82.5346ZM187.608 87.9393C187.608 87.436 187.477 87.0185 187.214 86.6868C186.951 86.3551 186.607 86.1606 186.184 86.1034C186.116 86.092 185.641 86.0863 184.76 86.0863C183.41 86.0863 182.73 86.092 182.718 86.1034C182.718 86.1263 182.621 86.5438 182.427 87.3559C182.232 88.1681 182.032 88.9745 181.826 89.7752L181.517 90.9762C181.517 91.022 181.586 91.0448 181.723 91.0448C181.86 91.0448 182.324 91.0563 183.113 91.0792C184.131 91.0792 184.68 91.0734 184.76 91.062C185.469 90.9819 186.121 90.6502 186.716 90.0669C187.311 89.4835 187.608 88.7743 187.608 87.9393Z" fill="#BC4D4D"/>
<path d="M193.579 92.057C192.801 92.057 192.172 91.7996 191.692 91.2849C191.211 90.7702 190.965 90.1239 190.954 89.3461C190.954 88.2023 191.371 87.1385 192.206 86.1548C193.041 85.1711 194.014 84.6163 195.123 84.4905C195.135 84.479 195.935 84.4733 197.525 84.4733H199.893C199.905 84.4848 199.922 84.4962 199.945 84.5076C199.967 84.5191 199.99 84.5305 200.013 84.542C200.036 84.5534 200.053 84.5648 200.065 84.5763C200.076 84.5877 200.093 84.6049 200.116 84.6277C200.139 84.6506 200.15 84.6621 200.15 84.6621C200.15 84.6621 200.162 84.6849 200.185 84.7307C200.208 84.7764 200.213 84.7993 200.202 84.7993C200.191 84.7993 200.196 84.8279 200.219 84.8851C200.242 84.9423 200.248 84.9766 200.236 84.9881C200.236 85.4913 199.865 85.743 199.121 85.743C199.041 85.743 198.944 85.743 198.829 85.743C198.715 85.743 198.635 85.7373 198.589 85.7258H197.56L197.645 85.8974C197.851 86.3321 197.954 86.8182 197.954 87.3558C197.954 88.614 197.497 89.7121 196.582 90.6501C195.667 91.588 194.666 92.057 193.579 92.057ZM196.616 87.0984C196.616 86.1834 196.13 85.7258 195.158 85.7258C193.739 85.7258 192.818 86.721 192.395 88.7113C192.384 88.757 192.378 88.7913 192.378 88.8142C192.287 89.2374 192.241 89.5863 192.241 89.8608C192.241 90.4327 192.384 90.8331 192.67 91.0619C192.956 91.2906 193.282 91.4107 193.648 91.4222C194.265 91.4222 194.832 91.1534 195.346 90.6158C195.678 90.2726 195.947 89.8151 196.153 89.2432C196.359 88.6712 196.484 88.2137 196.53 87.8705C196.576 87.5274 196.605 87.27 196.616 87.0984Z" fill="#BC4D4D"/>
<path d="M201.832 87.5789C201.832 86.7896 201.889 86.0404 202.004 85.3312C202.118 84.6221 202.249 84.0101 202.398 83.4954C202.547 82.9806 202.758 82.4773 203.033 81.9855C203.308 81.4936 203.525 81.1105 203.685 80.8359C203.845 80.5614 204.085 80.264 204.406 79.9437C204.726 79.6235 204.915 79.429 204.972 79.3604C205.029 79.2917 205.172 79.1716 205.401 79.0001H205.624H205.692C205.853 79.0001 205.933 79.0515 205.933 79.1545C205.933 79.1888 205.835 79.3089 205.641 79.5148C205.447 79.7207 205.212 80.0238 204.938 80.4241C204.663 80.8245 204.383 81.3163 204.097 81.8997C203.811 82.4831 203.571 83.2723 203.376 84.2675C203.182 85.2626 203.084 86.3664 203.084 87.5789C203.084 88.7914 203.182 89.8895 203.376 90.8732C203.571 91.8569 203.805 92.6518 204.08 93.2581C204.354 93.8643 204.634 94.3562 204.92 94.7336C205.206 95.1111 205.447 95.4142 205.641 95.643C205.835 95.8718 205.933 95.9919 205.933 96.0033C205.933 96.1062 205.847 96.1577 205.675 96.1577H205.624H205.401L204.92 95.7459C203.845 94.7737 203.062 93.5612 202.57 92.1085C202.078 90.6558 201.832 89.146 201.832 87.5789Z" fill="#BC4D4D"/>
<path d="M210.462 90.5987C210.462 90.8733 210.725 91.0334 211.252 91.0792C211.457 91.0792 211.56 91.1421 211.56 91.2679C211.56 91.2793 211.549 91.3537 211.526 91.4909C211.492 91.6511 211.457 91.754 211.423 91.7998C211.389 91.8455 211.314 91.8684 211.2 91.8684C211.177 91.8684 211.109 91.8684 210.994 91.8684C210.88 91.8684 210.685 91.8627 210.411 91.8513C210.136 91.8398 209.77 91.8341 209.313 91.8341C208.501 91.8341 207.98 91.8455 207.751 91.8684H207.614C207.534 91.7883 207.494 91.7254 207.494 91.6797C207.517 91.3708 207.591 91.1707 207.717 91.0792H207.957C208.758 91.0448 209.341 90.7589 209.707 90.2213C209.776 90.1526 210.811 88.4083 212.813 84.9882C214.815 81.5681 215.833 79.8352 215.867 79.7894C215.947 79.6522 216.084 79.5835 216.279 79.5835H216.416H216.708C216.776 79.6865 216.811 79.7437 216.811 79.7551L217.291 85.297C217.611 88.9916 217.783 90.8561 217.806 90.8904C217.863 91.0162 218.235 91.0792 218.921 91.0792C219.207 91.0792 219.35 91.1363 219.35 91.2507C219.35 91.2736 219.333 91.3537 219.298 91.4909C219.264 91.6625 219.236 91.7655 219.213 91.7998C219.19 91.8341 219.11 91.857 218.972 91.8684C218.938 91.8684 218.858 91.8684 218.732 91.8684C218.606 91.8684 218.383 91.8627 218.063 91.8513C217.743 91.8398 217.325 91.8341 216.811 91.8341C215.735 91.8341 215.032 91.8455 214.7 91.8684H214.494C214.426 91.7998 214.391 91.7483 214.391 91.714C214.391 91.6797 214.403 91.5767 214.426 91.4052C214.471 91.2565 214.506 91.1649 214.529 91.1306L214.597 91.0792H214.94C215.558 91.0448 215.924 90.9476 216.039 90.7875L215.833 88.2138H211.749L211.166 89.209C210.697 89.9982 210.462 90.4615 210.462 90.5987ZM215.747 87.4074C215.747 87.2816 215.678 86.3894 215.541 84.7308C215.404 83.0722 215.324 82.2372 215.301 82.2258L214.837 82.9636C214.654 83.2724 214.294 83.8844 213.757 84.7995L212.212 87.4074L213.98 87.4246C215.158 87.4246 215.747 87.4189 215.747 87.4074Z" fill="#BC4D4D"/>
<path d="M220.208 85.2626C220.128 85.1825 220.088 85.1253 220.088 85.091C220.088 85.0452 220.105 84.9537 220.139 84.8165C220.173 84.6792 220.202 84.5991 220.225 84.5763C220.248 84.5191 220.299 84.4905 220.379 84.4905C220.459 84.4905 220.751 84.4848 221.254 84.4733H222.164L222.49 83.1007C222.524 82.9749 222.564 82.809 222.61 82.6031C222.656 82.3972 222.696 82.2485 222.73 82.157C222.764 82.0655 222.799 81.9511 222.833 81.8139C222.867 81.6766 222.913 81.5794 222.97 81.5222C223.027 81.465 223.085 81.3964 223.142 81.3163C223.199 81.2362 223.279 81.1848 223.382 81.1619C223.485 81.139 223.588 81.1276 223.691 81.1276C223.897 81.139 224.04 81.2019 224.12 81.3163C224.2 81.4307 224.24 81.5394 224.24 81.6423C224.24 81.7224 224.188 81.9912 224.085 82.4487C223.982 82.9063 223.868 83.3581 223.742 83.8042L223.571 84.439C223.571 84.4619 223.857 84.4733 224.429 84.4733H225.304C225.384 84.5534 225.424 84.6163 225.424 84.6621C225.424 84.9137 225.349 85.1139 225.201 85.2626H223.365L222.747 87.7504C222.301 89.5806 222.078 90.5643 222.078 90.7016C222.078 91.182 222.232 91.4222 222.541 91.4222C222.942 91.4222 223.331 91.2277 223.708 90.8388C224.085 90.4499 224.389 89.9695 224.617 89.3976C224.64 89.3289 224.669 89.2889 224.703 89.2775C224.737 89.266 224.823 89.2546 224.96 89.2432H225.029C225.201 89.2432 225.286 89.2889 225.286 89.3804C225.286 89.4147 225.269 89.4834 225.235 89.5863C225.178 89.7693 225.075 89.9866 224.926 90.2383C224.777 90.4899 224.583 90.7587 224.343 91.0447C224.103 91.3307 223.811 91.5709 223.468 91.7653C223.125 91.9598 222.776 92.057 222.421 92.057C222.078 92.057 221.752 91.9712 221.443 91.7996C221.134 91.6281 220.911 91.3307 220.774 90.9074C220.751 90.8159 220.74 90.6615 220.74 90.4442V90.1353L221.34 87.7333C221.741 86.1205 221.946 85.3083 221.958 85.2969C221.958 85.274 221.666 85.2626 221.083 85.2626H220.208Z" fill="#BC4D4D"/>
<path d="M226.985 79.0172L227.054 79.0001C227.111 79.0001 227.168 79.0001 227.225 79.0001H227.431L227.912 79.4118C228.987 80.3841 229.77 81.5966 230.262 83.0493C230.754 84.5019 231 86.0118 231 87.5789C231 88.3567 230.943 89.1059 230.828 89.8265C230.714 90.5472 230.582 91.1591 230.434 91.6624C230.285 92.1657 230.073 92.669 229.799 93.1723C229.524 93.6756 229.307 94.0588 229.147 94.3218C228.987 94.5849 228.752 94.8766 228.443 95.1969C228.135 95.5172 227.952 95.7059 227.894 95.7631C227.837 95.8203 227.706 95.9289 227.5 96.0891C227.465 96.1234 227.443 96.1463 227.431 96.1577H227.225C227.134 96.1577 227.071 96.1577 227.037 96.1577C227.002 96.1577 226.974 96.1406 226.951 96.1062C226.928 96.0719 226.911 96.0205 226.899 95.9518C226.911 95.9404 226.974 95.866 227.088 95.7288C228.861 93.8872 229.747 91.1706 229.747 87.5789C229.747 83.9872 228.861 81.2706 227.088 79.429C226.974 79.2917 226.911 79.2174 226.899 79.206C226.899 79.1144 226.928 79.0515 226.985 79.0172Z" fill="#BC4D4D"/>
<path d="M243.747 87.8826C243.747 87.3602 243.315 87 242.883 87C242.36 87 242 87.4323 242 87.8646C242 88.3869 242.432 88.7472 242.865 88.7472C243.387 88.7472 243.747 88.3149 243.747 87.8826Z" fill="#BC4D4D"/>
<path d="M251.648 87.8826C251.648 87.3602 251.216 87 250.784 87C250.261 87 249.901 87.4323 249.901 87.8646C249.901 88.3869 250.334 88.7472 250.766 88.7472C251.288 88.7472 251.648 88.3149 251.648 87.8826Z" fill="#BC4D4D"/>
<path d="M259.55 87.8826C259.55 87.3602 259.117 87 258.685 87C258.163 87 257.802 87.4323 257.802 87.8646C257.802 88.3869 258.235 88.7472 258.667 88.7472C259.189 88.7472 259.55 88.3149 259.55 87.8826Z" fill="#BC4D4D"/>
</svg>
