<svg width="374" height="111" viewBox="0 0 374 111" fill="none" xmlns="http://www.w3.org/2000/svg">
<path d="M49.2842 75.3129C48.9419 75.3129 48.7798 75.3129 48.5276 75.5291C48.4196 75.6192 48.2214 75.8893 48.2214 76.1775C48.2214 76.5378 48.4916 76.7539 48.8339 76.7539C49.2662 76.7539 49.7525 76.3937 49.7525 75.6732C49.7525 74.8086 48.9239 74.1421 47.6811 74.1421C45.3214 74.1421 42.9618 76.7179 42.9618 79.2757C42.9618 80.8428 43.9345 82.2657 45.7717 82.2657C48.2214 82.2657 49.7705 80.3564 49.7705 80.1223C49.7705 80.0142 49.6624 79.9241 49.5904 79.9241C49.5363 79.9241 49.5183 79.9421 49.3562 80.1043C48.2034 81.6353 46.4922 81.9055 45.8078 81.9055C44.5649 81.9055 44.1686 80.8248 44.1686 79.9241C44.1686 79.2937 44.4748 77.5465 45.1233 76.3216C45.5916 75.4751 46.5643 74.5024 47.6991 74.5024C47.9332 74.5024 48.9239 74.5384 49.2842 75.3129Z" fill="#BC4D4D"/>
<path d="M58.0455 77.1322C58.0455 75.421 56.9288 74.1421 55.2896 74.1421C52.912 74.1421 50.5704 76.7359 50.5704 79.2757C50.5704 80.9869 51.6871 82.2657 53.3263 82.2657C55.7219 82.2657 58.0455 79.672 58.0455 77.1322ZM53.3443 81.9055C52.4437 81.9055 51.7772 81.185 51.7772 79.9241C51.7772 79.0956 52.2095 77.2583 52.7139 76.3577C53.5244 74.9707 54.5331 74.5024 55.2716 74.5024C56.1542 74.5024 56.8387 75.2229 56.8387 76.4837C56.8387 77.2042 56.4604 79.1316 55.776 80.2303C55.0375 81.4372 54.0468 81.9055 53.3443 81.9055Z" fill="#BC4D4D"/>
<path d="M62.4174 78.4831C62.7236 78.5372 63.2099 78.6452 63.318 78.6633C63.5521 78.7353 64.3627 79.0235 64.3627 79.8881C64.3627 80.4465 63.8584 81.9055 61.7689 81.9055C61.3907 81.9055 60.0397 81.8515 59.6795 80.8608C60.4 80.9508 60.7602 80.3925 60.7602 79.9962C60.7602 79.6179 60.508 79.4198 60.1478 79.4198C59.7515 79.4198 59.2292 79.726 59.2292 80.5366C59.2292 81.5993 60.3099 82.2657 61.7509 82.2657C64.4888 82.2657 65.2994 80.2484 65.2994 79.3117C65.2994 79.0415 65.2994 78.5372 64.723 77.9608C64.2726 77.5285 63.8403 77.4384 62.8677 77.2403C62.3813 77.1322 61.6068 76.9701 61.6068 76.1595C61.6068 75.7993 61.931 74.5024 63.6422 74.5024C64.3987 74.5024 65.1372 74.7906 65.3174 75.439C64.5248 75.439 64.4888 76.1235 64.4888 76.1415C64.4888 76.5198 64.831 76.6278 64.9931 76.6278C65.2453 76.6278 65.7497 76.4297 65.7497 75.6732C65.7497 74.9167 65.0652 74.1421 63.6602 74.1421C61.3006 74.1421 60.6702 75.9974 60.6702 76.7359C60.6702 78.1049 62.0031 78.3931 62.4174 78.4831Z" fill="#BC4D4D"/>
<path d="M81.4026 79.0595H81.0064C80.9523 79.3657 80.8082 80.3564 80.6281 80.6446C80.502 80.8067 79.4753 80.8067 78.9349 80.8067H75.6026C76.089 80.3924 77.1877 79.2396 77.6561 78.8073C80.3939 76.2856 81.4026 75.3489 81.4026 73.5657C81.4026 71.4942 79.7635 70.1073 77.6741 70.1073C75.5846 70.1073 74.3598 71.8905 74.3598 73.4396C74.3598 74.3582 75.1523 74.3582 75.2064 74.3582C75.5846 74.3582 76.0529 74.088 76.0529 73.5116C76.0529 73.0073 75.7107 72.6651 75.2064 72.6651C75.0442 72.6651 75.0082 72.6651 74.9542 72.6831C75.2964 71.4582 76.2691 70.6297 77.4399 70.6297C78.971 70.6297 79.9076 71.9085 79.9076 73.5657C79.9076 75.0967 79.025 76.4297 77.9983 77.5825L74.3598 81.6533V82.0856H80.9343L81.4026 79.0595Z" fill="#BC4D4D"/>
<path d="M86.9609 75.2949H88.9963C88.5099 77.3123 88.2037 78.6272 88.2037 80.0682C88.2037 80.3204 88.2037 82.2657 88.9422 82.2657C89.3205 82.2657 89.6447 81.9235 89.6447 81.6173C89.6447 81.5272 89.6447 81.4912 89.5186 81.221C89.0323 79.9782 89.0323 78.4291 89.0323 78.303C89.0323 78.1949 89.0323 76.916 89.4106 75.2949H91.428C91.6621 75.2949 92.2565 75.2949 92.2565 74.7185C92.2565 74.3223 91.9143 74.3223 91.5901 74.3223H85.664C85.2497 74.3223 84.6373 74.3223 83.8087 75.2049C83.3404 75.7272 82.764 76.6819 82.764 76.79C82.764 76.898 82.854 76.9341 82.9621 76.9341C83.0882 76.9341 83.1062 76.88 83.1963 76.7719C84.1329 75.2949 85.0696 75.2949 85.5199 75.2949H86.5466C86.1503 76.6459 85.7 78.2129 84.223 81.3651C84.0789 81.6533 84.0789 81.6893 84.0789 81.7974C84.0789 82.1757 84.4031 82.2657 84.5652 82.2657C85.0876 82.2657 85.2317 81.7974 85.4478 81.0409C85.736 80.1223 85.736 80.0862 85.9162 79.3657L86.9609 75.2949Z" fill="#BC4D4D"/>
<path d="M96.5672 74.8446H98.2243C98.5666 74.8446 98.7467 74.8446 98.7467 74.5204C98.7467 74.3223 98.6386 74.3223 98.2784 74.3223H96.6933L97.3597 71.6924C97.4318 71.4403 97.4318 71.4042 97.4318 71.2782C97.4318 70.9899 97.1976 70.8278 96.9635 70.8278C96.8194 70.8278 96.4051 70.8819 96.261 71.4583L95.5585 74.3223H93.8653C93.5051 74.3223 93.343 74.3223 93.343 74.6645C93.343 74.8446 93.469 74.8446 93.8113 74.8446H95.4144L94.2256 79.5999C94.0815 80.2303 94.0274 80.4105 94.0274 80.6446C94.0274 81.4912 94.6218 82.2657 95.6305 82.2657C97.4498 82.2657 98.4225 79.6359 98.4225 79.5098C98.4225 79.4018 98.3504 79.3477 98.2423 79.3477C98.2063 79.3477 98.1343 79.3477 98.0982 79.4198C98.0802 79.4378 98.0622 79.4558 97.9361 79.744C97.5579 80.6446 96.7293 81.9055 95.6846 81.9055C95.1442 81.9055 95.1082 81.4552 95.1082 81.0589C95.1082 81.0409 95.1082 80.6987 95.1622 80.4825L96.5672 74.8446Z" fill="#BC4D4D"/>
<path d="M247.363 80.939C247.054 80.939 246.871 80.9333 246.814 80.9218C246.757 80.9104 246.728 80.8475 246.728 80.7331C246.728 80.4243 246.791 80.2355 246.917 80.1669C246.928 80.1554 247.672 80.1497 249.147 80.1497C252.11 80.1497 253.671 80.1612 253.831 80.184C254.552 80.2984 255.152 80.5558 255.633 80.9561C256.113 81.3565 256.359 81.8827 256.371 82.5346C256.371 83.2667 256.039 83.9244 255.376 84.5078C254.712 85.0911 253.951 85.4858 253.094 85.6917L252.922 85.7431C253.654 85.8461 254.255 86.1092 254.724 86.5324C255.193 86.9556 255.433 87.4818 255.444 88.1109C255.444 88.9459 255.032 89.7523 254.209 90.5301C253.385 91.3079 252.373 91.7483 251.172 91.8513C251.092 91.8627 249.885 91.8684 247.552 91.8684C245.264 91.8684 244.103 91.857 244.069 91.8341C244.023 91.7998 244 91.754 244 91.6968C244 91.6168 244.011 91.5367 244.034 91.4566C244.092 91.2393 244.149 91.1192 244.206 91.0963C244.252 91.0849 244.337 91.0792 244.463 91.0792H244.566C244.875 91.0792 245.218 91.062 245.596 91.0277C245.756 90.9934 245.864 90.9247 245.922 90.8218C245.956 90.776 246.368 89.1861 247.157 86.052C247.946 82.9178 248.341 81.265 248.341 81.0934C248.341 81.0133 248.015 80.9619 247.363 80.939ZM254.535 82.5346C254.535 82.1915 254.449 81.8712 254.277 81.5738C254.106 81.2764 253.826 81.082 253.437 80.9905C253.357 80.9676 252.83 80.9504 251.858 80.939C251.629 80.939 251.389 80.939 251.138 80.939C250.886 80.939 250.686 80.9447 250.537 80.9561H250.314C250.142 80.9676 250.034 81.0248 249.988 81.1277C249.965 81.1735 249.782 81.8598 249.439 83.1866C249.439 83.2209 249.433 83.2553 249.422 83.2896L248.89 85.4514H250.28C251.206 85.4514 251.738 85.44 251.875 85.4171C252.562 85.3027 253.174 84.971 253.711 84.422C254.249 83.8729 254.523 83.2438 254.535 82.5346ZM253.608 87.9393C253.608 87.436 253.477 87.0185 253.214 86.6868C252.951 86.3551 252.607 86.1606 252.184 86.1034C252.116 86.092 251.641 86.0863 250.76 86.0863C249.41 86.0863 248.73 86.092 248.718 86.1034C248.718 86.1263 248.621 86.5438 248.427 87.3559C248.232 88.1681 248.032 88.9745 247.826 89.7752L247.517 90.9762C247.517 91.022 247.586 91.0448 247.723 91.0448C247.86 91.0448 248.324 91.0563 249.113 91.0792C250.131 91.0792 250.68 91.0734 250.76 91.062C251.469 90.9819 252.121 90.6502 252.716 90.0669C253.311 89.4835 253.608 88.7743 253.608 87.9393Z" fill="#BC4D4D"/>
<path d="M259.579 92.057C258.801 92.057 258.172 91.7996 257.692 91.2849C257.211 90.7702 256.965 90.1239 256.954 89.3461C256.954 88.2023 257.372 87.1385 258.207 86.1548C259.042 85.1711 260.014 84.6163 261.123 84.4905C261.135 84.479 261.935 84.4733 263.525 84.4733H265.893C265.905 84.4848 265.922 84.4962 265.945 84.5076C265.967 84.5191 265.99 84.5305 266.013 84.542C266.036 84.5534 266.053 84.5648 266.065 84.5763C266.076 84.5877 266.093 84.6049 266.116 84.6277C266.139 84.6506 266.151 84.6621 266.151 84.6621C266.151 84.6621 266.162 84.6849 266.185 84.7307C266.208 84.7764 266.213 84.7993 266.202 84.7993C266.191 84.7993 266.196 84.8279 266.219 84.8851C266.242 84.9423 266.248 84.9766 266.236 84.9881C266.236 85.4913 265.865 85.743 265.121 85.743C265.041 85.743 264.944 85.743 264.829 85.743C264.715 85.743 264.635 85.7373 264.589 85.7258H263.56L263.645 85.8974C263.851 86.3321 263.954 86.8182 263.954 87.3558C263.954 88.614 263.497 89.7121 262.582 90.6501C261.667 91.588 260.666 92.057 259.579 92.057ZM262.616 87.0984C262.616 86.1834 262.13 85.7258 261.158 85.7258C259.739 85.7258 258.818 86.721 258.395 88.7113C258.384 88.757 258.378 88.7913 258.378 88.8142C258.287 89.2374 258.241 89.5863 258.241 89.8608C258.241 90.4327 258.384 90.8331 258.67 91.0619C258.956 91.2906 259.282 91.4107 259.648 91.4222C260.265 91.4222 260.832 91.1534 261.346 90.6158C261.678 90.2726 261.947 89.8151 262.153 89.2432C262.359 88.6712 262.484 88.2137 262.53 87.8705C262.576 87.5274 262.605 87.27 262.616 87.0984Z" fill="#BC4D4D"/>
<path d="M267.832 87.5789C267.832 86.7896 267.889 86.0404 268.004 85.3312C268.118 84.6221 268.249 84.0101 268.398 83.4954C268.547 82.9806 268.758 82.4773 269.033 81.9855C269.308 81.4936 269.525 81.1105 269.685 80.8359C269.845 80.5614 270.085 80.264 270.406 79.9437C270.726 79.6235 270.915 79.429 270.972 79.3604C271.029 79.2917 271.172 79.1716 271.401 79.0001H271.624H271.692C271.853 79.0001 271.933 79.0515 271.933 79.1545C271.933 79.1888 271.835 79.3089 271.641 79.5148C271.447 79.7207 271.212 80.0238 270.938 80.4241C270.663 80.8245 270.383 81.3163 270.097 81.8997C269.811 82.4831 269.571 83.2723 269.376 84.2675C269.182 85.2626 269.084 86.3664 269.084 87.5789C269.084 88.7914 269.182 89.8895 269.376 90.8732C269.571 91.8569 269.805 92.6518 270.08 93.2581C270.354 93.8643 270.634 94.3562 270.92 94.7336C271.206 95.1111 271.447 95.4142 271.641 95.643C271.835 95.8718 271.933 95.9919 271.933 96.0033C271.933 96.1062 271.847 96.1577 271.675 96.1577H271.624H271.401L270.92 95.7459C269.845 94.7737 269.062 93.5612 268.57 92.1085C268.078 90.6558 267.832 89.146 267.832 87.5789Z" fill="#BC4D4D"/>
<path d="M276.462 90.5987C276.462 90.8733 276.725 91.0334 277.252 91.0792C277.457 91.0792 277.56 91.1421 277.56 91.2679C277.56 91.2793 277.549 91.3537 277.526 91.4909C277.492 91.6511 277.457 91.754 277.423 91.7998C277.389 91.8455 277.314 91.8684 277.2 91.8684C277.177 91.8684 277.109 91.8684 276.994 91.8684C276.88 91.8684 276.685 91.8627 276.411 91.8513C276.136 91.8398 275.77 91.8341 275.313 91.8341C274.501 91.8341 273.98 91.8455 273.751 91.8684H273.614C273.534 91.7883 273.494 91.7254 273.494 91.6797C273.517 91.3708 273.591 91.1707 273.717 91.0792H273.957C274.758 91.0448 275.341 90.7589 275.707 90.2213C275.776 90.1526 276.811 88.4083 278.813 84.9882C280.815 81.5681 281.833 79.8352 281.867 79.7894C281.947 79.6522 282.084 79.5835 282.279 79.5835H282.416H282.708C282.776 79.6865 282.811 79.7437 282.811 79.7551L283.291 85.297C283.611 88.9916 283.783 90.8561 283.806 90.8904C283.863 91.0162 284.235 91.0792 284.921 91.0792C285.207 91.0792 285.35 91.1363 285.35 91.2507C285.35 91.2736 285.333 91.3537 285.298 91.4909C285.264 91.6625 285.236 91.7655 285.213 91.7998C285.19 91.8341 285.11 91.857 284.972 91.8684C284.938 91.8684 284.858 91.8684 284.732 91.8684C284.606 91.8684 284.383 91.8627 284.063 91.8513C283.743 91.8398 283.325 91.8341 282.811 91.8341C281.735 91.8341 281.032 91.8455 280.7 91.8684H280.494C280.426 91.7998 280.391 91.7483 280.391 91.714C280.391 91.6797 280.403 91.5767 280.426 91.4052C280.471 91.2565 280.506 91.1649 280.529 91.1306L280.597 91.0792H280.94C281.558 91.0448 281.924 90.9476 282.039 90.7875L281.833 88.2138H277.749L277.166 89.209C276.697 89.9982 276.462 90.4615 276.462 90.5987ZM281.747 87.4074C281.747 87.2816 281.678 86.3894 281.541 84.7308C281.404 83.0722 281.324 82.2372 281.301 82.2258L280.837 82.9636C280.654 83.2724 280.294 83.8844 279.757 84.7995L278.212 87.4074L279.98 87.4246C281.158 87.4246 281.747 87.4189 281.747 87.4074Z" fill="#BC4D4D"/>
<path d="M286.208 85.2626C286.128 85.1825 286.088 85.1253 286.088 85.091C286.088 85.0452 286.105 84.9537 286.139 84.8165C286.173 84.6792 286.202 84.5991 286.225 84.5763C286.248 84.5191 286.299 84.4905 286.379 84.4905C286.459 84.4905 286.751 84.4848 287.254 84.4733H288.164L288.49 83.1007C288.524 82.9749 288.564 82.809 288.61 82.6031C288.656 82.3972 288.696 82.2485 288.73 82.157C288.764 82.0655 288.799 81.9511 288.833 81.8139C288.867 81.6766 288.913 81.5794 288.97 81.5222C289.027 81.465 289.085 81.3964 289.142 81.3163C289.199 81.2362 289.279 81.1848 289.382 81.1619C289.485 81.139 289.588 81.1276 289.691 81.1276C289.897 81.139 290.04 81.2019 290.12 81.3163C290.2 81.4307 290.24 81.5394 290.24 81.6423C290.24 81.7224 290.188 81.9912 290.085 82.4487C289.982 82.9063 289.868 83.3581 289.742 83.8042L289.571 84.439C289.571 84.4619 289.857 84.4733 290.429 84.4733H291.304C291.384 84.5534 291.424 84.6163 291.424 84.6621C291.424 84.9137 291.349 85.1139 291.201 85.2626H289.365L288.747 87.7504C288.301 89.5806 288.078 90.5643 288.078 90.7016C288.078 91.182 288.232 91.4222 288.541 91.4222C288.942 91.4222 289.33 91.2277 289.708 90.8388C290.085 90.4499 290.389 89.9695 290.617 89.3976C290.64 89.3289 290.669 89.2889 290.703 89.2775C290.737 89.266 290.823 89.2546 290.96 89.2432H291.029C291.201 89.2432 291.286 89.2889 291.286 89.3804C291.286 89.4147 291.269 89.4834 291.235 89.5863C291.178 89.7693 291.075 89.9866 290.926 90.2383C290.777 90.4899 290.583 90.7587 290.343 91.0447C290.103 91.3307 289.811 91.5709 289.468 91.7653C289.125 91.9598 288.776 92.057 288.421 92.057C288.078 92.057 287.752 91.9712 287.443 91.7996C287.134 91.6281 286.911 91.3307 286.774 90.9074C286.751 90.8159 286.74 90.6615 286.74 90.4442V90.1353L287.34 87.7333C287.741 86.1205 287.946 85.3083 287.958 85.2969C287.958 85.274 287.666 85.2626 287.083 85.2626H286.208Z" fill="#BC4D4D"/>
<path d="M292.985 79.0172L293.054 79.0001C293.111 79.0001 293.168 79.0001 293.225 79.0001H293.431L293.912 79.4118C294.987 80.3841 295.77 81.5966 296.262 83.0493C296.754 84.5019 297 86.0118 297 87.5789C297 88.3567 296.943 89.1059 296.828 89.8265C296.714 90.5472 296.582 91.1591 296.434 91.6624C296.285 92.1657 296.073 92.669 295.799 93.1723C295.524 93.6756 295.307 94.0588 295.147 94.3218C294.987 94.5849 294.752 94.8766 294.444 95.1969C294.135 95.5172 293.952 95.7059 293.894 95.7631C293.837 95.8203 293.706 95.9289 293.5 96.0891C293.466 96.1234 293.443 96.1463 293.431 96.1577H293.225C293.134 96.1577 293.071 96.1577 293.037 96.1577C293.002 96.1577 292.974 96.1406 292.951 96.1062C292.928 96.0719 292.911 96.0205 292.899 95.9518C292.911 95.9404 292.974 95.866 293.088 95.7288C294.861 93.8872 295.747 91.1706 295.747 87.5789C295.747 83.9872 294.861 81.2706 293.088 79.429C292.974 79.2917 292.911 79.2174 292.899 79.206C292.899 79.1144 292.928 79.0515 292.985 79.0172Z" fill="#BC4D4D"/>
<path d="M309.747 87.8826C309.747 87.3602 309.315 87 308.883 87C308.36 87 308 87.4323 308 87.8646C308 88.3869 308.432 88.7472 308.865 88.7472C309.387 88.7472 309.747 88.3149 309.747 87.8826Z" fill="#BC4D4D"/>
<path d="M317.648 87.8826C317.648 87.3602 317.216 87 316.784 87C316.261 87 315.901 87.4323 315.901 87.8646C315.901 88.3869 316.334 88.7472 316.766 88.7472C317.288 88.7472 317.648 88.3149 317.648 87.8826Z" fill="#BC4D4D"/>
<path d="M325.55 87.8826C325.55 87.3602 325.117 87 324.685 87C324.163 87 323.802 87.4323 323.802 87.8646C323.802 88.3869 324.235 88.7472 324.667 88.7472C325.189 88.7472 325.55 88.3149 325.55 87.8826Z" fill="#BC4D4D"/>
<path d="M353 109.212H357.737V108.221H353.991V66.9907H357.737V66H353V109.212Z" fill="#BC4D4D"/>
<path d="M366.541 73.7365C365.965 73.8446 365.749 74.2769 365.749 74.6191C365.749 75.0514 366.091 75.1955 366.343 75.1955C366.884 75.1955 367.262 74.7272 367.262 74.2408C367.262 73.4843 366.397 73.1421 365.641 73.1421C364.542 73.1421 363.93 74.2228 363.767 74.5651C363.353 73.2141 362.236 73.1421 361.912 73.1421C360.075 73.1421 359.102 75.5017 359.102 75.898C359.102 75.97 359.174 76.0601 359.3 76.0601C359.444 76.0601 359.481 75.952 359.517 75.88C360.129 73.8806 361.336 73.5023 361.858 73.5023C362.669 73.5023 362.831 74.2589 362.831 74.6912C362.831 75.0874 362.723 75.5017 362.507 76.3663L361.894 78.834C361.624 79.9148 361.102 80.9055 360.147 80.9055C360.057 80.9055 359.607 80.9055 359.228 80.6713C359.877 80.5452 360.021 80.0048 360.021 79.7887C360.021 79.4284 359.751 79.2123 359.408 79.2123C358.976 79.2123 358.508 79.5905 358.508 80.1669C358.508 80.9235 359.354 81.2657 360.129 81.2657C360.994 81.2657 361.606 80.5812 361.984 79.8427C362.272 80.9055 363.173 81.2657 363.84 81.2657C365.677 81.2657 366.649 78.9061 366.649 78.5098C366.649 78.4197 366.577 78.3477 366.469 78.3477C366.307 78.3477 366.289 78.4378 366.235 78.5819C365.749 80.1669 364.704 80.9055 363.894 80.9055C363.263 80.9055 362.921 80.4371 362.921 79.6986C362.921 79.3023 362.993 79.0141 363.281 77.8253L363.912 75.3756C364.182 74.2949 364.794 73.5023 365.623 73.5023C365.659 73.5023 366.163 73.5023 366.541 73.7365Z" fill="#BC4D4D"/>
<path d="M363.129 104.868C362.643 105.552 361.94 106.165 361.058 106.165C360.842 106.165 359.977 106.129 359.707 105.3C359.761 105.318 359.851 105.318 359.887 105.318C360.427 105.318 360.787 104.85 360.787 104.436C360.787 104.021 360.445 103.877 360.175 103.877C359.887 103.877 359.256 104.093 359.256 104.976C359.256 105.895 360.031 106.525 361.058 106.525C362.859 106.525 364.678 104.868 365.183 102.869L366.948 95.8438C366.966 95.7537 367.002 95.6456 367.002 95.5375C367.002 95.2674 366.786 95.0872 366.515 95.0872C366.353 95.0872 365.975 95.1593 365.831 95.6997L364.498 100.995C364.408 101.32 364.408 101.356 364.264 101.554C363.904 102.058 363.309 102.67 362.445 102.67C361.436 102.67 361.346 101.68 361.346 101.193C361.346 100.167 361.832 98.7798 362.319 97.4829C362.517 96.9605 362.625 96.7084 362.625 96.3481C362.625 95.5916 362.084 94.9071 361.202 94.9071C359.545 94.9071 358.878 97.5189 358.878 97.663C358.878 97.7351 358.95 97.8251 359.076 97.8251C359.238 97.8251 359.256 97.7531 359.328 97.5009C359.761 95.9879 360.445 95.2674 361.148 95.2674C361.31 95.2674 361.616 95.2674 361.616 95.8618C361.616 96.3301 361.418 96.8524 361.148 97.5369C360.265 99.8966 360.265 100.491 360.265 100.923C360.265 102.634 361.49 103.031 362.391 103.031C362.913 103.031 363.561 102.869 364.192 102.202L364.21 102.22C363.94 103.283 363.76 103.985 363.129 104.868Z" fill="#BC4D4D"/>
<path d="M372.025 108.221H368.278V109.212H373.015V66H368.278V66.9907H372.025V108.221Z" fill="#BC4D4D"/>
<path d="M10.2242 85.0167H11.8814C12.2236 85.0167 12.4037 85.0167 12.4037 84.6925C12.4037 84.4944 12.2957 84.4944 11.9354 84.4944H10.3503L11.0168 81.8646C11.0888 81.6124 11.0888 81.5764 11.0888 81.4503C11.0888 81.1621 10.8547 81 10.6205 81C10.4764 81 10.0621 81.054 9.91802 81.6304L9.21553 84.4944H7.52236C7.16211 84.4944 7 84.4944 7 84.8366C7 85.0167 7.12609 85.0167 7.46832 85.0167H9.07143L7.88261 89.772C7.73851 90.4025 7.68447 90.5826 7.68447 90.8167C7.68447 91.6633 8.27888 92.4379 9.28758 92.4379C11.1068 92.4379 12.0795 89.808 12.0795 89.682C12.0795 89.5739 12.0075 89.5198 11.8994 89.5198C11.8634 89.5198 11.7913 89.5198 11.7553 89.5919C11.7373 89.6099 11.7193 89.6279 11.5932 89.9161C11.2149 90.8167 10.3863 92.0776 9.34162 92.0776C8.80125 92.0776 8.76522 91.6273 8.76522 91.231C8.76522 91.213 8.76522 90.8708 8.81926 90.6546L10.2242 85.0167Z" fill="#BC4D4D"/>
<path d="M134.45 89.8615C133.819 90.9242 133.207 91.2844 132.342 91.3385C132.144 91.3565 132 91.3565 132 91.6807C132 91.7888 132.09 91.8608 132.216 91.8608C132.54 91.8608 133.351 91.8248 133.675 91.8248C134.198 91.8248 134.774 91.8608 135.278 91.8608C135.386 91.8608 135.602 91.8608 135.602 91.5186C135.602 91.3565 135.458 91.3385 135.35 91.3385C134.936 91.3025 134.594 91.1584 134.594 90.7261C134.594 90.4739 134.702 90.2757 134.936 89.8795L136.305 87.6099H140.898C140.916 87.772 140.916 87.9161 140.934 88.0782C140.988 88.5465 141.204 90.4198 141.204 90.7621C141.204 91.3025 140.286 91.3385 139.998 91.3385C139.799 91.3385 139.601 91.3385 139.601 91.6627C139.601 91.8608 139.763 91.8608 139.871 91.8608C140.178 91.8608 140.538 91.8248 140.844 91.8248H141.871C142.97 91.8248 143.762 91.8608 143.78 91.8608C143.906 91.8608 144.104 91.8608 144.104 91.5186C144.104 91.3385 143.942 91.3385 143.672 91.3385C142.681 91.3385 142.663 91.1764 142.609 90.636L141.511 79.3962C141.475 79.036 141.402 78.9999 141.204 78.9999C141.024 78.9999 140.916 79.036 140.754 79.3062L134.45 89.8615ZM136.611 87.0875L140.232 81.0354L140.844 87.0875H136.611Z" fill="#BC4D4D"/>
<path d="M148.23 84.6199H149.887C150.229 84.6199 150.409 84.6199 150.409 84.2957C150.409 84.0975 150.301 84.0975 149.941 84.0975H148.356L149.022 81.4677C149.094 81.2155 149.094 81.1795 149.094 81.0534C149.094 80.7652 148.86 80.6031 148.626 80.6031C148.482 80.6031 148.067 80.6571 147.923 81.2335L147.221 84.0975H145.528C145.167 84.0975 145.005 84.0975 145.005 84.4398C145.005 84.6199 145.131 84.6199 145.474 84.6199H147.077L145.888 89.3752C145.744 90.0056 145.69 90.1857 145.69 90.4199C145.69 91.2665 146.284 92.041 147.293 92.041C149.112 92.041 150.085 89.4112 150.085 89.2851C150.085 89.177 150.013 89.123 149.905 89.123C149.869 89.123 149.797 89.123 149.761 89.195C149.743 89.2131 149.725 89.2311 149.599 89.5193C149.22 90.4199 148.392 91.6808 147.347 91.6808C146.807 91.6808 146.771 91.2305 146.771 90.8342C146.771 90.8162 146.771 90.4739 146.825 90.2578L148.23 84.6199Z" fill="#BC4D4D"/>
<path d="M37 110.212H41.7373V109.221H37.9907V67.9907H41.7373V67H37V110.212Z" fill="#BC4D4D"/>
<path d="M72.4723 86.4626C72.4723 86.4086 72.4723 86.3725 72.1661 86.0663C70.3649 84.2471 69.3562 81.275 69.3562 77.6005C69.3562 74.106 70.2028 71.098 72.2922 68.9725C72.4723 68.8104 72.4723 68.7744 72.4723 68.7203C72.4723 68.6122 72.3823 68.5762 72.3102 68.5762C72.0761 68.5762 70.599 69.8731 69.7164 71.6383C68.7978 73.4576 68.3835 75.3849 68.3835 77.6005C68.3835 79.2036 68.6357 81.3471 69.5723 83.2744C70.6351 85.4359 72.1121 86.6067 72.3102 86.6067C72.3823 86.6067 72.4723 86.5707 72.4723 86.4626Z" fill="#BC4D4D"/>
<path d="M104.395 77.6005C104.395 76.2315 104.215 73.998 103.206 71.9085C102.144 69.747 100.667 68.5762 100.468 68.5762C100.396 68.5762 100.306 68.6122 100.306 68.7203C100.306 68.7744 100.306 68.8104 100.613 69.1166C102.414 70.9359 103.422 73.9079 103.422 77.5825C103.422 81.0769 102.576 84.0849 100.486 86.2104C100.306 86.3725 100.306 86.4086 100.306 86.4626C100.306 86.5707 100.396 86.6067 100.468 86.6067C100.703 86.6067 102.18 85.3098 103.062 83.5446C103.981 81.7073 104.395 79.762 104.395 77.6005Z" fill="#BC4D4D"/>
<path d="M46.1103 100.248C46.4165 100.302 46.9029 100.41 47.0109 100.428C47.2451 100.5 48.0557 100.789 48.0557 101.653C48.0557 102.212 47.5513 103.671 45.4619 103.671C45.0836 103.671 43.7327 103.616 43.3724 102.626C44.0929 102.716 44.4532 102.157 44.4532 101.761C44.4532 101.383 44.201 101.185 43.8408 101.185C43.4445 101.185 42.9221 101.491 42.9221 102.302C42.9221 103.364 44.0029 104.031 45.4439 104.031C48.1818 104.031 48.9923 102.013 48.9923 101.077C48.9923 100.807 48.9923 100.302 48.4159 99.7258C47.9656 99.2935 47.5333 99.2034 46.5606 99.0053C46.0743 98.8972 45.2998 98.7351 45.2998 97.9245C45.2998 97.5643 45.624 96.2674 47.3352 96.2674C48.0917 96.2674 48.8302 96.5556 49.0103 97.204C48.2178 97.204 48.1818 97.8885 48.1818 97.9065C48.1818 98.2848 48.524 98.3929 48.6861 98.3929C48.9383 98.3929 49.4426 98.1947 49.4426 97.4382C49.4426 96.6817 48.7582 95.9071 47.3532 95.9071C44.9936 95.9071 44.3631 97.7624 44.3631 98.5009C44.3631 99.8699 45.696 100.158 46.1103 100.248Z" fill="#BC4D4D"/>
<path d="M55.4088 101.275C55.4088 101.185 55.3367 101.113 55.2287 101.113C55.0666 101.113 55.0485 101.167 54.9585 101.473C54.4902 103.112 53.7516 103.671 53.1572 103.671C52.9411 103.671 52.6889 103.616 52.6889 103.076C52.6889 102.59 52.9051 102.049 53.1032 101.509L54.3641 98.1587C54.4181 98.0146 54.5442 97.6904 54.5442 97.3481C54.5442 96.5916 54.0038 95.9071 53.1212 95.9071C51.4641 95.9071 50.7976 98.519 50.7976 98.6631C50.7976 98.7351 50.8697 98.8252 50.9957 98.8252C51.1579 98.8252 51.1759 98.7531 51.2479 98.5009C51.6802 96.9879 52.3647 96.2674 53.0672 96.2674C53.2293 96.2674 53.5355 96.2854 53.5355 96.8618C53.5355 97.3301 53.3013 97.9245 53.1572 98.3208L51.8964 101.671C51.7883 101.959 51.6802 102.248 51.6802 102.572C51.6802 103.382 52.2386 104.031 53.1032 104.031C54.7603 104.031 55.4088 101.401 55.4088 101.275ZM55.2647 92.6109C55.2647 92.3407 55.0485 92.0165 54.6523 92.0165C54.238 92.0165 53.7697 92.4127 53.7697 92.8811C53.7697 93.3314 54.1479 93.4755 54.3641 93.4755C54.8504 93.4755 55.2647 93.0071 55.2647 92.6109Z" fill="#BC4D4D"/>
<path d="M60.0386 98.573C60.0746 98.4649 60.5249 97.5643 61.1914 96.9879C61.6597 96.5556 62.2721 96.2674 62.9746 96.2674C63.6951 96.2674 63.9473 96.8078 63.9473 97.5283C63.9473 98.555 63.2088 100.608 62.8485 101.581C62.6864 102.013 62.5964 102.248 62.5964 102.572C62.5964 103.382 63.1547 104.031 64.0193 104.031C65.6945 104.031 66.3249 101.383 66.3249 101.275C66.3249 101.185 66.2529 101.113 66.1448 101.113C65.9827 101.113 65.9647 101.167 65.8746 101.473C65.4603 102.95 64.7759 103.671 64.0734 103.671C63.8933 103.671 63.6051 103.652 63.6051 103.076C63.6051 102.626 63.8032 102.085 63.9113 101.833C64.2715 100.843 65.028 98.8252 65.028 97.7985C65.028 96.7177 64.3976 95.9071 63.0287 95.9071C61.4255 95.9071 60.579 97.0419 60.2547 97.4922C60.2007 96.4655 59.4622 95.9071 58.6696 95.9071C58.0932 95.9071 57.697 96.2494 57.3908 96.8618C57.0665 97.5103 56.8144 98.591 56.8144 98.6631C56.8144 98.7351 56.8864 98.8252 57.0125 98.8252C57.1566 98.8252 57.1746 98.8071 57.2827 98.3929C57.5709 97.2941 57.8951 96.2674 58.6156 96.2674C59.0299 96.2674 59.174 96.5556 59.174 97.096C59.174 97.4922 58.9939 98.1947 58.8678 98.7531L58.3634 100.698C58.2914 101.041 58.0932 101.851 58.0032 102.175C57.8771 102.644 57.679 103.49 57.679 103.58C57.679 103.833 57.8771 104.031 58.1473 104.031C58.3634 104.031 58.6156 103.923 58.7597 103.652C58.7957 103.562 58.9578 102.932 59.0479 102.572L59.4442 100.951L60.0386 98.573Z" fill="#BC4D4D"/>
<path d="M72.7101 108.228C72.7101 108.174 72.7101 108.138 72.4039 107.831C70.6026 106.012 69.594 103.04 69.594 99.3656C69.594 95.8712 70.4405 92.8631 72.53 90.7376C72.7101 90.5755 72.7101 90.5395 72.7101 90.4855C72.7101 90.3774 72.62 90.3414 72.548 90.3414C72.3138 90.3414 70.8368 91.6383 69.9542 93.4035C69.0356 95.2227 68.6213 97.1501 68.6213 99.3656C68.6213 100.969 68.8735 103.112 69.8101 105.04C70.8728 107.201 72.3499 108.372 72.548 108.372C72.62 108.372 72.7101 108.336 72.7101 108.228Z" fill="#BC4D4D"/>
<path d="M81.6403 100.824H81.2441C81.19 101.131 81.0459 102.121 80.8658 102.41C80.7397 102.572 79.713 102.572 79.1726 102.572H75.8403C76.3267 102.157 77.4254 101.005 77.8938 100.572C80.6316 98.0506 81.6403 97.1139 81.6403 95.3307C81.6403 93.2593 80.0012 91.8723 77.9118 91.8723C75.8223 91.8723 74.5975 93.6555 74.5975 95.2046C74.5975 96.1232 75.39 96.1232 75.4441 96.1232C75.8223 96.1232 76.2906 95.8531 76.2906 95.2767C76.2906 94.7723 75.9484 94.4301 75.4441 94.4301C75.2819 94.4301 75.2459 94.4301 75.1919 94.4481C75.5341 93.2232 76.5068 92.3947 77.6776 92.3947C79.2087 92.3947 80.1453 93.6736 80.1453 95.3307C80.1453 96.8618 79.2627 98.1947 78.236 99.3475L74.5975 103.418V103.851H81.172L81.6403 100.824Z" fill="#BC4D4D"/>
<path d="M87.1986 97.0599H89.234C88.7477 99.0773 88.4414 100.392 88.4414 101.833C88.4414 102.085 88.4414 104.031 89.18 104.031C89.5582 104.031 89.8824 103.689 89.8824 103.382C89.8824 103.292 89.8824 103.256 89.7563 102.986C89.27 101.743 89.27 100.194 89.27 100.068C89.27 99.9599 89.27 98.6811 89.6483 97.0599H91.6657C91.8998 97.0599 92.4942 97.0599 92.4942 96.4835C92.4942 96.0873 92.152 96.0873 91.8278 96.0873H85.9017C85.4874 96.0873 84.875 96.0873 84.0464 96.9699C83.5781 97.4922 83.0017 98.4469 83.0017 98.555C83.0017 98.663 83.0917 98.6991 83.1998 98.6991C83.3259 98.6991 83.3439 98.645 83.434 98.537C84.3706 97.0599 85.3073 97.0599 85.7576 97.0599H86.7843C86.388 98.4109 85.9377 99.978 84.4607 103.13C84.3166 103.418 84.3166 103.454 84.3166 103.562C84.3166 103.941 84.6408 104.031 84.8029 104.031C85.3253 104.031 85.4694 103.562 85.6855 102.806C85.9737 101.887 85.9737 101.851 86.1539 101.131L87.1986 97.0599Z" fill="#BC4D4D"/>
<path d="M96.8049 96.6096H98.4621C98.8043 96.6096 98.9845 96.6096 98.9845 96.2854C98.9845 96.0873 98.8764 96.0873 98.5161 96.0873H96.931L97.5975 93.4575C97.6695 93.2053 97.6695 93.1693 97.6695 93.0432C97.6695 92.755 97.4354 92.5929 97.2012 92.5929C97.0571 92.5929 96.6428 92.6469 96.4987 93.2233L95.7963 96.0873H94.1031C93.7428 96.0873 93.5807 96.0873 93.5807 96.4295C93.5807 96.6096 93.7068 96.6096 94.049 96.6096H95.6522L94.4633 101.365C94.3192 101.995 94.2652 102.175 94.2652 102.41C94.2652 103.256 94.8596 104.031 95.8683 104.031C97.6876 104.031 98.6602 101.401 98.6602 101.275C98.6602 101.167 98.5882 101.113 98.4801 101.113C98.4441 101.113 98.372 101.113 98.336 101.185C98.318 101.203 98.3 101.221 98.1739 101.509C97.7956 102.41 96.9671 103.671 95.9223 103.671C95.382 103.671 95.3459 103.22 95.3459 102.824C95.3459 102.806 95.3459 102.464 95.4 102.248L96.8049 96.6096Z" fill="#BC4D4D"/>
<path d="M104.633 99.3656C104.633 97.9967 104.453 95.7631 103.444 93.6737C102.381 91.5122 100.904 90.3414 100.706 90.3414C100.634 90.3414 100.544 90.3774 100.544 90.4855C100.544 90.5395 100.544 90.5755 100.85 90.8817C102.651 92.701 103.66 95.673 103.66 99.3476C103.66 102.842 102.814 105.85 100.724 107.976C100.544 108.138 100.544 108.174 100.544 108.228C100.544 108.336 100.634 108.372 100.706 108.372C100.94 108.372 102.417 107.075 103.3 105.31C104.219 103.472 104.633 101.527 104.633 99.3656Z" fill="#BC4D4D"/>
<path d="M110.411 109.221H106.664V110.212H111.402V67H106.664V67.9907H110.411V109.221Z" fill="#BC4D4D"/>
<path d="M185.572 80.178C185.572 80.106 185.23 80.058 184.546 80.034C184.258 80.034 184.072 80.028 183.988 80.016C183.904 80.004 183.862 79.944 183.862 79.836C183.862 79.824 183.874 79.758 183.898 79.638C183.91 79.602 183.922 79.56 183.934 79.512C183.946 79.464 183.952 79.434 183.952 79.422C183.952 79.41 183.964 79.38 183.988 79.332C184.012 79.284 184.024 79.266 184.024 79.278C184.024 79.29 184.048 79.278 184.096 79.242C184.144 79.206 184.174 79.194 184.186 79.206C184.198 79.218 184.246 79.218 184.33 79.206C184.414 79.194 184.486 79.188 184.546 79.188C184.618 79.188 184.798 79.188 185.086 79.188C185.374 79.188 185.644 79.194 185.896 79.206C186.844 79.206 187.39 79.206 187.534 79.206C187.678 79.206 187.774 79.236 187.822 79.296C187.834 79.344 188.056 81.036 188.488 84.372L189.136 89.394L189.55 88.728C189.838 88.296 190.222 87.696 190.702 86.928C191.182 86.16 191.71 85.32 192.286 84.408C194.386 81.06 195.448 79.374 195.472 79.35C195.484 79.338 195.502 79.32 195.526 79.296C195.55 79.272 195.574 79.254 195.598 79.242L195.706 79.206H197.434C197.638 79.206 197.878 79.206 198.154 79.206C198.43 79.206 198.604 79.2 198.676 79.188C199.084 79.188 199.288 79.254 199.288 79.386C199.288 79.446 199.27 79.548 199.234 79.692C199.198 79.836 199.18 79.914 199.18 79.926C199.132 79.998 198.91 80.034 198.514 80.034C198.034 80.046 197.728 80.064 197.596 80.088C197.464 80.112 197.356 80.178 197.272 80.286C197.236 80.346 196.804 82.044 195.976 85.38C195.148 88.716 194.728 90.402 194.716 90.438C194.716 90.486 194.722 90.516 194.734 90.528C194.746 90.54 194.788 90.564 194.86 90.6C194.932 90.636 195.034 90.648 195.166 90.636C195.298 90.624 195.496 90.636 195.76 90.672H196.318C196.39 90.78 196.426 90.846 196.426 90.87C196.426 91.062 196.384 91.242 196.3 91.41C196.24 91.47 196.144 91.5 196.012 91.5C195.952 91.5 195.706 91.494 195.274 91.482C194.842 91.47 194.29 91.464 193.618 91.464C192.886 91.464 192.334 91.464 191.962 91.464C191.59 91.464 191.38 91.47 191.332 91.482C191.128 91.482 191.026 91.422 191.026 91.302C191.026 91.278 191.038 91.194 191.062 91.05C191.11 90.858 191.158 90.75 191.206 90.726C191.254 90.702 191.392 90.684 191.62 90.672C191.944 90.672 192.304 90.654 192.7 90.618C192.868 90.582 192.982 90.51 193.042 90.402C193.066 90.354 193.294 89.478 193.726 87.774C194.158 86.07 194.584 84.372 195.004 82.68C195.424 80.988 195.634 80.142 195.634 80.142L192.142 85.704C189.79 89.448 188.584 91.35 188.524 91.41C188.5 91.422 188.476 91.434 188.452 91.446C188.392 91.482 188.296 91.5 188.164 91.5C187.984 91.5 187.876 91.458 187.84 91.374C187.816 91.326 187.57 89.466 187.102 85.794L186.4 80.268L185.176 85.128C184.372 88.32 183.97 89.97 183.97 90.078C184.042 90.474 184.474 90.672 185.266 90.672H185.446C185.518 90.732 185.56 90.786 185.572 90.834C185.584 90.882 185.566 90.99 185.518 91.158C185.47 91.35 185.422 91.458 185.374 91.482C185.326 91.494 185.26 91.5 185.176 91.5C185.152 91.5 185.08 91.5 184.96 91.5C184.84 91.5 184.636 91.494 184.348 91.482C184.06 91.47 183.676 91.464 183.196 91.464C182.836 91.464 182.464 91.47 182.08 91.482C181.696 91.494 181.474 91.5 181.414 91.5C181.234 91.5 181.12 91.488 181.072 91.464C181.024 91.44 181 91.386 181 91.302C181 91.278 181.018 91.194 181.054 91.05C181.09 90.906 181.12 90.816 181.144 90.78C181.168 90.708 181.3 90.672 181.54 90.672C182.38 90.672 182.914 90.432 183.142 89.952C183.19 89.88 183.604 88.272 184.384 85.128C185.164 81.984 185.56 80.334 185.572 80.178Z" fill="#BC4D4D"/>
<path d="M200.98 87C200.98 86.172 201.04 85.386 201.16 84.642C201.28 83.898 201.418 83.256 201.574 82.716C201.73 82.176 201.952 81.648 202.24 81.132C202.528 80.616 202.756 80.214 202.924 79.926C203.092 79.638 203.344 79.326 203.68 78.99C204.016 78.654 204.214 78.45 204.274 78.378C204.334 78.306 204.484 78.18 204.724 78H204.958H205.03C205.198 78 205.282 78.054 205.282 78.162C205.282 78.198 205.18 78.324 204.976 78.54C204.772 78.756 204.526 79.074 204.238 79.494C203.95 79.914 203.656 80.43 203.356 81.042C203.056 81.654 202.804 82.482 202.6 83.526C202.396 84.57 202.294 85.728 202.294 87C202.294 88.272 202.396 89.424 202.6 90.456C202.804 91.488 203.05 92.322 203.338 92.958C203.626 93.594 203.92 94.11 204.22 94.506C204.52 94.902 204.772 95.22 204.976 95.46C205.18 95.7 205.282 95.826 205.282 95.838C205.282 95.946 205.192 96 205.012 96H204.958H204.724L204.22 95.568C203.092 94.548 202.27 93.276 201.754 91.752C201.238 90.228 200.98 88.644 200.98 87Z" fill="#BC4D4D"/>
<path d="M210.034 90.168C210.034 90.456 210.31 90.624 210.862 90.672C211.078 90.672 211.186 90.738 211.186 90.87C211.186 90.882 211.174 90.96 211.15 91.104C211.114 91.272 211.078 91.38 211.042 91.428C211.006 91.476 210.928 91.5 210.808 91.5C210.784 91.5 210.712 91.5 210.592 91.5C210.472 91.5 210.268 91.494 209.98 91.482C209.692 91.47 209.308 91.464 208.828 91.464C207.976 91.464 207.43 91.476 207.19 91.5H207.046C206.962 91.416 206.92 91.35 206.92 91.302C206.944 90.978 207.022 90.768 207.154 90.672H207.406C208.246 90.636 208.858 90.336 209.242 89.772C209.314 89.7 210.4 87.87 212.5 84.282C214.6 80.694 215.668 78.876 215.704 78.828C215.788 78.684 215.932 78.612 216.136 78.612H216.28H216.586C216.658 78.72 216.694 78.78 216.694 78.792L217.198 84.606C217.534 88.482 217.714 90.438 217.738 90.474C217.798 90.606 218.188 90.672 218.908 90.672C219.208 90.672 219.358 90.732 219.358 90.852C219.358 90.876 219.34 90.96 219.304 91.104C219.268 91.284 219.238 91.392 219.214 91.428C219.19 91.464 219.106 91.488 218.962 91.5C218.926 91.5 218.842 91.5 218.71 91.5C218.578 91.5 218.344 91.494 218.008 91.482C217.672 91.47 217.234 91.464 216.694 91.464C215.566 91.464 214.828 91.476 214.48 91.5H214.264C214.192 91.428 214.156 91.374 214.156 91.338C214.156 91.302 214.168 91.194 214.192 91.014C214.24 90.858 214.276 90.762 214.3 90.726L214.372 90.672H214.732C215.38 90.636 215.764 90.534 215.884 90.366L215.668 87.666H211.384L210.772 88.71C210.28 89.538 210.034 90.024 210.034 90.168ZM215.578 86.82C215.578 86.688 215.506 85.752 215.362 84.012C215.218 82.272 215.134 81.396 215.11 81.384L214.624 82.158C214.432 82.482 214.054 83.124 213.49 84.084L211.87 86.82L213.724 86.838C214.96 86.838 215.578 86.832 215.578 86.82Z" fill="#BC4D4D"/>
<path d="M220.258 84.57C220.174 84.486 220.132 84.426 220.132 84.39C220.132 84.342 220.15 84.246 220.186 84.102C220.222 83.958 220.252 83.874 220.276 83.85C220.3 83.79 220.354 83.76 220.438 83.76C220.522 83.76 220.828 83.754 221.356 83.742H222.31L222.652 82.302C222.688 82.17 222.73 81.996 222.778 81.78C222.826 81.564 222.868 81.408 222.904 81.312C222.94 81.216 222.976 81.096 223.012 80.952C223.048 80.808 223.096 80.706 223.156 80.646C223.216 80.586 223.276 80.514 223.336 80.43C223.396 80.346 223.48 80.292 223.588 80.268C223.696 80.244 223.804 80.232 223.912 80.232C224.128 80.244 224.278 80.31 224.362 80.43C224.446 80.55 224.488 80.664 224.488 80.772C224.488 80.856 224.434 81.138 224.326 81.618C224.218 82.098 224.098 82.572 223.966 83.04L223.786 83.706C223.786 83.73 224.086 83.742 224.686 83.742H225.604C225.688 83.826 225.73 83.892 225.73 83.94C225.73 84.204 225.652 84.414 225.496 84.57H223.57L222.922 87.18C222.454 89.1 222.22 90.132 222.22 90.276C222.22 90.78 222.382 91.032 222.706 91.032C223.126 91.032 223.534 90.828 223.93 90.42C224.326 90.012 224.644 89.508 224.884 88.908C224.908 88.836 224.938 88.794 224.974 88.782C225.01 88.77 225.1 88.758 225.244 88.746H225.316C225.496 88.746 225.586 88.794 225.586 88.89C225.586 88.926 225.568 88.998 225.532 89.106C225.472 89.298 225.364 89.526 225.208 89.79C225.052 90.054 224.848 90.336 224.596 90.636C224.344 90.936 224.038 91.188 223.678 91.392C223.318 91.596 222.952 91.698 222.58 91.698C222.22 91.698 221.878 91.608 221.554 91.428C221.23 91.248 220.996 90.936 220.852 90.492C220.828 90.396 220.816 90.234 220.816 90.006V89.682L221.446 87.162C221.866 85.47 222.082 84.618 222.094 84.606C222.094 84.582 221.788 84.57 221.176 84.57H220.258Z" fill="#BC4D4D"/>
<path d="M227.368 78.018L227.44 78C227.5 78 227.56 78 227.62 78H227.836L228.34 78.432C229.468 79.452 230.29 80.724 230.806 82.248C231.322 83.772 231.58 85.356 231.58 87C231.58 87.816 231.52 88.602 231.4 89.358C231.28 90.114 231.142 90.756 230.986 91.284C230.83 91.812 230.608 92.34 230.32 92.868C230.032 93.396 229.804 93.798 229.636 94.074C229.468 94.35 229.222 94.656 228.898 94.992C228.574 95.328 228.382 95.526 228.322 95.586C228.262 95.646 228.124 95.76 227.908 95.928C227.872 95.964 227.848 95.988 227.836 96H227.62C227.524 96 227.458 96 227.422 96C227.386 96 227.356 95.982 227.332 95.946C227.308 95.91 227.29 95.856 227.278 95.784C227.29 95.772 227.356 95.694 227.476 95.55C229.336 93.618 230.266 90.768 230.266 87C230.266 83.232 229.336 80.382 227.476 78.45C227.356 78.306 227.29 78.228 227.278 78.216C227.278 78.12 227.308 78.054 227.368 78.018Z" fill="#BC4D4D"/>
<path d="M363 19.5C368.247 19.5 372.5 15.2467 372.5 10C372.5 4.75329 368.247 0.5 363 0.5C357.753 0.5 353.5 4.75329 353.5 10C353.5 15.2467 357.753 19.5 363 19.5Z" fill="#F5F99E" stroke="#BC4D4D"/>
<path d="M363 59.5C368.247 59.5 372.5 55.2467 372.5 50C372.5 44.7533 368.247 40.5 363 40.5C357.753 40.5 353.5 44.7533 353.5 50C353.5 55.2467 357.753 59.5 363 59.5Z" fill="#F5F99E" stroke="#BC4D4D"/>
<path d="M10 39.5C15.2467 39.5 19.5 35.2467 19.5 30C19.5 24.7533 15.2467 20.5 10 20.5C4.75329 20.5 0.5 24.7533 0.5 30C0.5 35.2467 4.75329 39.5 10 39.5Z" fill="#F5F99E" stroke="#BC4D4D"/>
<path d="M141 19.5C146.247 19.5 150.5 15.2467 150.5 10C150.5 4.75329 146.247 0.5 141 0.5C135.753 0.5 131.5 4.75329 131.5 10C131.5 15.2467 135.753 19.5 141 19.5Z" fill="#F5F99E" stroke="#BC4D4D"/>
<path d="M141 59.5C146.247 59.5 150.5 55.2467 150.5 50C150.5 44.7533 146.247 40.5 141 40.5C135.753 40.5 131.5 44.7533 131.5 50C131.5 55.2467 135.753 59.5 141 59.5Z" fill="#F5F99E" stroke="#BC4D4D"/>
<path d="M75 19.5C80.2467 19.5 84.5 15.2467 84.5 10C84.5 4.75329 80.2467 0.5 75 0.5C69.7533 0.5 65.5 4.75329 65.5 10C65.5 15.2467 69.7533 19.5 75 19.5Z" fill="#F5F99E" stroke="#BC4D4D"/>
<path d="M75 59.5C80.2467 59.5 84.5 55.2467 84.5 50C84.5 44.7533 80.2467 40.5 75 40.5C69.7533 40.5 65.5 44.7533 65.5 50C65.5 55.2467 69.7533 59.5 75 59.5Z" fill="#F5F99E" stroke="#BC4D4D"/>
<path d="M271 19.5C276.247 19.5 280.5 15.2467 280.5 10C280.5 4.75329 276.247 0.5 271 0.5C265.753 0.5 261.5 4.75329 261.5 10C261.5 15.2467 265.753 19.5 271 19.5Z" fill="#F5F99E" stroke="#BC4D4D"/>
<path d="M271 59.5C276.247 59.5 280.5 55.2467 280.5 50C280.5 44.7533 276.247 40.5 271 40.5C265.753 40.5 261.5 44.7533 261.5 50C261.5 55.2467 265.753 59.5 271 59.5Z" fill="#F5F99E" stroke="#BC4D4D"/>
<path d="M206 19.5C211.247 19.5 215.5 15.2467 215.5 10C215.5 4.75329 211.247 0.5 206 0.5C200.753 0.5 196.5 4.75329 196.5 10C196.5 15.2467 200.753 19.5 206 19.5Z" fill="#F5F99E" stroke="#BC4D4D"/>
<path d="M206 59.5C211.247 59.5 215.5 55.2467 215.5 50C215.5 44.7533 211.247 40.5 206 40.5C200.753 40.5 196.5 44.7533 196.5 50C196.5 55.2467 200.753 59.5 206 59.5Z" fill="#F5F99E" stroke="#BC4D4D"/>
<path d="M309.747 49.8826C309.747 49.3602 309.315 49 308.883 49C308.36 49 308 49.4323 308 49.8646C308 50.3869 308.432 50.7472 308.865 50.7472C309.387 50.7472 309.747 50.3149 309.747 49.8826Z" fill="#BC4D4D"/>
<path d="M317.648 49.8826C317.648 49.3602 317.216 49 316.784 49C316.261 49 315.901 49.4323 315.901 49.8646C315.901 50.3869 316.334 50.7472 316.766 50.7472C317.288 50.7472 317.648 50.3149 317.648 49.8826Z" fill="#BC4D4D"/>
<path d="M325.55 49.8826C325.55 49.3602 325.117 49 324.685 49C324.163 49 323.802 49.4323 323.802 49.8646C323.802 50.3869 324.235 50.7472 324.667 50.7472C325.189 50.7472 325.55 50.3149 325.55 49.8826Z" fill="#BC4D4D"/>
<path d="M303.354 50.3536C303.549 50.1583 303.549 49.8417 303.354 49.6464L300.172 46.4645C299.976 46.2692 299.66 46.2692 299.464 46.4645C299.269 46.6597 299.269 46.9763 299.464 47.1716L302.293 50L299.464 52.8284C299.269 53.0237 299.269 53.3403 299.464 53.5355C299.66 53.7308 299.976 53.7308 300.172 53.5355L303.354 50.3536ZM283 50.5H303V49.5H283V50.5Z" fill="#BC4D4D"/>
<path d="M350.354 50.3536C350.549 50.1583 350.549 49.8417 350.354 49.6464L347.172 46.4645C346.976 46.2692 346.66 46.2692 346.464 46.4645C346.269 46.6597 346.269 46.9763 346.464 47.1716L349.293 50L346.464 52.8284C346.269 53.0237 346.269 53.3403 346.464 53.5355C346.66 53.7308 346.976 53.7308 347.172 53.5355L350.354 50.3536ZM330 50.5H350V49.5H330V50.5Z" fill="#BC4D4D"/>
<path d="M309.747 9.88259C309.747 9.36023 309.315 8.99998 308.883 8.99998C308.36 8.99998 308 9.43228 308 9.86458C308 10.3869 308.432 10.7472 308.865 10.7472C309.387 10.7472 309.747 10.3149 309.747 9.88259Z" fill="#BC4D4D"/>
<path d="M317.648 9.88259C317.648 9.36023 317.216 8.99998 316.784 8.99998C316.261 8.99998 315.901 9.43228 315.901 9.86458C315.901 10.3869 316.334 10.7472 316.766 10.7472C317.288 10.7472 317.648 10.3149 317.648 9.88259Z" fill="#BC4D4D"/>
<path d="M325.55 9.88259C325.55 9.36023 325.117 8.99998 324.685 8.99998C324.163 8.99998 323.802 9.43228 323.802 9.86458C323.802 10.3869 324.235 10.7472 324.667 10.7472C325.189 10.7472 325.55 10.3149 325.55 9.88259Z" fill="#BC4D4D"/>
<path d="M303.354 10.3536C303.549 10.1583 303.549 9.84171 303.354 9.64645L300.172 6.46447C299.976 6.2692 299.66 6.2692 299.464 6.46447C299.269 6.65973 299.269 6.97631 299.464 7.17157L302.293 10L299.464 12.8284C299.269 13.0237 299.269 13.3403 299.464 13.5355C299.66 13.7308 299.976 13.7308 300.172 13.5355L303.354 10.3536ZM283 10.5H303V9.5H283V10.5Z" fill="#BC4D4D"/>
<path d="M350.354 10.3536C350.549 10.1583 350.549 9.84171 350.354 9.64645L347.172 6.46447C346.976 6.2692 346.66 6.2692 346.464 6.46447C346.269 6.65973 346.269 6.97631 346.464 7.17157L349.293 10L346.464 12.8284C346.269 13.0237 346.269 13.3403 346.464 13.5355C346.66 13.7308 346.976 13.7308 347.172 13.5355L350.354 10.3536ZM330 10.5H350V9.5H330V10.5Z" fill="#BC4D4D"/>
<path d="M61.4436 14.2306C61.571 13.9856 61.4757 13.6837 61.2307 13.5563L57.2382 11.4802C56.9932 11.3528 56.6913 11.4482 56.5639 11.6932C56.4365 11.9382 56.5319 12.24 56.7769 12.3674L60.3257 14.2129L58.4803 17.7617C58.3529 18.0067 58.4483 18.3086 58.6933 18.436C58.9383 18.5634 59.2401 18.4681 59.3675 18.2231L61.4436 14.2306ZM23.1506 26.4767L61.1506 14.4767L60.8495 13.5231L22.8494 25.5231L23.1506 26.4767Z" fill="#BC4D4D"/>
<path d="M61.4436 47.7692C61.571 48.0142 61.4757 48.316 61.2307 48.4434L57.2382 50.5195C56.9932 50.6469 56.6913 50.5516 56.5639 50.3066C56.4365 50.0616 56.5319 49.7597 56.7769 49.6323L60.3257 47.7869L58.4803 44.238C58.3529 43.993 58.4483 43.6911 58.6933 43.5637C58.9383 43.4363 59.2401 43.5317 59.3675 43.7767L61.4436 47.7692ZM23.1506 35.5231L61.1506 47.523L60.8495 48.4766L22.8494 36.4766L23.1506 35.5231Z" fill="#BC4D4D"/>
<path d="M258.278 10.3535C258.474 10.1582 258.474 9.84161 258.278 9.64635L255.096 6.46437C254.901 6.26911 254.585 6.26911 254.389 6.46437C254.194 6.65963 254.194 6.97621 254.389 7.17148L257.218 9.9999L254.389 12.8283C254.194 13.0236 254.194 13.3402 254.389 13.5354C254.585 13.7307 254.901 13.7307 255.096 13.5354L258.278 10.3535ZM218.075 10.4999H257.925V9.4999H218.075V10.4999Z" fill="#BC4D4D"/>
<path d="M258.278 50.3535C258.474 50.1582 258.474 49.8416 258.278 49.6463L255.096 46.4644C254.901 46.2691 254.585 46.2691 254.389 46.4644C254.194 46.6596 254.194 46.9762 254.389 47.1715L257.218 49.9999L254.389 52.8283C254.194 53.0236 254.194 53.3402 254.389 53.5354C254.585 53.7307 254.901 53.7307 255.096 53.5354L258.278 50.3535ZM218.075 50.4999H257.925V49.4999H218.075V50.4999Z" fill="#BC4D4D"/>
<path d="M259.488 17.1091C259.548 16.8397 259.379 16.5723 259.109 16.512L254.718 15.5289C254.448 15.4685 254.181 15.6381 254.121 15.9075C254.06 16.177 254.23 16.4444 254.499 16.5047L258.403 17.3786L257.529 21.282C257.469 21.5514 257.638 21.8188 257.908 21.8791C258.177 21.9395 258.444 21.7699 258.505 21.5004L259.488 17.1091ZM218.268 43.4222L259.268 17.4222L258.732 16.5777L217.732 42.5777L218.268 43.4222Z" fill="#BC4D4D"/>
<path d="M259.488 42.8906C259.548 43.1601 259.379 43.4274 259.109 43.4878L254.718 44.4709C254.448 44.5312 254.181 44.3617 254.121 44.0922C254.06 43.8227 254.23 43.5554 254.499 43.4951L258.403 42.6212L257.529 38.7178C257.469 38.4483 257.638 38.181 257.908 38.1206C258.177 38.0603 258.444 38.2298 258.505 38.4993L259.488 42.8906ZM218.268 16.5776L259.268 42.5776L258.732 43.4221L217.732 17.4221L218.268 16.5776Z" fill="#BC4D4D"/>
<path d="M127.278 10.3535C127.474 10.1582 127.474 9.84161 127.278 9.64635L124.096 6.46437C123.901 6.26911 123.585 6.26911 123.389 6.46437C123.194 6.65963 123.194 6.97621 123.389 7.17148L126.218 9.9999L123.389 12.8283C123.194 13.0236 123.194 13.3402 123.389 13.5354C123.585 13.7307 123.901 13.7307 124.096 13.5354L127.278 10.3535ZM87.0751 10.4999H126.925V9.4999H87.0751V10.4999Z" fill="#BC4D4D"/>
<path d="M127.278 50.3535C127.474 50.1582 127.474 49.8416 127.278 49.6463L124.096 46.4644C123.901 46.2691 123.585 46.2691 123.389 46.4644C123.194 46.6596 123.194 46.9762 123.389 47.1715L126.218 49.9999L123.389 52.8283C123.194 53.0236 123.194 53.3402 123.389 53.5354C123.585 53.7307 123.901 53.7307 124.096 53.5354L127.278 50.3535ZM87.0751 50.4999H126.925V49.4999H87.0751V50.4999Z" fill="#BC4D4D"/>
<path d="M128.488 17.1091C128.548 16.8397 128.379 16.5723 128.109 16.512L123.718 15.5289C123.448 15.4685 123.181 15.6381 123.121 15.9075C123.06 16.177 123.23 16.4444 123.499 16.5047L127.403 17.3786L126.529 21.282C126.469 21.5514 126.638 21.8188 126.908 21.8791C127.177 21.9395 127.444 21.7699 127.505 21.5004L128.488 17.1091ZM87.2678 43.4222L128.268 17.4222L127.732 16.5777L86.7322 42.5777L87.2678 43.4222Z" fill="#BC4D4D"/>
<path d="M128.488 42.8906C128.548 43.1601 128.379 43.4274 128.109 43.4878L123.718 44.4709C123.448 44.5312 123.181 44.3617 123.121 44.0922C123.06 43.8227 123.23 43.5554 123.499 43.4951L127.403 42.6212L126.529 38.7178C126.469 38.4483 126.638 38.181 126.908 38.1206C127.177 38.0603 127.444 38.2298 127.505 38.4993L128.488 42.8906ZM87.2678 16.5776L128.268 42.5776L127.732 43.4221L86.7322 17.4221L87.2678 16.5776Z" fill="#BC4D4D"/>
<rect x="0.5" y="-0.5" width="22" height="14" rx="3.5" transform="matrix(1 0 0 -1 162 16)" fill="#F5F99E"/>
<rect x="0.5" y="-0.5" width="22" height="14" rx="3.5" transform="matrix(1 0 0 -1 162 16)" stroke="#BC4D4D"/>
<path d="M169.762 5.78716C169.762 5.74614 169.567 5.71878 169.177 5.70511C169.013 5.70511 168.907 5.70169 168.859 5.69485C168.812 5.68802 168.788 5.65383 168.788 5.59229C168.788 5.58545 168.795 5.54784 168.808 5.47947C168.815 5.45895 168.822 5.43502 168.829 5.40767C168.836 5.38032 168.839 5.36322 168.839 5.35639C168.839 5.34955 168.846 5.33246 168.859 5.3051C168.873 5.27775 168.88 5.2675 168.88 5.27433C168.88 5.28117 168.894 5.27433 168.921 5.25382C168.948 5.23331 168.965 5.22647 168.972 5.23331C168.979 5.24015 169.006 5.24015 169.054 5.23331C169.102 5.22647 169.143 5.22305 169.177 5.22305C169.218 5.22305 169.321 5.22305 169.485 5.22305C169.649 5.22305 169.803 5.22647 169.947 5.23331C170.487 5.23331 170.798 5.23331 170.88 5.23331C170.962 5.23331 171.017 5.2504 171.044 5.28459C171.051 5.31194 171.177 6.27606 171.424 8.17694L171.793 11.0385L172.029 10.659C172.193 10.4129 172.412 10.071 172.685 9.63336C172.959 9.19575 173.26 8.71711 173.588 8.19745C174.784 6.28973 175.389 5.32904 175.403 5.31536C175.41 5.30852 175.42 5.29827 175.434 5.28459C175.448 5.27092 175.461 5.26066 175.475 5.25382L175.536 5.23331H176.521C176.637 5.23331 176.774 5.23331 176.931 5.23331C177.089 5.23331 177.188 5.22989 177.229 5.22305C177.461 5.22305 177.578 5.26066 177.578 5.33587C177.578 5.37006 177.567 5.42818 177.547 5.51024C177.526 5.59229 177.516 5.63673 177.516 5.64357C177.489 5.6846 177.362 5.70511 177.137 5.70511C176.863 5.71195 176.689 5.7222 176.613 5.73588C176.538 5.74955 176.477 5.78716 176.429 5.8487C176.408 5.88289 176.162 6.85042 175.69 8.7513C175.219 10.6522 174.979 11.6129 174.972 11.6334C174.972 11.6607 174.976 11.6778 174.983 11.6847C174.989 11.6915 175.013 11.7052 175.054 11.7257C175.095 11.7462 175.154 11.753 175.229 11.7462C175.304 11.7394 175.417 11.7462 175.567 11.7667H175.885C175.926 11.8283 175.947 11.8659 175.947 11.8795C175.947 11.9889 175.923 12.0915 175.875 12.1872C175.841 12.2214 175.786 12.2385 175.711 12.2385C175.677 12.2385 175.536 12.2351 175.29 12.2283C175.044 12.2214 174.73 12.218 174.347 12.218C173.93 12.218 173.615 12.218 173.403 12.218C173.191 12.218 173.071 12.2214 173.044 12.2283C172.928 12.2283 172.87 12.1941 172.87 12.1257C172.87 12.112 172.877 12.0642 172.89 11.9821C172.918 11.8727 172.945 11.8112 172.972 11.7975C173 11.7838 173.078 11.7736 173.208 11.7667C173.393 11.7667 173.598 11.7565 173.824 11.736C173.919 11.7154 173.984 11.6744 174.019 11.6129C174.032 11.5855 174.162 11.0864 174.408 10.1154C174.654 9.14447 174.897 8.17694 175.136 7.21282C175.376 6.24871 175.495 5.76665 175.495 5.76665L173.506 8.93592C172.166 11.0693 171.478 12.1531 171.444 12.1872C171.43 12.1941 171.417 12.2009 171.403 12.2078C171.369 12.2283 171.314 12.2385 171.239 12.2385C171.136 12.2385 171.075 12.2146 171.054 12.1667C171.041 12.1394 170.901 11.0795 170.634 8.9872L170.234 5.83844L169.536 8.60771C169.078 10.4265 168.849 11.3667 168.849 11.4283C168.89 11.6539 169.136 11.7667 169.588 11.7667H169.69C169.731 11.8009 169.755 11.8317 169.762 11.859C169.769 11.8864 169.759 11.9479 169.731 12.0437C169.704 12.1531 169.677 12.2146 169.649 12.2283C169.622 12.2351 169.584 12.2385 169.536 12.2385C169.523 12.2385 169.482 12.2385 169.413 12.2385C169.345 12.2385 169.229 12.2351 169.065 12.2283C168.901 12.2214 168.682 12.218 168.408 12.218C168.203 12.218 167.991 12.2214 167.772 12.2283C167.553 12.2351 167.427 12.2385 167.393 12.2385C167.29 12.2385 167.225 12.2317 167.198 12.218C167.171 12.2043 167.157 12.1736 167.157 12.1257C167.157 12.112 167.167 12.0642 167.188 11.9821C167.208 11.9001 167.225 11.8488 167.239 11.8283C167.253 11.7872 167.328 11.7667 167.465 11.7667C167.943 11.7667 168.248 11.63 168.377 11.3565C168.405 11.3154 168.641 10.3992 169.085 8.60771C169.53 6.81623 169.755 5.87605 169.762 5.78716Z" fill="#BC4D4D"/>
<path d="M178.291 9.58568L178.197 9.62194C178.129 9.64611 178.033 9.67028 177.907 9.69445C177.781 9.71863 177.641 9.73555 177.486 9.74521H177.349V9.41165H177.486C177.714 9.40198 177.924 9.36573 178.117 9.30288C178.311 9.24003 178.446 9.18202 178.523 9.12885C178.601 9.07567 178.668 9.02249 178.726 8.96932C178.736 8.95481 178.765 8.94756 178.813 8.94756C178.857 8.94756 178.898 8.96207 178.937 8.99107V11.1592L178.944 13.3346C178.978 13.3685 179.007 13.3902 179.031 13.3999C179.055 13.4096 179.113 13.4192 179.205 13.4289C179.297 13.4386 179.447 13.4434 179.655 13.4434H179.843V13.777H179.763C179.662 13.7625 179.277 13.7552 178.61 13.7552C177.953 13.7552 177.573 13.7625 177.472 13.777H177.385V13.4434H177.573C177.68 13.4434 177.772 13.4434 177.849 13.4434C177.926 13.4434 177.987 13.441 178.03 13.4362C178.074 13.4313 178.112 13.4241 178.146 13.4144C178.18 13.4047 178.199 13.3999 178.204 13.3999C178.209 13.3999 178.224 13.3878 178.248 13.3636C178.272 13.3395 178.286 13.3298 178.291 13.3346V9.58568Z" fill="#BC4D4D"/>
<path d="M194.354 10.3536C194.549 10.1583 194.549 9.84171 194.354 9.64645L191.172 6.46447C190.976 6.2692 190.66 6.2692 190.464 6.46447C190.269 6.65973 190.269 6.97631 190.464 7.17157L193.293 10L190.464 12.8284C190.269 13.0237 190.269 13.3403 190.464 13.5355C190.66 13.7308 190.976 13.7308 191.172 13.5355L194.354 10.3536ZM186 10.5H194V9.5H186V10.5Z" fill="#BC4D4D"/>
<path d="M160.354 10.3536C160.549 10.1583 160.549 9.84171 160.354 9.64645L157.172 6.46447C156.976 6.2692 156.66 6.2692 156.464 6.46447C156.269 6.65973 156.269 6.97631 156.464 7.17157L159.293 10L156.464 12.8284C156.269 13.0237 156.269 13.3403 156.464 13.5355C156.66 13.7308 156.976 13.7308 157.172 13.5355L160.354 10.3536ZM152 10.5H160V9.5H152V10.5Z" fill="#BC4D4D"/>
<rect x="0.5" y="-0.5" width="22" height="14" rx="3.5" transform="matrix(1 0 0 -1 162 56)" fill="#F5F99E"/>
<rect x="0.5" y="-0.5" width="22" height="14" rx="3.5" transform="matrix(1 0 0 -1 162 56)" stroke="#BC4D4D"/>
<path d="M169.762 45.7872C169.762 45.7461 169.567 45.7188 169.177 45.7051C169.013 45.7051 168.907 45.7017 168.859 45.6949C168.812 45.688 168.788 45.6538 168.788 45.5923C168.788 45.5854 168.795 45.5478 168.808 45.4795C168.815 45.459 168.822 45.435 168.829 45.4077C168.836 45.3803 168.839 45.3632 168.839 45.3564C168.839 45.3495 168.846 45.3325 168.859 45.3051C168.873 45.2778 168.88 45.2675 168.88 45.2743C168.88 45.2812 168.894 45.2743 168.921 45.2538C168.948 45.2333 168.965 45.2265 168.972 45.2333C168.979 45.2401 169.006 45.2401 169.054 45.2333C169.102 45.2265 169.143 45.2231 169.177 45.2231C169.218 45.2231 169.321 45.2231 169.485 45.2231C169.649 45.2231 169.803 45.2265 169.947 45.2333C170.487 45.2333 170.798 45.2333 170.88 45.2333C170.962 45.2333 171.017 45.2504 171.044 45.2846C171.051 45.3119 171.177 46.2761 171.424 48.1769L171.793 51.0385L172.029 50.659C172.193 50.4129 172.412 50.071 172.685 49.6334C172.959 49.1958 173.26 48.7171 173.588 48.1974C174.784 46.2897 175.389 45.329 175.403 45.3154C175.41 45.3085 175.42 45.2983 175.434 45.2846C175.448 45.2709 175.461 45.2607 175.475 45.2538L175.536 45.2333H176.521C176.637 45.2333 176.774 45.2333 176.931 45.2333C177.089 45.2333 177.188 45.2299 177.229 45.2231C177.461 45.2231 177.578 45.2607 177.578 45.3359C177.578 45.3701 177.567 45.4282 177.547 45.5102C177.526 45.5923 177.516 45.6367 177.516 45.6436C177.489 45.6846 177.362 45.7051 177.137 45.7051C176.863 45.7119 176.689 45.7222 176.613 45.7359C176.538 45.7496 176.477 45.7872 176.429 45.8487C176.408 45.8829 176.162 46.8504 175.69 48.7513C175.219 50.6522 174.979 51.6129 174.972 51.6334C174.972 51.6607 174.976 51.6778 174.983 51.6847C174.989 51.6915 175.013 51.7052 175.054 51.7257C175.095 51.7462 175.154 51.753 175.229 51.7462C175.304 51.7394 175.417 51.7462 175.567 51.7667H175.885C175.926 51.8283 175.947 51.8659 175.947 51.8795C175.947 51.9889 175.923 52.0915 175.875 52.1872C175.841 52.2214 175.786 52.2385 175.711 52.2385C175.677 52.2385 175.536 52.2351 175.29 52.2283C175.044 52.2214 174.73 52.218 174.347 52.218C173.93 52.218 173.615 52.218 173.403 52.218C173.191 52.218 173.071 52.2214 173.044 52.2283C172.928 52.2283 172.87 52.1941 172.87 52.1257C172.87 52.112 172.877 52.0642 172.89 51.9821C172.918 51.8727 172.945 51.8112 172.972 51.7975C173 51.7838 173.078 51.7736 173.208 51.7667C173.393 51.7667 173.598 51.7565 173.824 51.736C173.919 51.7154 173.984 51.6744 174.019 51.6129C174.032 51.5855 174.162 51.0864 174.408 50.1154C174.654 49.1445 174.897 48.1769 175.136 47.2128C175.376 46.2487 175.495 45.7666 175.495 45.7666L173.506 48.9359C172.166 51.0693 171.478 52.1531 171.444 52.1872C171.43 52.1941 171.417 52.2009 171.403 52.2078C171.369 52.2283 171.314 52.2385 171.239 52.2385C171.136 52.2385 171.075 52.2146 171.054 52.1667C171.041 52.1394 170.901 51.0795 170.634 48.9872L170.234 45.8384L169.536 48.6077C169.078 50.4265 168.849 51.3667 168.849 51.4283C168.89 51.6539 169.136 51.7667 169.588 51.7667H169.69C169.731 51.8009 169.755 51.8317 169.762 51.859C169.769 51.8864 169.759 51.9479 169.731 52.0437C169.704 52.1531 169.677 52.2146 169.649 52.2283C169.622 52.2351 169.584 52.2385 169.536 52.2385C169.523 52.2385 169.482 52.2385 169.413 52.2385C169.345 52.2385 169.229 52.2351 169.065 52.2283C168.901 52.2214 168.682 52.218 168.408 52.218C168.203 52.218 167.991 52.2214 167.772 52.2283C167.553 52.2351 167.427 52.2385 167.393 52.2385C167.29 52.2385 167.225 52.2317 167.198 52.218C167.171 52.2043 167.157 52.1736 167.157 52.1257C167.157 52.112 167.167 52.0642 167.188 51.9821C167.208 51.9001 167.225 51.8488 167.239 51.8283C167.253 51.7872 167.328 51.7667 167.465 51.7667C167.943 51.7667 168.248 51.63 168.377 51.3565C168.405 51.3154 168.641 50.3992 169.085 48.6077C169.53 46.8162 169.755 45.8761 169.762 45.7872Z" fill="#BC4D4D"/>
<path d="M178.291 49.5857L178.197 49.6219C178.129 49.6461 178.033 49.6703 177.907 49.6945C177.781 49.7186 177.641 49.7355 177.486 49.7452H177.349V49.4117H177.486C177.714 49.402 177.924 49.3657 178.117 49.3029C178.311 49.24 178.446 49.182 178.523 49.1288C178.601 49.0757 178.668 49.0225 178.726 48.9693C178.736 48.9548 178.765 48.9476 178.813 48.9476C178.857 48.9476 178.898 48.9621 178.937 48.9911V51.1592L178.944 53.3346C178.978 53.3685 179.007 53.3902 179.031 53.3999C179.055 53.4096 179.113 53.4192 179.205 53.4289C179.297 53.4386 179.447 53.4434 179.655 53.4434H179.843V53.777H179.763C179.662 53.7625 179.277 53.7552 178.61 53.7552C177.953 53.7552 177.573 53.7625 177.472 53.777H177.385V53.4434H177.573C177.68 53.4434 177.772 53.4434 177.849 53.4434C177.926 53.4434 177.987 53.441 178.03 53.4362C178.074 53.4313 178.112 53.4241 178.146 53.4144C178.18 53.4047 178.199 53.3999 178.204 53.3999C178.209 53.3999 178.224 53.3878 178.248 53.3636C178.272 53.3395 178.286 53.3298 178.291 53.3346V49.5857Z" fill="#BC4D4D"/>
<path d="M194.354 50.3536C194.549 50.1583 194.549 49.8417 194.354 49.6464L191.172 46.4645C190.976 46.2692 190.66 46.2692 190.464 46.4645C190.269 46.6597 190.269 46.9763 190.464 47.1716L193.293 50L190.464 52.8284C190.269 53.0237 190.269 53.3403 190.464 53.5355C190.66 53.7308 190.976 53.7308 191.172 53.5355L194.354 50.3536ZM186 50.5H194V49.5H186V50.5Z" fill="#BC4D4D"/>
<path d="M160.354 50.3536C160.549 50.1583 160.549 49.8417 160.354 49.6464L157.172 46.4645C156.976 46.2692 156.66 46.2692 156.464 46.4645C156.269 46.6597 156.269 46.9763 156.464 47.1716L159.293 50L156.464 52.8284C156.269 53.0237 156.269 53.3403 156.464 53.5355C156.66 53.7308 156.976 53.7308 157.172 53.5355L160.354 50.3536ZM152 50.5H160V49.5H152V50.5Z" fill="#BC4D4D"/>
</svg>
