<svg width="189" height="189" viewBox="0 0 189 189" fill="none" xmlns="http://www.w3.org/2000/svg">
<path d="M34.9859 45.7182L33.545 55.8046C32.2895 64.5936 33.078 73.5536 35.8494 81.9882L45.4103 111.087C46.7412 115.137 49.3927 118.624 52.9403 120.989L60.05 125.729C65.2399 129.189 67.0413 135.972 64.2518 141.551C61.552 146.951 55.3487 149.612 49.5753 147.848L40.7566 145.154C36.7603 143.932 32.4234 145.273 29.813 148.536C25.7571 153.606 27.4085 161.125 33.2157 164.028L48.5368 171.689C52.6752 173.758 57.3227 174.589 61.9218 174.083L107.645 169.049C122.378 167.427 136.266 161.355 147.462 151.642C165.861 135.677 175.076 111.581 172.023 87.4125L169.969 71.1533C169.108 64.3346 166.566 57.8368 162.571 52.2442C157.733 45.4713 150.97 40.3107 143.16 37.4333L97.4691 20.5999C92.0398 18.5997 86.3528 17.3844 80.5801 16.9908L71.2655 16.3557C63.4731 15.8244 55.7328 17.9691 49.3252 22.4351C41.5239 27.8723 36.3307 36.3047 34.9859 45.7182Z" fill="#F5F99E" stroke="#BC4D4D" stroke-width="3"/>
<path d="M93.8 189L97.8414 182H89.7587L93.8 189ZM93.8 -6.66863e-05L89.7587 6.99974H97.8414L93.8 -6.66863e-05ZM94.5 182.7V6.29976H93.1001V182.7H94.5Z" fill="#BC4D4D"/>
<path d="M0 93.8001L6.99981 97.8415V89.7588L0 93.8001ZM189 93.8001L182 89.7588V97.8415L189 93.8001ZM6.29983 94.5001H182.7V93.1001H6.29983V94.5001Z" fill="#BC4D4D"/>
<path d="M10.3167 183.872L18.0341 181.47L12.0949 175.988L10.3167 183.872ZM93.8 92.4L92.8455 93.4341L93.8742 94.3836L94.8287 93.3496L93.8 92.4ZM90.9364 95.5022L89.0274 97.5703L90.0561 98.5199L91.9651 96.4518L90.9364 95.5022ZM87.1184 99.6384L85.2093 101.707L86.238 102.656L88.1471 100.588L87.1184 99.6384ZM83.3003 103.775L81.3912 105.843L82.4199 106.792L84.329 104.724L83.3003 103.775ZM79.4822 107.911L77.5732 109.979L78.6019 110.929L80.5109 108.861L79.4822 107.911ZM75.6641 112.047L73.7551 114.115L74.7838 115.065L76.6928 112.997L75.6641 112.047ZM71.8461 116.183L69.937 118.252L70.9657 119.201L72.8748 117.133L71.8461 116.183ZM68.028 120.32L66.1189 122.388L67.1476 123.337L69.0567 121.269L68.028 120.32ZM64.2099 124.456L62.3009 126.524L63.3296 127.474L65.2386 125.405L64.2099 124.456ZM60.3918 128.592L58.4828 130.66L59.5115 131.61L61.4205 129.542L60.3918 128.592ZM56.5737 132.728L54.6647 134.797L55.6934 135.746L57.6024 133.678L56.5737 132.728ZM52.7557 136.865L50.8466 138.933L51.8753 139.882L53.7844 137.814L52.7557 136.865ZM48.9376 141.001L47.0286 143.069L48.0572 144.019L49.9663 141.95L48.9376 141.001ZM45.1195 145.137L43.2105 147.205L44.2392 148.155L46.1482 146.087L45.1195 145.137ZM41.3014 149.273L39.3924 151.342L40.4211 152.291L42.3301 150.223L41.3014 149.273ZM37.4834 153.41L35.5743 155.478L36.603 156.427L38.5121 154.359L37.4834 153.41ZM33.6653 157.546L31.7562 159.614L32.7849 160.564L34.694 158.495L33.6653 157.546ZM29.8472 161.682L27.9382 163.75L28.9669 164.7L30.8759 162.632L29.8472 161.682ZM26.0291 165.818L24.1201 167.887L25.1488 168.836L27.0578 166.768L26.0291 165.818ZM22.2111 169.955L20.302 172.023L21.3307 172.972L23.2398 170.904L22.2111 169.955ZM18.393 174.091L16.484 176.159L17.5127 177.109L19.4217 175.04L18.393 174.091ZM14.5749 178.227L12.6659 180.295L13.6946 181.245L15.6036 179.177L14.5749 178.227Z" fill="#DE8484"/>
</svg>
