<svg width="84" height="83" viewBox="0 0 84 83" fill="none" xmlns="http://www.w3.org/2000/svg">
<path d="M14.9439 81.6291C14.8168 81.6291 14.7018 81.6245 14.5928 81.6176C14.0416 81.5826 13.4966 81.1179 13.3767 80.5788C13.2978 80.224 13.2606 79.8895 13.4101 79.7699C13.6492 79.5786 13.598 78.9688 13.8749 78.7473C14.0431 78.6127 14.0984 78.3764 14.2932 78.2619C14.4374 78.177 14.7488 77.9918 14.8509 77.8642C14.9014 77.8011 15.3147 77.5506 15.4087 77.5388C15.6275 77.5115 15.702 77.267 15.827 77.167C16.1431 76.9141 16.5746 76.9036 16.9167 76.6299C17.2292 76.3799 17.7927 76.2637 18.0838 76.0308C18.6751 75.5578 19.7679 75.603 20.1703 74.843C20.3751 74.4562 20.7855 74.2359 20.8881 73.774C20.9761 73.3779 21.1722 73.0041 21.1722 72.5655C21.1722 71.5942 21.0164 70.8628 20.5679 70.0556C20.2986 69.5708 19.2403 68.9459 18.7139 68.7955C17.886 68.559 17.0401 68.1048 16.204 67.8659C15.4966 67.6638 14.5661 67.1055 13.9936 66.5903C13.7623 66.3821 13.5523 66.4679 13.3171 66.3373C13.1143 66.2246 12.9263 66.098 12.7129 65.9912C12.3817 65.8256 11.9347 65.5539 11.6697 65.2889C11.0579 64.6771 10.0285 64.229 9.59873 63.4555C9.47243 63.2282 9.06203 62.738 8.85506 62.5724C8.577 62.35 8.39977 61.9035 8.10622 61.7358C7.78383 61.5516 7.42465 60.9522 7.24893 60.6203C7.08289 60.3066 6.76816 60.1047 6.59821 59.7836C6.42529 59.457 6.15449 59.0576 5.90618 58.7817C5.75329 58.6119 5.39607 58.0608 5.36908 57.8315C5.32356 57.4445 4.96815 56.978 4.79067 56.623C4.63276 56.3072 4.20306 55.94 4.16061 55.6005C4.11642 55.247 3.71829 54.96 3.69582 54.5779C3.67424 54.211 3.4595 53.7634 3.34464 53.3901C3.07991 52.5297 3.23102 51.4415 3.23102 50.5342C3.23102 49.5697 3.31411 48.6497 3.51506 47.7454C3.71568 46.8427 4.43949 46.0592 4.43949 45.0961C4.43949 44.7179 4.81133 44.3872 4.81133 43.9806V42.5862C4.81133 40.888 3.18711 39.8857 2.44087 38.5425C2.24449 38.189 2.03144 37.8556 1.83663 37.5147C1.66374 37.2122 1.37493 36.8103 1.28404 36.4922C1.17024 36.0939 1 35.7189 1 35.2889C1 34.8106 1.09296 34.3526 1.09296 33.8945C1.09296 33.4739 1.32678 33.1155 1.37184 32.7325C1.41279 32.3844 1.4177 31.7688 1.63006 31.5034C1.89667 31.1701 1.86985 30.6129 2.18781 30.2949C2.46301 30.0197 2.58031 29.5929 2.58031 29.2C2.58031 28.2587 2.44708 27.4001 2.39439 26.5042C2.34455 25.657 2.39439 24.7542 2.39439 23.9014C2.39439 22.5374 3.03174 20.2599 4.5841 19.8163C4.93558 19.7159 5.23538 19.3514 5.59632 19.2482C5.91766 19.1564 6.41661 19.002 6.71699 18.8351C7.42742 18.4404 8.23588 18.083 8.95318 17.6731C9.95255 17.102 9.41574 16.0031 9.36633 15.1632C9.34464 14.7944 9.08745 14.4607 9.08745 14.0477C9.08745 13.5856 9.06033 13.1145 9.08745 12.6533C9.11199 12.2361 9.27337 11.7587 9.27337 11.3054V9.91101C9.27337 9.67131 9.1394 8.70746 9.31985 8.5631C9.45718 8.45324 9.59399 7.69656 9.65037 7.49923C9.84123 6.83124 10.3 6.00303 10.9466 5.6607C11.7081 5.25758 12.284 4.75177 13.1777 4.75177C13.6188 4.75177 14.0892 4.6921 14.4791 4.86539C14.7651 4.99249 15.2099 5.2752 15.5016 5.30953C16.0532 5.37441 17.114 6.65092 17.1749 7.16871C17.2829 8.08671 17.1749 9.03485 17.1749 10.004C17.1749 10.412 16.989 10.8767 16.989 11.3054C16.989 11.5005 16.9047 11.7275 16.8237 11.9096C16.7315 12.1171 16.8592 12.3871 16.7979 12.6017C16.7326 12.8304 16.5452 13.7021 16.7308 13.9341C16.8558 14.0904 16.8031 14.3561 16.8031 14.559C16.8031 14.7454 16.9774 14.8741 16.989 15.0702C17.0088 15.4064 17.3411 15.7566 17.3608 16.0928C17.3924 16.6301 17.5651 16.7954 17.9392 17.0947C18.1518 17.2648 19.0693 17.0713 19.22 16.8829C19.4615 16.5811 19.7797 16.3493 20.0153 16.0463C20.3265 15.6463 20.7727 15.3767 21.1257 15.0238C21.3454 14.804 21.7327 14.2748 21.9675 14.1407C22.3771 13.9066 22.6454 13.4032 23.0778 13.2111C23.3593 13.0859 23.9529 12.8492 24.1469 12.6068C24.6031 12.0365 25.2172 11.6111 25.7736 11.166C28.3792 9.08148 30.997 7.1653 33.6752 5.08229L33.7045 5.05945C34.3517 4.55607 35.1315 3.94946 35.8597 3.56396C36.5221 3.21329 37.1314 2.67443 37.8119 2.31417C38.5653 1.91532 39.3047 1.53784 40.0429 1.14702C40.68 0.809739 41.9196 1.10319 42.4392 1.51885C43.0067 1.97286 43.5193 2.43873 44.0866 2.89258C44.409 3.15047 44.4582 3.78482 44.7373 4.0081C44.962 4.18788 45.2717 4.8095 45.3467 5.07196C45.5772 5.8787 45.5275 6.78219 45.5275 7.67999C45.5275 8.63308 45.3617 9.37894 45.1677 10.252L45.1608 10.2828C45.0752 10.6679 44.7714 10.9723 44.5256 11.2796C44.2927 11.5707 44.0409 12.0427 43.8335 12.3744C43.421 13.0345 42.3528 13.2664 41.8298 13.7895C41.6038 14.0154 41.1735 14.2433 40.881 14.3981L40.8795 14.3989C40.5311 14.5833 40.0425 14.7173 39.7433 14.9566C39.4968 15.1539 38.7782 15.405 38.4626 15.4421C38.1179 15.4826 37.6527 15.7657 37.3471 15.9275C36.9267 16.1501 36.4251 16.2745 35.9992 16.5111C35.6804 16.6882 35.2037 16.9243 34.8785 17.0172C34.534 17.1157 33.985 17.3099 33.7165 17.5337C33.3991 17.7981 32.758 17.8783 32.5132 18.1844C32.2917 18.4613 31.6943 18.568 31.3977 18.7163C31.0347 18.8978 30.5854 19.0666 30.2615 19.3257C30.1208 19.4383 29.8689 19.3981 29.7244 19.5788C29.6423 19.6814 29.3049 19.8435 29.1666 19.9248C28.7954 20.1432 28.3108 20.4029 27.9788 20.6685C27.4001 21.1315 26.7473 21.4398 26.1455 21.9079C25.5834 22.3451 25.1183 22.9011 24.5652 23.3436C24.0838 23.7287 24.5187 25.385 24.5187 25.9C24.5187 26.7591 24.8069 27.5809 25.2159 28.3169C26.035 29.7914 27.1316 31.0844 28.7019 31.7822C29.5336 32.1519 30.5587 32.262 31.4442 32.4588C31.7052 32.5168 32.6396 32.6813 32.7921 32.8719C32.8798 32.9817 33.2944 32.9283 33.4428 32.9907C33.6945 33.0967 34.1394 33.0114 34.4137 33.0114C34.9091 33.0114 35.4073 32.9184 35.8597 32.9184C36.1096 32.9184 36.8986 32.8124 37.0888 32.6602C37.1375 32.6213 37.605 32.5466 37.6724 32.5466C37.8251 32.5466 38.1339 32.4964 38.2767 32.433C38.631 32.2755 39.2725 32.2891 39.5574 32.0611C40.2033 31.5445 41.3674 31.8774 42.0157 31.3588C42.304 31.1281 42.9634 31.2796 43.2965 31.1315C43.695 30.9544 44.324 30.8141 44.7631 30.7804C45.2771 30.7408 45.7421 30.5015 46.2711 30.5015C46.609 30.5015 47.418 30.4324 47.712 30.2691C48.1071 30.0496 48.676 30.2201 49.1064 30.1245C49.563 30.023 50.0205 30.0367 50.5008 30.0367C51.0703 30.0367 51.6519 30.0051 52.2205 30.0367C52.707 30.0637 53.2276 30.3156 53.7079 30.3156C54.2408 30.3156 55.0094 30.6203 55.4741 30.8527C56.081 31.1561 56.8509 31.3939 57.5192 31.4311C58.405 31.4803 59.1828 32.1255 59.9878 32.3555C60.6227 32.5369 61.8589 32.9285 62.255 33.5227C62.4625 33.834 63.2 34.4087 63.5203 34.5917C63.9128 34.816 64.1881 35.2416 64.5376 35.5213C64.873 35.7896 65.0594 36.199 65.3743 36.4509C65.6806 36.6959 65.8929 37.1958 66.2161 37.3805C66.5734 37.5847 66.9612 38.0326 67.2593 38.3307C67.5472 38.6187 67.7548 38.9295 68.0443 39.219C68.6882 39.863 69.152 40.6196 69.7692 41.3054C70.341 41.9408 70.6066 42.8402 71.1636 43.5364C71.4391 43.8808 71.5905 44.3885 71.7626 44.7759C71.8948 45.0733 72.0808 45.6126 72.2791 45.8604C72.4093 46.0231 72.4857 46.2751 72.4857 46.4905C72.4857 46.7605 72.706 46.8547 72.7594 47.0947C72.8236 47.3837 72.9379 47.9678 73.1828 48.1637C73.2396 48.2091 73.3174 48.7266 73.3223 48.8144C73.3358 49.0582 73.4798 49.2941 73.6012 49.5065C73.82 49.8894 73.7655 50.2031 73.8852 50.622C73.9816 50.9592 74.3448 51.4662 74.3448 51.8356C74.3448 52.1712 74.2066 52.8684 74.4843 53.0906C74.7476 53.3012 74.5983 54.1418 74.7632 54.4385C74.9495 54.774 74.9026 55.3505 74.9026 55.7399C74.9026 56.149 74.8089 56.7733 75.0885 57.0878C75.5022 57.5532 75.7043 58.7252 75.7392 59.3188C75.7778 59.9751 76.3037 60.6786 76.7824 61.1574C76.8854 61.2603 77.1017 61.5343 77.2266 61.5499C77.3136 61.5607 77.6375 61.715 77.6914 61.7823C77.7755 61.8875 78.1976 61.8782 78.3421 61.9424C78.565 62.0414 78.832 61.946 79.0393 62.0611C79.4223 62.2739 80.0289 62.1152 80.4337 62.34C80.6022 62.4336 80.8484 62.4683 81.0379 62.4795C81.2128 62.4897 81.3119 62.7104 81.4614 62.7532C82.201 62.9645 82.4323 64.4632 82.4323 65.103C82.4323 65.3964 82.4487 65.6276 82.5201 65.8776C82.5645 66.0332 82.7021 66.2297 82.7112 66.3837C82.7359 66.8049 82.8041 67.2259 82.8041 67.6852C82.8041 68.4156 83.0411 69.6655 82.5459 70.2157C82.2629 70.5301 82.0551 70.9222 81.8022 71.2383C81.7389 71.3175 81.6315 71.7197 81.6008 71.827C81.552 71.9979 81.338 72.1633 81.3168 72.3331C81.2886 72.5582 80.6837 73.0441 80.5266 73.1698C80.2294 73.4076 79.8761 73.7622 79.6435 74.0529C79.3629 74.4036 78.9332 74.6865 78.7139 75.0703C78.5275 75.3966 78.1034 75.5364 77.8773 75.8191C77.6785 76.0676 77.1423 76.4221 76.8547 76.5886C76.4451 76.8258 76.0349 77.109 75.7186 77.4252C75.1613 77.9825 74.0297 78.3606 73.3223 78.675C72.9516 78.8398 72.3992 79.0986 72.0673 79.3567C71.678 79.6596 71.1088 79.6672 70.673 79.9093C70.4346 80.0417 69.8068 80.3276 69.5574 80.3276C69.3288 80.3276 68.4452 80.5676 68.3025 80.7459C68.198 80.8765 67.4093 81.1643 67.2335 81.1643C66.7655 81.1643 66.3217 81.5361 65.8391 81.5361C64.8959 81.5361 63.9731 81.4431 63.0503 81.4431C62.1166 81.4431 61.2031 81.3502 60.308 81.3502C59.2906 81.3502 58.3392 81.1643 57.3333 81.1643C55.2824 81.1643 53.2889 81.0713 51.2445 81.0713C49.9151 81.0713 48.6061 81.1643 47.2937 81.1643C46.81 81.1643 46.383 81.2572 45.8993 81.2572C45.473 81.2572 44.8933 81.1569 44.5049 81.3295C44.0122 81.5485 43.0025 81.3502 42.4598 81.3502H40.2288C39.2262 81.3502 38.2338 81.2572 37.2541 81.2572C33.125 81.2572 28.8871 81.0713 24.7511 81.0713H21.7299H20.2426C19.8661 81.0713 19.1909 80.9397 18.8482 81.092C18.5446 81.2269 17.8584 81.2572 17.5467 81.2572C17.263 81.2572 16.4309 81.2575 16.2247 81.4225C16.176 81.4614 15.7085 81.5361 15.6411 81.5361C15.3982 81.5361 15.1956 81.6291 14.9439 81.6291Z" stroke="url(#paint0_linear_8_122)" stroke-width="2" stroke-linecap="round"/>
<defs>
<linearGradient id="paint0_linear_8_122" x1="41.9304" y1="1" x2="41.9304" y2="81.6291" gradientUnits="userSpaceOnUse">
<stop offset="0.17" stop-color="#F7014D"/>
<stop offset="1" stop-color="#35B5FE"/>
</linearGradient>
</defs>
</svg>
