<svg width="182" height="182" viewBox="0 0 182 182" fill="none" xmlns="http://www.w3.org/2000/svg">
<path d="M20.0552 23.0512L20.0601 23.0522L20.061 23.0524L20.0618 23.0525L20.0628 23.0527L20.0628 23.0527L20.1095 23.0624L20.1594 23.0692L41.8861 26.042L42.6137 26.1416L43.1386 25.628L54.1425 14.8607L54.1445 14.8587C55.3701 13.6551 56.3959 13.3656 57.1534 13.4031C57.9415 13.4421 58.7271 13.8495 59.4118 14.5704C60.0992 15.2941 60.5927 16.244 60.7945 17.1326C60.9986 18.0311 60.8577 18.607 60.6737 18.8746L55.0624 25.3967L53.3606 27.3747L55.9263 27.8499L79.3243 32.1836L80.1737 32.3409L80.736 31.6853L88.6783 22.4265L88.6843 22.4195L88.6902 22.4125C90.6978 20.0131 92.4453 18.9166 93.7807 18.5408C95.0662 18.1791 96.034 18.4589 96.7228 18.9974C98.2081 20.1586 98.7648 22.8558 97.3123 24.9293L92.2052 31.3906L90.5647 33.466L93.188 33.8081L128.344 38.3931L129.059 38.4863L129.578 37.9865L130.617 36.9872C145.219 22.9344 155.463 13.0753 163.04 7.52469C166.923 4.67962 169.945 3.09128 172.371 2.58115C174.673 2.09734 176.442 2.57572 178.057 4.03194C178.876 4.76969 179.361 5.54869 179.599 6.38427C179.84 7.22937 179.857 8.23193 179.583 9.44954C179.023 11.9366 177.303 15.0885 174.34 19.0719C168.574 26.8252 158.59 37.1085 145.275 50.823L144.293 51.8342L143.784 52.3593L143.884 53.0841L148.883 89.3053L149.252 91.983L151.329 90.2526L158.694 84.1148C160.183 82.8742 162.225 83.2565 163.208 84.5504C163.673 85.1627 163.94 86.0366 163.698 87.1771C163.45 88.3451 162.645 89.8697 160.801 91.6187C160.8 91.6193 160.8 91.62 160.799 91.6206L150.671 101.172L150.079 101.73L150.223 102.53L154.498 126.238L154.935 128.663L156.888 127.161L163.218 122.295L163.229 122.288L163.239 122.28C165.575 120.419 167.647 121.005 168.448 122.067C169.24 123.118 169.608 125.761 166.045 129.576L156.021 139.674C155.738 139.949 155.643 140.256 155.62 140.332L155.619 140.334C155.574 140.479 155.558 140.605 155.55 140.674C155.534 140.821 155.535 140.964 155.538 141.071C155.544 141.298 155.567 141.58 155.599 141.886C155.664 142.508 155.778 143.358 155.923 144.346C156.214 146.326 156.639 148.929 157.076 151.512C157.513 154.097 157.963 156.671 158.304 158.598C158.474 159.562 158.617 160.364 158.717 160.926C158.768 161.207 158.807 161.427 158.834 161.578L158.865 161.75L158.873 161.794L158.875 161.805L158.876 161.808L158.876 161.809C158.876 161.809 158.876 161.809 160.352 161.543L158.876 161.809L158.882 161.842L158.889 161.874C159.954 166.568 159.141 169.63 158.182 171.471C157.695 172.405 157.153 173.058 156.748 173.468C156.545 173.673 156.377 173.816 156.269 173.903C156.237 173.929 156.21 173.949 156.189 173.965C156.174 173.976 156.163 173.984 156.154 173.99C156.148 173.995 156.143 173.998 156.14 174C156.14 174.001 156.14 174.001 156.139 174.001C156.138 174.001 156.137 174.002 156.137 174.002L156.06 174.052L155.979 174.122L150.736 178.692L125.239 106.671C122.969 99.8765 117.022 91.9675 106.793 92.9014L106.782 92.9024L106.771 92.9036C105.286 93.0616 103.411 93.7748 101.529 94.6658C99.6022 95.5776 97.5084 96.7538 95.5354 97.9641C93.5601 99.1757 91.6836 100.435 90.1886 101.522C88.7988 102.533 87.603 103.49 87.0272 104.144L58.6421 131.437C58.3477 131.707 58.2409 132.017 58.2129 132.098L58.2126 132.099C58.1601 132.251 58.1363 132.389 58.1241 132.475C58.0986 132.655 58.0915 132.845 58.0901 133.011C58.0872 133.356 58.1081 133.805 58.144 134.32C58.2164 135.361 58.3592 136.798 58.548 138.482C58.9263 141.858 59.498 146.301 60.0909 150.718C60.684 155.137 61.2998 159.539 61.7671 162.835C62.0008 164.483 62.1974 165.856 62.3357 166.816C62.4048 167.296 62.4593 167.673 62.4966 167.931L62.499 167.947C62.4619 168.017 62.4145 168.102 62.3551 168.203C62.1327 168.584 61.8014 169.1 61.3847 169.718C60.555 170.949 59.4405 172.507 58.316 174.046C57.1936 175.583 56.0702 177.088 55.2267 178.211C55.2183 178.222 55.2099 178.233 55.2015 178.244L38.2947 148.148L37.6142 146.936L36.3543 147.522L32.141 149.482L34.5515 145.729L35.4098 144.393L34.0268 143.612L3.58822 126.431L13.3405 119.297C16.8788 120.007 25.3674 121.113 33.1703 122.027C37.3771 122.519 41.4254 122.96 44.4645 123.259C45.9825 123.408 47.2576 123.523 48.1777 123.591C48.6353 123.624 49.0206 123.647 49.3098 123.657C49.4516 123.661 49.593 123.663 49.7177 123.659C49.7783 123.657 49.8603 123.653 49.9485 123.641L49.9536 123.641C50.0017 123.635 50.2341 123.607 50.4809 123.483L50.6957 123.376L50.8663 123.207L49.81 122.141C50.8663 123.207 50.8664 123.206 50.8666 123.206L50.8674 123.205L50.8708 123.202L50.8843 123.189L50.9374 123.136L51.1447 122.93L51.9327 122.149C52.6123 121.475 53.5847 120.51 54.756 119.348C57.0986 117.023 60.2368 113.908 63.4192 110.747C69.7678 104.441 76.3347 97.9074 77.0604 97.1449C85.156 88.6395 88.2199 85.1519 89.5859 80.4848C90.3457 77.8888 90.0133 74.8243 87.8318 71.4367C85.6824 68.0989 81.7342 64.4301 75.2206 60.4305C66.2222 54.9052 47.7849 47.4872 31.739 41.489C23.6867 38.479 16.1899 35.8097 10.7066 33.8931C7.96471 32.9346 5.72563 32.1642 4.17154 31.6332C4.10385 31.61 4.03745 31.5874 3.97237 31.5652L9.76683 25.4706C11.5761 23.67 14.0665 23.0228 16.2635 22.8687C17.348 22.7927 18.313 22.8408 19.0055 22.9082C19.3504 22.9418 19.6242 22.9799 19.8071 23.0086C19.8985 23.0229 19.967 23.0349 20.0101 23.0428C20.0316 23.0467 20.0467 23.0496 20.0552 23.0512Z" stroke="#BC4D4D" stroke-width="3"/>
</svg>
