<svg width="180" height="179" viewBox="0 0 180 179" fill="none" xmlns="http://www.w3.org/2000/svg">
<path d="M173.558 37.8342C176.02 39.4699 177.461 41.479 177.568 44.1954L177.536 44.2639C177.424 44.5012 177.26 44.8508 177.05 45.3012C176.63 46.2019 176.025 47.5057 175.287 49.1206C173.812 52.3499 171.802 56.8254 169.665 61.8096C165.403 71.7449 160.585 83.8136 158.519 92.0461L159.973 92.4112L158.519 92.0461C156.068 101.809 155.995 110.506 155.924 118.855C155.916 119.747 155.909 120.635 155.898 121.52C155.791 130.68 155.382 139.574 151.649 149.553C151.378 150.042 151.112 150.522 150.852 150.993C144.642 162.215 141.271 168.309 134.111 171.877C130.347 173.753 125.45 174.963 118.382 175.689C111.315 176.416 102.184 176.65 90.0016 176.637C81.269 176.628 64.1863 173.266 49.1173 169.848C41.62 168.148 34.6782 166.448 29.6101 165.172C27.0764 164.535 25.0117 164.004 23.5811 163.632C22.8657 163.446 22.309 163.3 21.9313 163.201C21.7425 163.151 21.5985 163.113 21.5018 163.087L21.3927 163.059L21.3653 163.051L21.3586 163.049L21.357 163.049C21.3566 163.049 21.3565 163.049 20.9706 164.498L21.3565 163.049L21.3436 163.046C19.4703 162.565 17.2361 162.282 15.0527 162.007L14.9571 161.995C12.7619 161.719 10.5934 161.446 8.64675 161C6.65447 160.544 5.07008 159.942 4.00454 159.109C3.01606 158.337 2.44342 157.349 2.44342 155.871C2.44342 152.558 4.38182 149.552 7.46527 147.308C10.5283 145.079 14.5506 143.742 18.3138 143.715L50.5387 146.547L50.6512 146.557L50.764 146.55C54.924 146.289 59.2603 144.941 62.6214 142.208C66.024 139.441 68.3444 135.317 68.4799 129.741L68.4805 129.716L68.4802 129.692C68.3487 114.399 66.8364 102.408 58.9128 89.7225L58.9082 89.7151L58.9035 89.7078L29.0178 43.0773C28.2536 41.4494 27.7916 39.266 28.0605 37.226C28.327 35.2044 29.2926 33.3779 31.3864 32.2325C33.4296 31.1149 35.6608 31.3392 37.7285 32.349C39.8248 33.3728 41.563 35.1255 42.4135 36.6782L42.4614 36.7656L42.5205 36.8459L75.9545 82.3272L76.0385 82.4414L76.1424 82.5379C78.1467 84.399 81.0687 85.6636 83.6294 85.2614C84.9737 85.0503 86.2285 84.3679 87.0659 83.0825C87.8798 81.8333 88.1905 80.183 88.04 78.2132L88.0321 78.1095L88.0099 78.0078L73.2476 10.3338C72.8539 8.25293 73.1968 5.97529 74.187 4.26513C75.1504 2.60112 76.6938 1.5 78.8672 1.5C82.3619 1.5 85.003 2.17198 86.6997 3.2222C88.3349 4.23438 89.0746 5.56578 89.0233 7.15376L89.0167 7.35794L89.0649 7.55644L105.298 74.3474L105.322 74.4455L105.359 74.5396C106.26 76.8428 108.354 77.8498 110.349 77.7435C112.298 77.6397 114.281 76.4733 115.129 74.3699L115.218 74.151L115.234 73.9156L119.857 9.00292C120.026 7.72399 121.987 4.79075 126.278 5.40934C128.381 5.71257 130.104 7.00533 131.262 8.53453C131.837 9.29401 132.241 10.0728 132.47 10.7431C132.713 11.4577 132.701 11.8806 132.668 12.0093L132.626 12.1743L132.622 12.3446L131.12 76.523L131.116 76.6781L131.144 76.8307C131.734 80.0198 133.377 82.2466 135.766 82.9866C138.112 83.713 140.636 82.8334 142.637 81.0096L142.817 80.8456L142.936 80.6331L165.659 40.0028L165.705 39.9203L165.74 39.8327C166.172 38.7637 167.319 37.9434 168.982 37.5666C170.58 37.2044 172.327 37.34 173.558 37.8342Z" stroke="#BC4D4D" stroke-width="3"/>
</svg>
