<svg width="156" height="143" viewBox="0 0 156 143" fill="none" xmlns="http://www.w3.org/2000/svg">
<path d="M75.8585 24.138L78 27.6934L80.1415 24.138C87.8554 11.3313 100.567 2.57446 115.655 2.57446C137.146 2.57446 153.5 18.8794 153.5 40.2631C153.5 51.0821 152.02 59.4529 149.062 66.7201C146.103 73.9873 141.605 80.3048 135.353 86.9429C129.071 93.6114 121.11 100.514 111.249 109.014C110.959 109.264 110.668 109.515 110.375 109.767C101.154 117.715 90.3746 127.006 78 138.638C65.6255 127.006 54.8466 117.716 45.6255 109.768C45.3323 109.515 45.0408 109.264 44.7508 109.014C34.8904 100.514 26.9286 93.6114 20.6474 86.9429C14.3949 80.3048 9.8965 73.9873 6.93836 66.7201C3.9802 59.4529 2.5 51.0821 2.5 40.2631C2.5 18.8794 18.8543 2.57446 40.3448 2.57446C55.4329 2.57446 68.1446 11.3313 75.8585 24.138Z" stroke="#BC4D4D" stroke-width="5"/>
</svg>
