<svg width="174" height="168" viewBox="0 0 174 168" fill="none" xmlns="http://www.w3.org/2000/svg">
<path d="M166.71 85.1814L166.707 85.1774C163.032 80.3276 157.683 77.3968 151.966 77.3968C140.719 77.3968 132.277 88.1196 132.277 100.35C132.277 112.58 140.72 123.3 151.969 123.3C157.688 123.3 163.037 120.372 166.715 115.512L166.717 115.509C167.365 114.651 168.646 114.251 169.689 114.601C170.773 114.966 171.501 115.979 171.501 117.119V162.197C171.501 163.658 170.304 164.857 168.839 164.857H133.472C132.459 164.857 131.512 164.262 131.075 163.357L131.075 163.357C130.634 162.445 130.758 161.331 131.382 160.545L131.383 160.543C133.239 158.199 134.315 155.594 134.315 152.828C134.315 147.341 130.353 142.808 125.145 139.794C119.847 136.727 112.728 134.872 105.116 134.872C97.5016 134.872 90.3825 136.728 85.085 139.795C79.8767 142.809 75.9153 147.342 75.9153 152.828C75.9153 155.422 76.8652 157.884 78.5236 160.118L78.6145 160.24L78.7195 160.351C79.1926 160.848 79.4592 161.51 79.4592 162.197C79.4592 163.659 78.2633 164.857 76.7984 164.857H38.8956C37.4328 164.857 36.2369 163.662 36.2369 162.197V131.393V127.424L32.6571 129.138C30.2404 130.296 27.6851 130.886 25.0739 130.886C19.114 130.886 13.5253 127.697 9.34371 122.187C5.16154 116.677 2.5 108.959 2.5 100.347C2.5 91.736 5.16105 84.0185 9.343 78.5079C13.5243 72.9981 19.1131 69.8088 25.0742 69.8086C27.6861 69.8086 30.241 70.3976 32.6568 71.5555L36.2373 73.2715V69.301V38.5026C36.2373 37.0374 37.4332 35.8418 38.8959 35.8418H72.6126H76.4827L74.8915 32.3139C73.8535 30.0126 73.3247 27.5956 73.3247 25.1465C73.3247 19.1867 76.5142 13.5985 82.0247 9.41731C87.536 5.23554 95.2543 2.57446 103.866 2.57446C112.477 2.57446 120.194 5.23549 125.704 9.41719C131.213 13.5983 134.402 19.1865 134.402 25.1465C134.402 27.5947 133.873 30.0121 132.836 32.3156L131.248 35.8418H135.115H168.834C170.299 35.8418 171.496 37.0384 171.496 38.5026V83.5786C171.496 84.72 170.77 85.7332 169.678 86.1006L169.676 86.1012C168.658 86.4445 167.367 86.0525 166.71 85.1814Z" stroke="#BC4D4D" stroke-width="5"/>
</svg>
