<svg width="357" height="76" viewBox="0 0 357 76" fill="none" xmlns="http://www.w3.org/2000/svg">
<circle cx="321.5" cy="39.5" r="34" fill="#F5F99E" stroke="#BC4D4D" stroke-width="3"/>
<circle cx="320.5" cy="5.5" r="4.5" fill="#F5F99E" stroke="#BC4D4D" stroke-width="2"/>
<path d="M18.2427 61.766C19.0567 60.5887 20.1686 60.0001 21.5785 60.0001C22.2762 60.0001 22.9738 60.189 23.6715 60.5669C24.3692 60.9448 24.936 61.6134 25.3721 62.5727C25.9099 63.7791 26.1788 65.4361 26.1788 67.5437C26.1788 69.7966 25.8663 71.519 25.2413 72.7108C24.9506 73.3213 24.5509 73.8082 24.0422 74.1716C23.5334 74.5349 23.0901 74.7602 22.7122 74.8474C22.3343 74.9347 21.9637 74.9855 21.6003 75.0001C21.2224 75.0001 20.8445 74.9565 20.4666 74.8692C20.0887 74.782 19.6453 74.5495 19.1366 74.1716C18.6279 73.7937 18.2282 73.3067 17.9375 72.7108C17.3125 71.519 17 69.7966 17 67.5437C17 65.0146 17.4142 63.0887 18.2427 61.766ZM23.1483 61.5044C22.7122 61.0393 22.1962 60.8067 21.6003 60.8067C20.9898 60.8067 20.4666 61.0393 20.0305 61.5044C19.6672 61.8823 19.4273 62.4056 19.311 63.0742C19.1948 63.7428 19.1366 65.1381 19.1366 67.2602C19.1366 69.5567 19.1948 71.0684 19.311 71.7951C19.4273 72.5219 19.689 73.096 20.0959 73.5175C20.5029 73.9535 21.0044 74.1716 21.6003 74.1716C22.1817 74.1716 22.6759 73.9535 23.0828 73.5175C23.5044 73.0815 23.766 72.471 23.8677 71.6861C23.9695 70.9012 24.0276 69.4259 24.0422 67.2602C24.0422 65.1527 23.984 63.7646 23.8677 63.096C23.7515 62.4274 23.5116 61.8969 23.1483 61.5044Z" fill="#BC4D4D"/>
<path d="M170.969 62.0097L170.672 62.1239C170.459 62.2 170.154 62.2761 169.758 62.3522C169.363 62.4284 168.921 62.4816 168.434 62.5121H168V61.4616H168.434C169.149 61.4312 169.812 61.317 170.421 61.1191C171.03 60.9211 171.456 60.7384 171.7 60.571C171.943 60.4035 172.156 60.236 172.339 60.0686C172.369 60.0229 172.461 60.0001 172.613 60.0001C172.75 60.0001 172.879 60.0457 173.001 60.1371V66.9652L173.024 73.8163C173.131 73.9228 173.222 73.9913 173.298 74.0218C173.374 74.0522 173.557 74.0827 173.846 74.1131C174.135 74.1436 174.607 74.1588 175.262 74.1588H175.856V75.2093H175.605C175.285 75.1636 174.075 75.1408 171.974 75.1408C169.903 75.1408 168.708 75.1636 168.388 75.2093H168.114V74.1588H168.708C169.043 74.1588 169.332 74.1588 169.576 74.1588C169.819 74.1588 170.01 74.1512 170.147 74.136C170.284 74.1207 170.405 74.0979 170.512 74.0675C170.619 74.037 170.68 74.0218 170.695 74.0218C170.71 74.0218 170.756 73.9837 170.832 73.9076C170.908 73.8315 170.954 73.801 170.969 73.8163V62.0097Z" fill="#BC4D4D"/>
<path d="M79.1648 65.6751C79.0549 65.5652 79 65.4867 79 65.4396C79 65.3768 79.0235 65.2512 79.0706 65.0628C79.1177 64.8744 79.157 64.7645 79.1884 64.7332C79.2198 64.6547 79.2904 64.6154 79.4003 64.6154C79.5102 64.6154 79.9105 64.6076 80.6013 64.5919H81.8493L82.2967 62.708C82.3438 62.5353 82.3988 62.3077 82.4615 62.0251C82.5243 61.7426 82.5793 61.5385 82.6264 61.4129C82.6735 61.2873 82.7206 61.1303 82.7677 60.9419C82.8148 60.7535 82.8776 60.6201 82.9561 60.5416C83.0345 60.4631 83.113 60.3689 83.1915 60.259C83.27 60.1491 83.3799 60.0785 83.5212 60.0471C83.6625 60.0157 83.8038 60 83.9451 60C84.2276 60.0157 84.4239 60.1021 84.5338 60.259C84.6437 60.416 84.6986 60.5652 84.6986 60.7065C84.6986 60.8163 84.628 61.1853 84.4867 61.8132C84.3454 62.4412 84.1884 63.0612 84.0157 63.6735L83.7802 64.5448C83.7802 64.5762 84.1727 64.5919 84.9576 64.5919H86.1586C86.2685 64.7018 86.3234 64.7881 86.3234 64.8509C86.3234 65.1963 86.2214 65.471 86.0173 65.6751H83.4977L82.6499 69.0895C82.0377 71.6013 81.7316 72.9514 81.7316 73.1398C81.7316 73.7991 81.9435 74.1288 82.3674 74.1288C82.9168 74.1288 83.4506 73.8619 83.9686 73.3282C84.4867 72.7944 84.9027 72.1351 85.2167 71.3501C85.2481 71.2559 85.2873 71.201 85.3344 71.1853C85.3815 71.1696 85.4992 71.1539 85.6876 71.1382H85.7818C86.0173 71.1382 86.135 71.201 86.135 71.3266C86.135 71.3737 86.1115 71.4679 86.0644 71.6092C85.9859 71.8603 85.8446 72.1586 85.6405 72.504C85.4364 72.8493 85.1696 73.2183 84.8399 73.6107C84.5102 74.0032 84.1099 74.3329 83.6389 74.5997C83.168 74.8666 82.6892 75.0001 82.2025 75.0001C81.7316 75.0001 81.2842 74.8823 80.8603 74.6468C80.4364 74.4114 80.1303 74.0032 79.9419 73.4223C79.9105 73.2968 79.8948 73.0848 79.8948 72.7866V72.3627L80.719 69.066C81.2685 66.8525 81.551 65.7379 81.5667 65.7222C81.5667 65.6908 81.1664 65.6751 80.3658 65.6751H79.1648Z" fill="#BC4D4D"/>
<path d="M94.9137 69.1602C94.9137 69.1602 94.9137 69.0581 94.9137 68.854C94.9137 68.65 95.0236 68.493 95.2434 68.3831H113.258C111.437 67.0173 110.314 65.2669 109.89 63.1319C109.89 63.1162 109.89 63.0926 109.89 63.0612C109.89 63.0298 109.882 63.0063 109.867 62.9906C109.867 62.8022 110 62.708 110.267 62.708H110.338C110.479 62.708 110.573 62.7159 110.62 62.7316C110.667 62.7473 110.714 62.7787 110.761 62.8258C110.809 62.8729 110.832 62.9435 110.832 63.0377C110.832 63.1319 110.856 63.2575 110.903 63.4145C110.95 63.5715 111.013 63.7677 111.091 64.0032C111.437 65.055 112.01 65.9969 112.81 66.8289C113.611 67.6609 114.545 68.2496 115.612 68.595C115.754 68.6421 115.824 68.7285 115.824 68.854C115.824 68.9482 115.785 69.0189 115.707 69.066C115.628 69.1131 115.44 69.1916 115.141 69.3015C114.843 69.4113 114.545 69.5605 114.247 69.7489C113.603 70.157 113.046 70.628 112.575 71.1617C112.104 71.6955 111.75 72.2214 111.515 72.7395C111.28 73.2575 111.115 73.65 111.02 73.9169C110.926 74.1837 110.864 74.4271 110.832 74.6468C110.801 74.8038 110.761 74.898 110.714 74.9294C110.667 74.9608 110.542 74.9844 110.338 75.0001C110.024 75.0001 109.867 74.9137 109.867 74.741C109.867 74.6311 109.906 74.4349 109.984 74.1523C110.487 72.1743 111.578 70.5652 113.258 69.325H95.2434C95.0236 69.2151 94.9137 69.0581 94.9137 68.854V69.1602Z" fill="#BC4D4D"/>
<path d="M22 54.5H172" stroke="#BC4D4D" stroke-width="3"/>
<circle cx="22.5" cy="54.5" r="3" fill="#F5F99E" stroke="#BC4D4D"/>
<circle cx="171.5" cy="54.5" r="3" fill="#F5F99E" stroke="#BC4D4D"/>
<path fill-rule="evenodd" clip-rule="evenodd" d="M22.0746 45.004C19.3277 42.0619 17.1084 39.1221 15.4568 36.1831C13.8528 33.3288 13.1125 30.5681 13.3331 27.6711C13.9721 19.2829 25.0013 12.7235 25.0013 12.7235L27.8489 16.375L29.9435 5.81535L19.0436 5.08445L21.411 8.11996C21.411 8.11996 10.8706 14.9938 10.6402 25.7933C10.5036 32.1921 14.3292 38.7308 21.3969 45.5034C21.4444 45.5048 21.897 45.183 22.0746 45.004Z" fill="#F5F99E" stroke="#BC4D4D"/>
<path fill-rule="evenodd" clip-rule="evenodd" d="M171.529 46.004C174.276 43.0619 176.495 40.1221 178.147 37.1831C179.751 34.3288 180.491 31.5681 180.27 28.6711C179.631 20.2829 168.602 13.7235 168.602 13.7235L165.754 17.375L163.66 6.81535L174.56 6.08445L172.192 9.11996C172.192 9.11996 182.733 15.9938 182.963 26.7933C183.1 33.1921 179.274 39.7308 172.207 46.5034C172.159 46.5048 171.706 46.183 171.529 46.004Z" fill="#F5F99E" stroke="#BC4D4D"/>
<path d="M258.707 37.7071C259.098 37.3166 259.098 36.6834 258.707 36.2929L252.343 29.9289C251.953 29.5384 251.319 29.5384 250.929 29.9289C250.538 30.3195 250.538 30.9526 250.929 31.3431L256.586 37L250.929 42.6569C250.538 43.0474 250.538 43.6805 250.929 44.0711C251.319 44.4616 251.953 44.4616 252.343 44.0711L258.707 37.7071ZM208 38H258V36H208V38Z" fill="#BC4D4D"/>
</svg>
