<svg width="75" height="288" viewBox="0 0 75 288" fill="none" xmlns="http://www.w3.org/2000/svg">
<path d="M37.6232 166.582C35.975 163.356 36.8309 160.543 38.0489 158.027C39.4265 155.182 38.7998 153.13 36.9417 150.827C23.9346 134.701 15.6531 116.427 12.1275 95.9817C10.7073 87.746 12.1871 79.7293 13.7728 71.7617C14.6016 67.5976 13.1665 66.2988 9.30061 65.4807C0.455272 63.6089 0.213451 62.5207 5.54652 54.869C8.73457 50.295 12.7427 46.1247 17.3757 43.6151C23.7421 40.1666 26.1842 34.2064 27.9647 28.6041C29.5603 23.5838 31.8134 19.4397 35.2517 15.9987C39.7892 11.4579 43.7943 6.20335 49.8148 3.31454C55.379 0.644704 58.8921 1.99266 60.5524 7.80793C62.6633 15.2017 63.4809 22.7862 63.2943 30.4795C63.1685 35.6635 58.7856 38.8007 57.1411 43.3581C55.669 47.4377 55.2057 50.8344 57.2062 54.7265C59.4232 59.0395 60.5936 63.7353 61.0311 68.5763C61.5587 74.4135 58.8478 76.5085 53.2874 74.6288C47.518 72.6786 45.7302 73.4325 44.0869 79.152C39.7811 94.1377 39.4333 109.03 46.0911 123.501C49.2858 130.445 52.018 137.622 56.0921 144.148C57.4723 146.359 59.007 148.025 61.8906 148.283C64.0172 148.473 66.0864 149.34 67.8223 150.733C72.4555 154.451 72.2536 157.119 66.8807 159.736C64.3623 160.962 64.0134 162.391 64.8571 164.908C68.4507 175.629 72.0378 186.401 72.6027 197.805C73.6012 217.963 69.7468 236.607 56.5775 252.869C48.7539 262.53 40.5253 272.024 34.8281 283.263C34.1774 284.546 33.7402 286.18 31.0358 285.801C29.9446 281.973 34.2557 276.573 28.5729 273.604C23.1811 270.788 20.2731 276.126 16.0876 277.565C14.2465 274.5 16.8214 273.478 18.1547 272.148C25.6362 264.684 34.6346 259.153 43.3417 253.382C55.5271 245.305 60.0818 233.913 60.7875 219.99C61.6656 202.667 55.7031 186.98 49.9174 171.206C48.9013 168.436 47.3341 167.205 44.244 168.959C41.6545 170.428 39.0655 170.372 37.6232 166.582Z" fill="#F5F99E" stroke="#BC4D4D" stroke-width="3"/>
</svg>
