<svg width="400" height="242" viewBox="0 0 400 242" fill="none" xmlns="http://www.w3.org/2000/svg">
<path d="M93.8 189L97.8413 182H89.7586L93.8 189ZM93.8 -6.10352e-05L89.7586 6.99974H97.8413L93.8 -6.10352e-05ZM94.5 182.7V6.29976H93.1V182.7H94.5Z" fill="#BC4D4D"/>
<path d="M0 93.8001L6.99981 97.8414V89.7587L0 93.8001ZM189 93.8001L182 89.7587V97.8414L189 93.8001ZM6.29983 94.5001H182.7V93.1001H6.29983V94.5001Z" fill="#BC4D4D"/>
<path d="M45.3795 33.3349C58.2347 27.267 79.2423 24.661 93.74 24.7509C96.2725 24.7667 98.6966 24.6932 101.039 24.6223C112.241 24.2831 121.578 24.0003 131.993 33.7877C138.379 39.7881 149.19 50.1923 157.741 61.7246C162.016 67.4907 165.713 73.5216 168.012 79.41C170.311 85.301 171.195 91.0083 169.903 96.1534C168.602 101.331 165.04 107.303 160.026 113.518C155.019 119.725 148.595 126.137 141.622 132.196C127.668 144.321 111.565 154.986 100.296 159.746C89.0924 164.479 75.1953 164.148 62.7945 161.974C50.402 159.801 39.5868 155.803 34.5963 153.287C32.1982 152.078 30.9804 150.393 30.5516 148.482C30.1171 146.545 30.4794 144.312 31.379 142.013C33.1795 137.411 37.0541 132.747 40.3503 130.116C41.9423 128.845 44.0187 128.041 46.49 127.475C48.9617 126.909 51.784 126.59 54.8505 126.26C55.0293 126.241 55.2089 126.222 55.3893 126.203C61.3719 125.562 68.1929 124.832 74.7743 122.094C77.1222 121.118 79.9527 120.031 83.0413 118.846C88.7016 116.674 95.2286 114.169 101.239 111.397C105.895 109.251 110.279 106.929 113.759 104.451C117.226 101.982 119.864 99.3131 120.929 96.4495C121.991 93.5966 121.868 89.8812 120.952 85.9038C120.033 81.914 118.302 77.6002 116.076 73.5115C113.849 69.4223 111.118 65.5423 108.187 62.4242C105.263 59.3129 102.11 56.9271 99.0321 55.8783C95.9131 54.8155 92.0636 55.2766 87.9032 56.5021C83.7299 57.7314 79.1581 59.7568 74.5557 61.9179C73.3772 62.4713 72.197 63.0334 71.0203 63.5939C67.588 65.2287 64.1849 66.8495 60.9373 68.1996C56.5717 70.0146 52.55 71.3121 49.1873 71.4982C42.3477 71.8768 34.2779 70.7509 27.8424 68.7221C24.624 67.7074 21.8402 66.4749 19.8301 65.11C17.7994 63.731 16.6622 62.2891 16.517 60.8863C16.4441 60.1821 16.6056 59.3136 17.0114 58.2967C17.4153 57.2842 18.0485 56.1565 18.8795 54.9469C20.5417 52.5277 22.965 49.8247 25.8255 47.1219C31.5483 41.7147 38.9607 36.3647 45.3795 33.3349Z" fill="#F5F99E" stroke="#BC4D4D"/>
<path d="M24.0669 210.746C24.078 210.712 24.0892 210.668 24.1004 210.612C24.1115 210.556 24.1394 210.433 24.184 210.244C24.2286 210.054 24.2844 209.881 24.3513 209.725C24.4182 209.569 24.5019 209.385 24.6022 209.173C24.7026 208.961 24.8141 208.794 24.9368 208.671C25.0595 208.549 25.2045 208.426 25.3718 208.303C25.5391 208.18 25.7231 208.13 25.9238 208.153C26.2473 208.153 26.5317 208.22 26.777 208.353C27.0224 208.487 27.1952 208.61 27.2956 208.721C27.396 208.833 27.4573 208.944 27.4796 209.056C27.5019 209.123 27.5187 209.156 27.5298 209.156C27.541 209.156 27.5856 209.117 27.6637 209.039C28.199 208.459 28.818 208.169 29.5206 208.169H29.5708C30.1061 208.169 30.5076 208.398 30.7753 208.855C30.8645 209.067 30.9091 209.273 30.9091 209.474C30.9091 209.809 30.8366 210.076 30.6916 210.277C30.5467 210.478 30.4017 210.606 30.2567 210.662C30.1117 210.718 29.9723 210.74 29.8385 210.729C29.6154 210.729 29.437 210.668 29.3031 210.545C29.1693 210.422 29.1024 210.26 29.1024 210.06C29.1024 209.524 29.4146 209.167 30.0392 208.989C29.7938 208.844 29.5931 208.772 29.437 208.772C28.8124 208.772 28.238 209.184 27.7139 210.01C27.6023 210.188 27.5187 210.372 27.4629 210.562C27.4071 210.751 27.2176 211.493 26.8941 212.787C26.5149 214.348 26.2974 215.179 26.2417 215.279C26.0967 215.58 25.8569 215.731 25.5223 215.731C25.3773 215.731 25.2602 215.697 25.171 215.631C25.0818 215.564 25.0205 215.497 24.987 215.43C24.9535 215.363 24.9424 215.307 24.9535 215.262C24.9535 215.117 25.1766 214.158 25.6227 212.385C26.0688 210.612 26.2919 209.625 26.2919 209.424C26.2919 208.989 26.1469 208.772 25.8569 208.772C25.6227 208.772 25.422 208.928 25.2547 209.24C25.0874 209.552 24.9535 209.892 24.8532 210.26C24.7528 210.629 24.6914 210.829 24.6691 210.863C24.6468 210.885 24.5576 210.896 24.4015 210.896H24.1673C24.1004 210.829 24.0669 210.779 24.0669 210.746Z" fill="#BC4D4D"/>
<path d="M36.8447 209.742C36.8447 209.597 36.9228 209.485 37.0789 209.407H47.7354C47.9027 209.496 47.9863 209.608 47.9863 209.742C47.9863 209.865 47.9083 209.97 47.7521 210.06L42.4323 210.076H37.1124C36.9339 210.021 36.8447 209.909 36.8447 209.742ZM36.8447 212.987C36.8447 212.82 36.9339 212.708 37.1124 212.653H47.7521C47.9083 212.764 47.9863 212.876 47.9863 212.987C47.9863 213.132 47.9027 213.244 47.7354 213.322H37.0789C36.9228 213.244 36.8447 213.132 36.8447 212.987Z" fill="#BC4D4D"/>
<path d="M55.5444 218.257C55.5667 218.257 55.6002 218.268 55.6448 218.29C55.6894 218.313 55.7507 218.329 55.8288 218.341C55.9069 218.352 55.9738 218.357 56.0296 218.357C56.1745 218.357 56.3084 218.285 56.4311 218.14C56.5537 217.995 56.643 217.833 56.6987 217.655C56.8103 217.354 56.9999 216.5 57.2675 215.095C57.5352 213.69 57.7917 212.352 58.0371 211.08C58.2824 209.809 58.4051 209.167 58.4051 209.156V209.106H57.6188C57.0946 209.106 56.8158 209.095 56.7824 209.073C56.7378 209.039 56.7155 208.983 56.7155 208.905L56.8326 208.437C56.8549 208.381 56.8995 208.353 56.9664 208.353C57.0333 208.353 57.2954 208.348 57.7527 208.337C58.288 208.337 58.5557 208.331 58.5557 208.32C58.5557 208.298 58.6058 208.019 58.7062 207.483C58.8066 206.948 58.8735 206.625 58.907 206.513C59.3196 204.673 60.1338 203.753 61.3494 203.753C61.7621 203.775 62.1022 203.898 62.3699 204.121C62.6376 204.344 62.7714 204.639 62.7714 205.007C62.7714 205.409 62.6543 205.699 62.4201 205.877C62.1859 206.056 61.9517 206.151 61.7175 206.162C61.2268 206.162 60.9814 205.928 60.9814 205.459C60.9814 205.247 61.0427 205.063 61.1654 204.907C61.2881 204.751 61.4219 204.634 61.5669 204.556L61.7175 204.472C61.539 204.405 61.3717 204.372 61.2156 204.372C61.0818 204.372 60.9535 204.428 60.8308 204.539C60.7081 204.651 60.6245 204.807 60.5799 205.007C60.5018 205.331 60.4126 205.766 60.3122 206.312C60.2118 206.859 60.1226 207.322 60.0446 207.701C59.9665 208.08 59.9275 208.281 59.9275 208.303C59.9275 208.325 60.2342 208.337 60.8476 208.337C61.3494 208.337 61.6394 208.342 61.7175 208.353C61.7955 208.364 61.8569 208.398 61.9015 208.454C61.9126 208.498 61.9015 208.593 61.868 208.738C61.8346 208.883 61.8067 208.972 61.7844 209.006C61.7621 209.062 61.7119 209.089 61.6338 209.089C61.5558 209.089 61.2546 209.095 60.7305 209.106H59.7936L59.4088 211.147C58.8735 213.913 58.4999 215.642 58.288 216.333C57.9869 217.281 57.5965 217.984 57.117 218.441C56.7043 218.798 56.2972 218.976 55.8957 218.976C55.5388 218.976 55.2154 218.87 54.9254 218.658C54.6355 218.447 54.4905 218.145 54.4905 217.755C54.4905 217.342 54.6076 217.041 54.8418 216.852C55.076 216.662 55.3102 216.567 55.5444 216.567C56.0351 216.567 56.2805 216.802 56.2805 217.27C56.2805 217.482 56.2192 217.666 56.0965 217.822C55.9738 217.978 55.84 218.095 55.695 218.173L55.5444 218.257Z" fill="#BC4D4D"/>
<path d="M64.3441 211.365C64.3441 210.595 64.3999 209.865 64.5114 209.173C64.6229 208.482 64.7512 207.885 64.8962 207.383C65.0412 206.881 65.2475 206.39 65.5152 205.911C65.7828 205.431 65.9947 205.058 66.1509 204.79C66.307 204.522 66.5412 204.232 66.8535 203.92C67.1658 203.608 67.3498 203.418 67.4056 203.351C67.4613 203.284 67.6007 203.167 67.8238 203H68.0413H68.1082C68.2643 203 68.3424 203.05 68.3424 203.151C68.3424 203.184 68.2476 203.301 68.058 203.502C67.8684 203.703 67.6398 203.998 67.3721 204.389C67.1044 204.779 66.8312 205.258 66.5524 205.827C66.2735 206.396 66.0393 207.166 65.8497 208.136C65.6601 209.106 65.5653 210.182 65.5653 211.365C65.5653 212.547 65.6601 213.617 65.8497 214.577C66.0393 215.536 66.268 216.311 66.5356 216.902C66.8033 217.493 67.0765 217.973 67.3554 218.341C67.6342 218.709 67.8684 219.004 68.058 219.227C68.2476 219.45 68.3424 219.567 68.3424 219.579C68.3424 219.679 68.2587 219.729 68.0914 219.729H68.0413H67.8238L67.3554 219.328C66.307 218.38 65.543 217.198 65.0635 215.781C64.5839 214.365 64.3441 212.893 64.3441 211.365Z" fill="#BC4D4D"/>
<path d="M69.714 209.106C69.636 209.028 69.5969 208.972 69.5969 208.939C69.5969 208.894 69.6137 208.805 69.6471 208.671C69.6806 208.537 69.7085 208.459 69.7308 208.437C69.7531 208.381 69.8033 208.353 69.8813 208.353C69.9594 208.353 70.2438 208.348 70.7345 208.337H71.6212L71.939 206.998C71.9725 206.876 72.0115 206.714 72.0561 206.513C72.1007 206.312 72.1398 206.167 72.1732 206.078C72.2067 205.989 72.2401 205.877 72.2736 205.744C72.307 205.61 72.3517 205.515 72.4074 205.459C72.4632 205.403 72.5189 205.337 72.5747 205.258C72.6305 205.18 72.7085 205.13 72.8089 205.108C72.9093 205.086 73.0097 205.074 73.11 205.074C73.3108 205.086 73.4502 205.147 73.5283 205.258C73.6063 205.37 73.6454 205.476 73.6454 205.576C73.6454 205.654 73.5952 205.916 73.4948 206.363C73.3944 206.809 73.2829 207.249 73.1602 207.684L72.9929 208.303C72.9929 208.325 73.2718 208.337 73.8294 208.337H74.6826C74.7607 208.415 74.7997 208.476 74.7997 208.521C74.7997 208.766 74.7272 208.961 74.5822 209.106H72.7922L72.1899 211.532C71.755 213.316 71.5375 214.275 71.5375 214.409C71.5375 214.878 71.6881 215.112 71.9892 215.112C72.3795 215.112 72.7587 214.922 73.1268 214.543C73.4948 214.164 73.7904 213.696 74.0134 213.138C74.0357 213.071 74.0636 213.032 74.0971 213.021C74.1305 213.01 74.2142 212.998 74.348 212.987H74.4149C74.5822 212.987 74.6659 213.032 74.6659 213.121C74.6659 213.155 74.6491 213.222 74.6157 213.322C74.5599 213.5 74.4595 213.712 74.3145 213.958C74.1696 214.203 73.98 214.465 73.7458 214.744C73.5115 215.023 73.2272 215.257 72.8926 215.447C72.558 215.636 72.2178 215.731 71.8721 215.731C71.5375 215.731 71.2197 215.647 70.9185 215.48C70.6174 215.313 70.3999 215.023 70.2661 214.61C70.2438 214.521 70.2326 214.37 70.2326 214.158V213.857L70.8182 211.515C71.2085 209.943 71.4092 209.151 71.4204 209.14C71.4204 209.117 71.136 209.106 70.5672 209.106H69.714Z" fill="#BC4D4D"/>
<path d="M76.322 203.017L76.389 203C76.4447 203 76.5005 203 76.5563 203H76.757L77.2254 203.402C78.2738 204.35 79.0377 205.532 79.5173 206.948C79.9969 208.365 80.2367 209.837 80.2367 211.365C80.2367 212.123 80.1809 212.854 80.0694 213.556C79.9579 214.259 79.8296 214.855 79.6846 215.346C79.5396 215.837 79.3333 216.328 79.0656 216.818C78.798 217.309 78.5861 217.683 78.4299 217.939C78.2738 218.196 78.0452 218.48 77.744 218.792C77.4429 219.105 77.2645 219.289 77.2087 219.344C77.1529 219.4 77.0247 219.506 76.8239 219.662C76.7905 219.696 76.7682 219.718 76.757 219.729H76.5563C76.467 219.729 76.4057 219.729 76.3722 219.729C76.3388 219.729 76.3109 219.712 76.2886 219.679C76.2663 219.646 76.2496 219.595 76.2384 219.528C76.2496 219.517 76.3109 219.445 76.4224 219.311C78.1511 217.515 79.0154 214.867 79.0154 211.365C79.0154 207.863 78.1511 205.214 76.4224 203.418C76.3109 203.284 76.2496 203.212 76.2384 203.201C76.2384 203.112 76.2663 203.05 76.322 203.017Z" fill="#BC4D4D"/>
<path d="M24 233.949C24 232.811 24.2175 231.612 24.6524 230.352C25.0874 229.092 25.6785 228.005 26.4257 227.09C27.173 226.175 27.9481 225.651 28.7511 225.517C28.7622 225.517 28.8068 225.517 28.8849 225.517C28.963 225.517 29.0299 225.512 29.0857 225.501C29.6879 225.545 30.1563 225.819 30.4909 226.32C30.9259 226.99 31.1433 227.887 31.1433 229.014C31.1433 230.296 30.8924 231.601 30.3905 232.928C29.8887 234.256 29.2474 235.343 28.4667 236.191C27.686 237.038 26.9388 237.462 26.225 237.462H26.1079C25.7064 237.462 25.3606 237.351 25.0707 237.128C24.7807 236.904 24.5632 236.609 24.4182 236.241C24.2732 235.873 24.1673 235.499 24.1004 235.12C24.0335 234.741 24 234.35 24 233.949ZM29.8217 227.826C29.8217 226.689 29.5262 226.12 28.9351 226.12C28.5336 226.12 28.1433 226.371 27.7641 226.873C27.3849 227.374 27.0726 227.943 26.8272 228.579C26.5819 229.215 26.3923 229.772 26.2584 230.252C26.1246 230.731 26.0521 231.01 26.041 231.088C26.5874 231.099 27.1284 231.105 27.6637 231.105L29.2864 231.088C29.2976 231.077 29.3422 230.893 29.4202 230.536C29.4983 230.179 29.5875 229.733 29.6879 229.198C29.7883 228.663 29.8329 228.205 29.8217 227.826ZM25.3049 235.087C25.3049 236.269 25.6004 236.86 26.1915 236.86C26.3588 236.86 26.5373 236.804 26.7269 236.693C26.9164 236.581 27.1451 236.369 27.4127 236.057C27.6804 235.745 27.9481 235.259 28.2157 234.601C28.4834 233.943 28.7511 233.129 29.0187 232.159L29.1024 231.875H25.8402C25.8402 231.908 25.79 232.12 25.6896 232.51C25.5893 232.901 25.5 233.336 25.422 233.815C25.3439 234.295 25.3049 234.719 25.3049 235.087Z" fill="#BC4D4D"/>
<path d="M36.8447 231.49C36.8447 231.345 36.9228 231.233 37.0789 231.155H47.7354C47.9027 231.244 47.9863 231.356 47.9863 231.49C47.9863 231.612 47.9083 231.718 47.7521 231.808L42.4323 231.824H37.1124C36.9339 231.769 36.8447 231.657 36.8447 231.49ZM36.8447 234.735C36.8447 234.568 36.9339 234.456 37.1124 234.401H47.7521C47.9083 234.512 47.9863 234.624 47.9863 234.735C47.9863 234.88 47.9027 234.992 47.7354 235.07H37.0789C36.9228 234.992 36.8447 234.88 36.8447 234.735Z" fill="#BC4D4D"/>
<path d="M58.7731 236.575C58.6059 236.72 58.3605 236.877 58.0371 237.044C57.7136 237.211 57.3735 237.295 57.0166 237.295C56.314 237.295 55.7507 237.044 55.3269 236.542C54.9031 236.04 54.6857 235.399 54.6745 234.618C54.6745 233.447 55.1039 232.371 55.9626 231.389C56.8214 230.408 57.775 229.912 58.8233 229.901C59.3475 229.901 59.8327 230.168 60.2788 230.704L60.329 230.637C60.3513 230.603 60.3791 230.57 60.4126 230.536C60.4461 230.503 60.4962 230.458 60.5632 230.402C60.6301 230.347 60.7026 230.308 60.7806 230.285C60.8587 230.263 60.9479 230.246 61.0483 230.235C61.2044 230.235 61.3327 230.285 61.4331 230.386C61.5335 230.486 61.5892 230.592 61.6004 230.704C61.6004 230.871 61.2825 232.22 60.6468 234.752C60.0111 237.284 59.6765 238.577 59.6431 238.633C59.4423 239.235 59.0129 239.732 58.3549 240.122C57.6969 240.512 56.9441 240.713 56.0965 240.724C54.5239 240.724 53.7377 240.345 53.7377 239.587C53.7377 239.297 53.838 239.04 54.0388 238.817C54.2395 238.594 54.4961 238.483 54.8083 238.483C54.9756 238.483 55.1318 238.533 55.2768 238.633C55.4217 238.734 55.4998 238.906 55.511 239.152C55.511 239.263 55.4998 239.369 55.4775 239.47C55.4552 239.57 55.4162 239.648 55.3604 239.704C55.3046 239.76 55.26 239.815 55.2266 239.871C55.1931 239.927 55.1541 239.971 55.1095 240.005L55.076 240.038H55.0927C55.2043 240.072 55.5388 240.089 56.0965 240.089C56.5203 240.089 56.8549 240.022 57.1002 239.888C57.3567 239.765 57.5965 239.581 57.8196 239.336C58.0426 239.09 58.1988 238.828 58.288 238.55C58.3549 238.338 58.4441 237.992 58.5557 237.512C58.7007 236.977 58.7731 236.665 58.7731 236.575ZM59.9944 231.808L59.9275 231.624C59.894 231.501 59.8661 231.417 59.8438 231.373C59.8215 231.328 59.788 231.25 59.7434 231.138C59.6988 231.027 59.6431 230.949 59.5761 230.904C59.5092 230.86 59.4367 230.798 59.3587 230.72C59.2806 230.642 59.1802 230.592 59.0575 230.57C58.9349 230.547 58.8122 230.531 58.6895 230.52C58.1988 230.52 57.7248 230.815 57.2675 231.406C56.9329 231.841 56.6541 232.505 56.4311 233.397C56.208 234.289 56.0965 234.936 56.0965 235.338C56.0965 236.219 56.4422 236.659 57.1337 236.659C57.7582 236.659 58.3716 236.269 58.9739 235.488L59.1077 235.321L59.9944 231.808Z" fill="#BC4D4D"/>
<path d="M63.1228 233.112C63.1228 232.343 63.1786 231.612 63.2901 230.921C63.4016 230.229 63.5299 229.633 63.6749 229.131C63.8199 228.629 64.0262 228.138 64.2938 227.659C64.5615 227.179 64.7734 226.806 64.9296 226.538C65.0857 226.27 65.3199 225.98 65.6322 225.668C65.9445 225.356 66.1285 225.166 66.1842 225.099C66.24 225.032 66.3794 224.915 66.6025 224.748H66.8199H66.8869C67.043 224.748 67.1211 224.798 67.1211 224.898C67.1211 224.932 67.0263 225.049 66.8367 225.25C66.6471 225.451 66.4184 225.746 66.1508 226.136C65.8831 226.527 65.6099 227.006 65.3311 227.575C65.0522 228.144 64.818 228.913 64.6284 229.884C64.4388 230.854 64.344 231.93 64.344 233.112C64.344 234.295 64.4388 235.365 64.6284 236.324C64.818 237.284 65.0467 238.059 65.3143 238.65C65.582 239.241 65.8552 239.72 66.1341 240.089C66.4129 240.457 66.6471 240.752 66.8367 240.975C67.0263 241.198 67.1211 241.315 67.1211 241.326C67.1211 241.427 67.0374 241.477 66.8701 241.477H66.8199H66.6025L66.1341 241.076C65.0857 240.128 64.3217 238.945 63.8422 237.529C63.3626 236.113 63.1228 234.64 63.1228 233.112Z" fill="#BC4D4D"/>
<path d="M68.4928 230.854C68.4148 230.776 68.3757 230.72 68.3757 230.687C68.3757 230.642 68.3925 230.553 68.4259 230.419C68.4594 230.285 68.4873 230.207 68.5096 230.185C68.5319 230.129 68.5821 230.101 68.6601 230.101C68.7382 230.101 69.0226 230.096 69.5133 230.084H70.4L70.7178 228.746C70.7513 228.623 70.7903 228.462 70.8349 228.261C70.8795 228.06 70.9186 227.915 70.952 227.826C70.9855 227.737 71.0189 227.625 71.0524 227.491C71.0859 227.358 71.1305 227.263 71.1862 227.207C71.242 227.151 71.2978 227.084 71.3535 227.006C71.4093 226.928 71.4874 226.878 71.5877 226.856C71.6881 226.833 71.7885 226.822 71.8889 226.822C72.0896 226.833 72.229 226.895 72.3071 227.006C72.3852 227.118 72.4242 227.224 72.4242 227.324C72.4242 227.402 72.374 227.664 72.2736 228.11C72.1733 228.557 72.0617 228.997 71.939 229.432L71.7718 230.051C71.7718 230.073 72.0506 230.084 72.6082 230.084H73.4614C73.5395 230.163 73.5785 230.224 73.5785 230.268C73.5785 230.514 73.506 230.709 73.361 230.854H71.571L70.9688 233.28C70.5338 235.064 70.3163 236.023 70.3163 236.157C70.3163 236.626 70.4669 236.86 70.768 236.86C71.1583 236.86 71.5375 236.67 71.9056 236.291C72.2736 235.912 72.5692 235.443 72.7922 234.886C72.8145 234.819 72.8424 234.78 72.8759 234.769C72.9093 234.757 72.993 234.746 73.1268 234.735H73.1937C73.361 234.735 73.4447 234.78 73.4447 234.869C73.4447 234.902 73.4279 234.969 73.3945 235.07C73.3387 235.248 73.2383 235.46 73.0934 235.705C72.9484 235.951 72.7588 236.213 72.5246 236.492C72.2904 236.771 72.006 237.005 71.6714 237.194C71.3368 237.384 70.9966 237.479 70.6509 237.479C70.3163 237.479 69.9985 237.395 69.6973 237.228C69.3962 237.061 69.1787 236.771 69.0449 236.358C69.0226 236.269 69.0114 236.118 69.0114 235.906V235.605L69.597 233.263C69.9873 231.69 70.1881 230.899 70.1992 230.887C70.1992 230.865 69.9148 230.854 69.346 230.854H68.4928Z" fill="#BC4D4D"/>
<path d="M75.1009 224.765L75.1678 224.748C75.2235 224.748 75.2793 224.748 75.3351 224.748H75.5358L76.0042 225.149C77.0526 226.097 77.8166 227.28 78.2961 228.696C78.7757 230.112 79.0155 231.585 79.0155 233.112C79.0155 233.871 78.9597 234.601 78.8482 235.304C78.7367 236.007 78.6084 236.603 78.4634 237.094C78.3184 237.585 78.1121 238.075 77.8444 238.566C77.5768 239.057 77.3649 239.431 77.2087 239.687C77.0526 239.944 76.824 240.228 76.5228 240.54C76.2217 240.852 76.0433 241.037 75.9875 241.092C75.9317 241.148 75.8035 241.254 75.6027 241.41C75.5693 241.444 75.547 241.466 75.5358 241.477H75.3351C75.2458 241.477 75.1845 241.477 75.151 241.477C75.1176 241.477 75.0897 241.46 75.0674 241.427C75.0451 241.393 75.0284 241.343 75.0172 241.276C75.0284 241.265 75.0897 241.193 75.2012 241.059C76.9299 239.263 77.7943 236.614 77.7943 233.112C77.7943 229.611 76.9299 226.962 75.2012 225.166C75.0897 225.032 75.0284 224.96 75.0172 224.949C75.0172 224.859 75.0451 224.798 75.1009 224.765Z" fill="#BC4D4D"/>
<path d="M81.9097 236.709C81.9097 236.709 81.9097 236.57 81.9097 236.291C81.9097 236.012 81.9989 235.772 82.1773 235.572C82.3558 235.371 82.5956 235.271 82.8967 235.271C83.209 235.271 83.4878 235.41 83.7331 235.689C83.9785 235.968 84.1068 236.458 84.1179 237.161C84.1179 237.551 84.0677 237.931 83.9674 238.299C83.867 238.667 83.7499 238.984 83.616 239.252C83.4822 239.52 83.3372 239.748 83.1811 239.938C83.0249 240.128 82.8911 240.278 82.7796 240.39C82.6681 240.501 82.5956 240.551 82.5621 240.54C82.5175 240.54 82.445 240.49 82.3446 240.39C82.2443 240.289 82.1941 240.217 82.1941 240.172C82.1941 240.128 82.2554 240.038 82.3781 239.905C82.5008 239.771 82.6402 239.603 82.7963 239.403C82.9525 239.202 83.0974 238.923 83.2313 238.566C83.3651 238.209 83.4543 237.802 83.4989 237.345V237.144L83.4822 237.161C83.4599 237.172 83.432 237.183 83.3986 237.194C83.3651 237.206 83.3316 237.222 83.2982 237.245C83.2647 237.267 83.2145 237.278 83.1476 237.278C83.0807 237.278 83.0138 237.284 82.9469 237.295C82.6458 237.295 82.4004 237.2 82.2108 237.01L81.9097 236.709Z" fill="#BC4D4D"/>
<path d="M105.207 230.854C105.129 230.776 105.089 230.72 105.089 230.687C105.089 230.642 105.106 230.553 105.14 230.419C105.173 230.285 105.201 230.207 105.223 230.185C105.246 230.129 105.296 230.101 105.374 230.101C105.452 230.101 105.736 230.096 106.227 230.084H107.114L107.432 228.746C107.465 228.623 107.504 228.462 107.549 228.261C107.593 228.06 107.632 227.915 107.666 227.826C107.699 227.737 107.733 227.625 107.766 227.491C107.8 227.358 107.844 227.263 107.9 227.207C107.956 227.151 108.012 227.084 108.067 227.006C108.123 226.928 108.201 226.878 108.301 226.856C108.402 226.833 108.502 226.822 108.603 226.822C108.803 226.833 108.943 226.895 109.021 227.006C109.099 227.118 109.138 227.224 109.138 227.324C109.138 227.402 109.088 227.664 108.987 228.11C108.887 228.557 108.775 228.997 108.653 229.432L108.485 230.051C108.485 230.073 108.764 230.084 109.322 230.084H110.175C110.253 230.163 110.292 230.224 110.292 230.268C110.292 230.514 110.22 230.709 110.075 230.854H108.285L107.682 233.28C107.248 235.064 107.03 236.023 107.03 236.157C107.03 236.626 107.181 236.86 107.482 236.86C107.872 236.86 108.251 236.67 108.619 236.291C108.987 235.912 109.283 235.443 109.506 234.886C109.528 234.819 109.556 234.78 109.59 234.769C109.623 234.757 109.707 234.746 109.841 234.735H109.907C110.075 234.735 110.158 234.78 110.158 234.869C110.158 234.902 110.142 234.969 110.108 235.07C110.052 235.248 109.952 235.46 109.807 235.705C109.662 235.951 109.473 236.213 109.238 236.492C109.004 236.771 108.72 237.005 108.385 237.194C108.051 237.384 107.71 237.479 107.365 237.479C107.03 237.479 106.712 237.395 106.411 237.228C106.11 237.061 105.892 236.771 105.759 236.358C105.736 236.269 105.725 236.118 105.725 235.906V235.605L106.311 233.263C106.701 231.69 106.902 230.899 106.913 230.887C106.913 230.865 106.629 230.854 106.06 230.854H105.207Z" fill="#BC4D4D"/>
<path d="M116.864 233.113C116.864 231.752 117.321 230.637 118.235 229.767C119.15 228.897 120.232 228.4 121.481 228.278C121.492 228.278 121.587 228.278 121.765 228.278C121.944 228.278 122.178 228.272 122.468 228.261C122.758 228.25 123.037 228.25 123.304 228.261H124.96C125.128 228.35 125.211 228.462 125.211 228.596C125.211 228.696 125.139 228.802 124.994 228.914L123.254 228.93C122.016 228.941 121.252 228.975 120.962 229.031C120.416 229.164 119.931 229.365 119.507 229.633C119.083 229.901 118.754 230.174 118.52 230.453C118.286 230.731 118.085 231.038 117.917 231.373C117.75 231.707 117.65 231.975 117.616 232.176C117.583 232.376 117.555 232.566 117.533 232.744V232.778H124.96C125.128 232.867 125.211 232.979 125.211 233.113C125.211 233.246 125.128 233.358 124.96 233.447H117.533V233.481C117.533 233.715 117.588 233.999 117.7 234.334C117.812 234.668 117.996 235.031 118.252 235.421C118.509 235.811 118.865 236.168 119.323 236.492C119.78 236.815 120.321 237.044 120.945 237.178C121.247 237.245 122.016 237.284 123.254 237.295H124.994C125.139 237.406 125.211 237.518 125.211 237.629C125.211 237.763 125.128 237.875 124.96 237.964H123.338C123.26 237.964 123.12 237.964 122.919 237.964C122.719 237.964 122.557 237.97 122.434 237.981C120.706 237.981 119.339 237.501 118.336 236.542C117.354 235.627 116.864 234.484 116.864 233.113Z" fill="#BC4D4D"/>
<path d="M133.238 241.477V224.748H135.53V225.417H133.907V240.808H135.53V241.477H133.238Z" fill="#BC4D4D"/>
<path d="M137.521 227.508C138.145 226.605 138.998 226.153 140.08 226.153C140.616 226.153 141.151 226.298 141.686 226.588C142.222 226.878 142.657 227.391 142.991 228.127C143.404 229.053 143.61 230.324 143.61 231.941C143.61 233.67 143.37 234.992 142.891 235.906C142.668 236.375 142.361 236.748 141.971 237.027C141.58 237.306 141.24 237.479 140.95 237.546C140.66 237.613 140.376 237.652 140.097 237.663C139.807 237.663 139.517 237.629 139.227 237.562C138.937 237.496 138.597 237.317 138.207 237.027C137.816 236.737 137.51 236.364 137.286 235.906C136.807 234.992 136.567 233.67 136.567 231.941C136.567 230.001 136.885 228.523 137.521 227.508ZM141.285 227.307C140.95 226.951 140.554 226.772 140.097 226.772C139.629 226.772 139.227 226.951 138.892 227.307C138.614 227.597 138.43 227.999 138.34 228.512C138.251 229.025 138.207 230.096 138.207 231.724C138.207 233.486 138.251 234.646 138.34 235.204C138.43 235.761 138.63 236.202 138.943 236.525C139.255 236.86 139.64 237.027 140.097 237.027C140.543 237.027 140.922 236.86 141.235 236.525C141.558 236.191 141.759 235.722 141.837 235.12C141.915 234.518 141.96 233.386 141.971 231.724C141.971 230.107 141.926 229.042 141.837 228.529C141.748 228.016 141.564 227.609 141.285 227.307Z" fill="#BC4D4D"/>
<path d="M145.584 236.709C145.584 236.709 145.584 236.57 145.584 236.291C145.584 236.012 145.673 235.772 145.852 235.572C146.03 235.371 146.27 235.271 146.571 235.271C146.883 235.271 147.162 235.41 147.408 235.689C147.653 235.968 147.781 236.458 147.792 237.161C147.792 237.551 147.742 237.931 147.642 238.299C147.541 238.667 147.424 238.984 147.29 239.252C147.157 239.52 147.012 239.748 146.856 239.938C146.699 240.128 146.566 240.278 146.454 240.39C146.342 240.501 146.27 240.551 146.237 240.54C146.192 240.54 146.119 240.49 146.019 240.39C145.919 240.289 145.869 240.217 145.869 240.172C145.869 240.128 145.93 240.038 146.053 239.905C146.175 239.771 146.315 239.603 146.471 239.403C146.627 239.202 146.772 238.923 146.906 238.566C147.04 238.209 147.129 237.802 147.173 237.345V237.144L147.157 237.161C147.134 237.172 147.106 237.183 147.073 237.194C147.04 237.206 147.006 237.222 146.973 237.245C146.939 237.267 146.889 237.278 146.822 237.278C146.755 237.278 146.688 237.284 146.621 237.295C146.32 237.295 146.075 237.2 145.885 237.01L145.584 236.709Z" fill="#BC4D4D"/>
<path d="M155.28 227.625L155.063 227.709C154.907 227.765 154.684 227.821 154.394 227.876C154.104 227.932 153.78 227.971 153.423 227.993H153.105V227.224H153.423C153.948 227.202 154.433 227.118 154.879 226.973C155.325 226.828 155.637 226.694 155.816 226.571C155.994 226.449 156.15 226.326 156.284 226.203C156.306 226.17 156.373 226.153 156.485 226.153C156.585 226.153 156.68 226.187 156.769 226.254V231.256L156.786 236.274C156.864 236.352 156.931 236.403 156.987 236.425C157.042 236.447 157.176 236.469 157.388 236.492C157.6 236.514 157.946 236.525 158.425 236.525H158.86V237.295H158.676C158.442 237.261 157.555 237.245 156.016 237.245C154.5 237.245 153.624 237.261 153.39 237.295H153.189V236.525H153.624C153.869 236.525 154.081 236.525 154.26 236.525C154.438 236.525 154.578 236.52 154.678 236.509C154.778 236.497 154.868 236.481 154.946 236.458C155.024 236.436 155.068 236.425 155.08 236.425C155.091 236.425 155.124 236.397 155.18 236.341C155.236 236.285 155.269 236.263 155.28 236.274V227.625Z" fill="#BC4D4D"/>
<path d="M161.085 224.765L161.152 224.748C161.208 224.748 161.264 224.748 161.32 224.748H161.52L161.989 225.149C163.037 226.097 163.801 227.28 164.281 228.696C164.76 230.112 165 231.585 165 233.112C165 233.871 164.944 234.601 164.833 235.304C164.721 236.007 164.593 236.603 164.448 237.094C164.303 237.585 164.097 238.075 163.829 238.566C163.561 239.057 163.349 239.431 163.193 239.687C163.037 239.944 162.808 240.228 162.507 240.54C162.206 240.852 162.028 241.037 161.972 241.092C161.916 241.148 161.788 241.254 161.587 241.41C161.554 241.444 161.531 241.466 161.52 241.477H161.32C161.23 241.477 161.169 241.477 161.136 241.477C161.102 241.477 161.074 241.46 161.052 241.427C161.03 241.393 161.013 241.343 161.002 241.276C161.013 241.265 161.074 241.193 161.186 241.059C162.914 239.263 163.779 236.614 163.779 233.112C163.779 229.611 162.914 226.962 161.186 225.166C161.074 225.032 161.013 224.96 161.002 224.949C161.002 224.859 161.03 224.798 161.085 224.765Z" fill="#BC4D4D"/>
<path d="M304.8 189L308.841 182H300.759L304.8 189ZM304.8 -6.10352e-05L300.759 6.99974H308.841L304.8 -6.10352e-05ZM305.5 182.7V6.29976H304.1V182.7H305.5Z" fill="#BC4D4D"/>
<path d="M211 93.8001L218 97.8414V89.7587L211 93.8001ZM400 93.8001L393 89.7587V97.8414L400 93.8001ZM217.3 94.5001H393.7V93.1001H217.3V94.5001Z" fill="#BC4D4D"/>
<path d="M253.958 27.3846C254.985 26.1236 257.07 25.5245 259.955 25.4277C262.803 25.3321 266.265 25.7294 269.855 26.2873C271.646 26.5658 273.462 26.883 275.242 27.1966C275.389 27.2226 275.536 27.2485 275.683 27.2745C277.308 27.5609 278.899 27.8413 280.401 28.0815C283.66 28.6024 286.573 28.9464 288.566 28.7316C292.649 28.2918 294.558 25.4872 295.88 23.521L295.92 23.4612C296.238 22.9876 296.514 22.5775 296.782 22.2452C297.064 21.8952 297.3 21.6813 297.511 21.5767C297.694 21.4864 297.875 21.4678 298.117 21.5644C298.386 21.6721 298.742 21.9299 299.206 22.4465C299.628 22.916 300.034 23.6911 300.43 24.7495C300.821 25.7981 301.186 27.0802 301.543 28.5276C301.957 30.2026 302.352 32.0637 302.768 34.0147C303.074 35.4538 303.39 36.9417 303.732 38.4401C304.531 41.9431 305.459 45.4627 306.687 48.3544C307.907 51.226 309.465 53.5865 311.589 54.6296C313.729 55.681 316.373 55.3259 319.184 54.384C321.839 53.4942 324.761 52.0382 327.731 50.5581C327.921 50.4634 328.112 50.3686 328.302 50.2738C331.486 48.6892 334.718 47.1115 337.811 46.1375C340.907 45.1624 343.795 44.8156 346.308 45.6198C351.499 47.2811 357.919 52.2825 363.461 58.0618C369.002 63.839 373.564 70.2868 375.106 74.7512C375.84 76.8761 375.495 78.8752 374.551 80.8649C373.598 82.8725 372.056 84.8285 370.438 86.8479C370.379 86.9214 370.32 86.995 370.261 87.0688C368.714 88.9983 367.121 90.9864 366.037 93.0654C364.906 95.2368 364.305 97.5551 364.9 100.067C365.489 102.553 367.375 105.238 369.768 107.958C371.881 110.359 374.441 112.842 376.971 115.296C377.32 115.634 377.668 115.972 378.014 116.308C380.883 119.099 383.626 121.83 385.594 124.377C387.582 126.95 388.682 129.214 388.475 131.091C388.263 133.014 387.139 134.781 385.313 136.458C383.486 138.134 380.999 139.68 378.15 141.161C375.304 142.639 372.125 144.039 368.927 145.432C368.699 145.531 368.471 145.63 368.243 145.73C365.277 147.02 362.314 148.31 359.631 149.647C356.846 151.035 353.793 152.829 350.611 154.699L350.235 154.92C346.909 156.874 343.442 158.9 339.956 160.653C332.955 164.173 326.004 166.519 320.081 165.06C317.174 164.344 314.644 162.293 312.216 159.449C310.043 156.905 307.996 153.779 305.854 150.508C305.601 150.123 305.348 149.735 305.092 149.346C300.282 142.025 294.88 134.231 286.63 131.545C282.5 130.2 276.964 130.152 270.915 130.686C265.207 131.191 258.981 132.221 252.953 133.219C252.579 133.281 252.206 133.342 251.834 133.404C245.448 134.459 239.346 135.436 234.331 135.682C231.824 135.806 229.611 135.745 227.783 135.428C225.949 135.11 224.552 134.543 223.626 133.693C221.759 131.978 221.203 129.04 221.642 125.229C222.079 121.44 223.485 116.931 225.354 112.254C228.398 104.634 232.63 96.6588 235.765 90.7482C236.479 89.4033 237.136 88.1652 237.709 87.0626C240.683 81.3427 245.55 77.9358 250.147 74.7177L250.346 74.5783C254.954 71.3518 259.337 68.2425 260.751 63.0584C261.466 60.4374 261.064 57.2062 260.191 53.8105C259.345 50.5183 258.033 46.9943 256.774 43.6112C256.73 43.4928 256.686 43.3746 256.642 43.2566C255.338 39.7492 254.113 36.417 253.502 33.6043C253.197 32.1997 253.052 30.9509 253.118 29.8922C253.183 28.8353 253.457 28.001 253.958 27.3846Z" fill="#F5F99E" stroke="#BC4D4D"/>
<path d="M227 211.03C227.012 210.995 227.023 210.949 227.035 210.891C227.046 210.833 227.075 210.706 227.121 210.509C227.168 210.313 227.225 210.134 227.295 209.972C227.364 209.81 227.451 209.619 227.555 209.4C227.659 209.18 227.775 209.006 227.902 208.879C228.029 208.752 228.179 208.625 228.353 208.498C228.526 208.371 228.717 208.318 228.925 208.342C229.26 208.342 229.555 208.411 229.81 208.55C230.064 208.688 230.243 208.816 230.347 208.931C230.451 209.047 230.515 209.162 230.538 209.278C230.561 209.347 230.578 209.382 230.59 209.382C230.602 209.382 230.648 209.342 230.729 209.261C231.284 208.66 231.925 208.359 232.654 208.359H232.706C233.261 208.359 233.677 208.596 233.954 209.07C234.047 209.29 234.093 209.504 234.093 209.712C234.093 210.059 234.018 210.336 233.868 210.544C233.717 210.752 233.567 210.885 233.417 210.943C233.267 211.001 233.122 211.024 232.983 211.012C232.752 211.012 232.567 210.949 232.428 210.822C232.29 210.694 232.22 210.527 232.22 210.319C232.22 209.764 232.544 209.394 233.191 209.209C232.937 209.058 232.729 208.983 232.567 208.983C231.92 208.983 231.324 209.411 230.781 210.267C230.665 210.452 230.578 210.642 230.521 210.839C230.463 211.036 230.266 211.804 229.931 213.146C229.538 214.764 229.312 215.626 229.255 215.73C229.104 216.042 228.856 216.198 228.509 216.198C228.359 216.198 228.237 216.163 228.145 216.094C228.052 216.024 227.989 215.955 227.954 215.886C227.919 215.816 227.908 215.759 227.919 215.712C227.919 215.562 228.15 214.568 228.613 212.729C229.075 210.891 229.307 209.868 229.307 209.66C229.307 209.209 229.156 208.983 228.856 208.983C228.613 208.983 228.405 209.145 228.231 209.469C228.058 209.793 227.919 210.145 227.815 210.527C227.711 210.908 227.647 211.116 227.624 211.151C227.601 211.174 227.509 211.186 227.347 211.186H227.104C227.035 211.116 227 211.064 227 211.03Z" fill="#BC4D4D"/>
<path d="M240.246 209.989C240.246 209.839 240.327 209.723 240.489 209.642H251.537C251.71 209.735 251.797 209.85 251.797 209.989C251.797 210.116 251.716 210.226 251.554 210.319L246.039 210.336H240.524C240.339 210.278 240.246 210.163 240.246 209.989ZM240.246 213.354C240.246 213.18 240.339 213.065 240.524 213.007H251.554C251.716 213.122 251.797 213.238 251.797 213.354C251.797 213.504 251.71 213.62 251.537 213.701H240.489C240.327 213.62 240.246 213.504 240.246 213.354Z" fill="#BC4D4D"/>
<path d="M259.632 218.817C259.655 218.817 259.69 218.828 259.736 218.851C259.782 218.875 259.846 218.892 259.927 218.903C260.008 218.915 260.077 218.921 260.135 218.921C260.285 218.921 260.424 218.846 260.551 218.695C260.678 218.545 260.771 218.377 260.829 218.192C260.944 217.88 261.141 216.996 261.418 215.539C261.696 214.082 261.962 212.695 262.216 211.377C262.47 210.059 262.598 209.394 262.598 209.382V209.33H261.783C261.239 209.33 260.95 209.319 260.915 209.296C260.869 209.261 260.846 209.203 260.846 209.122L260.967 208.636C260.991 208.579 261.037 208.55 261.106 208.55C261.176 208.55 261.447 208.544 261.921 208.532C262.476 208.532 262.754 208.527 262.754 208.515C262.754 208.492 262.806 208.203 262.91 207.648C263.014 207.093 263.083 206.758 263.118 206.642C263.546 204.734 264.39 203.781 265.65 203.781C266.078 203.804 266.43 203.931 266.708 204.162C266.985 204.393 267.124 204.7 267.124 205.081C267.124 205.497 267.003 205.798 266.76 205.983C266.517 206.168 266.274 206.266 266.032 206.278C265.523 206.278 265.268 206.035 265.268 205.549C265.268 205.33 265.332 205.139 265.459 204.977C265.586 204.815 265.725 204.694 265.875 204.613L266.032 204.526C265.847 204.457 265.673 204.422 265.511 204.422C265.372 204.422 265.24 204.48 265.112 204.596C264.985 204.711 264.898 204.873 264.852 205.081C264.771 205.417 264.679 205.867 264.575 206.434C264.471 207 264.378 207.48 264.297 207.873C264.216 208.267 264.176 208.475 264.176 208.498C264.176 208.521 264.494 208.532 265.13 208.532C265.65 208.532 265.951 208.538 266.032 208.55C266.112 208.561 266.176 208.596 266.222 208.654C266.234 208.7 266.222 208.798 266.188 208.949C266.153 209.099 266.124 209.191 266.101 209.226C266.078 209.284 266.026 209.313 265.945 209.313C265.864 209.313 265.552 209.319 265.008 209.33H264.037L263.638 211.446C263.083 214.313 262.696 216.105 262.476 216.822C262.164 217.805 261.759 218.533 261.262 219.007C260.834 219.377 260.412 219.562 259.996 219.562C259.626 219.562 259.291 219.453 258.99 219.233C258.69 219.013 258.539 218.701 258.539 218.296C258.539 217.869 258.661 217.556 258.904 217.36C259.146 217.163 259.389 217.065 259.632 217.065C260.141 217.065 260.395 217.308 260.395 217.793C260.395 218.013 260.332 218.204 260.204 218.366C260.077 218.528 259.938 218.649 259.788 218.73L259.632 218.817Z" fill="#BC4D4D"/>
<path d="M268.754 211.671C268.754 210.874 268.812 210.116 268.928 209.399C269.043 208.683 269.176 208.064 269.327 207.544C269.477 207.024 269.691 206.515 269.968 206.018C270.246 205.52 270.466 205.133 270.627 204.856C270.789 204.578 271.032 204.278 271.356 203.954C271.68 203.63 271.87 203.434 271.928 203.364C271.986 203.295 272.13 203.173 272.362 203H272.587H272.657C272.818 203 272.899 203.052 272.899 203.156C272.899 203.191 272.801 203.312 272.604 203.52C272.408 203.728 272.171 204.035 271.893 204.439C271.616 204.844 271.333 205.341 271.044 205.931C270.755 206.521 270.512 207.318 270.315 208.324C270.119 209.33 270.02 210.446 270.02 211.671C270.02 212.897 270.119 214.007 270.315 215.001C270.512 215.996 270.749 216.799 271.026 217.412C271.304 218.025 271.587 218.522 271.876 218.903C272.165 219.285 272.408 219.591 272.604 219.822C272.801 220.054 272.899 220.175 272.899 220.187C272.899 220.291 272.813 220.343 272.639 220.343H272.587H272.362L271.876 219.927C270.789 218.944 269.997 217.718 269.5 216.25C269.003 214.782 268.754 213.255 268.754 211.671Z" fill="#BC4D4D"/>
<path d="M274.478 212.539C274.478 211.359 274.703 210.116 275.154 208.81C275.605 207.503 276.218 206.376 276.992 205.428C277.767 204.48 278.57 203.937 279.403 203.798C279.414 203.798 279.461 203.798 279.542 203.798C279.623 203.798 279.692 203.792 279.75 203.78C280.374 203.827 280.86 204.11 281.207 204.63C281.657 205.324 281.883 206.255 281.883 207.422C281.883 208.752 281.623 210.105 281.102 211.481C280.582 212.857 279.917 213.984 279.108 214.862C278.299 215.741 277.524 216.181 276.784 216.181H276.663C276.247 216.181 275.888 216.065 275.587 215.834C275.287 215.602 275.061 215.296 274.911 214.915C274.761 214.533 274.651 214.146 274.582 213.753C274.512 213.359 274.478 212.955 274.478 212.539ZM280.513 206.191C280.513 205.012 280.206 204.422 279.594 204.422C279.177 204.422 278.773 204.682 278.38 205.203C277.987 205.723 277.663 206.312 277.408 206.972C277.154 207.631 276.958 208.209 276.819 208.706C276.68 209.203 276.605 209.492 276.593 209.573C277.16 209.585 277.721 209.59 278.276 209.59L279.958 209.573C279.969 209.561 280.016 209.371 280.097 209.001C280.178 208.631 280.27 208.168 280.374 207.613C280.478 207.058 280.524 206.584 280.513 206.191ZM275.83 213.718C275.83 214.943 276.137 215.556 276.749 215.556C276.923 215.556 277.108 215.498 277.304 215.383C277.501 215.267 277.738 215.047 278.015 214.724C278.293 214.4 278.57 213.897 278.848 213.215C279.125 212.533 279.403 211.689 279.68 210.683L279.767 210.388H276.385C276.385 210.423 276.333 210.642 276.229 211.047C276.125 211.452 276.033 211.903 275.952 212.4C275.871 212.897 275.83 213.336 275.83 213.718Z" fill="#BC4D4D"/>
<path d="M283.045 203.017L283.114 203C283.172 203 283.23 203 283.288 203H283.496L283.981 203.416C285.068 204.399 285.86 205.625 286.357 207.093C286.854 208.561 287.103 210.087 287.103 211.671C287.103 212.458 287.045 213.215 286.93 213.943C286.814 214.672 286.681 215.29 286.531 215.799C286.38 216.308 286.167 216.816 285.889 217.325C285.612 217.834 285.392 218.221 285.23 218.487C285.068 218.753 284.831 219.048 284.519 219.372C284.207 219.695 284.022 219.886 283.964 219.944C283.906 220.002 283.773 220.112 283.565 220.273C283.53 220.308 283.507 220.331 283.496 220.343H283.288C283.195 220.343 283.132 220.343 283.097 220.343C283.062 220.343 283.033 220.325 283.01 220.291C282.987 220.256 282.97 220.204 282.958 220.135C282.97 220.123 283.033 220.048 283.149 219.909C284.941 218.048 285.837 215.302 285.837 211.671C285.837 208.041 284.941 205.295 283.149 203.434C283.033 203.295 282.97 203.22 282.958 203.208C282.958 203.116 282.987 203.052 283.045 203.017Z" fill="#BC4D4D"/>
<path d="M290.103 215.4C290.103 215.4 290.103 215.256 290.103 214.967C290.103 214.678 290.196 214.429 290.381 214.221C290.566 214.013 290.814 213.909 291.127 213.909C291.45 213.909 291.739 214.053 291.994 214.342C292.248 214.631 292.381 215.14 292.393 215.868C292.393 216.273 292.341 216.666 292.237 217.048C292.132 217.429 292.011 217.759 291.872 218.036C291.734 218.314 291.583 218.551 291.421 218.747C291.26 218.944 291.121 219.1 291.005 219.216C290.89 219.331 290.814 219.383 290.78 219.372C290.734 219.372 290.658 219.32 290.554 219.216C290.45 219.112 290.398 219.036 290.398 218.99C290.398 218.944 290.462 218.851 290.589 218.713C290.716 218.574 290.861 218.401 291.023 218.192C291.184 217.984 291.335 217.695 291.473 217.325C291.612 216.955 291.705 216.533 291.751 216.059V215.851L291.734 215.868C291.71 215.88 291.682 215.892 291.647 215.903C291.612 215.915 291.578 215.932 291.543 215.955C291.508 215.978 291.456 215.99 291.387 215.99C291.317 215.99 291.248 215.996 291.179 216.007C290.866 216.007 290.612 215.909 290.416 215.712L290.103 215.4Z" fill="#BC4D4D"/>
<path d="M314.411 212.539C314.411 211.359 314.637 210.116 315.088 208.81C315.538 207.503 316.151 206.376 316.926 205.428C317.7 204.48 318.504 203.937 319.336 203.798C319.348 203.798 319.394 203.798 319.475 203.798C319.556 203.798 319.626 203.792 319.683 203.78C320.308 203.827 320.793 204.11 321.14 204.63C321.591 205.324 321.817 206.255 321.817 207.422C321.817 208.752 321.556 210.105 321.036 211.481C320.516 212.857 319.851 213.984 319.042 214.862C318.232 215.741 317.458 216.181 316.718 216.181H316.596C316.18 216.181 315.822 216.065 315.521 215.834C315.22 215.602 314.995 215.296 314.845 214.915C314.694 214.533 314.585 214.146 314.515 213.753C314.446 213.359 314.411 212.955 314.411 212.539ZM320.446 206.191C320.446 205.012 320.14 204.422 319.527 204.422C319.111 204.422 318.706 204.682 318.313 205.203C317.92 205.723 317.596 206.312 317.342 206.972C317.088 207.631 316.891 208.209 316.752 208.706C316.614 209.203 316.539 209.492 316.527 209.573C317.093 209.585 317.654 209.59 318.209 209.59L319.891 209.573C319.903 209.561 319.949 209.371 320.03 209.001C320.111 208.631 320.204 208.168 320.308 207.613C320.412 207.058 320.458 206.584 320.446 206.191ZM315.764 213.718C315.764 214.943 316.07 215.556 316.683 215.556C316.856 215.556 317.041 215.498 317.238 215.383C317.435 215.267 317.672 215.047 317.949 214.724C318.227 214.4 318.504 213.897 318.782 213.215C319.059 212.533 319.336 211.689 319.614 210.683L319.701 210.388H316.319C316.319 210.423 316.267 210.642 316.163 211.047C316.059 211.452 315.966 211.903 315.885 212.4C315.804 212.897 315.764 213.336 315.764 213.718Z" fill="#BC4D4D"/>
<path d="M328.212 211.671C328.212 210.261 328.686 209.105 329.634 208.203C330.582 207.301 331.704 206.787 332.999 206.659C333.01 206.659 333.109 206.659 333.294 206.659C333.479 206.659 333.722 206.654 334.022 206.642C334.323 206.63 334.612 206.63 334.889 206.642H336.606C336.78 206.735 336.866 206.85 336.866 206.989C336.866 207.093 336.791 207.203 336.641 207.318L334.837 207.336C333.554 207.347 332.762 207.382 332.461 207.44C331.895 207.579 331.392 207.787 330.952 208.064C330.513 208.342 330.172 208.625 329.929 208.914C329.686 209.203 329.478 209.521 329.305 209.868C329.131 210.215 329.027 210.492 328.993 210.7C328.958 210.908 328.929 211.105 328.906 211.29V211.325H336.606C336.78 211.417 336.866 211.533 336.866 211.671C336.866 211.81 336.78 211.926 336.606 212.018H328.906V212.053C328.906 212.296 328.964 212.591 329.079 212.937C329.195 213.284 329.386 213.66 329.652 214.065C329.918 214.469 330.288 214.839 330.762 215.175C331.236 215.51 331.796 215.747 332.444 215.886C332.756 215.955 333.554 215.996 334.837 216.007H336.641C336.791 216.123 336.866 216.238 336.866 216.354C336.866 216.493 336.78 216.608 336.606 216.701H334.924C334.843 216.701 334.698 216.701 334.49 216.701C334.282 216.701 334.115 216.707 333.987 216.718C332.195 216.718 330.779 216.221 329.738 215.227C328.721 214.279 328.212 213.094 328.212 211.671Z" fill="#BC4D4D"/>
<path d="M345.188 220.343V203H347.564V203.694H345.881V219.649H347.564V220.343H345.188Z" fill="#BC4D4D"/>
<path d="M349.628 205.862C350.275 204.925 351.16 204.457 352.281 204.457C352.836 204.457 353.391 204.607 353.946 204.908C354.501 205.208 354.952 205.74 355.299 206.503C355.726 207.463 355.94 208.781 355.94 210.458C355.94 212.25 355.692 213.62 355.195 214.568C354.963 215.053 354.645 215.441 354.241 215.73C353.836 216.019 353.483 216.198 353.183 216.267C352.882 216.337 352.587 216.377 352.298 216.389C351.998 216.389 351.697 216.354 351.397 216.285C351.096 216.215 350.743 216.03 350.339 215.73C349.934 215.429 349.616 215.042 349.385 214.568C348.888 213.62 348.639 212.25 348.639 210.458C348.639 208.446 348.969 206.914 349.628 205.862ZM353.53 205.654C353.183 205.284 352.772 205.099 352.298 205.099C351.813 205.099 351.397 205.284 351.05 205.654C350.761 205.954 350.57 206.37 350.477 206.902C350.385 207.434 350.339 208.544 350.339 210.232C350.339 212.059 350.385 213.261 350.477 213.839C350.57 214.417 350.778 214.874 351.102 215.209C351.425 215.556 351.824 215.73 352.298 215.73C352.761 215.73 353.154 215.556 353.478 215.209C353.813 214.863 354.021 214.377 354.102 213.753C354.183 213.128 354.229 211.955 354.241 210.232C354.241 208.556 354.195 207.451 354.102 206.92C354.01 206.388 353.819 205.966 353.53 205.654Z" fill="#BC4D4D"/>
<path d="M357.986 215.4C357.986 215.4 357.986 215.256 357.986 214.967C357.986 214.678 358.079 214.429 358.264 214.221C358.449 214.013 358.698 213.909 359.01 213.909C359.333 213.909 359.622 214.053 359.877 214.342C360.131 214.631 360.264 215.14 360.276 215.868C360.276 216.273 360.224 216.666 360.12 217.048C360.016 217.429 359.894 217.759 359.755 218.036C359.617 218.314 359.466 218.551 359.305 218.747C359.143 218.944 359.004 219.1 358.888 219.216C358.773 219.331 358.698 219.383 358.663 219.372C358.617 219.372 358.541 219.32 358.437 219.216C358.333 219.112 358.281 219.036 358.281 218.99C358.281 218.944 358.345 218.851 358.472 218.713C358.599 218.574 358.744 218.401 358.906 218.192C359.067 217.984 359.218 217.695 359.357 217.325C359.495 216.955 359.588 216.533 359.634 216.059V215.851L359.617 215.868C359.594 215.88 359.565 215.892 359.53 215.903C359.495 215.915 359.461 215.932 359.426 215.955C359.391 215.978 359.339 215.99 359.27 215.99C359.2 215.99 359.131 215.996 359.062 216.007C358.75 216.007 358.495 215.909 358.299 215.712L357.986 215.4Z" fill="#BC4D4D"/>
<path d="M366.235 208.567C365.923 208.567 365.674 208.463 365.489 208.255C365.304 208.047 365.212 207.792 365.212 207.492C365.212 206.671 365.518 205.96 366.131 205.359C366.744 204.757 367.507 204.457 368.42 204.457C369.472 204.457 370.351 204.781 371.056 205.428C371.761 206.076 372.12 206.914 372.131 207.943C372.131 208.44 372.016 208.914 371.785 209.365C371.553 209.816 371.276 210.209 370.952 210.544C370.628 210.879 370.166 211.307 369.565 211.828C369.148 212.186 368.57 212.718 367.83 213.423L366.807 214.394L368.125 214.412C369.94 214.412 370.906 214.383 371.022 214.325C371.102 214.302 371.241 213.787 371.438 212.781V212.729H372.131V212.781C372.12 212.816 372.045 213.342 371.906 214.36C371.767 215.377 371.681 215.909 371.646 215.955V216.007H365.212V215.678V215.47C365.212 215.389 365.246 215.302 365.316 215.209C365.385 215.117 365.559 214.915 365.836 214.602C366.171 214.232 366.46 213.909 366.703 213.631C366.807 213.516 367.004 213.302 367.293 212.989C367.582 212.677 367.778 212.463 367.882 212.348C367.987 212.232 368.154 212.041 368.385 211.776C368.617 211.51 368.779 211.313 368.871 211.186C368.963 211.059 369.096 210.885 369.27 210.666C369.443 210.446 369.565 210.261 369.634 210.111C369.703 209.96 369.79 209.793 369.894 209.608C369.998 209.423 370.073 209.238 370.12 209.053C370.166 208.868 370.206 208.694 370.241 208.532C370.276 208.371 370.293 208.18 370.293 207.96C370.293 207.232 370.097 206.602 369.703 206.07C369.31 205.538 368.75 205.272 368.021 205.272C367.64 205.272 367.304 205.37 367.015 205.567C366.726 205.763 366.524 205.954 366.408 206.139C366.293 206.324 366.235 206.434 366.235 206.469C366.235 206.48 366.264 206.486 366.322 206.486C366.53 206.486 366.744 206.567 366.963 206.729C367.183 206.891 367.293 207.157 367.293 207.527C367.293 207.816 367.2 208.058 367.015 208.255C366.83 208.451 366.57 208.556 366.235 208.567Z" fill="#BC4D4D"/>
<path d="M375.305 216.198C374.912 216.198 374.715 216.007 374.715 215.626V215.435L374.941 214.949C375.808 213.122 376.438 211.544 376.831 210.215L376.97 209.798H376.415C375.976 209.798 375.663 209.816 375.478 209.85C375.293 209.885 375.068 209.995 374.802 210.18C374.675 210.261 374.548 210.365 374.42 210.492C374.293 210.619 374.183 210.741 374.091 210.856C373.998 210.972 373.946 211.041 373.935 211.064C373.912 211.076 373.825 211.082 373.675 211.082C373.455 211.082 373.345 211.024 373.345 210.908C373.345 210.839 373.455 210.637 373.675 210.301C373.894 209.966 374.212 209.608 374.629 209.226C375.045 208.845 375.455 208.625 375.86 208.567C375.941 208.544 377.242 208.532 379.762 208.532C381.612 208.532 382.56 208.538 382.606 208.55C382.837 208.631 382.953 208.793 382.953 209.035C382.953 209.394 382.768 209.637 382.398 209.764C382.329 209.787 381.93 209.798 381.201 209.798H380.092L380.04 210.093C379.901 210.926 379.831 211.614 379.831 212.157C379.831 212.758 379.883 213.296 379.988 213.77C380.092 214.244 380.201 214.614 380.317 214.88C380.433 215.146 380.49 215.308 380.49 215.365C380.49 215.562 380.41 215.747 380.248 215.92C380.086 216.094 379.878 216.181 379.623 216.181C379.496 216.181 379.392 216.163 379.311 216.129C379.23 216.094 379.138 215.955 379.034 215.712C378.93 215.469 378.837 215.123 378.756 214.672C378.745 214.568 378.739 214.313 378.739 213.909C378.739 213.342 378.791 212.735 378.895 212.088C378.999 211.44 379.103 210.908 379.207 210.492C379.311 210.076 379.369 209.845 379.381 209.798H377.681L377.664 209.868C377.664 209.902 377.554 210.359 377.334 211.238C377.114 212.117 376.866 213.047 376.588 214.03C376.311 215.013 376.132 215.574 376.051 215.712C375.924 216.036 375.675 216.198 375.305 216.198Z" fill="#BC4D4D"/>
<path d="M383.942 203.017L384.011 203C384.069 203 384.127 203 384.185 203H384.393L384.878 203.416C385.965 204.399 386.757 205.625 387.254 207.093C387.752 208.561 388 210.087 388 211.671C388 212.458 387.942 213.215 387.827 213.943C387.711 214.672 387.578 215.29 387.428 215.799C387.278 216.308 387.064 216.816 386.786 217.325C386.509 217.834 386.289 218.221 386.127 218.487C385.965 218.753 385.728 219.048 385.416 219.372C385.104 219.695 384.919 219.886 384.861 219.944C384.803 220.002 384.67 220.112 384.462 220.273C384.428 220.308 384.404 220.331 384.393 220.343H384.185C384.092 220.343 384.029 220.343 383.994 220.343C383.959 220.343 383.93 220.325 383.907 220.291C383.884 220.256 383.867 220.204 383.855 220.135C383.867 220.123 383.93 220.048 384.046 219.909C385.838 218.048 386.734 215.302 386.734 211.671C386.734 208.041 385.838 205.295 384.046 203.434C383.93 203.295 383.867 203.22 383.855 203.208C383.855 203.116 383.884 203.052 383.942 203.017Z" fill="#BC4D4D"/>
</svg>
